<svg width="262" height="114" fill="none" xmlns="http://www.w3.org/2000/svg"><path d="M254 2.404c0 1.142-.643 1.712-1.925 1.712h-.873c-1.282-.181-2.901-.274-4.847-.274-9.532 0-21.032 4.729-34.496 14.178-7.666 5.389-14.085 10.918-19.264 16.576-5.346 5.8-14.358 17.195-27.038 34.183-15.329 20.504-27.301 34.252-35.922 41.238-2.858 2.331-4.519 3.494-4.975 3.494-.226 0-.358-.092-.404-.274 0-.044.6-.73 1.805-2.056 5.269-5.893 10.7-17.362 16.3-34.405 5.018-15.216 8.992-26.315 11.914-33.304 2.921-6.99 6.048-12.815 9.361-17.477.788-1.097 1.18-1.712 1.18-1.849-.29-.093-.6.093-.928.549l-.622.685-1.555 2.124c-2.696 3.702-9.017 12.77-18.962 27.208-15.708 23.439-29.487 40.296-41.34 50.576-6.38 5.485-10.086 8.227-11.12 8.227-.227-.092-.359-.226-.405-.411 0-.137.268-.456.809-.96 8.122-8.171 15.904-20.449 23.345-36.82 7.436-16.373 11.159-29.443 11.159-39.22 0-6.666-1.47-11.95-4.413-15.856-2.943-3.906-6.964-5.856-12.062-5.856-10.737 0-21.398 6.597-31.987 19.79-10.592 13.192-15.882 26.5-15.882 39.926 0 5.57 1.38 10.065 4.135 13.489 2.756 3.424 6.35 5.136 10.789 5.136 9.362 0 18.234-7.052 26.603-21.16 5.431-9.176 8.144-17.35 8.144-24.518 0-3.38-.754-6.096-2.27-8.149-1.512-2.056-3.514-3.083-6.002-3.083-1.49 0-2.943.4-4.348 1.2-1.41.801-2.113 1.61-2.113 2.432 0 .274.124.411.37.411.124 0 .333-.044.623-.137 1.034-.182 1.716-.274 2.052-.274 1.866 0 2.799 1.163 2.799 3.494 0 1.416-.499 2.635-1.491 3.662-.997 1.026-2.16 1.541-3.48 1.541-2.568 0-3.854-1.53-3.854-4.591 0-2.42.954-4.529 2.858-6.333 1.908-1.805 4.101-2.706 6.589-2.706 2.862 0 5.149 1.142 6.87 3.425 1.716 2.282 2.577 5.317 2.577 9.108 0 8.583-3.565 18.259-10.695 29.035-7.914 11.87-16.368 17.807-25.364 17.807-5.222 0-9.52-2.205-12.901-6.619-3.378-4.41-5.064-9.976-5.064-16.698 0-6.296 1.52-12.867 4.57-19.711 3.045-6.841 7.223-13.07 12.526-18.681 11.892-12.73 23.31-19.096 34.253-19.096 6.423 0 11.819 2.783 16.193 8.345 4.37 5.563 6.56 12.4 6.56 20.52 0 8.73-3.276 19.321-9.822 31.776-6.551 12.452-14.486 23.158-23.81 32.115-.91.912-1.367 1.415-1.367 1.508.039.182.124.271.248.271 1.286 0 5.409-3.973 12.377-11.922 9.868-11.284 23.2-29.102 39.99-53.456 4.808-6.99 9.536-13.248 14.179-18.781 4.642-5.525 7.504-8.294 8.582-8.294.251 0 .375.152.375.445 0 .137-.124.367-.375.686-2.611 3.835-4.728 7.741-6.346 11.714-1.823 4.52-4.583 13.018-8.276 25.485-4.063 13.61-7.756 23.98-11.074 31.102-3.484 7.353-7.862 14-13.127 19.937a5.626 5.626 0 0 1-.247.478c.043.138.124.23.247.275.703 0 3.667-2.991 8.889-8.976 3.646-4.154 13.843-17.398 30.586-39.73 8.663-11.554 16.415-20.674 23.251-27.367 6.836-6.689 14.524-12.663 23.063-17.914C230.77 4.094 240.924.485 249.587.485c2.944.003 4.413.644 4.413 1.92Z" fill="#C4A980"/><path d="M2.487 45.843C1.785 43.638 0 44.128 0 42.983v-.82h7.381v.82c0 1.104-1.708.86-1.708 2.249 0 .204.039.408.111.652l6.12 20.27 5.9-17.038-1.078-3.269c-.703-2.246-2.45-1.716-2.45-2.86v-.82h7.348v.82c0 1.104-1.708.859-1.708 2.249 0 .204.038.407.11.652l6.16 20.27 6.827-19.736c.222-.571.298-.982.298-1.186 0-1.471-1.67-1.105-1.67-2.209v-.86h6.121v.779c0 1.104-1.78.696-2.56 2.901l-8.94 25.459-1.371.204-6.159-19.374-6.712 19.166-1.372.204-8.16-25.663ZM57.5 43.92c-.52-.326-1.112-.367-1.112-1.104v-.652h6.678v.652c0 .733-.63.778-1.111 1.104-.703.448-.703.82-.703 2.205v20.923c0 1.39 0 1.757.703 2.205.52.326 1.111.408 1.111 1.104v.653h-6.678v-.653c0-.693.558-.774 1.111-1.104.703-.448.703-.819.703-2.205v-10.42h-12.39v10.42c0 1.39.039 1.757.741 2.205.52.326 1.078.408 1.078 1.104v.653h-6.678v-.653c0-.693.557-.774 1.111-1.104.703-.448.741-.819.741-2.205V46.125c0-1.39-.038-1.757-.74-2.205-.52-.326-1.112-.367-1.112-1.104v-.652h6.678v.652c0 .733-.592.778-1.078 1.104-.702.448-.74.82-.74 2.205v8.705h12.39v-8.705c.004-1.386.004-1.753-.704-2.205ZM68.667 70.36c0-.692.558-.774 1.112-1.103.703-.449.741-.82.741-2.205V46.129c0-1.39-.038-1.757-.741-2.205-.52-.326-1.112-.367-1.112-1.105v-.652h6.679v.652c0 .734-.63.779-1.112 1.105-.703.448-.703.819-.703 2.205v20.923c0 1.39 0 1.756.703 2.205.52.326 1.112.407 1.112 1.104v.652h-6.679v-.652ZM85.619 67.052c0 1.39 0 1.756.703 2.205.52.326 1.111.407 1.111 1.104v.652h-6.64v-.652c0-.693.52-.775 1.078-1.104.703-.449.74-.82.74-2.205V46.129c0-1.39-.038-1.757-.74-2.205-.52-.326-1.078-.367-1.078-1.105v-.652h7.829c2.261 0 4.301.082 6.27 1.023 2.338 1.104 3.82 3.595 3.82 6.415 0 5.762-3.523 8.175-10.538 8.175h-2.56v9.272h.005Zm2.372-11.118c4.788 0 7.27-1.39 7.27-6.251 0-4.495-2.001-5.722-6.307-5.722h-3.34v11.973h2.377ZM107.839 67.052c0 1.39 0 1.756.703 2.205.52.326 1.112.407 1.112 1.104v.652h-6.64v-.652c0-.693.519-.775 1.077-1.104.703-.449.741-.82.741-2.205V46.129c0-1.39-.038-1.757-.741-2.205-.519-.326-1.077-.367-1.077-1.105v-.652h7.828c2.262 0 4.302.082 6.27 1.023 2.338 1.104 3.82 3.595 3.82 6.415 0 5.762-3.522 8.175-10.537 8.175h-2.56v9.272h.004Zm2.377-11.118c4.787 0 7.27-1.39 7.27-6.251 0-4.495-2.001-5.722-6.308-5.722h-3.339v11.973h2.377ZM139.187 66.644c.669-1.553.371-2.86 1.521-2.86h.741v7.233h-16.1v-.652c0-.693.558-.775 1.112-1.105.702-.448.741-.819.741-2.205V46.132c0-1.39-.039-1.756-.741-2.204-.52-.327-1.112-.367-1.112-1.105v-.652h6.678v.652c0 .734-.63.778-1.111 1.105-.703.448-.703.818-.703 2.204v23.091h4.413c2.593-.007 3.782-.7 4.561-2.579ZM145.197 70.361c0-.693.52-.774 1.077-1.104.708-.449.742-.82.742-2.205V46.129c0-1.39-.039-1.757-.742-2.205-.519-.326-1.077-.367-1.077-1.104v-.653h12.577a13.57 13.57 0 0 0 3.561-.489v7.234h-.89c-.963 0-1.001-1.43-1.742-2.86-.852-1.717-1.78-2.165-4.379-2.165h-4.301v10.991h4.118c2.113 0 1.559-2.453 2.709-2.453h.592v7.438h-.481c-.52 0-.669-.367-.963-1.145-.409-1.146-.443-2.124-1.852-2.124h-4.119V69.22h5.937c2.598 0 3.782-.693 4.562-2.576.669-1.553.37-2.86 1.52-2.86h.703v7.233h-17.548v-.656h-.004ZM178.841 69.257c.519.326 1.077.407 1.077 1.104v.652h-6.64v-.652c0-.693.52-.775 1.078-1.104.707-.449.741-.82.741-2.205V43.96h-3.003c-1.929 0-2.449.367-3.152 2.942-.37 1.308-.63 1.838-1.891 1.838h-.149v-7.07c1.448.326 2.521.489 3.19.489h12.982c.669 0 1.781-.163 3.229-.49v7.071h-.149c-1.261 0-1.559-.53-1.891-1.838-.669-2.616-1.223-2.942-3.152-2.942h-3.003v23.09c-.009 1.39.03 1.757.733 2.206ZM195.056 67.052c0 1.39.038 1.756.741 2.205.519.326 1.077.407 1.077 1.104v.652h-6.644v-.652c0-.693.519-.775 1.077-1.104.707-.449.741-.82.741-2.205V46.129c0-1.39-.038-1.757-.741-2.205-.519-.326-1.077-.367-1.077-1.105v-.652h8.791c2.189 0 4.118.041 5.861 1.023 2.078 1.145 3.377 3.39 3.377 5.966 0 3.925-2.709 7.071-7.309 7.601 1.891.408 2.411 1.96 3.412 3.924l3.377 6.578c.409.82.707 1.39 1.483 1.757.741.326 1.299.489 1.299.982v1.023h-4.302l-5.529-11.118c-1.111-2.245-1.929-2.616-3.709-2.616h-1.93v9.765h.005Zm0-11.566h2.112c5.12 0 7.641-1.879 7.641-5.966 0-4.047-2.078-5.56-6.419-5.56h-3.339v11.526h.005ZM213.639 70.361c0-.693.519-.774 1.077-1.104.707-.449.741-.82.741-2.205V46.129c0-1.39-.038-1.757-.741-2.205-.519-.326-1.077-.367-1.077-1.104v-.653h12.577a13.57 13.57 0 0 0 3.561-.489v7.234h-.89c-.963 0-1.001-1.43-1.742-2.86-.852-1.717-1.781-2.165-4.379-2.165h-4.302v10.991h4.119c2.112 0 1.559-2.453 2.709-2.453h.592v7.438h-.481c-.52 0-.669-.367-.963-1.145-.409-1.146-.443-2.124-1.853-2.124h-4.118V69.22h5.937c2.598 0 3.782-.693 4.562-2.576.668-1.553.37-2.86 1.52-2.86h.703v7.233h-17.548v-.656h-.004ZM235.935 70.361c0-.693.52-.774 1.078-1.104.707-.449.741-.82.741-2.205V46.129c0-1.39-.038-1.757-.741-2.205-.52-.326-1.078-.367-1.078-1.104v-.653h12.578c1.299 0 2.521-.203 3.561-.489v7.234h-.891c-.962 0-1.001-1.43-1.742-2.86-.852-1.717-1.78-2.165-4.378-2.165h-4.302v10.991h4.119c2.112 0 1.559-2.453 2.709-2.453h.592v7.438h-.482c-.519 0-.668-.367-.962-1.145-.409-1.146-.443-2.124-1.853-2.124h-4.119V69.22h5.938c2.598 0 3.782-.693 4.561-2.576.669-1.553.371-2.86 1.521-2.86h.703v7.233H235.94v-.656h-.005ZM23.707 100.949l-4.404-15.023h2.377l2.07 7.604c.502 1.879.966 3.739 1.273 5.192h.06c.28-1.494.826-3.284 1.414-5.218l2.334-7.579h2.325l2.126 7.612c.485 1.801.95 3.569 1.218 5.151h.055c.345-1.645.83-3.32 1.372-5.188l2.3-7.575h2.304l-4.932 15.024h-2.343l-2.19-7.816c-.549-1.934-.91-3.394-1.15-4.914h-.05c-.286 1.509-.694 2.969-1.338 4.91l-2.457 7.82h-2.364ZM70.724 85.925v15.024h-2.257V85.926h2.257ZM100.411 100.949V85.926h2.466l5.567 7.593c1.269 1.764 2.279 3.342 3.101 4.891l.055-.022c-.204-2.005-.243-3.84-.243-6.166v-6.296h2.113v15.023h-2.279l-5.524-7.616c-1.197-1.682-2.364-3.398-3.233-5.028l-.076.022c.132 1.905.166 3.713.166 6.196v6.426h-2.113ZM152.148 93.904h-6.738v5.425h7.534v1.616h-9.791V85.922h9.391v1.616h-7.138v4.758h6.738v1.608h.004ZM181.622 86.13c1.137-.197 2.773-.323 4.314-.323 2.381 0 3.953.393 5.035 1.238.856.656 1.363 1.682 1.363 2.857 0 1.975-1.457 3.287-3.276 3.828v.055c1.325.4 2.126 1.487 2.547 3.043.571 2.101.984 3.535 1.338 4.124h-2.326c-.272-.433-.664-1.715-1.141-3.598-.516-2.057-1.457-2.857-3.488-2.913h-2.126v6.511h-2.24V86.129Zm2.24 6.84h2.292c2.402 0 3.922-1.13 3.922-2.853 0-1.953-1.627-2.798-3.995-2.802-1.09 0-1.84.085-2.223.17v5.485h.004ZM224.874 100.949v-6.37l-5.511-8.657h2.568l2.441 4.15c.66 1.138 1.192 2.05 1.729 3.102h.051c.477-.99 1.073-1.971 1.742-3.113l2.504-4.14h2.543l-5.814 8.628v6.4h-2.253Z" fill="#fff"/></svg>