<svg width="262" height="114" viewBox="0 0 262 114" fill="none" xmlns="http://www.w3.org/2000/svg">
<path d="M254 2.40422C254 3.54561 253.357 4.1163 252.075 4.1163H251.202C249.92 3.93471 248.301 3.84207 246.355 3.84207C236.823 3.84207 225.323 8.57067 211.859 18.0205C204.193 23.4087 197.774 28.9377 192.595 34.5965C187.25 40.3961 178.237 51.7914 165.557 68.7788C150.228 89.283 138.256 103.031 129.635 110.017C126.777 112.348 125.116 113.511 124.66 113.511C124.435 113.511 124.302 113.419 124.256 113.237C124.256 113.193 124.856 112.507 126.062 111.181C131.33 105.288 136.761 93.8188 142.362 76.7759C147.379 61.5599 151.353 50.461 154.275 43.4719C157.196 36.4827 160.323 30.6572 163.636 25.9953C164.424 24.8984 164.816 24.2833 164.816 24.1461C164.527 24.0535 164.216 24.2388 163.888 24.6946L163.266 25.3802L161.711 27.5036C159.015 31.2057 152.694 40.2738 142.749 54.7116C127.041 78.1507 113.263 95.0084 101.409 105.288C95.0288 110.773 91.3233 113.515 90.2883 113.515C90.0626 113.423 89.9305 113.289 89.8837 113.104C89.8837 112.967 90.152 112.648 90.6929 112.144C98.8153 103.973 106.597 91.6954 114.038 75.3232C121.474 58.951 125.197 45.8806 125.197 36.1047C125.197 29.438 123.727 24.1536 120.784 20.2476C117.841 16.3417 113.821 14.3925 108.722 14.3925C97.9847 14.3925 87.3239 20.9888 76.7355 34.1814C66.1428 47.3741 60.8528 60.6816 60.8528 74.1077C60.8528 79.6775 62.2328 84.1727 64.9885 87.5968C67.7442 91.021 71.339 92.7331 75.7771 92.7331C85.1389 92.7331 94.0109 85.6809 102.38 71.573C107.811 62.3974 110.524 54.2224 110.524 47.0554C110.524 43.6757 109.77 40.9594 108.254 38.9063C106.742 36.8496 104.74 35.8231 102.252 35.8231C100.762 35.8231 99.3093 36.2233 97.9038 37.0238C96.494 37.8242 95.7912 38.6321 95.7912 39.4548C95.7912 39.729 95.9147 39.8661 96.1618 39.8661C96.2853 39.8661 96.494 39.8217 96.7836 39.729C97.8186 39.5474 98.5001 39.4548 98.8366 39.4548C100.702 39.4548 101.635 40.6184 101.635 42.9494C101.635 44.365 101.137 45.5842 100.144 46.6107C99.1475 47.6372 97.9847 48.1523 96.6644 48.1523C94.0961 48.1523 92.8098 46.6218 92.8098 43.5608C92.8098 41.1409 93.7638 39.0323 95.6677 37.2276C97.5758 35.4229 99.7694 34.5224 102.257 34.5224C105.119 34.5224 107.406 35.6638 109.127 37.9465C110.843 40.2293 111.704 43.2644 111.704 47.0554C111.704 55.638 108.139 65.3139 101.009 76.0903C93.0951 87.96 84.6406 93.8967 75.6451 93.8967C70.4233 93.8967 66.1257 91.6917 62.7439 87.2781C59.3663 82.8682 57.6797 77.3021 57.6797 70.5798C57.6797 64.2836 59.2002 57.7133 62.2498 50.8687C65.2952 44.0278 69.4735 37.7983 74.7762 32.1877C86.668 19.4583 98.0869 13.0917 109.029 13.0917C115.452 13.0917 120.848 15.8748 125.222 21.4372C129.592 26.9996 131.782 33.8368 131.782 41.9562C131.782 50.6871 128.506 61.2782 121.96 73.7334C115.409 86.1849 107.474 96.891 98.1508 105.848C97.2394 106.76 96.7836 107.263 96.7836 107.356C96.822 107.538 96.9072 107.627 97.0307 107.627C98.317 107.627 102.44 103.654 109.408 95.7051C119.277 84.421 132.608 66.6035 149.398 42.249C154.206 35.2598 158.934 29.0007 163.577 23.468C168.219 17.9426 171.082 15.1744 172.159 15.1744C172.41 15.1744 172.534 15.3263 172.534 15.6191C172.534 15.7562 172.41 15.986 172.159 16.3047C169.548 20.1402 167.431 24.0461 165.813 28.0187C163.99 32.5398 161.23 41.0372 157.537 53.5035C153.474 67.1149 149.781 77.4837 146.463 84.6062C142.979 91.9585 138.601 98.6067 133.336 104.543C133.251 104.725 133.17 104.884 133.089 105.021C133.132 105.159 133.213 105.251 133.336 105.296C134.039 105.296 137.003 102.305 142.225 96.3203C145.871 92.1661 156.068 78.9215 172.811 56.5904C181.474 45.0357 189.226 35.9158 196.062 29.2231C202.898 22.5341 210.586 16.5604 219.126 11.3093C230.77 4.09407 240.924 0.484619 249.588 0.484619C252.531 0.488325 254 1.12943 254 2.40422Z" fill="#C4A980"></path>
<path d="M2.48739 45.8434C1.78461 43.6385 0 44.1276 0 42.9826V42.1636H7.38123V42.9826C7.38123 44.0869 5.67329 43.8423 5.67329 45.232C5.67329 45.4358 5.71161 45.6396 5.78402 45.8842L11.9045 66.1549L17.8036 49.1157L16.726 45.8471C16.0232 43.6014 14.2769 44.1314 14.2769 42.9863V42.1673H21.6241V42.9863C21.6241 44.0906 19.9161 43.846 19.9161 45.2357C19.9161 45.4395 19.9545 45.6433 20.0269 45.8879L26.1857 66.1586L33.0132 46.4215C33.2347 45.8508 33.3114 45.4395 33.3114 45.2357C33.3114 43.7645 31.6418 44.1314 31.6418 43.027V42.1673H37.7623V42.9455C37.7623 44.0498 35.9819 43.6422 35.2025 45.8471L26.2624 71.306L24.8909 71.5098L18.7321 52.1359L12.0195 71.3023L10.6481 71.5061L2.48739 45.8434Z" fill="white"></path>
<path d="M57.4997 43.9201C56.9801 43.594 56.3881 43.5533 56.3881 42.8158V42.1636H63.0665V42.8158C63.0665 43.5495 62.4362 43.594 61.9549 43.9201C61.2521 44.3685 61.2521 44.7391 61.2521 46.1251V67.048C61.2521 68.4377 61.2521 68.8046 61.9549 69.253C62.4745 69.5791 63.0665 69.6606 63.0665 70.3573V71.0095H56.3881V70.3573C56.3881 69.6643 56.946 69.5828 57.4997 69.253C58.2025 68.8046 58.2025 68.434 58.2025 67.048V56.6273H45.8124V67.048C45.8124 68.4377 45.8507 68.8046 46.5535 69.253C47.0731 69.5791 47.6311 69.6606 47.6311 70.3573V71.0095H40.9526V70.3573C40.9526 69.6643 41.5106 69.5828 42.0643 69.253C42.7671 68.8046 42.8054 68.434 42.8054 67.048V46.1251C42.8054 44.7354 42.7671 44.3685 42.0643 43.9201C41.5447 43.594 40.9526 43.5533 40.9526 42.8158V42.1636H47.6311V42.8158C47.6311 43.5495 47.0391 43.594 46.5535 43.9201C45.8507 44.3685 45.8124 44.7391 45.8124 46.1251V54.83H58.2025V46.1251C58.2067 44.7391 58.2068 44.3722 57.4997 43.9201Z" fill="white"></path>
<path d="M68.667 70.3609C68.667 69.668 69.225 69.5864 69.7787 69.2566C70.4814 68.8082 70.5198 68.4376 70.5198 67.0517V46.1287C70.5198 44.7391 70.4814 44.3722 69.7787 43.9238C69.259 43.5977 68.667 43.5569 68.667 42.8194V42.1672H75.3455V42.8194C75.3455 43.5532 74.7151 43.5977 74.2338 43.9238C73.531 44.3722 73.531 44.7428 73.531 46.1287V67.0517C73.531 68.4413 73.531 68.8082 74.2338 69.2566C74.7534 69.5827 75.3455 69.6643 75.3455 70.3609V71.0132H68.667V70.3609Z" fill="white"></path>
<path d="M85.6187 67.0517C85.6187 68.4413 85.6187 68.8082 86.3214 69.2566C86.8411 69.5827 87.4331 69.6643 87.4331 70.3609V71.0132H80.793V70.3609C80.793 69.668 81.3126 69.5864 81.8705 69.2566C82.5733 68.8082 82.6117 68.4376 82.6117 67.0517V46.1287C82.6117 44.7391 82.5733 44.3722 81.8705 43.9238C81.3509 43.5977 80.793 43.5569 80.793 42.8194V42.1672H88.6214C90.8831 42.1672 92.9232 42.2488 94.891 43.19C97.2293 44.2944 98.7115 46.7847 98.7115 49.6048C98.7115 55.3673 95.1892 57.7798 88.1742 57.7798H85.6144V67.0517H85.6187ZM87.991 55.9343C92.7784 55.9343 95.2615 54.5446 95.2615 49.6826C95.2615 45.1875 93.2597 43.9608 88.9536 43.9608H85.6144V55.9343H87.991Z" fill="white"></path>
<path d="M107.839 67.0517C107.839 68.4413 107.839 68.8082 108.542 69.2566C109.062 69.5827 109.654 69.6643 109.654 70.3609V71.0132H103.014V70.3609C103.014 69.668 103.533 69.5864 104.091 69.2566C104.794 68.8082 104.832 68.4376 104.832 67.0517V46.1287C104.832 44.7391 104.794 44.3722 104.091 43.9238C103.572 43.5977 103.014 43.5569 103.014 42.8194V42.1672H110.842C113.104 42.1672 115.144 42.2488 117.112 43.19C119.45 44.2944 120.932 46.7847 120.932 49.6048C120.932 55.3673 117.41 57.7798 110.395 57.7798H107.835V67.0517H107.839ZM110.216 55.9343C115.003 55.9343 117.487 54.5446 117.487 49.6826C117.487 45.1875 115.485 43.9608 111.179 43.9608H107.839V55.9343H110.216Z" fill="white"></path>
<path d="M139.187 66.644C139.856 65.0913 139.558 63.7831 140.708 63.7831H141.449V71.0168H125.349V70.3646C125.349 69.6716 125.907 69.5901 126.461 69.2603C127.164 68.8119 127.202 68.4413 127.202 67.0553V46.1324C127.202 44.7427 127.164 44.3759 126.461 43.9275C125.941 43.6013 125.349 43.5606 125.349 42.8231V42.1709H132.028V42.8231C132.028 43.5569 131.397 43.6013 130.916 43.9275C130.213 44.3759 130.213 44.7464 130.213 46.1324V69.2232H134.626C137.22 69.2158 138.408 68.5228 139.187 66.644Z" fill="white"></path>
<path d="M145.197 70.3611C145.197 69.6681 145.716 69.5866 146.274 69.2568C146.981 68.8084 147.015 68.4378 147.015 67.0518V46.1289C147.015 44.7392 146.977 44.3723 146.274 43.9239C145.755 43.5978 145.197 43.5571 145.197 42.8196V42.1674H157.774C159.073 42.1674 160.296 41.9636 161.335 41.6782V48.9119H160.445C159.482 48.9119 159.444 47.4815 158.703 46.0511C157.851 44.3353 156.922 43.8869 154.324 43.8869H150.022V54.8783H154.141C156.254 54.8783 155.7 52.425 156.85 52.425H157.442V59.8626H156.961C156.441 59.8626 156.292 59.4957 155.998 58.7175C155.589 57.5724 155.555 56.5941 154.145 56.5941H150.027V69.2197H155.964C158.562 69.2197 159.746 68.5267 160.526 66.6442C161.194 65.0915 160.896 63.7833 162.046 63.7833H162.749V71.017H145.201V70.3611H145.197Z" fill="white"></path>
<path d="M178.84 69.2566C179.36 69.5827 179.918 69.6642 179.918 70.3609V71.0132H173.278V70.3609C173.278 69.668 173.798 69.5864 174.355 69.2566C175.063 68.8082 175.097 68.4376 175.097 67.0517V43.9608H172.094C170.164 43.9608 169.645 44.3277 168.942 46.9032C168.571 48.2114 168.312 48.7413 167.051 48.7413C167.013 48.7413 166.94 48.7413 166.902 48.7413V41.6707C168.35 41.9968 169.423 42.1598 170.092 42.1598H183.074C183.743 42.1598 184.854 41.9968 186.303 41.6707V48.7413C186.264 48.7413 186.192 48.7413 186.154 48.7413C184.893 48.7413 184.595 48.2114 184.262 46.9032C183.594 44.2869 183.04 43.9608 181.111 43.9608H178.108V67.0517C178.099 68.4413 178.138 68.8082 178.84 69.2566Z" fill="white"></path>
<path d="M195.056 67.0517C195.056 68.4413 195.094 68.8082 195.797 69.2566C196.316 69.5827 196.874 69.6643 196.874 70.3609V71.0132H190.23V70.3609C190.23 69.668 190.75 69.5864 191.308 69.2566C192.015 68.8082 192.049 68.4376 192.049 67.0517V46.1287C192.049 44.7391 192.01 44.3722 191.308 43.9238C190.788 43.5977 190.23 43.5569 190.23 42.8194V42.1672H198.058C198.391 42.1672 198.727 42.1672 199.021 42.1672C201.21 42.1672 203.14 42.208 204.882 43.19C206.96 44.3351 208.259 46.5808 208.259 49.1564C208.259 53.0808 205.55 56.227 200.95 56.757C202.842 57.1646 203.361 58.7173 204.362 60.6814L207.74 67.2592C208.149 68.0782 208.447 68.6489 209.222 69.0157C209.963 69.3418 210.521 69.5049 210.521 69.9978V71.0206H206.219L200.691 59.9032C199.579 57.6575 198.761 57.2869 196.981 57.2869H195.051V67.0517H195.056ZM195.056 55.4859H197.168C202.288 55.4859 204.809 53.607 204.809 49.5195C204.809 45.4728 202.731 43.9608 198.391 43.9608H195.051V55.4859H195.056Z" fill="white"></path>
<path d="M213.639 70.3611C213.639 69.6681 214.158 69.5866 214.716 69.2568C215.423 68.8084 215.457 68.4378 215.457 67.0518V46.1289C215.457 44.7392 215.419 44.3723 214.716 43.9239C214.197 43.5978 213.639 43.5571 213.639 42.8196V42.1674H226.216C227.515 42.1674 228.738 41.9636 229.777 41.6782V48.9119H228.887C227.924 48.9119 227.886 47.4815 227.145 46.0511C226.293 44.3353 225.364 43.8869 222.766 43.8869H218.464V54.8783H222.583C224.696 54.8783 224.142 52.425 225.292 52.425H225.884V59.8626H225.403C224.883 59.8626 224.734 59.4957 224.44 58.7175C224.031 57.5724 223.997 56.5941 222.587 56.5941H218.469V69.2197H224.406C227.004 69.2197 228.188 68.5267 228.968 66.6442C229.636 65.0915 229.338 63.7833 230.488 63.7833H231.191V71.017H213.643V70.3611H213.639Z" fill="white"></path>
<path d="M235.936 70.3611C235.936 69.6681 236.455 69.5866 237.013 69.2568C237.72 68.8084 237.754 68.4378 237.754 67.0518V46.1289C237.754 44.7392 237.716 44.3723 237.013 43.9239C236.493 43.5978 235.936 43.5571 235.936 42.8196V42.1674H248.513C249.812 42.1674 251.035 41.9636 252.074 41.6782V48.9119H251.184C250.221 48.9119 250.183 47.4815 249.442 46.0511C248.59 44.3353 247.661 43.8869 245.063 43.8869H240.761V54.8783H244.88C246.992 54.8783 246.439 52.425 247.589 52.425H248.181V59.8626H247.7C247.18 59.8626 247.031 59.4957 246.737 58.7175C246.328 57.5724 246.294 56.5941 244.884 56.5941H240.765V69.2197H246.703C249.301 69.2197 250.485 68.5267 251.264 66.6442C251.933 65.0915 251.635 63.7833 252.785 63.7833H253.488V71.017H235.94V70.3611H235.936Z" fill="white"></path>
<path d="M23.7068 100.949L19.3027 85.9255H21.6794L23.7494 93.5298C24.2519 95.4087 24.7162 97.269 25.0229 98.7217H25.0825C25.3636 97.2282 25.9088 95.4383 26.4966 93.5039L28.8306 85.9255H31.1562L33.2815 93.5373C33.7671 95.3383 34.2313 97.1059 34.4996 98.6883H34.555C34.9 97.0429 35.3856 95.3679 35.9265 93.5002L38.2265 85.9255H40.5307L35.5985 100.949H33.2559L31.0667 93.1333C30.5173 91.1989 30.1552 89.7388 29.9167 88.2194H29.8656C29.5802 89.7277 29.1713 91.1878 28.5282 93.1296L26.0706 100.949H23.7068Z" fill="white"></path>
<path d="M70.7242 85.9255V100.949H68.4668V85.9255H70.7242Z" fill="white"></path>
<path d="M100.411 100.949V85.9255H102.877L108.444 93.5187C109.713 95.2827 110.723 96.8613 111.545 98.4104L111.6 98.3881C111.396 96.3833 111.357 94.5489 111.357 92.2217V85.9255H113.47V100.949H111.191L105.667 93.3334C104.47 91.651 103.303 89.9352 102.434 88.3047L102.358 88.3269C102.49 90.2317 102.524 92.0401 102.524 94.523V100.949H100.411Z" fill="white"></path>
<path d="M152.148 93.9042H145.41V99.3295H152.944V100.945H143.152V85.9219H152.544V87.5376H145.405V92.2958H152.144V93.9042H152.148Z" fill="white"></path>
<path d="M181.622 86.1293C182.759 85.9329 184.394 85.8069 185.936 85.8069C188.317 85.8069 189.889 86.1997 190.971 87.0446C191.827 87.7006 192.334 88.7271 192.334 89.9018C192.334 91.877 190.877 93.1888 189.058 93.7299V93.7855C190.383 94.1857 191.184 95.2715 191.605 96.8279C192.176 98.9291 192.589 100.363 192.943 100.952H190.617C190.344 100.519 189.953 99.2367 189.476 97.3542C188.96 95.2974 188.019 94.497 185.987 94.4414H183.862V100.952H181.622V86.1293ZM183.862 92.9702H186.153C188.556 92.9702 190.076 91.8399 190.076 90.1167C190.076 88.1638 188.449 87.3189 186.081 87.3151C184.991 87.3151 184.241 87.4004 183.858 87.4856V92.9702H183.862Z" fill="white"></path>
<path d="M224.874 100.949V94.5786L219.363 85.9219H221.931L224.372 90.0724C225.032 91.21 225.564 92.1217 226.101 93.1741H226.152C226.629 92.1847 227.225 91.2026 227.894 90.0612L230.398 85.9219H232.941L227.127 94.549V100.949H224.874Z" fill="white"></path>
</svg>
