<svg width="64" height="64" viewBox="0 0 64 64" fill="none" xmlns="http://www.w3.org/2000/svg">
<path d="M50.8535 37.0133L34.6668 53.1733V58.6666H40.1602L56.3202 42.48M60.5335 36.2133L57.1202 32.8C56.9919 32.6583 56.8356 32.5448 56.6611 32.4668C56.4867 32.3888 56.2979 32.3478 56.1068 32.3466C55.7068 32.3733 55.3335 32.5066 55.0668 32.8L52.4002 35.4666L57.8668 40.8L60.5335 38.1333C61.0402 37.6 61.0402 36.7466 60.5335 36.2133ZM29.3335 48H10.6668V21.3333L32.0002 34.6666L53.3335 21.3333V26.6666H58.6668V16C58.6668 13.0666 56.2668 10.6666 53.3335 10.6666H10.6668C7.7335 10.6666 5.3335 13.0666 5.3335 16V48C5.3335 50.9333 7.7335 53.3333 10.6668 53.3333H29.3335V48ZM53.3335 16L32.0002 29.3333L10.6668 16H53.3335Z" fill="#016C64"></path>
</svg>
