<svg width="64" height="64" fill="none" xmlns="http://www.w3.org/2000/svg"><path d="m50.853 37.013-16.186 16.16v5.494h5.493L56.32 42.48m4.213-6.267L57.12 32.8a1.378 1.378 0 0 0-1.013-.453c-.4.026-.773.16-1.04.453L52.4 35.467l5.467 5.333 2.666-2.667a1.403 1.403 0 0 0 0-1.92ZM29.333 48H10.668V21.333L32 34.667l21.334-13.334v5.334h5.333V16c0-2.933-2.4-5.333-5.334-5.333H10.668c-2.933 0-5.333 2.4-5.333 5.333v32c0 2.933 2.4 5.333 5.333 5.333h18.666V48Zm24-32L32 29.333 10.667 16h42.666Z" fill="#016C64"/></svg>