<svg width="327" height="13" fill="none" xmlns="http://www.w3.org/2000/svg"><path d="M13.232 1.125 10.388 9.56H8.68L6.66 2.186h-.03L4.598 9.56H2.814l-2.8-8.435h1.46l2.21 7.226h.03l1.974-7.226h1.871l2.004 7.226h.03l2.21-7.226h1.43Zm7.073 8.435h-1.238V6.363c0-.752-.103-1.29-.31-1.625-.22-.363-.589-.55-1.12-.564-.677-.014-1.207.215-1.561.685-.339.443-.501 1.061-.501 1.853V9.56h-1.238V.494h1.238V4.28h.03c.47-.685 1.193-1.02 2.18-1.02 1.695 0 2.535.886 2.535 2.646V9.56h-.015Zm3.61-7.535h-1.4V.749h1.4v1.276Zm-.089 7.535h-1.252V3.395h1.252V9.56Zm8.001-5.36c.487.565.722 1.304.722 2.177 0 .926-.235 1.705-.692 2.296-.516.699-1.267 1.035-2.21 1.035-1.061 0-1.813-.336-2.255-.994h-.03v3.384h-1.237V3.395h1.194v.873h.029c.486-.672 1.253-1.02 2.299-1.02.913.013 1.65.321 2.18.953Zm-1.046 3.788c.28-.443.428-.953.428-1.53 0-.632-.148-1.156-.428-1.559-.324-.483-.81-.725-1.429-.725-.634 0-1.135.242-1.503.725-.339.43-.501.967-.501 1.598 0 .591.162 1.102.472 1.532.368.51.869.765 1.517.765.62 0 1.105-.268 1.444-.806Zm9.15-3.787c.487.564.723 1.303.723 2.176 0 .926-.236 1.705-.693 2.296-.516.699-1.267 1.035-2.21 1.035-1.061 0-1.813-.336-2.255-.994h-.03v3.384H34.23V3.395h1.194v.873h.03c.485-.672 1.252-1.02 2.298-1.02.913.013 1.65.321 2.18.953Zm-1.046 3.787a2.81 2.81 0 0 0 .428-1.53c0-.632-.148-1.156-.428-1.559-.324-.483-.81-.725-1.429-.725-.633 0-1.135.242-1.503.725-.339.43-.5.967-.5 1.598 0 .591.161 1.102.47 1.532.37.51.87.765 1.518.765.62 0 1.105-.268 1.444-.806ZM43.72 9.56h-1.253V.494h1.252V9.56Zm5.01-6.3c1.989 0 2.976 1.156 2.976 3.48h-4.819c0 .59.221 1.087.678 1.477.428.376.943.577 1.547.577.369 0 .781-.08 1.238-.228.383-.12.663-.255.855-.39v1.142c-.81.269-1.518.403-2.137.403-1.164 0-2.048-.309-2.652-.927-.575-.577-.855-1.383-.855-2.417 0-.914.295-1.666.87-2.243.574-.591 1.34-.873 2.298-.873Zm1.65 2.633c0-.483-.148-.886-.442-1.209-.31-.336-.722-.497-1.238-.497-.56 0-1.002.188-1.341.551-.265.309-.427.698-.486 1.155h3.507Zm6.69 3.653c-.428.108-.782.175-1.062.175-1.385 0-2.077-.604-2.077-1.8v-3.6h-1.533v-.913h1.533V1.985l1.237-.363v1.8h1.798v.913h-1.798v3.371c0 .336.104.618.31.82.191.188.442.282.737.282.324 0 .604-.067.854-.215v.953Zm5.245-5.198a2.113 2.113 0 0 0-.693-.107c-.56 0-1.002.228-1.34.685-.34.457-.502 1.061-.502 1.84v2.807h-1.237V3.408h1.164v.954h.03c.161-.322.412-.591.736-.793a1.917 1.917 0 0 1 1.031-.308c.236 0 .516.026.825.08v1.007h-.014Zm4.096-1.087c1.99 0 2.977 1.155 2.977 3.478h-4.819c0 .591.221 1.088.678 1.478.427.376.943.577 1.547.577.369 0 .781-.08 1.238-.228.383-.12.663-.255.855-.39v1.142c-.81.269-1.518.403-2.137.403-1.164 0-2.048-.309-2.652-.927-.575-.577-.855-1.383-.855-2.417 0-.914.295-1.666.87-2.243.589-.591 1.355-.873 2.298-.873Zm1.665 2.632c0-.483-.147-.886-.442-1.209-.31-.336-.722-.497-1.238-.497-.56 0-1.002.188-1.34.551-.266.309-.428.698-.487 1.155h3.507Zm5.717-2.632c1.99 0 2.977 1.155 2.977 3.478H71.95c0 .591.221 1.088.678 1.478.427.376.943.577 1.547.577.369 0 .781-.08 1.238-.228.383-.12.663-.255.855-.39v1.142c-.81.269-1.518.403-2.137.403-1.164 0-2.048-.309-2.652-.927-.575-.577-.855-1.383-.855-2.417 0-.914.295-1.666.87-2.243.574-.591 1.34-.873 2.298-.873Zm1.65 2.632c0-.483-.147-.886-.441-1.209-.31-.336-.723-.497-1.238-.497-.56 0-1.002.188-1.341.551-.265.309-.427.698-.486 1.155h3.507Zm4.937-4.768-1.164 2.968h-1.15l.826-2.968h1.488Zm4.641 5.319c.501.336.752.779.752 1.343 0 .618-.236 1.101-.722 1.45-.442.31-.988.47-1.636.47-.766 0-1.385-.12-1.856-.335l.058-1.021a2.969 2.969 0 0 0 1.548.443c.338 0 .618-.067.854-.201.28-.148.428-.39.428-.685 0-.296-.25-.578-.752-.833-.472-.228-.943-.47-1.415-.698-.5-.336-.751-.74-.751-1.236 0-.618.236-1.088.693-1.424.427-.309.987-.47 1.694-.47.442 0 .958.08 1.547.242l-.103.994c-.132-.08-.353-.148-.648-.215a2.943 2.943 0 0 0-.663-.094c-.34 0-.62.067-.84.188-.236.134-.368.322-.368.564 0 .336.25.618.766.86.471.228.943.443 1.414.658Zm11.891-1.88h-1.4l-.235 1.57h1.267v.928h-1.4l-.383 2.511h-1.002l.383-2.511H92.58l-.383 2.511h-1.002l.383-2.511H90.31v-.927h1.4l.236-1.572h-1.268v-.926h1.415l.383-2.512h1.017l-.383 2.512h1.561l.384-2.512h1.002l-.383 2.512h1.252v.926h-.015Zm-2.401 0h-1.563l-.235 1.57h1.562l.236-1.57Zm6.615 4.996h-1.252V4.55l-1.518.94-.427-.833 1.99-1.262h1.207V9.56Zm8.989-3.116c.501.336.751.779.751 1.343 0 .618-.236 1.101-.722 1.45-.442.31-.987.47-1.635.47-.767 0-1.386-.12-1.857-.335l.059-1.021a2.97 2.97 0 0 0 1.547.443c.339 0 .619-.067.855-.201.28-.148.427-.39.427-.685 0-.296-.251-.578-.751-.833-.472-.228-.944-.47-1.415-.698-.501-.336-.752-.74-.752-1.236 0-.618.236-1.088.693-1.424.427-.309.987-.47 1.695-.47.442 0 .957.08 1.547.242l-.103.994c-.133-.08-.354-.148-.649-.215a2.943 2.943 0 0 0-.663-.094c-.339 0-.619.067-.84.188-.235.134-.368.322-.368.564 0 .336.25.618.766.86.472.228.943.443 1.415.658Zm4.98-3.183c1.989 0 2.976 1.155 2.976 3.478h-4.818c0 .591.221 1.088.678 1.478.427.376.943.577 1.547.577.369 0 .781-.08 1.238-.228.383-.12.663-.255.855-.39v1.142c-.811.269-1.518.403-2.137.403-1.164 0-2.048-.309-2.652-.927-.575-.577-.855-1.383-.855-2.417 0-.914.295-1.666.869-2.243.59-.591 1.356-.873 2.299-.873Zm1.665 2.632c0-.483-.147-.886-.442-1.209-.309-.336-.722-.497-1.238-.497-.56 0-1.002.188-1.341.551-.265.309-.427.698-.486 1.155h3.507Zm4.391 3.667h-1.252V.494h1.252V9.56Zm3.699 0h-1.253V.494h1.253V9.56Zm4.995-6.3c1.989 0 2.976 1.156 2.976 3.48h-4.818c0 .59.221 1.087.678 1.477.427.376.943.577 1.547.577.368 0 .781-.08 1.237-.228.384-.12.664-.255.855-.39v1.142c-.81.269-1.518.403-2.136.403-1.165 0-2.049-.309-2.653-.927-.574-.577-.854-1.383-.854-2.417 0-.914.294-1.666.869-2.243.589-.591 1.356-.873 2.299-.873Zm1.665 2.633c0-.483-.148-.886-.442-1.209-.31-.336-.722-.497-1.238-.497-.56 0-1.002.188-1.341.551-.265.309-.427.698-.486 1.155h3.507Zm6.778-1.545a2.12 2.12 0 0 0-.693-.107c-.56 0-1.002.228-1.341.685-.339.457-.501 1.061-.501 1.84v2.807h-1.237V3.408h1.164v.954h.029a1.98 1.98 0 0 1 .737-.793 1.916 1.916 0 0 1 1.031-.308c.236 0 .516.026.825.08v1.007h-.014Zm2.888 3.869-1.12 2.955h-1.194l.84-2.955h1.474Zm9.769-2.942c.692.484 1.031 1.128 1.031 1.921 0 .846-.339 1.49-1.002 1.934-.589.39-1.385.591-2.387.591-.486 0-1.105-.12-1.9-.35l.132-1.114c.737.269 1.371.403 1.93.403.443 0 .84-.107 1.194-.309.413-.255.634-.604.634-1.061 0-.51-.339-.94-1.032-1.29-.633-.308-1.282-.604-1.915-.913-.693-.443-1.032-1.034-1.032-1.786 0-.725.28-1.29.855-1.706.545-.39 1.237-.59 2.107-.59a6.36 6.36 0 0 1 1.974.295l-.191 1.114c-.649-.241-1.223-.349-1.739-.349-1.076 0-1.621.376-1.621 1.128 0 .43.339.806 1.032 1.142 1.208.564 1.856.887 1.93.94Zm12.981 4.285h-1.326V2.253h-.029l-3.065 7.307h-1.297l-3.065-7.307h-.029V9.56h-1.326V1.125h2.195l2.903 7.011 2.844-7.011h2.195V9.56Zm9.637-7.334c.781.793 1.179 1.84 1.179 3.116 0 1.303-.398 2.35-1.179 3.143-.796.82-1.901 1.223-3.286 1.223s-2.49-.403-3.286-1.223c-.781-.792-1.164-1.84-1.164-3.143 0-1.276.398-2.323 1.179-3.116.81-.832 1.901-1.249 3.286-1.249 1.355 0 2.461.417 3.271 1.25Zm-.958 5.4c.486-.605.722-1.37.722-2.284 0-.913-.25-1.679-.766-2.296-.56-.672-1.326-1.008-2.284-1.008-.972 0-1.739.336-2.299 1.008-.501.604-.751 1.37-.751 2.296 0 .927.236 1.68.722 2.284.545.671 1.311 1.02 2.328 1.02 1.002 0 1.783-.335 2.328-1.02Zm11.272-5.4c.781.793 1.179 1.84 1.179 3.116 0 1.303-.398 2.35-1.179 3.143-.795.82-1.9 1.223-3.286 1.223-1.385 0-2.49-.403-3.285-1.223-.781-.792-1.164-1.84-1.164-3.143 0-1.276.397-2.323 1.178-3.116.811-.832 1.901-1.249 3.286-1.249 1.371 0 2.461.417 3.271 1.25Zm-.957 5.4c.486-.605.722-1.37.722-2.284 0-.913-.251-1.679-.767-2.296-.56-.672-1.326-1.008-2.284-1.008-.972 0-1.738.336-2.298 1.008-.501.604-.752 1.37-.752 2.296 0 .927.236 1.68.722 2.284.546.671 1.312 1.02 2.328 1.02 1.002 0 1.783-.335 2.329-1.02Zm10.063-5.427h-2.873v7.374h-1.326V2.2h-2.873V1.125h7.072v1.074Zm8.458 7.36h-1.326V5.72h-4.435v3.84h-1.326V1.126h1.326v3.532h4.435V1.125h1.326V9.56Zm11.714-5.358c.487.564.722 1.303.722 2.176 0 .926-.235 1.705-.692 2.296-.516.699-1.267 1.035-2.21 1.035-1.046 0-1.827-.336-2.314-1.021h-.029v.873h-1.194V.494h1.238V4.24h.03c.442-.658 1.193-.994 2.239-.994.958.014 1.68.322 2.21.954Zm-1.031 3.787a2.81 2.81 0 0 0 .427-1.53c0-.632-.147-1.156-.427-1.559-.324-.483-.81-.725-1.429-.725-.634 0-1.135.242-1.503.725-.339.43-.501.967-.501 1.598 0 .591.162 1.102.471 1.532.369.51.87.765 1.518.765.619 0 1.09-.268 1.444-.806Zm4.833 1.572h-1.252V.494h1.252V9.56ZM224.5 8.35c0 .564.015.967.059 1.209h-1.164v-.793h-.029c-.487.632-1.194.94-2.093.94-.766 0-1.355-.147-1.783-.456-.456-.336-.692-.82-.692-1.464 0-.698.368-1.236 1.09-1.598.575-.296 1.268-.444 2.063-.444.56 0 1.002.014 1.326.027 0-.55-.118-.953-.368-1.209-.265-.268-.693-.403-1.311-.403-.767 0-1.415.215-1.96.632l-.089-.954a4.57 4.57 0 0 1 2.225-.577c.943 0 1.651.214 2.093.644.427.417.633 1.048.633 1.908V8.35Zm-1.724-.027c.324-.295.487-.671.487-1.155v-.537c-.089 0-.221 0-.398-.014-.177-.013-.31-.013-.398-.013-1.562 0-2.358.39-2.358 1.182 0 .309.133.55.413.739.25.174.53.255.854.255.59.013 1.061-.148 1.4-.457Zm8.296 1.142c-.398.174-.928.255-1.562.255-1.002 0-1.827-.322-2.49-.954a3.047 3.047 0 0 1-.958-2.27c0-.94.324-1.719.958-2.323.634-.605 1.473-.9 2.49-.9.575 0 1.076.08 1.518.242l-.103.94c-.472-.175-.914-.269-1.356-.269-.663 0-1.193.242-1.606.712-.368.443-.56.967-.56 1.598 0 .618.177 1.142.531 1.559.412.497.987.738 1.723.738.501 0 .944-.12 1.341-.349l.074 1.02Zm7.485.094h-1.797l-3.021-3.17v3.17h-1.238V.494h1.238v5.4l2.726-2.5h1.695l-3.139 2.727 3.536 3.439Zm9.46-.094c-.398.174-.928.255-1.562.255-1.002 0-1.827-.322-2.49-.954a3.047 3.047 0 0 1-.958-2.27c0-.94.324-1.719.958-2.323.634-.605 1.474-.9 2.49-.9.575 0 1.076.08 1.518.242l-.103.94c-.472-.175-.914-.269-1.356-.269-.663 0-1.193.242-1.606.712-.368.443-.56.967-.56 1.598 0 .618.177 1.142.531 1.559.412.497.987.738 1.724.738.501 0 .943-.12 1.34-.349l.074 1.02Zm7.412.094h-1.209v-.98h-.029c-.177.349-.471.617-.884.819a2.99 2.99 0 0 1-1.326.309c-1.695 0-2.535-.887-2.535-2.646V3.408h1.238v3.184c0 .752.103 1.289.31 1.625.221.376.589.564 1.119.577.678.014 1.194-.215 1.548-.698.338-.443.501-1.061.501-1.84V3.408h1.237V9.56h.03Zm5.908-5.212a2.109 2.109 0 0 0-.692-.107c-.56 0-1.002.228-1.341.685-.339.457-.501 1.061-.501 1.84v2.807h-1.238V3.408h1.164v.954h.03c.162-.322.412-.591.737-.793a1.916 1.916 0 0 1 1.031-.308c.236 0 .516.026.825.08v1.007h-.015Zm5.158 0a2.12 2.12 0 0 0-.693-.107c-.56 0-1.002.228-1.341.685-.339.457-.501 1.061-.501 1.84v2.807h-1.238V3.408h1.165v.954h.029a1.98 1.98 0 0 1 .737-.793 1.916 1.916 0 0 1 1.031-.308c.236 0 .516.026.825.08v1.007h-.014Zm6.63 4.003c0 .564.015.967.059 1.209h-1.164v-.793h-.029c-.487.632-1.194.94-2.093.94-.766 0-1.355-.147-1.783-.456-.456-.336-.692-.82-.692-1.464 0-.698.368-1.236 1.09-1.598.575-.296 1.267-.444 2.063-.444.56 0 1.002.014 1.326.027 0-.55-.118-.953-.368-1.209-.265-.268-.693-.403-1.311-.403-.767 0-1.415.215-1.96.632l-.059-.967a4.568 4.568 0 0 1 2.225-.578c.943 0 1.65.215 2.092.645.427.416.634 1.047.634 1.907v2.552h-.03Zm-1.724-.027c.324-.295.487-.671.487-1.155v-.537c-.089 0-.221 0-.398-.014-.177-.013-.31-.013-.398-.013-1.562 0-2.358.39-2.358 1.182 0 .309.133.55.413.739.25.174.53.255.854.255.605.013 1.061-.148 1.4-.457Zm9.814 1.236h-1.238V6.363c0-.752-.103-1.29-.309-1.625-.221-.363-.59-.55-1.12-.564-.678-.014-1.209.215-1.562.685-.339.443-.501 1.061-.501 1.853V9.56h-1.238V3.395h1.208v.98h.03c.191-.335.486-.618.884-.819a2.987 2.987 0 0 1 1.326-.309c1.695 0 2.534.887 2.534 2.646V9.56h-.014Zm5.82-.014c-.427.108-.781.175-1.061.175-1.385 0-2.078-.604-2.078-1.8v-3.6h-1.532v-.913h1.532V1.985l1.238-.363v1.8h1.798v.913h-1.798v3.371c0 .336.103.618.31.82.191.188.442.282.736.282.325 0 .604-.067.855-.215v.953Zm8.237-9.2c.221 0 .501.027.84.08l-.059.914c-.148-.054-.339-.067-.59-.067-.501 0-.84.147-1.016.443-.133.201-.192.55-.192 1.02v.672h1.798v.914h-1.798v5.251h-1.238V4.322h-1.591v-.914h1.591v-.577c0-.82.148-1.424.442-1.8.339-.457.943-.685 1.813-.685Zm3.477 9.214h-1.252V.494h1.252V9.56Zm7.544-1.209c0 .564.015.967.059 1.209h-1.164v-.793h-.029c-.486.632-1.194.94-2.093.94-.766 0-1.355-.147-1.782-.456-.457-.336-.693-.82-.693-1.464 0-.698.368-1.236 1.09-1.598.575-.296 1.268-.444 2.063-.444.56 0 1.002.014 1.326.027 0-.55-.117-.953-.368-1.209-.265-.268-.692-.403-1.311-.403-.767 0-1.415.215-1.96.632l-.059-.967a4.568 4.568 0 0 1 2.225-.578c.943 0 1.65.215 2.092.645.428.416.634 1.047.634 1.907v2.552h-.03Zm-1.724-.027c.325-.295.487-.671.487-1.155v-.537c-.089 0-.221 0-.398-.014-.177-.013-.31-.013-.398-.013-1.562 0-2.358.39-2.358 1.182 0 .309.133.55.413.739.251.174.53.255.855.255.604.013 1.061-.148 1.399-.457Zm9.254-4.916-2.417 6.165h-1.488l-2.416-6.165h1.355l1.827 5.024h.03l1.871-5.024h1.238Zm7.647 3.076c0 .9-.324 1.652-.957 2.27-.649.631-1.474.954-2.476.954s-1.842-.323-2.49-.954a3.046 3.046 0 0 1-.958-2.27c0-.94.324-1.72.958-2.324.634-.604 1.473-.9 2.49-.9 1.017 0 1.842.296 2.476.9.633.605.957 1.384.957 2.324Zm-1.827 1.558c.339-.43.501-.953.501-1.558 0-.618-.191-1.155-.56-1.598a1.937 1.937 0 0 0-1.547-.712c-.648 0-1.164.242-1.562.712-.368.443-.56.967-.56 1.598 0 .618.177 1.142.516 1.558.383.497.928.739 1.606.739.678.013 1.208-.242 1.606-.739Zm7.279-3.694a2.109 2.109 0 0 0-.692-.107c-.56 0-1.002.228-1.341.685-.339.457-.501 1.061-.501 1.84v2.807h-1.238V3.408h1.164v.954h.03c.162-.322.412-.591.736-.793a1.92 1.92 0 0 1 1.032-.308c.236 0 .516.026.825.08v1.007h-.015Z" fill="#000"/></svg>