<svg width="38" height="51" viewBox="0 0 38 51" fill="none" xmlns="http://www.w3.org/2000/svg">
<path d="M19 0C8.49571 0 0 8.19877 0 18.3359C0 29.2589 11.9971 44.3205 16.9371 50.057C18.0229 51.3143 20.0043 51.3143 21.09 50.057C26.0029 44.3205 38 29.2589 38 18.3359C38 8.19877 29.5043 0 19 0ZM19 24.8844C17.2003 24.8844 15.4743 24.1945 14.2018 22.9664C12.9292 21.7383 12.2143 20.0727 12.2143 18.3359C12.2143 16.5991 12.9292 14.9335 14.2018 13.7054C15.4743 12.4773 17.2003 11.7874 19 11.7874C20.7997 11.7874 22.5257 12.4773 23.7982 13.7054C25.0708 14.9335 25.7857 16.5991 25.7857 18.3359C25.7857 20.0727 25.0708 21.7383 23.7982 22.9664C22.5257 24.1945 20.7997 24.8844 19 24.8844Z" fill="white"></path>
</svg>
