<svg width="167" height="13" fill="none" xmlns="http://www.w3.org/2000/svg"><path d="M8.399 9.165c-.796.255-1.739.376-2.83.376-1.473 0-2.651-.403-3.535-1.195C1.149 7.554.693 6.479.693 5.136c0-1.29.456-2.337 1.385-3.143C2.99 1.2 4.155.81 5.585.81c.913 0 1.827.148 2.726.43l-.104 1.222c-.648-.39-1.503-.578-2.549-.578s-1.915.31-2.578.94c-.649.619-.973 1.398-.973 2.351 0 .967.34 1.773 1.017 2.39.663.605 1.473.9 2.46.9.457 0 .958-.053 1.489-.147V5.754H5.128V4.76h3.27v4.405Zm4.95-6.084c1.99 0 2.977 1.155 2.977 3.479h-4.818c0 .59.221 1.088.678 1.477.427.376.943.578 1.547.578.368 0 .78-.081 1.238-.229.383-.12.663-.255.854-.39v1.142c-.81.269-1.517.403-2.136.403-1.164 0-2.048-.309-2.652-.926-.575-.578-.855-1.384-.855-2.418 0-.913.295-1.666.87-2.243.589-.591 1.355-.873 2.298-.873Zm1.666 2.632c0-.483-.147-.886-.442-1.208-.31-.336-.722-.497-1.238-.497-.56 0-1.002.188-1.34.55-.266.31-.428.699-.487 1.155h3.507Zm8.973 3.68h-1.237V6.198c0-.752-.103-1.29-.31-1.625-.22-.363-.59-.55-1.12-.564-.677-.014-1.208.215-1.562.685-.338.443-.5 1.06-.5 1.853v2.848H18.02V3.229h1.208v.98h.03c.191-.336.486-.618.884-.82a2.988 2.988 0 0 1 1.326-.308c1.694 0 2.534.886 2.534 2.646v3.667h-.015Zm5.82-.026c-.427.107-.78.174-1.06.174-1.385 0-2.078-.604-2.078-1.8v-3.6h-1.532V3.23h1.532V1.805l1.238-.363v1.8h1.797v.913h-1.797v3.372c0 .335.103.617.31.819.19.188.441.282.736.282.324 0 .604-.067.855-.215v.954Zm2.874.027h-1.253V.327h1.253v9.067Zm4.995-6.313c1.99 0 2.977 1.155 2.977 3.479h-4.819c0 .59.221 1.088.678 1.477.427.376.943.578 1.547.578.369 0 .781-.081 1.238-.229.383-.12.663-.255.855-.39v1.142c-.81.269-1.518.403-2.137.403-1.164 0-2.048-.309-2.652-.926-.575-.578-.855-1.384-.855-2.418 0-.913.295-1.666.87-2.243.589-.591 1.355-.873 2.298-.873Zm1.665 2.632c0-.483-.147-.886-.442-1.208-.31-.336-.722-.497-1.238-.497-.56 0-1.002.188-1.34.55-.266.31-.428.699-.487 1.155h3.507ZM55.845 3.23 53.68 9.394h-1.444l-1.753-5.171h-.03l-1.709 5.17h-1.444L45.133 3.23h1.37l1.547 5.104h.03l1.724-5.104h1.473l1.695 5.104h.03l1.65-5.104h1.193Zm2.697-1.384h-1.4V.57h1.4v1.276Zm-.074 7.549h-1.253V3.229h1.253v6.165Zm5.982-.027c-.427.107-.78.174-1.06.174-1.386 0-2.078-.604-2.078-1.8v-3.6h-1.533V3.23h1.533V1.805l1.238-.363v1.8h1.797v.913H62.55v3.372c0 .335.103.617.309.819.191.188.442.282.737.282.324 0 .604-.067.854-.215v.954Zm7.441.027h-1.237V6.197c0-.752-.103-1.29-.31-1.625-.22-.363-.59-.55-1.12-.564-.677-.014-1.208.215-1.562.685-.338.443-.5 1.06-.5 1.853v2.848h-1.238V.327h1.237v3.788h.03c.471-.685 1.194-1.02 2.18-1.02 1.695 0 2.535.886 2.535 2.645v3.654h-.015Zm11.066-1.21c0 .565.015.968.06 1.21h-1.165V8.6h-.03c-.486.631-1.193.94-2.092.94-.766 0-1.355-.147-1.783-.456-.456-.336-.692-.82-.692-1.464 0-.699.368-1.236 1.09-1.599.575-.295 1.267-.443 2.063-.443.56 0 1.002.014 1.326.027 0-.55-.118-.954-.368-1.209-.265-.268-.693-.403-1.311-.403-.767 0-1.415.215-1.96.631l-.06-.967a4.568 4.568 0 0 1 2.226-.577c.943 0 1.65.215 2.092.645.428.416.634 1.047.634 1.907v2.552h-.03Zm-1.724-.04c.325-.295.487-.671.487-1.155v-.537c-.089 0-.221 0-.398-.013a4.92 4.92 0 0 0-.398-.014c-1.562 0-2.358.39-2.358 1.182 0 .31.133.55.413.739.25.175.53.255.855.255.604.014 1.06-.134 1.4-.457ZM91.283.945l-.826 2.969H88.97L90.104.945h1.178Zm2.52 0-.855 2.969h-1.46l1.12-2.969h1.194Zm3.742 8.664c0 .698-.089 1.222-.25 1.571-.295.604-.84.9-1.651.9-.354 0-.619-.014-.766-.054l.044-.98c.162.027.324.04.501.04.59 0 .884-.43.884-1.303V3.23h1.252v6.38h-.014Zm.073-7.764h-1.4V.57h1.4v1.276Zm8.178 7.549h-1.208v-.98h-.029c-.177.348-.472.617-.885.818a2.984 2.984 0 0 1-1.326.31c-1.694 0-2.534-.887-2.534-2.647V3.242h1.238v3.183c0 .752.103 1.29.309 1.625.221.377.59.565 1.12.578.678.013 1.193-.215 1.547-.698.339-.444.501-1.061.501-1.84V3.241h1.238v6.152h.029Zm3.61-7.549h-1.399V.57h1.399v1.276Zm-.073 7.549h-1.253V3.229h1.253v6.165Zm6.733-.108c-.397.175-.928.255-1.561.255-1.002 0-1.828-.322-2.491-.953a3.05 3.05 0 0 1-.957-2.27c0-.94.324-1.72.957-2.324.634-.604 1.474-.9 2.491-.9.574 0 1.075.08 1.517.242l-.103.94c-.471-.174-.913-.268-1.355-.268-.664 0-1.194.241-1.607.711-.368.444-.559.968-.559 1.599 0 .618.176 1.141.53 1.558.413.497.987.739 1.724.739.501 0 .943-.121 1.341-.35l.073 1.021Zm6.779-6.057-2.491 6.299c-.339.846-.619 1.41-.854 1.72-.442.55-1.017.832-1.739.832-.221 0-.501-.027-.855-.094l.074-.927c.206.067.413.094.589.094.472 0 .855-.242 1.164-.712.222-.336.325-.618.325-.806 0-.04-.074-.255-.236-.658l-2.299-5.748h1.371l1.812 5.104h.029l1.857-5.104h1.253Zm3.801-2.284-1.12 2.969h-1.179l.84-2.969h1.459Zm2.52 0-1.12 2.969h-1.179l.84-2.969h1.459Zm9.091-.765c.221 0 .501.027.84.08l-.059.914c-.147-.054-.339-.068-.589-.068-.501 0-.84.148-1.017.444-.133.201-.192.55-.192 1.02v.672h1.798v.913h-1.798v5.252h-1.237V4.155h-1.592v-.913h1.592v-.578c0-.819.147-1.423.442-1.8.339-.456.958-.684 1.812-.684Zm3.581 1.665h-1.4V.57h1.4v1.276Zm-.089 7.549h-1.252V3.229h1.252v6.165Zm8.267 0h-1.238V6.197c0-.752-.103-1.29-.31-1.625-.221-.363-.589-.55-1.119-.564-.678-.014-1.209.215-1.562.685-.339.443-.501 1.06-.501 1.853v2.848h-1.238V3.229h1.208v.98h.03c.191-.336.486-.618.884-.82a2.984 2.984 0 0 1 1.326-.308c1.694 0 2.534.886 2.534 2.646v3.667h-.014Zm3.595-7.549h-1.4V.57h1.4v1.276Zm-.074 7.549h-1.252V3.229h1.252v6.165Zm5.172-3.116c.501.335.752.779.752 1.343 0 .617-.236 1.101-.722 1.45-.442.31-.988.47-1.636.47-.766 0-1.385-.12-1.857-.335l.059-1.021a2.973 2.973 0 0 0 1.548.443c.338 0 .618-.067.854-.201.28-.148.427-.39.427-.685 0-.296-.25-.578-.751-.833-.472-.229-.943-.47-1.415-.699-.501-.335-.751-.738-.751-1.235 0-.618.236-1.088.693-1.424.427-.309.987-.47 1.694-.47.442 0 .958.08 1.547.242l-.103.994c-.133-.081-.354-.148-.648-.215a2.944 2.944 0 0 0-.663-.094c-.339 0-.619.067-.84.188-.236.134-.369.322-.369.564 0 .336.251.618.767.86.471.214.943.43 1.414.658Zm8.252 3.116h-1.238V6.197c0-.752-.103-1.29-.31-1.625-.221-.363-.589-.55-1.119-.564-.678-.014-1.209.215-1.562.685-.339.443-.501 1.06-.501 1.853v2.848h-1.238V.327h1.238v3.788h.029c.472-.685 1.194-1.02 2.181-1.02 1.695 0 2.534.886 2.534 2.645v3.654h-.014Z" fill="#000"/></svg>