<svg width="170" height="13" viewBox="0 0 170 13" fill="none" xmlns="http://www.w3.org/2000/svg">
<path d="M7.69158 9.39137C7.16112 9.59284 6.45386 9.70029 5.58451 9.70029C4.11102 9.70029 2.93224 9.29735 2.04815 8.5049C1.16406 7.71245 0.707275 6.63794 0.707275 5.2948C0.707275 4.00539 1.16406 2.95775 2.09235 2.15186C3.00592 1.35941 4.16993 0.969901 5.59921 0.969901C6.38016 0.969901 7.07272 1.09078 7.69158 1.33255L7.58842 2.50108C6.99903 2.19215 6.36545 2.03098 5.67291 2.03098C4.62674 2.03098 3.75738 2.3399 3.09431 2.97118C2.44598 3.58902 2.12181 4.38147 2.12181 5.3351C2.12181 6.30216 2.46071 7.10804 3.13852 7.72588C3.80158 8.33029 4.61198 8.62578 5.59921 8.62578C6.4391 8.62578 7.11694 8.49147 7.61792 8.22284L7.69158 9.39137ZM15.1474 9.53911H13.9097V6.34245C13.9097 5.59029 13.8066 5.05304 13.6003 4.71725C13.3792 4.35461 13.0109 4.16657 12.4804 4.15313C11.8026 4.1397 11.2722 4.36804 10.9185 4.83814C10.5796 5.28137 10.4175 5.89922 10.4175 6.69167V9.53911H9.17981V0.472941H10.4175V4.26059H10.447C10.9185 3.57559 11.6405 3.2398 12.6278 3.2398C14.3223 3.2398 15.1622 4.12627 15.1622 5.88578V9.53911H15.1474ZM18.7427 2.00412H17.3429V0.728135H18.7427V2.00412ZM18.6691 9.53911H17.4166V3.37412H18.6691V9.53911ZM22.3528 9.53911H21.1003V0.472941H22.3528V9.53911ZM27.3626 3.2398C29.3518 3.2398 30.339 4.3949 30.339 6.71853H25.5208C25.5208 7.30951 25.7418 7.80647 26.1985 8.19598C26.6259 8.57205 27.1416 8.77353 27.7457 8.77353C28.1141 8.77353 28.5267 8.69294 28.9835 8.54519C29.3666 8.42431 29.6465 8.29 29.8381 8.15568V9.29735C29.0276 9.56598 28.3203 9.70029 27.7015 9.70029C26.5374 9.70029 25.6534 9.39137 25.0492 8.77353C24.4746 8.19598 24.1946 7.3901 24.1946 6.35588C24.1946 5.44255 24.4893 4.69039 25.064 4.11284C25.6386 3.52186 26.4048 3.2398 27.3626 3.2398ZM29.0129 5.87235C29.0129 5.38882 28.8656 4.98588 28.5709 4.66353C28.2614 4.32774 27.8488 4.16657 27.3331 4.16657C26.7732 4.16657 26.3312 4.35461 25.9923 4.71725C25.7271 5.02618 25.5649 5.41569 25.506 5.87235H29.0129ZM37.2791 8.3303C37.2791 8.89441 37.2939 9.29735 37.3381 9.53911H36.174V8.74667H36.1446C35.6583 9.37794 34.951 9.68686 34.0522 9.68686C33.286 9.68686 32.6966 9.53912 32.2693 9.2302C31.8125 8.89441 31.5768 8.41088 31.5768 7.76617C31.5768 7.06774 31.9452 6.53049 32.6672 6.16784C33.2418 5.87235 33.9344 5.72461 34.73 5.72461C35.29 5.72461 35.732 5.73804 36.0562 5.75147C36.0562 5.20078 35.9383 4.79784 35.6878 4.54265C35.4226 4.27402 34.9952 4.13971 34.3764 4.13971C33.6102 4.13971 32.9618 4.35461 32.4167 4.77098L32.3577 3.80392C33.065 3.41441 33.8165 3.22637 34.5827 3.22637C35.5257 3.22637 36.233 3.44127 36.675 3.87108C37.1024 4.28745 37.3086 4.91873 37.3086 5.77833V8.3303H37.2791ZM35.5552 8.30343C35.8793 8.00794 36.0414 7.63186 36.0414 7.14833V6.61108C35.953 6.61108 35.8204 6.61108 35.6436 6.59764C35.4668 6.58421 35.3342 6.58421 35.2458 6.58421C33.6839 6.58421 32.8882 6.97372 32.8882 7.76617C32.8882 8.07509 33.0208 8.31686 33.3008 8.5049C33.5512 8.67951 33.8312 8.7601 34.1554 8.7601C34.7447 8.77353 35.2163 8.61235 35.5552 8.30343ZM45.3686 9.53911H44.1309V6.34245C44.1309 5.59029 44.0277 5.05304 43.8214 4.71725C43.6004 4.35461 43.232 4.16657 42.7016 4.15313C42.0238 4.1397 41.4933 4.36804 41.1397 4.83814C40.8008 5.28137 40.6387 5.89922 40.6387 6.69167V9.53911H39.401V3.37412H40.6092V4.35461H40.6387C40.8302 4.01882 41.1249 3.73676 41.5228 3.53529C41.9354 3.33382 42.3774 3.22637 42.8489 3.22637C44.5434 3.22637 45.3833 4.11284 45.3833 5.87235V9.53911H45.3686ZM56.8912 4.18C57.3775 4.74412 57.6133 5.48284 57.6133 6.35588C57.6133 7.28265 57.3775 8.06167 56.9207 8.65265C56.405 9.35108 55.6535 9.68686 54.7105 9.68686C53.6643 9.68686 52.8834 9.35108 52.3971 8.66608H52.3676V9.53911H51.1741V0.472941H52.4118V4.2203H52.4413C52.8834 3.56216 53.6348 3.22637 54.681 3.22637C55.624 3.2398 56.3608 3.54872 56.8912 4.18ZM55.8451 7.96764C56.125 7.52441 56.2724 7.01402 56.2724 6.43647C56.2724 5.80519 56.125 5.28137 55.8451 4.87843C55.5209 4.3949 55.0346 4.15313 54.4158 4.15313C53.7822 4.15313 53.2812 4.3949 52.9128 4.87843C52.5739 5.30823 52.4118 5.84549 52.4118 6.47676C52.4118 7.06774 52.5739 7.57813 52.8834 8.00794C53.2517 8.51833 53.7527 8.77353 54.4011 8.77353C55.0199 8.77353 55.5061 8.5049 55.8451 7.96764ZM60.6781 9.53911H59.4256V0.472941H60.6781V9.53911ZM65.6879 3.2398C67.6771 3.2398 68.6644 4.3949 68.6644 6.71853H63.8461C63.8461 7.30951 64.0671 7.80647 64.5239 8.19598C64.9512 8.57205 65.4669 8.77353 66.071 8.77353C66.4394 8.77353 66.852 8.69294 67.3088 8.54519C67.6919 8.42431 67.9719 8.29 68.1634 8.15568V9.29735C67.353 9.56598 66.6457 9.70029 66.0268 9.70029C64.8628 9.70029 63.9787 9.39137 63.3746 8.77353C62.7999 8.19598 62.5199 7.3901 62.5199 6.35588C62.5199 5.44255 62.8146 4.69039 63.3893 4.11284C63.9639 3.52186 64.7301 3.2398 65.6879 3.2398ZM67.3383 5.87235C67.3383 5.38882 67.1909 4.98588 66.8962 4.66353C66.5868 4.32774 66.1742 4.16657 65.6585 4.16657C65.0985 4.16657 64.6565 4.35461 64.3176 4.71725C64.0524 5.02618 63.8903 5.41569 63.8314 5.87235H67.3383ZM76.3118 9.53911H75.0741V6.34245C75.0741 5.59029 74.9709 5.05304 74.7646 4.71725C74.5436 4.35461 74.1752 4.16657 73.6448 4.15313C72.967 4.1397 72.4365 4.36804 72.0829 4.83814C71.744 5.28137 71.5819 5.89922 71.5819 6.69167V9.53911H70.3441V3.37412H71.5524V4.35461H71.5819C71.7734 4.01882 72.0681 3.73676 72.466 3.53529C72.8785 3.33382 73.3206 3.22637 73.7921 3.22637C75.4866 3.22637 76.3265 4.11284 76.3265 5.87235V9.53911H76.3118ZM84.4159 9.53911H83.2224V8.66608H83.1929C82.7067 9.33765 81.9405 9.68686 80.8943 9.68686C79.9365 9.68686 79.1998 9.33765 78.6694 8.65265C78.2126 8.04824 77.9768 7.28265 77.9768 6.35588C77.9768 5.46941 78.2126 4.74412 78.6988 4.18C79.2293 3.54872 79.9513 3.2398 80.8943 3.2398C81.9405 3.2398 82.692 3.57559 83.134 4.23372H83.1635V0.48637H84.4012V9.53911H84.4159ZM82.7067 8.00794C83.0161 7.57813 83.1782 7.06774 83.1782 6.47676C83.1782 5.84549 83.0161 5.32167 82.6919 4.87843C82.3236 4.3949 81.8226 4.15313 81.189 4.15313C80.5554 4.15313 80.0839 4.3949 79.745 4.87843C79.465 5.28137 79.3176 5.80519 79.3176 6.43647C79.3176 7.01402 79.465 7.52441 79.745 7.96764C80.0839 8.5049 80.5701 8.77353 81.189 8.77353C81.8373 8.77353 82.3383 8.51833 82.7067 8.00794ZM88.0702 8.19598L86.9356 11.1509H85.7421L86.582 8.19598H88.0702ZM96.808 6.42304C97.3089 6.75882 97.5594 7.20205 97.5594 7.76617C97.5594 8.38402 97.3237 8.86755 96.8374 9.21676C96.3954 9.52568 95.8502 9.68686 95.2018 9.68686C94.4356 9.68686 93.8168 9.56598 93.3453 9.35107L93.4042 8.3303C93.8905 8.62579 94.4209 8.77353 94.9513 8.77353C95.2903 8.77353 95.5702 8.70638 95.8059 8.57206C96.0859 8.42432 96.2333 8.18255 96.2333 7.88706C96.2333 7.59157 95.9828 7.30951 95.4818 7.05431C95.0103 6.82598 94.5388 6.58422 94.0672 6.35588C93.5663 6.0201 93.3158 5.61716 93.3158 5.12019C93.3158 4.50235 93.5515 4.03225 94.0083 3.69647C94.4356 3.38755 94.9956 3.22637 95.7028 3.22637C96.1449 3.22637 96.6606 3.30696 97.25 3.46814L97.1468 4.46206C97.0142 4.38147 96.7932 4.31431 96.4985 4.24715C96.2185 4.18 95.9975 4.15313 95.8354 4.15313C95.4965 4.15313 95.2166 4.2203 94.9956 4.34118C94.7598 4.47549 94.6272 4.66353 94.6272 4.90529C94.6272 5.24108 94.8777 5.52314 95.3934 5.7649C95.8649 5.99323 96.3364 6.20814 96.808 6.42304ZM104.794 4.18C105.28 4.74412 105.516 5.48284 105.516 6.35588C105.516 7.28265 105.28 8.06167 104.824 8.65265C104.308 9.35108 103.557 9.68686 102.613 9.68686C101.553 9.68686 100.801 9.35108 100.359 8.69294H100.33V12.0776H99.0918V3.37412H100.285V4.24715H100.315C100.801 3.57559 101.567 3.22637 102.613 3.22637C103.527 3.2398 104.249 3.54872 104.794 4.18ZM103.748 7.96764C104.028 7.52441 104.175 7.01402 104.175 6.43647C104.175 5.80519 104.028 5.28137 103.748 4.87843C103.424 4.3949 102.938 4.15313 102.319 4.15313C101.685 4.15313 101.184 4.3949 100.816 4.87843C100.477 5.30823 100.315 5.84549 100.315 6.47676C100.315 7.06774 100.477 7.57813 100.786 8.00794C101.155 8.51833 101.656 8.77353 102.304 8.77353C102.923 8.77353 103.394 8.5049 103.748 7.96764ZM108.655 2.00412H107.255V0.728135H108.655V2.00412ZM108.581 9.53911H107.329V3.37412H108.581V9.53911ZM115.315 9.44509C114.917 9.6197 114.387 9.70029 113.753 9.70029C112.751 9.70029 111.926 9.37794 111.263 8.74667C110.629 8.12882 110.305 7.37666 110.305 6.47676C110.305 5.53657 110.629 4.75755 111.263 4.15313C111.896 3.54872 112.736 3.25323 113.753 3.25323C114.328 3.25323 114.829 3.33382 115.271 3.495L115.168 4.4352C114.696 4.26059 114.254 4.16657 113.812 4.16657C113.149 4.16657 112.618 4.40833 112.206 4.87843C111.837 5.32167 111.646 5.84549 111.646 6.47676C111.646 7.0946 111.823 7.61843 112.176 8.03481C112.589 8.53177 113.164 8.77353 113.9 8.77353C114.401 8.77353 114.843 8.65265 115.241 8.42432L115.315 9.44509ZM122.108 3.38755L119.617 9.68686C119.279 10.533 118.999 11.0972 118.763 11.4061C118.321 11.9568 117.746 12.2388 117.024 12.2388C116.803 12.2388 116.523 12.212 116.17 12.1448L116.243 11.218C116.45 11.2852 116.656 11.3121 116.833 11.3121C117.304 11.3121 117.687 11.0703 117.997 10.6002C118.218 10.2644 118.321 9.98235 118.321 9.79431C118.321 9.75402 118.247 9.53912 118.085 9.13618L115.786 3.38755H117.157L118.969 8.49147H118.999L120.855 3.38755H122.108ZM130.153 0.325195C130.374 0.325195 130.654 0.35206 130.993 0.405785L130.934 1.31912C130.786 1.26539 130.595 1.25196 130.344 1.25196C129.843 1.25196 129.505 1.39971 129.328 1.6952C129.195 1.89667 129.136 2.24588 129.136 2.71598V3.38755H130.934V4.30088H129.136V9.55255H127.898V4.30088H126.307V3.38755H127.898V2.81C127.898 1.99068 128.046 1.38627 128.341 1.01019C128.679 0.553526 129.284 0.325195 130.153 0.325195ZM133.719 2.00412H132.319V0.728135H133.719V2.00412ZM133.63 9.53911H132.378V3.37412H133.63V9.53911ZM141.897 9.53911H140.659V6.34245C140.659 5.59029 140.556 5.05304 140.349 4.71725C140.128 4.35461 139.76 4.16657 139.23 4.15313C138.552 4.1397 138.021 4.36804 137.668 4.83814C137.329 5.28137 137.167 5.89922 137.167 6.69167V9.53911H135.929V3.37412H137.137V4.35461H137.167C137.358 4.01882 137.653 3.73676 138.051 3.53529C138.463 3.33382 138.905 3.22637 139.377 3.22637C141.071 3.22637 141.911 4.11284 141.911 5.87235V9.53911H141.897ZM145.507 2.00412H144.107V0.728135H145.507V2.00412ZM145.418 9.53911H144.166V3.37412H145.418V9.53911ZM150.59 6.42304C151.091 6.75882 151.342 7.20205 151.342 7.76617C151.342 8.38402 151.106 8.86755 150.62 9.21676C150.178 9.52568 149.632 9.68686 148.984 9.68686C148.218 9.68686 147.599 9.56598 147.127 9.35107L147.186 8.3303C147.673 8.62579 148.203 8.77353 148.734 8.77353C149.072 8.77353 149.352 8.70638 149.588 8.57206C149.868 8.42432 150.015 8.18255 150.015 7.88706C150.015 7.59157 149.765 7.30951 149.264 7.05431C148.792 6.82598 148.321 6.58422 147.849 6.35588C147.348 6.0201 147.098 5.61716 147.098 5.12019C147.098 4.50235 147.334 4.03225 147.79 3.69647C148.218 3.38755 148.778 3.22637 149.485 3.22637C149.927 3.22637 150.443 3.30696 151.032 3.46814L150.929 4.46206C150.796 4.38147 150.575 4.31431 150.281 4.24715C150.001 4.18 149.78 4.15313 149.618 4.15313C149.279 4.15313 148.999 4.2203 148.778 4.34118C148.542 4.47549 148.409 4.66353 148.409 4.90529C148.409 5.24108 148.66 5.52314 149.176 5.7649C149.647 5.99323 150.119 6.20814 150.59 6.42304ZM158.842 9.53911H157.604V6.34245C157.604 5.59029 157.501 5.05304 157.294 4.71725C157.073 4.35461 156.705 4.16657 156.175 4.15313C155.497 4.1397 154.966 4.36804 154.613 4.83814C154.274 5.28137 154.112 5.89922 154.112 6.69167V9.53911H152.874V0.472941H154.112V4.26059H154.141C154.613 3.57559 155.335 3.2398 156.322 3.2398C158.016 3.2398 158.856 4.12627 158.856 5.88578V9.53911H158.842ZM162.481 9.53911H160.993V8.19598H162.481V9.53911ZM166.18 9.53911H164.691V8.19598H166.18V9.53911ZM169.863 9.53911H168.375V8.19598H169.863V9.53911Z" fill="black"></path>
</svg>
