<svg width="327" height="13" viewBox="0 0 327 13" fill="none" xmlns="http://www.w3.org/2000/svg">
<path d="M13.2321 1.12495L10.3882 9.55985H8.67899L6.66028 2.18604H6.63083L4.59741 9.55985H2.8145L0.0148926 1.12495H1.47363L3.68386 8.35103H3.71331L5.68777 1.12495H7.55913L9.56305 8.35103H9.59254L11.8028 1.12495H13.2321ZM20.3048 9.55985H19.067V6.36318C19.067 5.61102 18.9639 5.07378 18.7576 4.73799C18.5366 4.37534 18.1682 4.18733 17.6378 4.1739C16.96 4.16047 16.4295 4.38877 16.0759 4.85887C15.737 5.3021 15.5749 5.91995 15.5749 6.7124V9.55985H14.3372V0.493673H15.5749V4.28133H15.6043C16.0759 3.59633 16.7979 3.26053 17.7851 3.26053C19.4796 3.26053 20.3195 4.147 20.3195 5.90651V9.55985H20.3048ZM23.9148 2.02487H22.515V0.748872H23.9148V2.02487ZM23.8264 9.55985H22.5739V3.39485H23.8264V9.55985ZM31.8274 4.20074C32.3137 4.76486 32.5494 5.50358 32.5494 6.37662C32.5494 7.30339 32.3137 8.08239 31.8569 8.67337C31.3412 9.37181 30.5897 9.70762 29.6467 9.70762C28.5857 9.70762 27.8343 9.3718 27.3922 8.71367H27.3628V12.0984H26.125V3.39485H27.3186V4.26789H27.348C27.8343 3.59632 28.6005 3.24713 29.6467 3.24713C30.5602 3.26056 31.297 3.56947 31.8274 4.20074ZM30.7813 7.9884C31.0612 7.54517 31.2085 7.03475 31.2085 6.45721C31.2085 5.82593 31.0612 5.3021 30.7813 4.89916C30.4571 4.41563 29.9708 4.1739 29.352 4.1739C28.7184 4.1739 28.2174 4.41563 27.849 4.89916C27.5101 5.32897 27.348 5.86622 27.348 6.4975C27.348 7.08848 27.5101 7.59889 27.8195 8.02869C28.1879 8.53909 28.6889 8.79429 29.3372 8.79429C29.9561 8.79429 30.4424 8.52566 30.7813 7.9884ZM39.9316 4.20074C40.4178 4.76486 40.6536 5.50358 40.6536 6.37662C40.6536 7.30339 40.4178 8.08239 39.961 8.67337C39.4453 9.37181 38.6938 9.70762 37.7508 9.70762C36.6899 9.70762 35.9384 9.3718 35.4964 8.71367H35.4669V12.0984H34.2292V3.39485H35.4227V4.26789H35.4522C35.9384 3.59632 36.7046 3.24713 37.7508 3.24713C38.6644 3.26056 39.4011 3.56947 39.9316 4.20074ZM38.8854 7.9884C39.1654 7.54517 39.3127 7.03475 39.3127 6.45721C39.3127 5.82593 39.1654 5.3021 38.8854 4.89916C38.5613 4.41563 38.075 4.1739 37.4562 4.1739C36.8226 4.1739 36.3215 4.41563 35.9532 4.89916C35.6143 5.32897 35.4522 5.86622 35.4522 6.4975C35.4522 7.08848 35.6143 7.59889 35.9237 8.02869C36.2921 8.53909 36.7931 8.79429 37.4414 8.79429C38.0603 8.79429 38.5465 8.52566 38.8854 7.9884ZM43.7185 9.55985H42.466V0.493673H43.7185V9.55985ZM48.7283 3.26053C50.7175 3.26053 51.7047 4.41563 51.7047 6.73925H46.8864C46.8864 7.33023 47.1075 7.8272 47.5642 8.21671C47.9915 8.59279 48.5072 8.79429 49.1114 8.79429C49.4797 8.79429 49.8924 8.71369 50.3491 8.56594C50.7322 8.44506 51.0122 8.31073 51.2037 8.17642V9.31809C50.3933 9.58672 49.686 9.72102 49.0672 9.72102C47.9031 9.72102 47.019 9.41214 46.4149 8.79429C45.8403 8.21674 45.5603 7.41084 45.5603 6.37662C45.5603 5.46329 45.855 4.71115 46.4297 4.1336C47.0043 3.54262 47.7705 3.26053 48.7283 3.26053ZM50.3786 5.89311C50.3786 5.40958 50.2313 5.00661 49.9366 4.68425C49.6271 4.34847 49.2145 4.1873 48.6988 4.1873C48.1389 4.1873 47.6969 4.37534 47.358 4.73799C47.0927 5.04691 46.9306 5.43644 46.8717 5.89311H50.3786ZM57.0682 9.54645C56.6409 9.6539 56.2873 9.72102 56.0073 9.72102C54.6222 9.72102 53.9297 9.11661 53.9297 7.92122V4.32162H52.3973V3.4083H53.9297V1.98458L55.1674 1.6219V3.42174H56.9651V4.33507H55.1674V7.70631C55.1674 8.0421 55.2706 8.32418 55.4768 8.52565C55.6684 8.71369 55.9189 8.8077 56.2136 8.8077C56.5378 8.8077 56.8177 8.74053 57.0682 8.59279V9.54645ZM62.3138 4.34847C62.1223 4.28131 61.8865 4.24104 61.6213 4.24104C61.0614 4.24104 60.6193 4.46938 60.2804 4.92605C59.9415 5.38272 59.7794 5.98712 59.7794 6.76614V9.57329H58.5417V3.4083H59.7057V4.36191H59.7352C59.8973 4.03956 60.1478 3.77094 60.472 3.56947C60.7961 3.368 61.135 3.26053 61.5034 3.26053C61.7391 3.26053 62.0191 3.28739 62.3285 3.34112V4.34847H62.3138ZM66.4101 3.26053C68.3993 3.26053 69.3865 4.41563 69.3865 6.73925H64.5683C64.5683 7.33023 64.7893 7.8272 65.246 8.21671C65.6734 8.59279 66.1891 8.79429 66.7932 8.79429C67.1616 8.79429 67.5742 8.71369 68.031 8.56594C68.4141 8.44506 68.694 8.31073 68.8856 8.17642V9.31809C68.0751 9.58672 67.3679 9.72102 66.749 9.72102C65.5849 9.72102 64.7009 9.41214 64.0967 8.79429C63.5221 8.21674 63.2421 7.41084 63.2421 6.37662C63.2421 5.46329 63.5368 4.71115 64.1115 4.1336C64.7009 3.54262 65.4671 3.26053 66.4101 3.26053ZM68.0752 5.89311C68.0752 5.40958 67.9278 5.00661 67.6331 4.68425C67.3237 4.34847 66.9111 4.1873 66.3954 4.1873C65.8354 4.1873 65.3934 4.37534 65.0545 4.73799C64.7893 5.04691 64.6272 5.43644 64.5683 5.89311H68.0752ZM73.7922 3.26053C75.7814 3.26053 76.7687 4.41563 76.7687 6.73925H71.9504C71.9504 7.33023 72.1714 7.8272 72.6282 8.21671C73.0555 8.59279 73.5712 8.79429 74.1754 8.79429C74.5437 8.79429 74.9563 8.71369 75.4131 8.56594C75.7962 8.44506 76.0762 8.31073 76.2677 8.17642V9.31809C75.4573 9.58672 74.75 9.72102 74.1312 9.72102C72.9671 9.72102 72.083 9.41214 71.4789 8.79429C70.9043 8.21674 70.6243 7.41084 70.6243 6.37662C70.6243 5.46329 70.919 4.71115 71.4936 4.1336C72.0683 3.54262 72.8345 3.26053 73.7922 3.26053ZM75.4426 5.89311C75.4426 5.40958 75.2952 5.00661 75.0005 4.68425C74.6911 4.34847 74.2785 4.1873 73.7628 4.1873C73.2029 4.1873 72.7608 4.37534 72.4219 4.73799C72.1567 5.04691 71.9946 5.43644 71.9357 5.89311H75.4426ZM80.3787 1.12495L79.2147 4.09331H78.0654L78.8905 1.12495H80.3787ZM85.0202 6.4438C85.5212 6.77959 85.7717 7.22282 85.7717 7.78694C85.7717 8.40478 85.5359 8.88829 85.0497 9.23751C84.6076 9.54643 84.0624 9.70762 83.4141 9.70762C82.6479 9.70762 82.0291 9.58673 81.5575 9.37183L81.6165 8.35103C82.1027 8.64652 82.6332 8.79429 83.1636 8.79429C83.5025 8.79429 83.7825 8.7271 84.0182 8.59279C84.2982 8.44504 84.4456 8.20331 84.4456 7.90782C84.4456 7.61233 84.1951 7.33023 83.6941 7.07504C83.2225 6.8467 82.751 6.60495 82.2795 6.37662C81.7785 6.04084 81.528 5.63792 81.528 5.14096C81.528 4.52311 81.7638 4.05298 82.2206 3.71719C82.6479 3.40827 83.2079 3.24713 83.9151 3.24713C84.3572 3.24713 84.8729 3.32771 85.4623 3.48888L85.3591 4.48279C85.2265 4.4022 85.0055 4.33504 84.7108 4.26789C84.4308 4.20073 84.2098 4.1739 84.0477 4.1739C83.7088 4.1739 83.4289 4.24103 83.2078 4.36191C82.9721 4.49623 82.8395 4.68429 82.8395 4.92605C82.8395 5.26183 83.0899 5.54387 83.6057 5.78564C84.0772 6.01397 84.5487 6.2289 85.0202 6.4438ZM96.9112 4.56338H95.5114L95.2757 6.13487H96.5429V7.06163H95.1431L94.7599 9.57329H93.758L94.1411 7.06163H92.5792L92.1961 9.57329H91.1941L91.5772 7.06163H90.31V6.13487H91.7098L91.9456 4.56338H90.6784V3.63661H92.0929L92.4761 1.12495H93.4928L93.1097 3.63661H94.6715L95.0547 1.12495H96.0566L95.6735 3.63661H96.926V4.56338H96.9112ZM94.5095 4.56338H92.9475L92.7118 6.13487H94.2737L94.5095 4.56338ZM101.125 9.55985H99.8729V4.54997L98.3553 5.49014L97.9279 4.65741L99.9172 3.39485H101.125V9.55985ZM110.114 6.4438C110.615 6.77959 110.865 7.22282 110.865 7.78694C110.865 8.40478 110.629 8.88829 110.143 9.23751C109.701 9.54643 109.156 9.70762 108.508 9.70762C107.741 9.70762 107.122 9.58673 106.651 9.37183L106.71 8.35103C107.196 8.64652 107.727 8.79429 108.257 8.79429C108.596 8.79429 108.876 8.7271 109.112 8.59279C109.392 8.44504 109.539 8.20331 109.539 7.90782C109.539 7.61233 109.288 7.33023 108.788 7.07504C108.316 6.8467 107.844 6.60495 107.373 6.37662C106.872 6.04084 106.621 5.63792 106.621 5.14096C106.621 4.52311 106.857 4.05298 107.314 3.71719C107.741 3.40827 108.301 3.24713 109.009 3.24713C109.451 3.24713 109.966 3.32771 110.556 3.48888L110.453 4.48279C110.32 4.4022 110.099 4.33504 109.804 4.26789C109.524 4.20073 109.303 4.1739 109.141 4.1739C108.802 4.1739 108.522 4.24103 108.301 4.36191C108.066 4.49623 107.933 4.68429 107.933 4.92605C107.933 5.26183 108.183 5.54387 108.699 5.78564C109.171 6.01397 109.642 6.2289 110.114 6.4438ZM115.094 3.26053C117.083 3.26053 118.07 4.41563 118.07 6.73925H113.252C113.252 7.33023 113.473 7.8272 113.93 8.21671C114.357 8.59279 114.873 8.79429 115.477 8.79429C115.846 8.79429 116.258 8.71369 116.715 8.56594C117.098 8.44506 117.378 8.31073 117.57 8.17642V9.31809C116.759 9.58672 116.052 9.72102 115.433 9.72102C114.269 9.72102 113.385 9.41214 112.781 8.79429C112.206 8.21674 111.926 7.41084 111.926 6.37662C111.926 5.46329 112.221 4.71115 112.795 4.1336C113.385 3.54262 114.151 3.26053 115.094 3.26053ZM116.759 5.89311C116.759 5.40958 116.612 5.00661 116.317 4.68425C116.008 4.34847 115.595 4.1873 115.079 4.1873C114.519 4.1873 114.077 4.37534 113.738 4.73799C113.473 5.04691 113.311 5.43644 113.252 5.89311H116.759ZM121.15 9.55985H119.898V0.493673H121.15V9.55985ZM124.849 9.55985H123.596V0.493673H124.849V9.55985ZM129.844 3.26053C131.833 3.26053 132.82 4.41563 132.82 6.73925H128.002C128.002 7.33023 128.223 7.8272 128.68 8.21671C129.107 8.59279 129.623 8.79429 130.227 8.79429C130.595 8.79429 131.008 8.71369 131.464 8.56594C131.848 8.44506 132.128 8.31073 132.319 8.17642V9.31809C131.509 9.58672 130.801 9.72102 130.183 9.72102C129.018 9.72102 128.134 9.41214 127.53 8.79429C126.956 8.21674 126.676 7.41084 126.676 6.37662C126.676 5.46329 126.97 4.71115 127.545 4.1336C128.134 3.54262 128.901 3.26053 129.844 3.26053ZM131.509 5.89311C131.509 5.40958 131.361 5.00661 131.067 4.68425C130.757 4.34847 130.345 4.1873 129.829 4.1873C129.269 4.1873 128.827 4.37534 128.488 4.73799C128.223 5.04691 128.061 5.43644 128.002 5.89311H131.509ZM138.287 4.34847C138.095 4.28131 137.859 4.24104 137.594 4.24104C137.034 4.24104 136.592 4.46938 136.253 4.92605C135.914 5.38272 135.752 5.98712 135.752 6.76614V9.57329H134.515V3.4083H135.679V4.36191H135.708C135.87 4.03956 136.121 3.77094 136.445 3.56947C136.769 3.368 137.108 3.26053 137.476 3.26053C137.712 3.26053 137.992 3.28739 138.301 3.34112V4.34847H138.287ZM141.175 8.21671L140.055 11.1716H138.861L139.701 8.21671H141.175ZM150.944 5.27524C151.636 5.75877 151.975 6.4035 151.975 7.19596C151.975 8.04213 151.636 8.68684 150.973 9.13008C150.384 9.51959 149.588 9.72102 148.586 9.72102C148.1 9.72102 147.481 9.60016 146.686 9.37183L146.818 8.257C147.555 8.52563 148.189 8.65997 148.748 8.65997C149.191 8.65997 149.588 8.5525 149.942 8.35103C150.355 8.09584 150.576 7.74661 150.576 7.28994C150.576 6.77955 150.237 6.34976 149.544 6.00054C148.911 5.69162 148.262 5.39614 147.629 5.08722C146.936 4.64398 146.597 4.05298 146.597 3.30082C146.597 2.57553 146.877 2.01143 147.452 1.59506C147.997 1.20555 148.689 1.00407 149.559 1.00407C150.251 1.00407 150.914 1.09809 151.533 1.29956L151.342 2.41439C150.693 2.17263 150.119 2.06516 149.603 2.06516C148.527 2.06516 147.982 2.44123 147.982 3.19339C147.982 3.6232 148.321 3.99928 149.014 4.33507C150.222 4.89918 150.87 5.22151 150.944 5.27524ZM163.925 9.55985H162.599V2.25318H162.57L159.505 9.55985H158.208L155.143 2.25318H155.114V9.55985H153.788V1.12495H155.983L158.886 8.13613L161.73 1.12495H163.925V9.55985ZM173.562 2.22633C174.343 3.01878 174.741 4.06644 174.741 5.34242C174.741 6.64526 174.343 7.6929 173.562 8.48536C172.766 9.30467 171.661 9.70762 170.276 9.70762C168.891 9.70762 167.786 9.30467 166.99 8.48536C166.209 7.6929 165.826 6.64526 165.826 5.34242C165.826 4.06644 166.224 3.01878 167.005 2.22633C167.815 1.39359 168.906 0.977223 170.291 0.977223C171.646 0.977223 172.752 1.39359 173.562 2.22633ZM172.604 7.62573C173.09 7.02132 173.326 6.25575 173.326 5.34242C173.326 4.42909 173.076 3.66347 172.56 3.04563C172 2.37406 171.234 2.03827 170.276 2.03827C169.304 2.03827 168.537 2.37406 167.977 3.04563C167.476 3.65004 167.226 4.41565 167.226 5.34242C167.226 6.26918 167.462 7.02132 167.948 7.62573C168.493 8.2973 169.259 8.64653 170.276 8.64653C171.278 8.64653 172.059 8.31073 172.604 7.62573ZM183.876 2.22633C184.657 3.01878 185.055 4.06644 185.055 5.34242C185.055 6.64526 184.657 7.6929 183.876 8.48536C183.081 9.30467 181.976 9.70762 180.59 9.70762C179.205 9.70762 178.1 9.30467 177.305 8.48536C176.524 7.6929 176.141 6.64526 176.141 5.34242C176.141 4.06644 176.538 3.01878 177.319 2.22633C178.13 1.39359 179.22 0.977223 180.605 0.977223C181.976 0.977223 183.066 1.39359 183.876 2.22633ZM182.919 7.62573C183.405 7.02132 183.641 6.25575 183.641 5.34242C183.641 4.42909 183.39 3.66347 182.874 3.04563C182.314 2.37406 181.548 2.03827 180.59 2.03827C179.618 2.03827 178.852 2.37406 178.292 3.04563C177.791 3.65004 177.54 4.41565 177.54 5.34242C177.54 6.26918 177.776 7.02132 178.262 7.62573C178.808 8.2973 179.574 8.64653 180.59 8.64653C181.592 8.64653 182.373 8.31073 182.919 7.62573ZM192.982 2.19948H190.109V9.57329H188.783V2.19948H185.91V1.12495H192.982V2.19948ZM201.44 9.55985H200.114V5.7185H195.679V9.55985H194.353V1.12495H195.679V4.65741H200.114V1.12495H201.44V9.55985ZM213.154 4.20074C213.641 4.76486 213.876 5.50358 213.876 6.37662C213.876 7.30339 213.641 8.08239 213.184 8.67337C212.668 9.37181 211.917 9.70762 210.974 9.70762C209.928 9.70762 209.147 9.37182 208.66 8.68682H208.631V9.55985H207.437V0.493673H208.675V4.24104H208.705C209.147 3.5829 209.898 3.24713 210.944 3.24713C211.902 3.26056 212.624 3.56947 213.154 4.20074ZM212.123 7.9884C212.403 7.54517 212.55 7.03475 212.55 6.45721C212.55 5.82593 212.403 5.3021 212.123 4.89916C211.799 4.41563 211.313 4.1739 210.694 4.1739C210.06 4.1739 209.559 4.41563 209.191 4.89916C208.852 5.32897 208.69 5.86622 208.69 6.4975C208.69 7.08848 208.852 7.59889 209.161 8.02869C209.53 8.53909 210.031 8.79429 210.679 8.79429C211.298 8.79429 211.769 8.52566 212.123 7.9884ZM216.956 9.55985H215.704V0.493673H216.956V9.55985ZM224.5 8.35103C224.5 8.91515 224.515 9.31808 224.559 9.55985H223.395V8.7674H223.366C222.879 9.39868 222.172 9.70762 221.273 9.70762C220.507 9.70762 219.918 9.55988 219.49 9.25095C219.034 8.91517 218.798 8.43165 218.798 7.78694C218.798 7.08851 219.166 6.55125 219.888 6.1886C220.463 5.89311 221.156 5.74534 221.951 5.74534C222.511 5.74534 222.953 5.7588 223.277 5.77223C223.277 5.22155 223.159 4.81857 222.909 4.56338C222.644 4.29475 222.216 4.16045 221.598 4.16045C220.831 4.16045 220.183 4.37536 219.638 4.79173L219.549 3.83811C220.257 3.4486 221.008 3.26053 221.774 3.26053C222.717 3.26053 223.425 3.47545 223.867 3.90525C224.294 4.32163 224.5 4.95292 224.5 5.81253V8.35103ZM222.776 8.32419C223.1 8.0287 223.263 7.6526 223.263 7.16907V6.63182C223.174 6.63182 223.042 6.63181 222.865 6.61838C222.688 6.60494 222.555 6.60497 222.467 6.60497C220.905 6.60497 220.109 6.99449 220.109 7.78694C220.109 8.09586 220.242 8.33761 220.522 8.52565C220.772 8.70026 221.052 8.78085 221.376 8.78085C221.966 8.79428 222.437 8.63311 222.776 8.32419ZM231.072 9.46586C230.674 9.64047 230.144 9.72102 229.51 9.72102C228.508 9.72102 227.683 9.39868 227.02 8.7674C226.386 8.14956 226.062 7.3974 226.062 6.4975C226.062 5.5573 226.386 4.77831 227.02 4.1739C227.654 3.56948 228.493 3.27398 229.51 3.27398C230.085 3.27398 230.586 3.35456 231.028 3.51573L230.925 4.45594C230.453 4.28134 230.011 4.1873 229.569 4.1873C228.906 4.1873 228.376 4.42906 227.963 4.89916C227.595 5.3424 227.403 5.86622 227.403 6.4975C227.403 7.11534 227.58 7.63917 227.934 8.05554C228.346 8.5525 228.921 8.79429 229.657 8.79429C230.158 8.79429 230.601 8.6734 230.998 8.44506L231.072 9.46586ZM238.557 9.55985H236.76L233.739 6.39007V9.55985H232.501V0.493673H233.739V5.89311L236.465 3.39485H238.16L235.021 6.12142L238.557 9.55985ZM248.017 9.46586C247.619 9.64047 247.089 9.72102 246.455 9.72102C245.453 9.72102 244.628 9.39868 243.965 8.7674C243.331 8.14956 243.007 7.3974 243.007 6.4975C243.007 5.5573 243.331 4.77831 243.965 4.1739C244.599 3.56948 245.439 3.27398 246.455 3.27398C247.03 3.27398 247.531 3.35456 247.973 3.51573L247.87 4.45594C247.398 4.28134 246.956 4.1873 246.514 4.1873C245.851 4.1873 245.321 4.42906 244.908 4.89916C244.54 5.3424 244.348 5.86622 244.348 6.4975C244.348 7.11534 244.525 7.63917 244.879 8.05554C245.291 8.5525 245.866 8.79429 246.603 8.79429C247.104 8.79429 247.546 8.6734 247.943 8.44506L248.017 9.46586ZM255.429 9.55985H254.22V8.57938H254.191C254.014 8.9286 253.72 9.19721 253.307 9.39868C252.894 9.60015 252.452 9.70762 251.981 9.70762C250.286 9.70762 249.446 8.82114 249.446 7.06163V3.4083H250.684V6.59153C250.684 7.34368 250.787 7.88093 250.994 8.21671C251.215 8.59279 251.583 8.78086 252.113 8.79429C252.791 8.80772 253.307 8.57936 253.661 8.09583C253.999 7.6526 254.162 7.03476 254.162 6.25574V3.4083H255.399V9.55985H255.429ZM261.337 4.34847C261.146 4.28131 260.91 4.24104 260.645 4.24104C260.085 4.24104 259.643 4.46938 259.304 4.92605C258.965 5.38272 258.803 5.98712 258.803 6.76614V9.57329H257.565V3.4083H258.729V4.36191H258.759C258.921 4.03956 259.171 3.77094 259.496 3.56947C259.82 3.368 260.159 3.26053 260.527 3.26053C260.763 3.26053 261.043 3.28739 261.352 3.34112V4.34847H261.337ZM266.495 4.34847C266.303 4.28131 266.067 4.24104 265.802 4.24104C265.242 4.24104 264.8 4.46938 264.461 4.92605C264.122 5.38272 263.96 5.98712 263.96 6.76614V9.57329H262.722V3.4083H263.887V4.36191H263.916C264.078 4.03956 264.329 3.77094 264.653 3.56947C264.977 3.368 265.316 3.26053 265.684 3.26053C265.92 3.26053 266.2 3.28739 266.509 3.34112V4.34847H266.495ZM273.125 8.35103C273.125 8.91515 273.14 9.31808 273.184 9.55985H272.02V8.7674H271.991C271.504 9.39868 270.797 9.70762 269.898 9.70762C269.132 9.70762 268.543 9.55988 268.115 9.25095C267.659 8.91517 267.423 8.43165 267.423 7.78694C267.423 7.08851 267.791 6.55125 268.513 6.1886C269.088 5.89311 269.78 5.74534 270.576 5.74534C271.136 5.74534 271.578 5.7588 271.902 5.77223C271.902 5.22155 271.784 4.81857 271.534 4.56338C271.269 4.29475 270.841 4.16045 270.223 4.16045C269.456 4.16045 268.808 4.37536 268.263 4.79173L268.204 3.82467C268.911 3.43516 269.663 3.24713 270.429 3.24713C271.372 3.24713 272.079 3.462 272.521 3.89181C272.948 4.30818 273.155 4.93947 273.155 5.79908V8.35103H273.125ZM271.401 8.32419C271.725 8.0287 271.888 7.6526 271.888 7.16907V6.63182C271.799 6.63182 271.667 6.63181 271.49 6.61838C271.313 6.60494 271.18 6.60497 271.092 6.60497C269.53 6.60497 268.734 6.99449 268.734 7.78694C268.734 8.09586 268.867 8.33761 269.147 8.52565C269.397 8.70026 269.677 8.78085 270.001 8.78085C270.606 8.79428 271.062 8.63311 271.401 8.32419ZM281.215 9.55985H279.977V6.36318C279.977 5.61102 279.874 5.07378 279.668 4.73799C279.447 4.37534 279.078 4.18733 278.548 4.1739C277.87 4.16047 277.339 4.38877 276.986 4.85887C276.647 5.3021 276.485 5.91995 276.485 6.7124V9.55985H275.247V3.39485H276.455V4.37536H276.485C276.676 4.03957 276.971 3.75749 277.369 3.55602C277.781 3.35455 278.224 3.24713 278.695 3.24713C280.39 3.24713 281.229 4.1336 281.229 5.89311V9.55985H281.215ZM287.035 9.54645C286.608 9.6539 286.254 9.72102 285.974 9.72102C284.589 9.72102 283.896 9.11661 283.896 7.92122V4.32162H282.364V3.4083H283.896V1.98458L285.134 1.6219V3.42174H286.932V4.33507H285.134V7.70631C285.134 8.0421 285.237 8.32418 285.444 8.52565C285.635 8.71369 285.886 8.8077 286.18 8.8077C286.505 8.8077 286.784 8.74053 287.035 8.59279V9.54645ZM295.272 0.345947C295.493 0.345947 295.773 0.372807 296.112 0.426532L296.053 1.33986C295.905 1.28613 295.714 1.27272 295.463 1.27272C294.962 1.27272 294.623 1.42044 294.447 1.71593C294.314 1.9174 294.255 2.26663 294.255 2.73673V3.4083H296.053V4.32162H294.255V9.57329H293.017V4.32162H291.426V3.4083H293.017V2.83076C293.017 2.01145 293.165 1.407 293.459 1.03092C293.798 0.574253 294.402 0.345947 295.272 0.345947ZM298.749 9.55985H297.497V0.493673H298.749V9.55985ZM306.293 8.35103C306.293 8.91515 306.308 9.31808 306.352 9.55985H305.188V8.7674H305.159C304.673 9.39868 303.965 9.70762 303.066 9.70762C302.3 9.70762 301.711 9.55988 301.284 9.25095C300.827 8.91517 300.591 8.43165 300.591 7.78694C300.591 7.08851 300.959 6.55125 301.681 6.1886C302.256 5.89311 302.949 5.74534 303.744 5.74534C304.304 5.74534 304.746 5.7588 305.07 5.77223C305.07 5.22155 304.953 4.81857 304.702 4.56338C304.437 4.29475 304.01 4.16045 303.391 4.16045C302.624 4.16045 301.976 4.37536 301.431 4.79173L301.372 3.82467C302.079 3.43516 302.831 3.24713 303.597 3.24713C304.54 3.24713 305.247 3.462 305.689 3.89181C306.117 4.30818 306.323 4.93947 306.323 5.79908V8.35103H306.293ZM304.569 8.32419C304.894 8.0287 305.056 7.6526 305.056 7.16907V6.63182C304.967 6.63182 304.835 6.63181 304.658 6.61838C304.481 6.60494 304.348 6.60497 304.26 6.60497C302.698 6.60497 301.902 6.99449 301.902 7.78694C301.902 8.09586 302.035 8.33761 302.315 8.52565C302.566 8.70026 302.845 8.78085 303.17 8.78085C303.774 8.79428 304.231 8.63311 304.569 8.32419ZM313.823 3.4083L311.406 9.57329H309.918L307.502 3.4083H308.857L310.684 8.43162H310.714L312.585 3.4083H313.823ZM321.47 6.48409C321.47 7.384 321.146 8.13612 320.513 8.75396C319.864 9.38523 319.039 9.70762 318.037 9.70762C317.035 9.70762 316.195 9.38523 315.547 8.75396C314.913 8.13612 314.589 7.384 314.589 6.48409C314.589 5.5439 314.913 4.76486 315.547 4.16045C316.181 3.55604 317.02 3.26053 318.037 3.26053C319.054 3.26053 319.879 3.55604 320.513 4.16045C321.146 4.76486 321.47 5.5439 321.47 6.48409ZM319.643 8.0421C319.982 7.61229 320.144 7.08851 320.144 6.48409C320.144 5.86625 319.953 5.32899 319.584 4.88576C319.186 4.41566 318.671 4.1739 318.037 4.1739C317.389 4.1739 316.873 4.41566 316.475 4.88576C316.107 5.32899 315.915 5.85282 315.915 6.48409C315.915 7.10194 316.092 7.62572 316.431 8.0421C316.814 8.53906 317.359 8.78085 318.037 8.78085C318.715 8.79428 319.245 8.53906 319.643 8.0421ZM326.922 4.34847C326.731 4.28131 326.495 4.24104 326.23 4.24104C325.67 4.24104 325.228 4.46938 324.889 4.92605C324.55 5.38272 324.388 5.98712 324.388 6.76614V9.57329H323.15V3.4083H324.314V4.36191H324.344C324.506 4.03956 324.756 3.77094 325.08 3.56947C325.405 3.368 325.743 3.26053 326.112 3.26053C326.348 3.26053 326.628 3.28739 326.937 3.34112V4.34847H326.922Z" fill="black"></path>
</svg>
