<svg width="167" height="13" viewBox="0 0 167 13" fill="none" xmlns="http://www.w3.org/2000/svg">
<path d="M8.39895 9.16528C7.60327 9.42048 6.66024 9.54136 5.56986 9.54136C4.09638 9.54136 2.91759 9.13842 2.0335 8.34596C1.14941 7.55351 0.692627 6.479 0.692627 5.13587C0.692627 3.84646 1.14941 2.7988 2.0777 1.99292C2.99126 1.20047 4.15532 0.810964 5.5846 0.810964C6.49816 0.810964 7.41172 0.958708 8.31054 1.24077L8.2074 2.46302C7.55907 2.07351 6.70445 1.88547 5.65827 1.88547C4.6121 1.88547 3.74274 2.1944 3.07967 2.82567C2.43134 3.44351 2.10717 4.22253 2.10717 5.17616C2.10717 6.14322 2.44608 6.9491 3.12388 7.56694C3.78695 8.17135 4.59736 8.46684 5.5846 8.46684C6.04138 8.46684 6.54236 8.41312 7.07282 8.3191V5.7537H5.12782V4.75979H8.39895V9.16528ZM13.3499 3.08087C15.3391 3.08087 16.3263 4.23596 16.3263 6.55959H11.508C11.508 7.15057 11.729 7.64754 12.1858 8.03705C12.6131 8.41313 13.1288 8.61459 13.733 8.61459C14.1013 8.61459 14.5139 8.534 14.9707 8.38626C15.3538 8.26537 15.6338 8.13107 15.8253 7.99676V9.13841C15.0149 9.40704 14.3076 9.54136 13.6888 9.54136C12.5247 9.54136 11.6406 9.23243 11.0365 8.61459C10.4618 8.03704 10.1819 7.23115 10.1819 6.19694C10.1819 5.2836 10.4766 4.53145 11.0512 3.9539C11.6406 3.36292 12.4068 3.08087 13.3499 3.08087ZM15.0149 5.71341C15.0149 5.22988 14.8676 4.82694 14.5729 4.50459C14.2634 4.16881 13.8508 4.00763 13.3351 4.00763C12.7752 4.00763 12.3332 4.19567 11.9943 4.55832C11.729 4.86724 11.5669 5.25674 11.508 5.71341H15.0149ZM23.9884 9.39361H22.7507V6.19694C22.7507 5.44478 22.6476 4.90753 22.4413 4.57174C22.2202 4.2091 21.8519 4.02106 21.3214 4.00763C20.6436 3.9942 20.1132 4.22253 19.7595 4.69263C19.4206 5.13586 19.2585 5.75371 19.2585 6.54617V9.39361H18.0208V3.2286H19.2291V4.2091H19.2585C19.4501 3.87331 19.7448 3.59126 20.1426 3.38978C20.5552 3.18831 20.9972 3.08087 21.4688 3.08087C23.1633 3.08087 24.0032 3.96734 24.0032 5.72685V9.39361H23.9884ZM29.8087 9.36674C29.3814 9.47419 29.0277 9.54136 28.7478 9.54136C27.3627 9.54136 26.6702 8.93695 26.6702 7.74156V4.14194H25.1377V3.2286H26.6702V1.80488L27.9079 1.44224V3.24204H29.7055V4.15537H27.9079V7.52665C27.9079 7.86243 28.011 8.14449 28.2173 8.34596C28.4089 8.534 28.6594 8.62801 28.9541 8.62801C29.2782 8.62801 29.5582 8.56087 29.8087 8.41313V9.36674ZM32.682 9.39361H31.4295V0.327433H32.682V9.39361ZM37.6771 3.08087C39.6663 3.08087 40.6535 4.23596 40.6535 6.55959H35.8352C35.8352 7.15057 36.0563 7.64754 36.513 8.03705C36.9404 8.41313 37.4561 8.61459 38.0602 8.61459C38.4286 8.61459 38.8411 8.534 39.2979 8.38626C39.681 8.26537 39.961 8.13107 40.1526 7.99676V9.13841C39.3421 9.40704 38.6349 9.54136 38.016 9.54136C36.8519 9.54136 35.9679 9.23243 35.3637 8.61459C34.7891 8.03704 34.5091 7.23115 34.5091 6.19694C34.5091 5.2836 34.8038 4.53145 35.3785 3.9539C35.9679 3.36292 36.7341 3.08087 37.6771 3.08087ZM39.3421 5.71341C39.3421 5.22988 39.1948 4.82694 38.9001 4.50459C38.5907 4.16881 38.1781 4.00763 37.6624 4.00763C37.1024 4.00763 36.6604 4.19567 36.3215 4.55832C36.0563 4.86724 35.8942 5.25674 35.8352 5.71341H39.3421ZM55.8452 3.2286L53.6791 9.39361H52.2351L50.4817 4.22253H50.4522L48.743 9.39361H47.299L45.1329 3.2286H46.5033L48.0504 8.33254H48.0799L49.8039 3.2286H51.2774L52.9719 8.33254H53.0013L54.6516 3.2286H55.8452ZM58.5416 1.84517H57.1418V0.569199H58.5416V1.84517ZM58.468 9.39361H57.2155V3.2286H58.468V9.39361ZM64.4503 9.36674C64.023 9.47419 63.6694 9.54136 63.3894 9.54136C62.0043 9.54136 61.3118 8.93695 61.3118 7.74156V4.14194H59.7794V3.2286H61.3118V1.80488L62.5495 1.44224V3.24204H64.3472V4.15537H62.5495V7.52665C62.5495 7.86243 62.6527 8.14449 62.859 8.34596C63.0505 8.534 63.301 8.62801 63.5957 8.62801C63.9199 8.62801 64.1998 8.56087 64.4503 8.41313V9.36674ZM71.8914 9.39361H70.6537V6.19694C70.6537 5.44478 70.5505 4.90753 70.3443 4.57174C70.1232 4.2091 69.7549 4.02106 69.2244 4.00763C68.5466 3.9942 68.0161 4.22253 67.6625 4.69263C67.3236 5.13586 67.1615 5.75371 67.1615 6.54617V9.39361H65.9238V0.327433H67.1615V4.11508H67.191C67.6625 3.43008 68.3845 3.09429 69.3718 3.09429C71.0663 3.09429 71.9062 3.98077 71.9062 5.74027V9.39361H71.8914ZM82.9573 8.18479C82.9573 8.74891 82.972 9.15184 83.0162 9.39361H81.8522V8.60116H81.8227C81.3364 9.23244 80.6292 9.54136 79.7304 9.54136C78.9641 9.54136 78.3747 9.39362 77.9474 9.08469C77.4907 8.74891 77.2549 8.26536 77.2549 7.62066C77.2549 6.92223 77.6233 6.38499 78.3453 6.02234C78.9199 5.72685 79.6125 5.5791 80.4082 5.5791C80.9681 5.5791 81.4101 5.59252 81.7343 5.60595C81.7343 5.05527 81.6164 4.65233 81.3659 4.39714C81.1007 4.12851 80.6734 3.99419 80.0545 3.99419C79.2883 3.99419 78.64 4.2091 78.0948 4.62547L78.0358 3.65841C78.7431 3.2689 79.4946 3.08087 80.2608 3.08087C81.2038 3.08087 81.9111 3.29577 82.3532 3.72557C82.7805 4.14194 82.9868 4.77321 82.9868 5.63282V8.18479H82.9573ZM81.2333 8.14448C81.5575 7.84899 81.7196 7.47293 81.7196 6.9894V6.45214C81.6311 6.45214 81.4985 6.45214 81.3217 6.43871C81.1449 6.42528 81.0123 6.42527 80.9239 6.42527C79.362 6.42527 78.5663 6.81478 78.5663 7.60723C78.5663 7.91616 78.6989 8.15793 78.9789 8.34596C79.2294 8.52057 79.5093 8.60116 79.8335 8.60116C80.4376 8.6146 80.8944 8.46684 81.2333 8.14448ZM91.2825 0.945275L90.4573 3.91361H88.9691L90.1037 0.945275H91.2825ZM93.8021 0.945275L92.9475 3.91361H91.4888L92.6086 0.945275H93.8021ZM97.5448 9.60852C97.5448 10.3069 97.4564 10.8308 97.2943 11.18C96.9996 11.7844 96.4544 12.0799 95.644 12.0799C95.2904 12.0799 95.0251 12.0665 94.8778 12.0262L94.922 11.0457C95.0841 11.0725 95.2462 11.086 95.423 11.086C96.0124 11.086 96.3071 10.6561 96.3071 9.78311V3.2286H97.5595V9.60852H97.5448ZM97.6185 1.84517H96.2187V0.569199H97.6185V1.84517ZM105.796 9.39361H104.588V8.41313H104.559C104.382 8.76234 104.087 9.03097 103.674 9.23244C103.262 9.43391 102.82 9.54136 102.348 9.54136C100.654 9.54136 99.8139 8.65488 99.8139 6.89537V3.24204H101.052V6.42527C101.052 7.17742 101.155 7.71469 101.361 8.05047C101.582 8.42655 101.951 8.61458 102.481 8.62801C103.159 8.64144 103.674 8.41313 104.028 7.9296C104.367 7.48636 104.529 6.8685 104.529 6.08948V3.24204H105.767V9.39361H105.796ZM109.406 1.84517H108.007V0.569199H109.406V1.84517ZM109.333 9.39361H108.08V3.2286H109.333V9.39361ZM116.066 9.28616C115.669 9.46076 115.138 9.54136 114.505 9.54136C113.503 9.54136 112.677 9.21899 112.014 8.58772C111.381 7.96988 111.057 7.21774 111.057 6.31783C111.057 5.37764 111.381 4.5986 112.014 3.99419C112.648 3.38978 113.488 3.09429 114.505 3.09429C115.079 3.09429 115.58 3.17488 116.022 3.33606L115.919 4.27626C115.448 4.10165 115.006 4.00763 114.564 4.00763C113.9 4.00763 113.37 4.24939 112.957 4.71949C112.589 5.16272 112.398 5.68656 112.398 6.31783C112.398 6.93568 112.574 7.45949 112.928 7.87586C113.341 8.37282 113.915 8.61459 114.652 8.61459C115.153 8.61459 115.595 8.49371 115.993 8.26538L116.066 9.28616ZM122.845 3.2286L120.354 9.52793C120.015 10.3741 119.735 10.9382 119.5 11.2471C119.058 11.7978 118.483 12.0799 117.761 12.0799C117.54 12.0799 117.26 12.053 116.906 11.9859L116.98 11.0591C117.186 11.1263 117.393 11.1531 117.569 11.1531C118.041 11.1531 118.424 10.9114 118.733 10.4413C118.955 10.1055 119.058 9.8234 119.058 9.63536C119.058 9.59507 118.984 9.38018 118.822 8.97724L116.523 3.2286H117.894L119.706 8.33254H119.735L121.592 3.2286H122.845ZM126.646 0.945275L125.526 3.91361H124.347L125.187 0.945275H126.646ZM129.166 0.945275L128.046 3.91361H126.867L127.707 0.945275H129.166ZM138.257 0.179688C138.478 0.179688 138.758 0.206547 139.097 0.260272L139.038 1.17361C138.891 1.11988 138.699 1.10646 138.449 1.10646C137.948 1.10646 137.609 1.25419 137.432 1.54968C137.299 1.75115 137.24 2.10037 137.24 2.57047V3.24204H139.038V4.15537H137.24V9.40703H136.003V4.15537H134.411V3.24204H136.003V2.66449C136.003 1.84518 136.15 1.24077 136.445 0.86469C136.784 0.408024 137.403 0.179688 138.257 0.179688ZM141.838 1.84517H140.438V0.569199H141.838V1.84517ZM141.749 9.39361H140.497V3.2286H141.749V9.39361ZM150.016 9.39361H148.778V6.19694C148.778 5.44478 148.675 4.90753 148.468 4.57174C148.247 4.2091 147.879 4.02106 147.349 4.00763C146.671 3.9942 146.14 4.22253 145.787 4.69263C145.448 5.13586 145.286 5.75371 145.286 6.54617V9.39361H144.048V3.2286H145.256V4.2091H145.286C145.477 3.87331 145.772 3.59126 146.17 3.38978C146.582 3.18831 147.024 3.08087 147.496 3.08087C149.19 3.08087 150.03 3.96734 150.03 5.72685V9.39361H150.016ZM153.611 1.84517H152.211V0.569199H153.611V1.84517ZM153.537 9.39361H152.285V3.2286H153.537V9.39361ZM158.709 6.27752C159.21 6.61331 159.461 7.05654 159.461 7.62066C159.461 8.2385 159.225 8.72203 158.739 9.07125C158.297 9.38017 157.751 9.54136 157.103 9.54136C156.337 9.54136 155.718 9.42047 155.246 9.20557L155.305 8.18479C155.792 8.48028 156.322 8.62801 156.853 8.62801C157.191 8.62801 157.471 8.56086 157.707 8.42655C157.987 8.2788 158.134 8.03705 158.134 7.74156C158.134 7.44607 157.884 7.16399 157.383 6.9088C156.911 6.68046 156.44 6.43871 155.968 6.21038C155.467 5.8746 155.217 5.47165 155.217 4.97469C155.217 4.35684 155.453 3.88675 155.91 3.55096C156.337 3.24204 156.897 3.08087 157.604 3.08087C158.046 3.08087 158.562 3.16145 159.151 3.32262L159.048 4.31655C158.915 4.23596 158.694 4.1688 158.4 4.10165C158.12 4.03449 157.899 4.00763 157.737 4.00763C157.398 4.00763 157.118 4.07478 156.897 4.19566C156.661 4.32998 156.528 4.51803 156.528 4.75979C156.528 5.09557 156.779 5.37763 157.295 5.6194C157.766 5.8343 158.238 6.04919 158.709 6.27752ZM166.961 9.39361H165.723V6.19694C165.723 5.44478 165.62 4.90753 165.413 4.57174C165.192 4.2091 164.824 4.02106 164.294 4.00763C163.616 3.9942 163.085 4.22253 162.732 4.69263C162.393 5.13586 162.231 5.75371 162.231 6.54617V9.39361H160.993V0.327433H162.231V4.11508H162.26C162.732 3.43008 163.454 3.09429 164.441 3.09429C166.136 3.09429 166.975 3.98077 166.975 5.74027V9.39361H166.961Z" fill="black"></path>
</svg>
