<svg width="297" height="13" viewBox="0 0 297 13" fill="none" xmlns="http://www.w3.org/2000/svg">
<path d="M5.36546 9.8931H0.164062V1.4582H1.49019V8.83205H5.36546V9.8931ZM12.6739 9.8931H11.4657V8.91264H11.4362C11.2594 9.26185 10.9647 9.53046 10.5521 9.73193C10.1395 9.9334 9.6975 10.0409 9.22598 10.0409C7.53148 10.0409 6.69159 9.1544 6.69159 7.39489V3.74155H7.92931V6.92478C7.92931 7.67694 8.03244 8.21418 8.23873 8.54996C8.45975 8.92604 8.82814 9.11411 9.35859 9.12754C10.0364 9.14097 10.5521 8.91262 10.9057 8.42909C11.2446 7.98585 11.4068 7.36801 11.4068 6.58899V3.74155H12.6445V9.8931H12.6739ZM19.2457 9.79911C18.8478 9.97372 18.3174 10.0543 17.6838 10.0543C16.6818 10.0543 15.8566 9.73193 15.1936 9.10066C14.56 8.48281 14.2358 7.73065 14.2358 6.83075C14.2358 5.89055 14.56 5.11156 15.1936 4.50715C15.8272 3.90274 16.6671 3.60723 17.6838 3.60723C18.2584 3.60723 18.7594 3.68781 19.2015 3.84898L19.0983 4.7892C18.6268 4.61459 18.1848 4.52055 17.7427 4.52055C17.0797 4.52055 16.5492 4.76232 16.1366 5.23241C15.7683 5.67565 15.5767 6.19948 15.5767 6.83075C15.5767 7.44859 15.7535 7.97242 16.1071 8.38879C16.5197 8.88575 17.0944 9.12754 17.8311 9.12754C18.3321 9.12754 18.7742 9.00665 19.172 8.77832L19.2457 9.79911ZM22.1632 2.35812H20.7633V1.08212H22.1632V2.35812ZM22.0895 9.8931H20.837V3.72811H22.0895V9.8931ZM30.7978 6.81735C30.7978 7.71725 30.4736 8.46937 29.84 9.08721C29.1917 9.71848 28.3665 10.0409 27.3646 10.0409C26.3626 10.0409 25.5227 9.71848 24.8744 9.08721C24.2408 8.46937 23.9166 7.71725 23.9166 6.81735C23.9166 5.87715 24.2408 5.09812 24.8744 4.4937C25.508 3.88929 26.3479 3.59378 27.3646 3.59378C28.3813 3.59378 29.2064 3.88929 29.84 4.4937C30.4884 5.09812 30.7978 5.87715 30.7978 6.81735ZM28.9707 8.37535C29.3096 7.94555 29.4716 7.42176 29.4716 6.81735C29.4716 6.1995 29.2801 5.66225 28.9117 5.21901C28.5139 4.74891 27.9982 4.50715 27.3646 4.50715C26.7162 4.50715 26.2005 4.74891 25.8027 5.21901C25.4343 5.66225 25.2428 6.18607 25.2428 6.81735C25.2428 7.43519 25.4196 7.95898 25.7585 8.37535C26.1416 8.87231 26.6868 9.1141 27.3646 9.1141C28.0424 9.12753 28.5728 8.87231 28.9707 8.37535ZM38.4452 9.8931H37.2369V8.91264H37.2074C37.0306 9.26185 36.7359 9.53046 36.3233 9.73193C35.9108 9.9334 35.4687 10.0409 34.9972 10.0409C33.3027 10.0409 32.4628 9.1544 32.4628 7.39489V3.74155H33.7005V6.92478C33.7005 7.67694 33.8037 8.21418 34.01 8.54996C34.231 8.92604 34.5994 9.11411 35.1298 9.12754C35.8076 9.14097 36.3234 8.91262 36.677 8.42909C37.0159 7.98585 37.178 7.36801 37.178 6.58899V3.74155H38.4157V9.8931H38.4452ZM43.4698 6.77705C43.9707 7.11284 44.2212 7.55607 44.2212 8.12019C44.2212 8.73803 43.9855 9.22155 43.4993 9.57076C43.0572 9.87968 42.512 10.0409 41.8637 10.0409C41.0974 10.0409 40.4786 9.91998 40.0071 9.70508L40.066 8.68429C40.5523 8.97978 41.0827 9.12754 41.6132 9.12754C41.9521 9.12754 42.232 9.06035 42.4678 8.92604C42.7478 8.7783 42.8951 8.53656 42.8951 8.24107C42.8951 7.94558 42.6446 7.66349 42.1436 7.40829C41.6721 7.17996 41.2006 6.93821 40.7291 6.70987C40.2281 6.37409 39.9776 5.97117 39.9776 5.47421C39.9776 4.85637 40.2134 4.38623 40.6701 4.05045C41.0975 3.74152 41.6574 3.58038 42.3646 3.58038C42.8067 3.58038 43.3224 3.66096 43.9118 3.82214L43.8087 4.81604C43.6761 4.73546 43.455 4.66829 43.1603 4.60114C42.8804 4.53398 42.6593 4.50715 42.4972 4.50715C42.1583 4.50715 41.8784 4.57428 41.6574 4.69517C41.4216 4.82948 41.289 5.01754 41.289 5.2593C41.289 5.59509 41.5395 5.87712 42.0552 6.11889C42.5267 6.34722 42.9982 6.56215 43.4698 6.77705ZM55.125 4.534C55.6113 5.09811 55.847 5.83683 55.847 6.70987C55.847 7.63664 55.6113 8.41565 55.1545 9.00663C54.6388 9.70506 53.8873 10.0409 52.9442 10.0409C51.8833 10.0409 51.1319 9.70506 50.6898 9.04692H50.6604V12.4317H49.4226V3.72811H50.6162V4.60114H50.6456C51.1319 3.92957 51.8981 3.58038 52.9442 3.58038C53.8725 3.59381 54.5946 3.90272 55.125 4.534ZM54.0936 8.32165C54.3736 7.87842 54.5209 7.36801 54.5209 6.79046C54.5209 6.15918 54.3736 5.63535 54.0936 5.23241C53.7694 4.74888 53.2832 4.50715 52.6643 4.50715C52.0307 4.50715 51.5297 4.74888 51.1613 5.23241C50.8224 5.66222 50.6604 6.19948 50.6604 6.83075C50.6604 7.42173 50.8225 7.93214 51.1319 8.36195C51.5003 8.87234 52.0012 9.12754 52.6496 9.12754C53.2684 9.12754 53.74 8.85891 54.0936 8.32165ZM63.9512 6.81735C63.9512 7.71725 63.627 8.46937 62.9934 9.08721C62.3451 9.71848 61.52 10.0409 60.518 10.0409C59.516 10.0409 58.6761 9.71848 58.0278 9.08721C57.3942 8.46937 57.07 7.71725 57.07 6.81735C57.07 5.87715 57.3942 5.09812 58.0278 4.4937C58.6614 3.88929 59.5013 3.59378 60.518 3.59378C61.5347 3.59378 62.3598 3.88929 62.9934 4.4937C63.6418 5.09812 63.9512 5.87715 63.9512 6.81735ZM62.1241 8.37535C62.463 7.94555 62.6251 7.42176 62.6251 6.81735C62.6251 6.1995 62.4335 5.66225 62.0651 5.21901C61.6673 4.74891 61.1516 4.50715 60.518 4.50715C59.8696 4.50715 59.3539 4.74891 58.9561 5.21901C58.5877 5.66225 58.3962 6.18607 58.3962 6.81735C58.3962 7.43519 58.573 7.95898 58.9119 8.37535C59.295 8.87231 59.8402 9.1141 60.518 9.1141C61.1958 9.12753 61.7262 8.87231 62.1241 8.37535ZM75.3265 9.8931H74.0741V6.21292C74.0741 5.07125 73.6762 4.50715 72.8658 4.50715C72.2764 4.50715 71.8196 4.74891 71.4955 5.21901C71.2302 5.63538 71.0829 6.15918 71.0829 6.79046V9.8931H69.8304V6.21292C69.8304 5.07125 69.4326 4.50715 68.6221 4.50715C68.0328 4.50715 67.576 4.74891 67.2518 5.21901C66.9719 5.63538 66.8392 6.15918 66.8392 6.79046V9.8931H65.6015V3.72811H66.7803V4.61458H66.8097C67.2813 3.91615 67.9886 3.58038 68.9611 3.58038C69.9041 3.58038 70.5377 3.9833 70.8913 4.77575C71.0976 4.37281 71.4365 4.06389 71.8785 3.84898C72.2469 3.67438 72.6153 3.58038 72.9837 3.58038C74.5455 3.58038 75.3412 4.3594 75.3412 5.93087V9.8931H75.3265ZM80.1301 3.59378C82.1193 3.59378 83.1065 4.74888 83.1065 7.0725H78.2882C78.2882 7.66349 78.5092 8.16045 78.966 8.54996C79.3933 8.92604 79.909 9.12754 80.5132 9.12754C80.8815 9.12754 81.2941 9.04694 81.7509 8.89919C82.134 8.77831 82.4139 8.64399 82.6055 8.50967V9.65135C81.7951 9.91997 81.0878 10.0543 80.469 10.0543C79.3049 10.0543 78.4208 9.74539 77.8167 9.12754C77.242 8.54999 76.9621 7.74409 76.9621 6.70987C76.9621 5.79654 77.2568 5.0444 77.8314 4.46686C78.4208 3.87588 79.187 3.59378 80.1301 3.59378ZM81.7951 6.22636C81.7951 5.74283 81.6478 5.33986 81.3531 5.01751C81.0436 4.68172 80.631 4.52055 80.1153 4.52055C79.5554 4.52055 79.1134 4.7086 78.7745 5.07124C78.5092 5.38017 78.3471 5.7697 78.2882 6.22636H81.7951ZM90.7686 9.6379C90.7686 11.5989 89.6046 12.5928 87.2912 12.5928C86.5839 12.5928 85.7735 12.4451 84.8599 12.163L84.9925 11.1154C85.8766 11.4914 86.6871 11.6661 87.4238 11.6661C88.0869 11.6661 88.5879 11.478 88.971 11.1019C89.3393 10.7258 89.5309 10.202 89.5309 9.55732V8.95293H89.5014C88.971 9.5842 88.2195 9.90655 87.2323 9.90655C86.304 9.90655 85.5819 9.59762 85.0515 8.97978C84.5652 8.42909 84.3295 7.71722 84.3295 6.87104C84.3295 5.998 84.58 5.25927 85.081 4.64143C85.6409 3.943 86.4071 3.59378 87.3649 3.59378C88.4553 3.59378 89.192 3.94301 89.5899 4.65487H89.6193V3.74155H90.7686V9.6379ZM88.971 8.36195C89.3393 7.959 89.5161 7.47547 89.5161 6.88449C89.5161 6.19949 89.3541 5.64881 89.0299 5.21901C88.6763 4.74891 88.1753 4.50715 87.5417 4.50715C86.9523 4.50715 86.4808 4.76234 86.1272 5.2593C85.8177 5.70254 85.6556 6.21292 85.6556 6.8039C85.6556 7.40831 85.8177 7.91871 86.1566 8.32165C86.5102 8.75146 86.967 8.96633 87.5417 8.96633C88.1163 8.97976 88.6026 8.77832 88.971 8.36195ZM96.6773 4.68172C96.4858 4.61457 96.25 4.57429 95.9848 4.57429C95.4248 4.57429 94.9828 4.80264 94.6439 5.2593C94.305 5.71597 94.1429 6.32037 94.1429 7.09939V9.90655H92.9052V3.74155H94.0692V4.69517H94.0987C94.2608 4.37281 94.5113 4.10419 94.8354 3.90272C95.1596 3.70125 95.4985 3.59378 95.8669 3.59378C96.1026 3.59378 96.3826 3.62064 96.692 3.67437V4.68172H96.6773ZM103.308 8.68429C103.308 9.2484 103.323 9.65134 103.367 9.8931H102.203V9.10066H102.173C101.687 9.73193 100.98 10.0409 100.081 10.0409C99.3148 10.0409 98.7255 9.89313 98.2981 9.58421C97.8414 9.24842 97.6056 8.7649 97.6056 8.12019C97.6056 7.42176 97.974 6.8845 98.696 6.52185C99.2706 6.22636 99.9632 6.0786 100.759 6.0786C101.319 6.0786 101.761 6.09205 102.085 6.10549C102.085 5.5548 101.967 5.15182 101.717 4.89663C101.451 4.628 101.024 4.4937 100.405 4.4937C99.639 4.4937 98.9906 4.70861 98.4455 5.12498L98.3866 4.15792C99.0938 3.76841 99.8453 3.58038 100.611 3.58038C101.555 3.58038 102.262 3.79526 102.704 4.22506C103.131 4.64143 103.337 5.27273 103.337 6.13233V8.68429H103.308ZM101.584 8.65744C101.908 8.36195 102.07 7.98585 102.07 7.50232V6.96507C101.982 6.96507 101.849 6.96506 101.672 6.95163C101.496 6.9382 101.363 6.93822 101.275 6.93822C99.7127 6.93822 98.917 7.32774 98.917 8.12019C98.917 8.42911 99.0496 8.67086 99.3296 8.8589C99.5801 9.03351 99.86 9.1141 100.184 9.1141C100.788 9.12753 101.245 8.96636 101.584 8.65744ZM111.397 9.8931H110.16V6.69643C110.16 5.94427 110.057 5.40703 109.85 5.07124C109.629 4.7086 109.261 4.52058 108.73 4.50715C108.053 4.49372 107.522 4.72202 107.169 5.19212C106.83 5.63536 106.668 6.25321 106.668 7.04566V9.8931H105.43V3.72811H106.638V4.70861H106.668C106.859 4.37283 107.154 4.09075 107.552 3.88928C107.964 3.68781 108.406 3.58038 108.878 3.58038C110.572 3.58038 111.412 4.46685 111.412 6.22636V9.8931H111.397ZM118.794 8.68429C118.794 9.2484 118.809 9.65134 118.853 9.8931H117.689V9.10066H117.66C117.173 9.73193 116.466 10.0409 115.567 10.0409C114.801 10.0409 114.212 9.89313 113.784 9.58421C113.328 9.24842 113.092 8.7649 113.092 8.12019C113.092 7.42176 113.46 6.8845 114.182 6.52185C114.757 6.22636 115.45 6.0786 116.245 6.0786C116.805 6.0786 117.247 6.09205 117.571 6.10549C117.571 5.5548 117.453 5.15182 117.203 4.89663C116.938 4.628 116.51 4.4937 115.892 4.4937C115.125 4.4937 114.477 4.70861 113.932 5.12498L113.873 4.15792C114.58 3.76841 115.332 3.58038 116.098 3.58038C117.041 3.58038 117.748 3.79526 118.19 4.22506C118.618 4.64143 118.824 5.27273 118.824 6.13233V8.68429H118.794ZM117.056 8.65744C117.38 8.36195 117.542 7.98585 117.542 7.50232V6.96507C117.453 6.96507 117.321 6.96506 117.144 6.95163C116.967 6.9382 116.835 6.93822 116.746 6.93822C115.184 6.93822 114.389 7.32774 114.389 8.12019C114.389 8.42911 114.521 8.67086 114.801 8.8589C115.052 9.03351 115.332 9.1141 115.656 9.1141C116.26 9.12753 116.731 8.96636 117.056 8.65744ZM124.6 9.8797C124.173 9.98715 123.819 10.0543 123.539 10.0543C122.154 10.0543 121.461 9.44986 121.461 8.25447V4.65487H119.929V3.74155H121.461V2.31783L122.699 1.95516V3.755H124.497V4.66832H122.699V8.03957C122.699 8.37535 122.802 8.65743 123.008 8.8589C123.2 9.04694 123.451 9.14095 123.745 9.14095C124.069 9.14095 124.349 9.07379 124.6 8.92604V9.8797ZM128.785 3.59378C130.774 3.59378 131.761 4.74888 131.761 7.0725H126.943C126.943 7.66349 127.164 8.16045 127.62 8.54996C128.048 8.92604 128.563 9.12754 129.168 9.12754C129.536 9.12754 129.949 9.04694 130.405 8.89919C130.788 8.77831 131.068 8.64399 131.26 8.50967V9.65135C130.45 9.91997 129.742 10.0543 129.123 10.0543C127.959 10.0543 127.075 9.74539 126.471 9.12754C125.897 8.54999 125.617 7.74409 125.617 6.70987C125.617 5.79654 125.911 5.0444 126.486 4.46686C127.061 3.87588 127.827 3.59378 128.785 3.59378ZM130.435 6.22636C130.435 5.74283 130.287 5.33986 129.993 5.01751C129.683 4.68172 129.271 4.52055 128.755 4.52055C128.195 4.52055 127.753 4.7086 127.414 5.07124C127.149 5.38017 126.987 5.7697 126.928 6.22636H130.435ZM140.189 0.679199C140.41 0.679199 140.69 0.706059 141.029 0.759784L140.97 1.67311C140.823 1.61938 140.631 1.60597 140.381 1.60597C139.88 1.60597 139.541 1.75369 139.364 2.04918C139.232 2.25066 139.173 2.59988 139.173 3.06998V3.74155H140.97V4.65487H139.173V9.90655H137.935V4.65487H136.343V3.74155H137.935V3.16401C137.935 2.3447 138.082 1.74025 138.377 1.36417C138.716 0.907505 139.335 0.679199 140.189 0.679199ZM143.681 9.8931H142.429V0.826925H143.681V9.8931ZM151.226 8.68429C151.226 9.2484 151.24 9.65134 151.285 9.8931H150.121V9.10066H150.091C149.605 9.73193 148.898 10.0409 147.999 10.0409C147.233 10.0409 146.643 9.89313 146.216 9.58421C145.759 9.24842 145.523 8.7649 145.523 8.12019C145.523 7.42176 145.892 6.8845 146.614 6.52185C147.188 6.22636 147.881 6.0786 148.677 6.0786C149.236 6.0786 149.679 6.09205 150.003 6.10549C150.003 5.5548 149.885 5.15182 149.634 4.89663C149.369 4.628 148.942 4.4937 148.323 4.4937C147.557 4.4937 146.908 4.70861 146.363 5.12498L146.304 4.15792C147.012 3.76841 147.763 3.58038 148.529 3.58038C149.472 3.58038 150.18 3.79526 150.622 4.22506C151.049 4.64143 151.255 5.27273 151.255 6.13233V8.68429H151.226ZM149.502 8.65744C149.826 8.36195 149.988 7.98585 149.988 7.50232V6.96507C149.9 6.96507 149.767 6.96506 149.59 6.95163C149.413 6.9382 149.281 6.93822 149.192 6.93822C147.63 6.93822 146.835 7.32774 146.835 8.12019C146.835 8.42911 146.967 8.67086 147.247 8.8589C147.498 9.03351 147.778 9.1141 148.102 9.1141C148.691 9.12753 149.163 8.96636 149.502 8.65744ZM158.755 3.74155L156.339 9.90655H154.85L152.434 3.74155H153.79L155.617 8.76487H155.646L157.517 3.74155H158.755ZM166.403 6.81735C166.403 7.71725 166.078 8.46937 165.445 9.08721C164.796 9.71848 163.971 10.0409 162.969 10.0409C161.967 10.0409 161.128 9.71848 160.479 9.08721C159.846 8.46937 159.521 7.71725 159.521 6.81735C159.521 5.87715 159.846 5.09812 160.479 4.4937C161.113 3.88929 161.953 3.59378 162.969 3.59378C163.986 3.59378 164.811 3.88929 165.445 4.4937C166.078 5.09812 166.403 5.87715 166.403 6.81735ZM164.561 8.37535C164.9 7.94555 165.062 7.42176 165.062 6.81735C165.062 6.1995 164.87 5.66225 164.502 5.21901C164.104 4.74891 163.588 4.50715 162.955 4.50715C162.306 4.50715 161.791 4.74891 161.393 5.21901C161.024 5.66225 160.833 6.18607 160.833 6.81735C160.833 7.43519 161.01 7.95898 161.349 8.37535C161.732 8.87231 162.277 9.1141 162.955 9.1141C163.647 9.12753 164.178 8.87231 164.561 8.37535ZM171.854 4.68172C171.663 4.61457 171.427 4.57429 171.162 4.57429C170.602 4.57429 170.16 4.80264 169.821 5.2593C169.482 5.71597 169.32 6.32037 169.32 7.09939V9.90655H168.082V3.74155H169.246V4.69517H169.276C169.438 4.37281 169.688 4.10419 170.013 3.90272C170.337 3.70125 170.676 3.59378 171.044 3.59378C171.28 3.59378 171.56 3.62064 171.869 3.67437V4.68172H171.854ZM174.757 8.54996L173.637 11.5049H172.444L173.284 8.54996H174.757ZM186.309 4.534C186.796 5.09811 187.031 5.83683 187.031 6.70987C187.031 7.63664 186.796 8.41565 186.339 9.00663C185.823 9.70506 185.072 10.0409 184.129 10.0409C183.082 10.0409 182.301 9.70507 181.815 9.02007H181.786V9.8931H180.592V0.826925H181.83V4.57429H181.859C182.301 3.91615 183.053 3.58038 184.099 3.58038C185.057 3.59381 185.779 3.90272 186.309 4.534ZM185.278 8.32165C185.558 7.87842 185.705 7.36801 185.705 6.79046C185.705 6.15918 185.558 5.63535 185.278 5.23241C184.954 4.74888 184.468 4.50715 183.849 4.50715C183.215 4.50715 182.714 4.74888 182.346 5.23241C182.007 5.66222 181.845 6.19948 181.845 6.83075C181.845 7.42173 182.007 7.93214 182.316 8.36195C182.685 8.87234 183.186 9.12754 183.834 9.12754C184.453 9.12754 184.924 8.85891 185.278 8.32165ZM192.483 4.68172C192.292 4.61457 192.056 4.57429 191.791 4.57429C191.231 4.57429 190.789 4.80264 190.45 5.2593C190.111 5.71597 189.949 6.32037 189.949 7.09939V9.90655H188.711V3.74155H189.875V4.69517H189.905C190.067 4.37281 190.317 4.10419 190.641 3.90272C190.966 3.70125 191.304 3.59378 191.673 3.59378C191.909 3.59378 192.189 3.62064 192.498 3.67437V4.68172H192.483ZM195.342 2.35812H193.942V1.08212H195.342V2.35812ZM195.268 9.8931H194.016V3.72811H195.268V9.8931ZM203.52 9.6379C203.52 11.5989 202.356 12.5928 200.042 12.5928C199.335 12.5928 198.525 12.4451 197.611 12.163L197.744 11.1154C198.628 11.4914 199.438 11.6661 200.175 11.6661C200.838 11.6661 201.339 11.478 201.722 11.1019C202.09 10.7258 202.282 10.202 202.282 9.55732V8.95293H202.252C201.722 9.5842 200.971 9.90655 199.983 9.90655C199.055 9.90655 198.333 9.59762 197.803 8.97978C197.316 8.42909 197.081 7.71722 197.081 6.87104C197.081 5.998 197.331 5.25927 197.832 4.64143C198.392 3.943 199.158 3.59378 200.116 3.59378C201.206 3.59378 201.943 3.94301 202.341 4.65487H202.37V3.74155H203.52V9.6379ZM201.737 8.36195C202.105 7.959 202.282 7.47547 202.282 6.88449C202.282 6.19949 202.12 5.64881 201.796 5.21901C201.442 4.74891 200.941 4.50715 200.307 4.50715C199.718 4.50715 199.247 4.76234 198.893 5.2593C198.583 5.70254 198.421 6.21292 198.421 6.8039C198.421 7.40831 198.583 7.91871 198.922 8.32165C199.276 8.75146 199.733 8.96633 200.307 8.96633C200.882 8.97976 201.354 8.77832 201.737 8.36195ZM211.624 9.8931H210.386V6.69643C210.386 5.94427 210.283 5.40703 210.077 5.07124C209.856 4.7086 209.487 4.52058 208.957 4.50715C208.279 4.49372 207.749 4.72202 207.395 5.19212C207.056 5.63536 206.894 6.25321 206.894 7.04566V9.8931H205.656V0.826925H206.894V4.61458H206.923C207.395 3.92958 208.117 3.59378 209.104 3.59378C210.799 3.59378 211.639 4.48026 211.639 6.23977V9.8931H211.624ZM217.459 9.8797C217.032 9.98715 216.678 10.0543 216.398 10.0543C215.013 10.0543 214.32 9.44986 214.32 8.25447V4.65487H212.788V3.74155H214.32V2.31783L215.558 1.95516V3.755H217.356V4.66832H215.558V8.03957C215.558 8.37535 215.661 8.65743 215.867 8.8589C216.059 9.04694 216.309 9.14095 216.604 9.14095C216.928 9.14095 217.208 9.07379 217.459 8.92604V9.8797ZM225.489 6.77705C225.99 7.11284 226.241 7.55607 226.241 8.12019C226.241 8.73803 226.005 9.22155 225.519 9.57076C225.077 9.87968 224.532 10.0409 223.883 10.0409C223.117 10.0409 222.498 9.91998 222.027 9.70508L222.086 8.68429C222.572 8.97978 223.102 9.12754 223.633 9.12754C223.972 9.12754 224.252 9.06035 224.487 8.92604C224.767 8.7783 224.915 8.53656 224.915 8.24107C224.915 7.94558 224.664 7.66349 224.163 7.40829C223.692 7.17996 223.22 6.93821 222.749 6.70987C222.248 6.37409 221.997 5.97117 221.997 5.47421C221.997 4.85637 222.233 4.38623 222.69 4.05045C223.117 3.74152 223.677 3.58038 224.384 3.58038C224.826 3.58038 225.342 3.66096 225.931 3.82214L225.828 4.81604C225.696 4.73546 225.475 4.66829 225.18 4.60114C224.9 4.53398 224.679 4.50715 224.517 4.50715C224.178 4.50715 223.898 4.57428 223.677 4.69517C223.441 4.82948 223.309 5.01754 223.309 5.2593C223.309 5.59509 223.559 5.87712 224.075 6.11889C224.546 6.34722 225.018 6.56215 225.489 6.77705ZM237.454 9.8931H236.202V6.21292C236.202 5.07125 235.804 4.50715 234.993 4.50715C234.404 4.50715 233.947 4.74891 233.623 5.21901C233.358 5.63538 233.21 6.15918 233.21 6.79046V9.8931H231.958V6.21292C231.958 5.07125 231.56 4.50715 230.75 4.50715C230.16 4.50715 229.703 4.74891 229.379 5.21901C229.099 5.63538 228.967 6.15918 228.967 6.79046V9.8931H227.729V3.72811H228.893V4.61458H228.923C229.394 3.91615 230.101 3.58038 231.074 3.58038C232.017 3.58038 232.65 3.9833 233.004 4.77575C233.21 4.37281 233.549 4.06389 233.991 3.84898C234.36 3.67438 234.728 3.58038 235.096 3.58038C236.658 3.58038 237.454 4.3594 237.454 5.93087V9.8931ZM245.985 6.81735C245.985 7.71725 245.661 8.46937 245.028 9.08721C244.379 9.71848 243.554 10.0409 242.552 10.0409C241.55 10.0409 240.71 9.71848 240.062 9.08721C239.428 8.46937 239.104 7.71725 239.104 6.81735C239.104 5.87715 239.428 5.09812 240.062 4.4937C240.696 3.88929 241.536 3.59378 242.552 3.59378C243.569 3.59378 244.394 3.88929 245.028 4.4937C245.661 5.09812 245.985 5.87715 245.985 6.81735ZM244.144 8.37535C244.483 7.94555 244.645 7.42176 244.645 6.81735C244.645 6.1995 244.453 5.66225 244.085 5.21901C243.687 4.74891 243.171 4.50715 242.538 4.50715C241.889 4.50715 241.373 4.74891 240.976 5.21901C240.607 5.66225 240.416 6.18607 240.416 6.81735C240.416 7.43519 240.593 7.95898 240.931 8.37535C241.315 8.87231 241.86 9.1141 242.538 9.1141C243.23 9.12753 243.761 8.87231 244.144 8.37535ZM254.075 6.81735C254.075 7.71725 253.751 8.46937 253.117 9.08721C252.469 9.71848 251.644 10.0409 250.642 10.0409C249.64 10.0409 248.8 9.71848 248.152 9.08721C247.518 8.46937 247.194 7.71725 247.194 6.81735C247.194 5.87715 247.518 5.09812 248.152 4.4937C248.785 3.88929 249.625 3.59378 250.642 3.59378C251.658 3.59378 252.484 3.88929 253.117 4.4937C253.765 5.09812 254.075 5.87715 254.075 6.81735ZM252.248 8.37535C252.587 7.94555 252.749 7.42176 252.749 6.81735C252.749 6.1995 252.557 5.66225 252.189 5.21901C251.791 4.74891 251.275 4.50715 250.642 4.50715C249.993 4.50715 249.478 4.74891 249.08 5.21901C248.711 5.66225 248.52 6.18607 248.52 6.81735C248.52 7.43519 248.697 7.95898 249.036 8.37535C249.419 8.87231 249.964 9.1141 250.642 9.1141C251.334 9.12753 251.865 8.87231 252.248 8.37535ZM259.453 9.8797C259.026 9.98715 258.672 10.0543 258.392 10.0543C257.007 10.0543 256.315 9.44986 256.315 8.25447V4.65487H254.782V3.74155H256.315V2.31783L257.552 1.95516V3.755H259.35V4.66832H257.552V8.03957C257.552 8.37535 257.655 8.65743 257.862 8.8589C258.053 9.04694 258.304 9.14095 258.599 9.14095C258.923 9.14095 259.203 9.07379 259.453 8.92604V9.8797ZM266.894 9.8931H265.657V6.69643C265.657 5.94427 265.553 5.40703 265.347 5.07124C265.126 4.7086 264.758 4.52058 264.227 4.50715C263.549 4.49372 263.019 4.72202 262.665 5.19212C262.326 5.63536 262.164 6.25321 262.164 7.04566V9.8931H260.927V0.826925H262.164V4.61458H262.194C262.665 3.92958 263.387 3.59378 264.375 3.59378C266.069 3.59378 266.909 4.48026 266.909 6.23977V9.8931H266.894ZM275.779 0.679199C276 0.679199 276.28 0.706059 276.619 0.759784L276.56 1.67311C276.413 1.61938 276.221 1.60597 275.971 1.60597C275.47 1.60597 275.131 1.75369 274.954 2.04918C274.822 2.25066 274.763 2.59988 274.763 3.06998V3.74155H276.56V4.65487H274.763V9.90655H273.525V4.65487H271.934V3.74155H273.525V3.16401C273.525 2.3447 273.672 1.74025 273.967 1.36417C274.306 0.907505 274.91 0.679199 275.779 0.679199ZM279.345 2.35812H277.945V1.08212H279.345V2.35812ZM279.271 9.8931H278.019V3.72811H279.271V9.8931ZM287.523 9.8931H286.285V6.69643C286.285 5.94427 286.182 5.40703 285.976 5.07124C285.755 4.7086 285.386 4.52058 284.856 4.50715C284.178 4.49372 283.648 4.72202 283.294 5.19212C282.955 5.63536 282.793 6.25321 282.793 7.04566V9.8931H281.555V3.72811H282.764V4.70861H282.793C282.985 4.37283 283.279 4.09075 283.677 3.88928C284.09 3.68781 284.532 3.58038 285.003 3.58038C286.698 3.58038 287.538 4.46685 287.538 6.22636V9.8931H287.523ZM291.133 2.35812H289.733V1.08212H291.133V2.35812ZM291.059 9.8931H289.807V3.72811H291.059V9.8931ZM296.231 6.77705C296.732 7.11284 296.983 7.55607 296.983 8.12019C296.983 8.73803 296.747 9.22155 296.261 9.57076C295.819 9.87968 295.274 10.0409 294.625 10.0409C293.859 10.0409 293.24 9.91998 292.769 9.70508L292.828 8.68429C293.314 8.97978 293.844 9.12754 294.375 9.12754C294.714 9.12754 294.994 9.06035 295.229 8.92604C295.509 8.7783 295.657 8.53656 295.657 8.24107C295.657 7.94558 295.406 7.66349 294.905 7.40829C294.434 7.17996 293.962 6.93821 293.491 6.70987C292.99 6.37409 292.739 5.97117 292.739 5.47421C292.739 4.85637 292.975 4.38623 293.432 4.05045C293.859 3.74152 294.419 3.58038 295.126 3.58038C295.568 3.58038 296.084 3.66096 296.673 3.82214L296.57 4.81604C296.438 4.73546 296.217 4.66829 295.922 4.60114C295.642 4.53398 295.421 4.50715 295.259 4.50715C294.92 4.50715 294.64 4.57428 294.419 4.69517C294.183 4.82948 294.051 5.01754 294.051 5.2593C294.051 5.59509 294.301 5.87712 294.817 6.11889C295.288 6.34722 295.76 6.56215 296.231 6.77705Z" fill="black"></path>
</svg>
