<svg width="297" height="13" fill="none" xmlns="http://www.w3.org/2000/svg"><path d="M5.365 9.893h-5.2V1.458H1.49v7.374h3.875v1.061Zm7.309 0h-1.208v-.98h-.03c-.177.349-.471.617-.884.819a2.988 2.988 0 0 1-1.326.309c-1.695 0-2.534-.887-2.534-2.646V3.742h1.237v3.183c0 .752.103 1.29.31 1.625.22.376.59.564 1.12.578.677.013 1.193-.215 1.547-.699.339-.443.5-1.061.5-1.84V3.742h1.239v6.151h.029Zm6.572-.094c-.398.175-.929.255-1.562.255-1.002 0-1.827-.322-2.49-.953a3.048 3.048 0 0 1-.958-2.27c0-.94.324-1.72.958-2.324.633-.604 1.473-.9 2.49-.9.574 0 1.075.08 1.517.242l-.103.94c-.471-.174-.913-.268-1.355-.268-.663 0-1.194.241-1.606.711-.369.444-.56.967-.56 1.599 0 .618.177 1.141.53 1.558.413.497.987.739 1.724.739.501 0 .943-.121 1.341-.35l.074 1.021Zm2.917-7.44h-1.4V1.081h1.4v1.276Zm-.073 7.534h-1.253V3.728h1.253v6.165Zm8.708-3.076c0 .9-.324 1.652-.958 2.27-.648.631-1.474.954-2.475.954-1.002 0-1.842-.323-2.49-.954a3.048 3.048 0 0 1-.958-2.27c0-.94.324-1.719.957-2.323.634-.605 1.474-.9 2.49-.9 1.017 0 1.842.295 2.476.9.648.604.958 1.383.958 2.323ZM28.97 8.375c.339-.43.5-.953.5-1.558 0-.618-.19-1.155-.56-1.598a1.938 1.938 0 0 0-1.546-.712c-.649 0-1.164.242-1.562.712-.369.443-.56.967-.56 1.598 0 .618.177 1.142.516 1.558.383.497.928.74 1.606.74.677.013 1.208-.243 1.606-.74Zm9.474 1.518h-1.208v-.98h-.03c-.176.349-.471.617-.884.819a2.988 2.988 0 0 1-1.326.309c-1.694 0-2.534-.887-2.534-2.646V3.742H33.7v3.183c0 .752.104 1.29.31 1.625.221.376.59.564 1.12.578.678.013 1.193-.215 1.547-.699.339-.443.501-1.061.501-1.84V3.742h1.238v6.151h.03Zm5.025-3.116c.5.336.751.78.751 1.343 0 .618-.235 1.102-.722 1.45-.442.31-.987.47-1.635.47-.767 0-1.385-.12-1.857-.335l.059-1.02a2.97 2.97 0 0 0 1.547.443c.34 0 .619-.068.855-.202.28-.148.427-.39.427-.685 0-.295-.25-.578-.751-.833-.472-.228-.943-.47-1.415-.698-.5-.336-.751-.739-.751-1.236 0-.618.235-1.088.692-1.424.427-.308.987-.47 1.695-.47.442 0 .957.081 1.547.242l-.103.994c-.133-.08-.354-.148-.649-.215a2.943 2.943 0 0 0-.663-.094c-.339 0-.619.067-.84.188-.235.134-.368.323-.368.564 0 .336.25.618.766.86.472.228.943.443 1.415.658Zm11.655-2.243c.486.564.722 1.303.722 2.176 0 .927-.236 1.706-.693 2.297-.515.698-1.267 1.034-2.21 1.034-1.06 0-1.812-.336-2.254-.994h-.03v3.385h-1.237V3.728h1.193v.873h.03c.486-.671 1.252-1.02 2.298-1.02.928.013 1.65.322 2.181.953Zm-1.031 3.788a2.81 2.81 0 0 0 .427-1.532c0-.63-.147-1.155-.427-1.558-.325-.483-.81-.725-1.43-.725-.633 0-1.134.242-1.503.725-.339.43-.5.967-.5 1.599 0 .59.161 1.101.47 1.53.37.511.87.767 1.519.767.618 0 1.09-.27 1.444-.806Zm9.857-1.505c0 .9-.324 1.652-.958 2.27-.648.631-1.473.954-2.475.954s-1.842-.323-2.49-.954a3.048 3.048 0 0 1-.958-2.27c0-.94.324-1.719.958-2.323.633-.605 1.473-.9 2.49-.9 1.017 0 1.842.295 2.475.9.649.604.958 1.383.958 2.323Zm-1.827 1.558c.339-.43.501-.953.501-1.558 0-.618-.191-1.155-.56-1.598a1.938 1.938 0 0 0-1.547-.712c-.648 0-1.164.242-1.562.712-.368.443-.56.967-.56 1.598 0 .618.177 1.142.516 1.558.383.497.928.74 1.606.74.678.013 1.208-.243 1.606-.74Zm13.202 1.518h-1.252v-3.68c0-1.142-.398-1.706-1.208-1.706-.59 0-1.046.242-1.37.712-.266.416-.413.94-.413 1.571v3.103H69.83v-3.68c0-1.142-.397-1.706-1.208-1.706-.59 0-1.046.242-1.37.712-.28.416-.413.94-.413 1.571v3.103h-1.237V3.728h1.178v.887h.03c.471-.699 1.179-1.035 2.151-1.035.943 0 1.577.403 1.93 1.196.207-.403.545-.712.987-.927a2.572 2.572 0 0 1 1.106-.269c1.562 0 2.357.78 2.357 2.35v3.963h-.014Zm4.804-6.3c1.99 0 2.977 1.156 2.977 3.48h-4.819c0 .59.221 1.087.678 1.477.427.376.943.578 1.547.578.368 0 .781-.081 1.238-.229.383-.12.663-.255.855-.39v1.142c-.81.269-1.518.403-2.137.403-1.164 0-2.048-.309-2.652-.926-.575-.578-.855-1.384-.855-2.418 0-.913.295-1.666.87-2.243.589-.591 1.355-.873 2.298-.873Zm1.665 2.633c0-.483-.147-.886-.442-1.208-.31-.336-.722-.497-1.238-.497-.56 0-1.002.188-1.34.55-.266.31-.428.699-.487 1.155h3.507Zm8.974 3.412c0 1.96-1.164 2.955-3.478 2.955-.707 0-1.517-.148-2.431-.43l.133-1.048c.884.376 1.694.551 2.43.551.664 0 1.165-.188 1.548-.564.368-.376.56-.9.56-1.545v-.604h-.03c-.53.631-1.282.954-2.269.954-.928 0-1.65-.31-2.18-.927-.487-.55-.723-1.263-.723-2.109 0-.873.251-1.612.752-2.23.56-.698 1.326-1.047 2.284-1.047 1.09 0 1.827.349 2.225 1.06h.03v-.912h1.149v5.896ZM88.97 8.362c.368-.403.545-.887.545-1.478 0-.685-.162-1.235-.486-1.665-.354-.47-.855-.712-1.488-.712-.59 0-1.061.255-1.415.752-.31.444-.471.954-.471 1.545 0 .604.162 1.115.5 1.518.354.43.811.644 1.386.644.574.014 1.06-.188 1.429-.604Zm7.706-3.68a2.113 2.113 0 0 0-.692-.108c-.56 0-1.002.229-1.341.685-.339.457-.501 1.061-.501 1.84v2.808h-1.238V3.742h1.164v.953h.03a1.98 1.98 0 0 1 .736-.792 1.917 1.917 0 0 1 1.032-.31c.236 0 .516.028.825.081v1.008h-.015Zm6.631 4.002c0 .564.015.967.059 1.21h-1.164V9.1h-.03c-.486.63-1.193.94-2.092.94-.766 0-1.356-.148-1.783-.457-.457-.336-.692-.82-.692-1.464 0-.698.368-1.235 1.09-1.598.575-.296 1.267-.443 2.063-.443.56 0 1.002.013 1.326.026 0-.55-.118-.953-.368-1.208-.266-.269-.693-.403-1.312-.403-.766 0-1.414.215-1.96.631l-.058-.967a4.567 4.567 0 0 1 2.224-.578c.944 0 1.651.215 2.093.645.427.416.633 1.048.633 1.907v2.552h-.029Zm-1.724-.027c.324-.295.486-.671.486-1.155v-.537c-.088 0-.221 0-.398-.013-.176-.014-.309-.014-.397-.014-1.562 0-2.358.39-2.358 1.182 0 .31.133.55.413.739.25.175.53.255.854.255.604.014 1.061-.148 1.4-.457Zm9.813 1.236h-1.237V6.696c0-.752-.103-1.289-.31-1.625-.221-.362-.589-.55-1.12-.564-.677-.013-1.208.215-1.561.685-.339.443-.501 1.061-.501 1.854v2.847h-1.238V3.728h1.208v.98h.03c.191-.335.486-.617.884-.819a2.984 2.984 0 0 1 1.326-.309c1.694 0 2.534.887 2.534 2.646v3.667h-.015Zm7.397-1.209c0 .564.015.967.059 1.21h-1.164V9.1h-.029c-.487.63-1.194.94-2.093.94-.766 0-1.355-.148-1.783-.457-.456-.336-.692-.82-.692-1.464 0-.698.368-1.235 1.09-1.598.575-.296 1.268-.443 2.063-.443.56 0 1.002.013 1.326.026 0-.55-.118-.953-.368-1.208-.265-.269-.693-.403-1.311-.403-.767 0-1.415.215-1.96.631l-.059-.967a4.568 4.568 0 0 1 2.225-.578c.943 0 1.65.215 2.092.645.428.416.634 1.048.634 1.907v2.552h-.03Zm-1.738-.027c.324-.295.486-.671.486-1.155v-.537c-.089 0-.221 0-.398-.013-.177-.014-.309-.014-.398-.014-1.562 0-2.357.39-2.357 1.182 0 .31.132.55.412.739.251.175.531.255.855.255.604.014 1.075-.148 1.4-.457ZM124.6 9.88c-.427.107-.781.174-1.061.174-1.385 0-2.078-.604-2.078-1.8v-3.6h-1.532v-.912h1.532V2.318l1.238-.363v1.8h1.798v.913h-1.798V8.04c0 .335.103.617.309.819.192.188.443.282.737.282.324 0 .604-.067.855-.215v.954Zm4.185-6.286c1.989 0 2.976 1.155 2.976 3.478h-4.818c0 .591.221 1.088.677 1.478.428.376.943.578 1.548.578.368 0 .781-.081 1.237-.229.383-.12.663-.255.855-.39v1.142c-.81.269-1.518.403-2.137.403-1.164 0-2.048-.309-2.652-.926-.574-.578-.854-1.384-.854-2.418 0-.913.294-1.666.869-2.243.575-.591 1.341-.873 2.299-.873Zm1.65 2.632c0-.483-.148-.886-.442-1.208-.31-.336-.722-.497-1.238-.497-.56 0-1.002.188-1.341.55-.265.31-.427.699-.486 1.155h3.507ZM140.189.68c.221 0 .501.027.84.08l-.059.914c-.147-.054-.339-.067-.589-.067-.501 0-.84.148-1.017.443-.132.202-.191.55-.191 1.021v.672h1.797v.913h-1.797v5.252h-1.238V4.655h-1.592v-.913h1.592v-.578c0-.82.147-1.424.442-1.8.339-.456.958-.685 1.812-.685Zm3.492 9.214h-1.252V.827h1.252v9.066Zm7.545-1.209c0 .564.014.967.059 1.21h-1.164V9.1h-.03c-.486.63-1.193.94-2.092.94-.766 0-1.356-.148-1.783-.457-.457-.336-.693-.82-.693-1.464 0-.698.369-1.235 1.091-1.598.574-.296 1.267-.443 2.063-.443.559 0 1.002.013 1.326.026 0-.55-.118-.953-.369-1.208-.265-.269-.692-.403-1.311-.403-.766 0-1.415.215-1.96.631l-.059-.967a4.57 4.57 0 0 1 2.225-.578c.943 0 1.651.215 2.093.645.427.416.633 1.048.633 1.907v2.552h-.029Zm-1.724-.027c.324-.295.486-.671.486-1.155v-.537c-.088 0-.221 0-.398-.013-.177-.014-.309-.014-.398-.014-1.562 0-2.357.39-2.357 1.182 0 .31.132.55.412.739.251.175.531.255.855.255.589.014 1.061-.148 1.4-.457Zm9.253-4.915-2.416 6.165h-1.489l-2.416-6.165h1.356l1.827 5.023h.029l1.871-5.023h1.238Zm7.648 3.075c0 .9-.325 1.652-.958 2.27-.649.631-1.474.954-2.476.954s-1.841-.323-2.49-.954a3.05 3.05 0 0 1-.958-2.27c0-.94.325-1.719.958-2.323.634-.605 1.474-.9 2.49-.9 1.017 0 1.842.295 2.476.9.633.604.958 1.383.958 2.323Zm-1.842 1.558c.339-.43.501-.953.501-1.558 0-.618-.192-1.155-.56-1.598a1.939 1.939 0 0 0-1.547-.712c-.649 0-1.164.242-1.562.712-.369.443-.56.967-.56 1.598 0 .618.177 1.142.516 1.558.383.497.928.74 1.606.74.692.013 1.223-.243 1.606-.74Zm7.293-3.693a2.109 2.109 0 0 0-.692-.108c-.56 0-1.002.229-1.341.685-.339.457-.501 1.061-.501 1.84v2.808h-1.238V3.742h1.164v.953h.03c.162-.322.412-.59.737-.792a1.916 1.916 0 0 1 1.031-.31c.236 0 .516.028.825.081v1.008h-.015Zm2.903 3.868-1.12 2.955h-1.193l.84-2.955h1.473Zm11.552-4.016c.487.564.722 1.303.722 2.176 0 .927-.235 1.706-.692 2.297-.516.698-1.267 1.034-2.21 1.034-1.047 0-1.828-.336-2.314-1.02h-.029v.872h-1.194V.827h1.238v3.747h.029c.442-.658 1.194-.994 2.24-.994.958.014 1.68.323 2.21.954Zm-1.031 3.788a2.81 2.81 0 0 0 .427-1.532c0-.63-.147-1.155-.427-1.558-.324-.483-.81-.725-1.429-.725-.634 0-1.135.242-1.503.725-.339.43-.501.967-.501 1.599 0 .59.162 1.101.471 1.53.369.511.87.767 1.518.767.619 0 1.09-.27 1.444-.806Zm7.205-3.64a2.109 2.109 0 0 0-.692-.108c-.56 0-1.002.229-1.341.685-.339.457-.501 1.061-.501 1.84v2.808h-1.238V3.742h1.164v.953h.03c.162-.322.412-.59.736-.792a1.92 1.92 0 0 1 1.032-.31c.236 0 .516.028.825.081v1.008h-.015Zm2.859-2.324h-1.4V1.082h1.4v1.276Zm-.074 7.535h-1.252V3.728h1.252v6.165Zm8.252-.255c0 1.96-1.164 2.955-3.478 2.955-.707 0-1.517-.148-2.431-.43l.133-1.048c.884.376 1.694.551 2.431.551.663 0 1.164-.188 1.547-.564.368-.376.56-.9.56-1.545v-.604h-.03c-.53.631-1.281.954-2.269.954-.928 0-1.65-.31-2.18-.927-.487-.55-.722-1.263-.722-2.109 0-.873.25-1.612.751-2.23.56-.698 1.326-1.047 2.284-1.047 1.09 0 1.827.349 2.225 1.06h.029v-.912h1.15v5.896Zm-1.783-1.276c.368-.403.545-.887.545-1.478 0-.685-.162-1.235-.486-1.665-.354-.47-.855-.712-1.489-.712-.589 0-1.06.255-1.414.752-.31.444-.472.954-.472 1.545 0 .604.162 1.115.501 1.518.354.43.811.644 1.385.644a1.795 1.795 0 0 0 1.43-.604Zm9.887 1.531h-1.238V6.696c0-.752-.103-1.289-.309-1.625-.221-.362-.59-.55-1.12-.564-.678-.013-1.208.215-1.562.685-.339.443-.501 1.061-.501 1.854v2.847h-1.238V.827h1.238v3.788h.029c.472-.685 1.194-1.021 2.181-1.021 1.695 0 2.535.886 2.535 2.646v3.653h-.015Zm5.835-.013c-.427.107-.781.174-1.061.174-1.385 0-2.078-.604-2.078-1.8v-3.6h-1.532v-.912h1.532V2.318l1.238-.363v1.8h1.798v.913h-1.798V8.04c0 .335.103.617.309.819.192.188.442.282.737.282.324 0 .604-.067.855-.215v.954Zm8.03-3.103c.501.336.752.78.752 1.343 0 .618-.236 1.102-.722 1.45-.442.31-.987.47-1.636.47-.766 0-1.385-.12-1.856-.335l.059-1.02a2.967 2.967 0 0 0 1.547.443c.339 0 .619-.068.854-.202.28-.148.428-.39.428-.685 0-.295-.251-.578-.752-.833-.471-.228-.943-.47-1.414-.698-.501-.336-.752-.739-.752-1.236 0-.618.236-1.088.693-1.424.427-.308.987-.47 1.694-.47.442 0 .958.081 1.547.242l-.103.994c-.132-.08-.353-.148-.648-.215a2.943 2.943 0 0 0-.663-.094c-.339 0-.619.067-.84.188-.236.134-.368.323-.368.564 0 .336.25.618.766.86.471.228.943.443 1.414.658Zm11.965 3.116h-1.252v-3.68c0-1.142-.398-1.706-1.209-1.706-.589 0-1.046.242-1.37.712-.265.416-.413.94-.413 1.571v3.103h-1.252v-3.68c0-1.142-.398-1.706-1.208-1.706-.59 0-1.047.242-1.371.712-.28.416-.412.94-.412 1.571v3.103h-1.238V3.728h1.164v.887h.03c.471-.699 1.178-1.035 2.151-1.035.943 0 1.576.403 1.93 1.196.206-.403.545-.712.987-.927a2.574 2.574 0 0 1 1.105-.269c1.562 0 2.358.78 2.358 2.35v3.963Zm8.531-3.076c0 .9-.324 1.652-.957 2.27-.649.631-1.474.954-2.476.954s-1.842-.323-2.49-.954a3.046 3.046 0 0 1-.958-2.27c0-.94.324-1.719.958-2.323.634-.605 1.474-.9 2.49-.9 1.017 0 1.842.295 2.476.9.633.604.957 1.383.957 2.323Zm-1.841 1.558c.339-.43.501-.953.501-1.558 0-.618-.192-1.155-.56-1.598a1.939 1.939 0 0 0-1.547-.712c-.649 0-1.165.242-1.562.712-.369.443-.56.967-.56 1.598 0 .618.177 1.142.515 1.558.384.497.929.74 1.607.74.692.013 1.223-.243 1.606-.74Zm9.931-1.558c0 .9-.324 1.652-.958 2.27-.648.631-1.473.954-2.475.954s-1.842-.323-2.49-.954a3.046 3.046 0 0 1-.958-2.27c0-.94.324-1.719.958-2.323.633-.605 1.473-.9 2.49-.9 1.016 0 1.842.295 2.475.9.648.604.958 1.383.958 2.323Zm-1.827 1.558c.339-.43.501-.953.501-1.558 0-.618-.192-1.155-.56-1.598a1.939 1.939 0 0 0-1.547-.712c-.649 0-1.164.242-1.562.712-.369.443-.56.967-.56 1.598 0 .618.177 1.142.516 1.558.383.497.928.74 1.606.74.692.013 1.223-.243 1.606-.74Zm7.205 1.505c-.427.107-.781.174-1.061.174-1.385 0-2.077-.604-2.077-1.8v-3.6h-1.533v-.912h1.533V2.318l1.237-.363v1.8h1.798v.913h-1.798V8.04c0 .335.103.617.31.819.191.188.442.282.737.282.324 0 .604-.067.854-.215v.954Zm7.441.013h-1.237V6.696c0-.752-.104-1.289-.31-1.625-.221-.362-.589-.55-1.12-.564-.678-.013-1.208.215-1.562.685-.339.443-.501 1.061-.501 1.854v2.847h-1.237V.827h1.237v3.788h.03c.471-.685 1.193-1.021 2.181-1.021 1.694 0 2.534.886 2.534 2.646v3.653h-.015ZM275.779.68c.221 0 .501.027.84.08l-.059.914c-.147-.054-.339-.067-.589-.067-.501 0-.84.148-1.017.443-.132.202-.191.55-.191 1.021v.672h1.797v.913h-1.797v5.252h-1.238V4.655h-1.591v-.913h1.591v-.578c0-.82.147-1.424.442-1.8.339-.456.943-.685 1.812-.685Zm3.566 1.68h-1.4V1.081h1.4v1.276Zm-.074 7.534h-1.252V3.728h1.252v6.165Zm8.252 0h-1.238V6.696c0-.752-.103-1.289-.309-1.625-.221-.362-.59-.55-1.12-.564-.678-.013-1.208.215-1.562.685-.339.443-.501 1.061-.501 1.854v2.847h-1.238V3.728h1.209v.98h.029c.192-.335.486-.617.884-.819a2.99 2.99 0 0 1 1.326-.309c1.695 0 2.535.887 2.535 2.646v3.667h-.015Zm3.61-7.535h-1.4V1.082h1.4v1.276Zm-.074 7.535h-1.252V3.728h1.252v6.165Zm5.172-3.116c.501.336.752.78.752 1.343 0 .618-.236 1.102-.722 1.45-.442.31-.987.47-1.636.47-.766 0-1.385-.12-1.856-.335l.059-1.02a2.967 2.967 0 0 0 1.547.443c.339 0 .619-.068.854-.202.28-.148.428-.39.428-.685 0-.295-.251-.578-.752-.833-.471-.228-.943-.47-1.414-.698-.501-.336-.752-.739-.752-1.236 0-.618.236-1.088.693-1.424.427-.308.987-.47 1.694-.47.442 0 .958.081 1.547.242l-.103.994c-.132-.08-.353-.148-.648-.215a2.943 2.943 0 0 0-.663-.094c-.339 0-.619.067-.84.188-.236.134-.368.323-.368.564 0 .336.25.618.766.86.471.228.943.443 1.414.658Z" fill="#000"/></svg>