<svg width="115" height="11" fill="none" xmlns="http://www.w3.org/2000/svg"><path d="M5.365 9.226h-5.2V.792H1.49v7.373h3.875v1.061Zm7.309 0h-1.208v-.98h-.03c-.177.35-.471.618-.884.82a2.988 2.988 0 0 1-1.326.308c-1.695 0-2.534-.886-2.534-2.646V3.075h1.237v3.183c0 .752.103 1.29.31 1.625.22.376.59.564 1.12.578.677.013 1.193-.215 1.547-.699.339-.443.5-1.06.5-1.84V3.075h1.239v6.151h.029Zm6.572-.094c-.398.175-.929.256-1.562.256-1.002 0-1.827-.323-2.49-.954a3.048 3.048 0 0 1-.958-2.27c0-.94.324-1.72.958-2.323.633-.605 1.473-.9 2.49-.9.574 0 1.075.08 1.517.241l-.103.94c-.471-.174-.913-.268-1.355-.268-.663 0-1.194.242-1.606.712-.369.443-.56.967-.56 1.598 0 .618.177 1.142.53 1.558.413.497.987.739 1.724.739.501 0 .943-.121 1.341-.35l.074 1.021Zm2.917-7.44h-1.4V.414h1.4v1.276Zm-.073 7.534h-1.253V3.061h1.253v6.165Zm8.708-3.075c0 .9-.324 1.652-.958 2.27-.648.63-1.473.953-2.475.953s-1.842-.322-2.49-.953a3.048 3.048 0 0 1-.958-2.27c0-.94.324-1.72.957-2.324.634-.604 1.474-.9 2.49-.9 1.017 0 1.842.296 2.476.9.648.604.958 1.384.958 2.324ZM28.97 7.709c.339-.43.5-.954.5-1.558 0-.618-.19-1.155-.56-1.599a1.938 1.938 0 0 0-1.546-.711c-.649 0-1.164.241-1.562.711-.369.444-.56.967-.56 1.599 0 .618.177 1.141.516 1.558.383.497.928.738 1.606.738.677.014 1.208-.241 1.606-.738Zm9.474 1.517h-1.208v-.98h-.03c-.176.35-.471.618-.884.82a2.988 2.988 0 0 1-1.326.308c-1.694 0-2.534-.886-2.534-2.646V3.075H33.7v3.183c0 .752.104 1.29.31 1.625.221.376.59.564 1.12.578.678.013 1.193-.215 1.547-.699.339-.443.501-1.06.501-1.84V3.075h1.238v6.151h.03ZM43.47 6.11c.5.336.751.78.751 1.344 0 .617-.235 1.1-.722 1.45-.442.31-.987.47-1.635.47-.767 0-1.385-.12-1.857-.336l.059-1.02a2.97 2.97 0 0 0 1.547.443c.34 0 .619-.067.855-.202.28-.147.427-.39.427-.685 0-.295-.25-.577-.751-.832-.472-.229-.943-.47-1.415-.699-.5-.336-.751-.738-.751-1.235 0-.618.235-1.088.692-1.424.427-.31.987-.47 1.695-.47.442 0 .957.08 1.547.242l-.103.993c-.133-.08-.354-.147-.649-.214a2.943 2.943 0 0 0-.663-.094c-.339 0-.619.067-.84.188-.235.134-.368.322-.368.564 0 .335.25.617.766.86.472.228.943.443 1.415.657Zm3.787 1.773-1.12 2.955h-1.194l.84-2.955h1.474Zm9.636-3.868a2.113 2.113 0 0 0-.692-.107c-.56 0-1.002.228-1.341.685-.34.456-.501 1.06-.501 1.84V9.24H53.12V3.075h1.164v.954h.03c.162-.323.412-.591.736-.793a1.917 1.917 0 0 1 1.032-.309c.236 0 .516.027.825.08v1.008h-.015Zm2.859-2.324h-1.4V.415h1.4v1.276Zm-.074 7.535h-1.252V3.061h1.252v6.165Zm6.734-.094c-.398.175-.928.256-1.562.256-1.002 0-1.827-.323-2.49-.954a3.048 3.048 0 0 1-.958-2.27c0-.94.324-1.72.958-2.323.633-.605 1.473-.9 2.49-.9.575 0 1.076.08 1.518.241l-.103.94c-.472-.174-.914-.268-1.356-.268-.663 0-1.194.242-1.606.712-.368.443-.56.967-.56 1.598 0 .618.177 1.142.53 1.558.413.497.988.739 1.724.739.501 0 .943-.121 1.341-.35l.074 1.021Zm7.412.094h-1.238V6.03c0-.752-.103-1.29-.31-1.625-.22-.363-.589-.551-1.12-.564-.677-.014-1.208.214-1.561.684-.34.444-.501 1.062-.501 1.854v2.847h-1.238V.16h1.238v3.788h.03c.47-.685 1.193-1.02 2.18-1.02 1.694 0 2.534.886 2.534 2.645v3.653h-.014ZM82.709.013c.22 0 .5.026.84.08l-.06.913C83.343.953 83.152.94 82.9.94c-.5 0-.84.148-1.017.444-.132.201-.191.55-.191 1.02v.672h1.798v.913h-1.798V9.24h-1.238V3.988h-1.591v-.913h1.591v-.578c0-.819.148-1.423.442-1.8.34-.456.943-.684 1.813-.684ZM86.2 9.226h-1.253V.16h1.253v9.066Zm7.544-1.208c0 .564.015.967.059 1.208H92.64v-.792h-.03c-.486.631-1.193.94-2.092.94-.766 0-1.356-.148-1.783-.456-.457-.336-.692-.82-.692-1.464 0-.699.368-1.236 1.09-1.599.575-.295 1.267-.443 2.063-.443.56 0 1.002.013 1.326.027 0-.55-.118-.954-.368-1.209-.266-.269-.693-.403-1.312-.403-.766 0-1.414.215-1.96.631l-.058-.967a4.568 4.568 0 0 1 2.225-.577c.943 0 1.65.215 2.092.644.427.417.634 1.048.634 1.908v2.552h-.03Zm-1.739-.027c.325-.296.487-.672.487-1.155v-.538c-.089 0-.221 0-.398-.013-.177-.013-.31-.013-.398-.013-1.562 0-2.358.39-2.358 1.182 0 .308.133.55.413.738.25.175.53.255.855.255.604.014 1.06-.147 1.4-.456Zm9.269-4.916L98.858 9.24H97.37l-2.417-6.165h1.356l1.827 5.023h.03l1.871-5.023h1.238Zm7.632 3.076c0 .9-.324 1.652-.958 2.27-.648.63-1.473.953-2.475.953s-1.842-.322-2.49-.953a3.046 3.046 0 0 1-.958-2.27c0-.94.324-1.72.958-2.324.633-.604 1.473-.9 2.49-.9 1.017 0 1.842.296 2.475.9.649.604.958 1.384.958 2.324Zm-1.827 1.558c.339-.43.501-.954.501-1.558 0-.618-.191-1.155-.56-1.599a1.937 1.937 0 0 0-1.547-.711c-.648 0-1.164.241-1.562.711-.368.444-.56.967-.56 1.599 0 .618.177 1.141.516 1.558.383.497.928.738 1.606.738.678.014 1.208-.241 1.606-.738Zm7.279-3.694a2.109 2.109 0 0 0-.692-.107c-.56 0-1.002.228-1.341.685-.339.456-.501 1.06-.501 1.84V9.24h-1.238V3.075h1.164v.954h.03c.162-.323.412-.591.736-.793a1.917 1.917 0 0 1 1.032-.309c.235 0 .515.027.825.08v1.008h-.015Z" fill="#000"/></svg>