<svg width="182" height="13" viewBox="0 0 182 13" fill="none" xmlns="http://www.w3.org/2000/svg">
<path d="M4.98034 5.60741C5.67288 6.09094 6.01176 6.73566 6.01176 7.52811C6.01176 8.37429 5.67286 9.01899 5.0098 9.46223C4.4204 9.85174 3.62473 10.0532 2.62276 10.0532C2.13651 10.0532 1.51763 9.93232 0.72195 9.70398L0.854559 8.58918C1.5913 8.85781 2.22494 8.99212 2.78487 8.99212C3.22691 8.99212 3.62475 8.88468 3.97838 8.68321C4.39096 8.42801 4.61197 8.07878 4.61197 7.62212C4.61197 7.11173 4.27305 6.68193 3.58051 6.33272C2.94692 6.0238 2.2986 5.72829 1.665 5.41937C0.972464 4.97614 0.633545 4.38516 0.633545 3.633C0.633545 2.9077 0.913532 2.3436 1.48819 1.92723C2.03338 1.53772 2.72591 1.33625 3.59526 1.33625C4.2878 1.33625 4.95086 1.43027 5.56973 1.63174L5.37817 2.74654C4.72983 2.50478 4.15519 2.39731 3.63947 2.39731C2.56382 2.39731 2.01862 2.77341 2.01862 3.52557C2.01862 3.95537 2.35754 4.33144 3.05008 4.66722C4.25834 5.23134 4.89193 5.55369 4.98034 5.60741ZM17.3871 9.89202H16.1346V6.21184C16.1346 5.07017 15.7368 4.50605 14.9264 4.50605C14.337 4.50605 13.8802 4.74781 13.556 5.21791C13.2908 5.63428 13.1435 6.1581 13.1435 6.78938V9.89202H11.891V6.21184C11.891 5.07017 11.4931 4.50605 10.6827 4.50605C10.0933 4.50605 9.63656 4.74781 9.31239 5.21791C9.03243 5.63428 8.89982 6.1581 8.89982 6.78938V9.89202H7.6621V3.72703H8.84087V4.6135H8.87032C9.34183 3.91507 10.0491 3.57928 11.0216 3.57928C11.9647 3.57928 12.5983 3.98222 12.9519 4.77467C13.1582 4.37173 13.4971 4.06281 13.9391 3.84791C14.3075 3.6733 14.6759 3.57928 15.0442 3.57928C16.6061 3.57928 17.4018 4.3583 17.4018 5.92977V9.89202H17.3871ZM25.9185 6.81625C25.9185 7.71615 25.5944 8.46831 24.9608 9.08615C24.3125 9.71743 23.4873 10.0398 22.4853 10.0398C21.4834 10.0398 20.6435 9.71743 19.9952 9.08615C19.3616 8.46831 19.0374 7.71615 19.0374 6.81625C19.0374 5.87605 19.3616 5.09702 19.9952 4.49261C20.6288 3.88819 21.4686 3.59271 22.4853 3.59271C23.5021 3.59271 24.3272 3.88819 24.9608 4.49261C25.5944 5.09702 25.9185 5.87605 25.9185 6.81625ZM24.0767 8.37429C24.4156 7.94449 24.5777 7.42066 24.5777 6.81625C24.5777 6.1984 24.3861 5.66115 24.0177 5.21791C23.6199 4.74781 23.1042 4.50605 22.4706 4.50605C21.8223 4.50605 21.3066 4.74781 20.9087 5.21791C20.5403 5.66115 20.3488 6.18497 20.3488 6.81625C20.3488 7.43409 20.5256 7.95792 20.8645 8.37429C21.2476 8.87125 21.7928 9.113 22.4706 9.113C23.1631 9.12643 23.6936 8.87125 24.0767 8.37429ZM34.008 6.81625C34.008 7.71615 33.6838 8.46831 33.0502 9.08615C32.4019 9.71743 31.5767 10.0398 30.5748 10.0398C29.5728 10.0398 28.7329 9.71743 28.0846 9.08615C27.451 8.46831 27.1268 7.71615 27.1268 6.81625C27.1268 5.87605 27.451 5.09702 28.0846 4.49261C28.7182 3.88819 29.5581 3.59271 30.5748 3.59271C31.5915 3.59271 32.4166 3.88819 33.0502 4.49261C33.6985 5.09702 34.008 5.87605 34.008 6.81625ZM32.1809 8.37429C32.5198 7.94449 32.6818 7.42066 32.6818 6.81625C32.6818 6.1984 32.4903 5.66115 32.1219 5.21791C31.7241 4.74781 31.2084 4.50605 30.5748 4.50605C29.9264 4.50605 29.4107 4.74781 29.0129 5.21791C28.6445 5.66115 28.4529 6.18497 28.4529 6.81625C28.4529 7.43409 28.6298 7.95792 28.9687 8.37429C29.3518 8.87125 29.897 9.113 30.5748 9.113C31.2673 9.12643 31.7978 8.87125 32.1809 8.37429ZM39.3862 9.8786C38.9589 9.98605 38.6053 10.0532 38.3253 10.0532C36.9402 10.0532 36.2477 9.44879 36.2477 8.25339V4.6538H34.7153V3.74045H36.2477V2.31673L37.4854 1.95408V3.7539H39.2831V4.66722H37.4854V8.03851C37.4854 8.37429 37.5885 8.65633 37.7948 8.8578C37.9864 9.04584 38.2369 9.13987 38.5316 9.13987C38.8557 9.13987 39.1357 9.07271 39.3862 8.92496V9.8786ZM46.8273 9.89202H45.5896V6.69537C45.5896 5.94321 45.4864 5.40595 45.2802 5.07017C45.0591 4.70752 44.6908 4.51948 44.1603 4.50605C43.4825 4.49262 42.952 4.72094 42.5984 5.19104C42.2595 5.63428 42.0974 6.25213 42.0974 7.04458V9.89202H40.8597V0.825847H42.0974V4.6135H42.1269C42.5984 3.9285 43.3204 3.59271 44.3077 3.59271C46.0022 3.59271 46.842 4.47918 46.842 6.23869V9.89202H46.8273ZM50.4668 8.54889L49.3469 11.5038H48.1534L48.9933 8.54889H50.4668ZM62.0337 4.53292C62.5199 5.09704 62.7557 5.83575 62.7557 6.70879C62.7557 7.63556 62.5199 8.41457 62.0631 9.00555C61.5474 9.70398 60.7959 10.0398 59.8529 10.0398C58.8067 10.0398 58.0258 9.70399 57.5395 9.01899H57.5101V9.89202H56.3165V0.825847H57.5543V4.57321H57.5837C58.0258 3.91507 58.7773 3.57928 59.8234 3.57928C60.7665 3.59271 61.5032 3.90164 62.0337 4.53292ZM61.0022 8.32055C61.2822 7.87732 61.4295 7.36693 61.4295 6.78938C61.4295 6.1581 61.2822 5.63428 61.0022 5.23134C60.6781 4.74781 60.1918 4.50605 59.5729 4.50605C58.9393 4.50605 58.4384 4.74781 58.07 5.23134C57.7311 5.66114 57.569 6.1984 57.569 6.82967C57.569 7.42065 57.7311 7.93104 58.0405 8.36085C58.4089 8.87124 58.9099 9.12645 59.5582 9.12645C60.1624 9.12645 60.6486 8.85781 61.0022 8.32055ZM69.6958 8.68321C69.6958 9.24732 69.7105 9.65026 69.7547 9.89202H68.5907V9.09958H68.5612C68.075 9.73085 67.3677 10.0398 66.4688 10.0398C65.7026 10.0398 65.1132 9.89203 64.6859 9.58311C64.2291 9.24732 63.9934 8.7638 63.9934 8.11909C63.9934 7.42066 64.3618 6.8834 65.0838 6.52076C65.6585 6.22527 66.351 6.07752 67.1467 6.07752C67.7066 6.07752 68.1486 6.09096 68.4728 6.10439C68.4728 5.5537 68.3549 5.15075 68.1044 4.89555C67.8392 4.62692 67.4119 4.49261 66.793 4.49261C66.0268 4.49261 65.3785 4.70751 64.8333 5.12388L64.7743 4.15682C65.4816 3.76731 66.2331 3.57928 66.9993 3.57928C67.9423 3.57928 68.6496 3.79418 69.0917 4.22398C69.519 4.64035 69.7253 5.27163 69.7253 6.13123V8.68321H69.6958ZM67.9571 8.65634C68.2812 8.36085 68.4433 7.98477 68.4433 7.50124V6.96399C68.3549 6.96399 68.2223 6.96398 68.0455 6.95055C67.8687 6.93712 67.7361 6.93713 67.6476 6.93713C66.0858 6.93713 65.2901 7.32664 65.2901 8.11909C65.2901 8.42801 65.4227 8.66976 65.7026 8.8578C65.9531 9.03241 66.2331 9.113 66.5573 9.113C67.1614 9.12643 67.6182 8.96526 67.9571 8.65634ZM73.2027 9.89202H71.9502V0.825847H73.2027V9.89202ZM80.7469 8.68321C80.7469 9.24732 80.7617 9.65026 80.8059 9.89202H79.6418V9.09958H79.6123C79.1261 9.73085 78.4188 10.0398 77.52 10.0398C76.7538 10.0398 76.1644 9.89203 75.7371 9.58311C75.2803 9.24732 75.0445 8.7638 75.0445 8.11909C75.0445 7.42066 75.4129 6.8834 76.1349 6.52076C76.7096 6.22527 77.4021 6.07752 78.1978 6.07752C78.7577 6.07752 79.1998 6.09096 79.5239 6.10439C79.5239 5.5537 79.4061 5.15075 79.1556 4.89555C78.8903 4.62692 78.463 4.49261 77.8441 4.49261C77.0779 4.49261 76.4296 4.70751 75.8844 5.12388L75.8255 4.15682C76.5327 3.76731 77.2842 3.57928 78.0504 3.57928C78.9935 3.57928 79.7008 3.79418 80.1428 4.22398C80.5701 4.64035 80.7764 5.27163 80.7764 6.13123V8.68321H80.7469ZM79.0229 8.65634C79.3471 8.36085 79.5092 7.98477 79.5092 7.50124V6.96399C79.4208 6.96399 79.2882 6.96398 79.1114 6.95055C78.9345 6.93712 78.8019 6.93713 78.7135 6.93713C77.1516 6.93713 76.3559 7.32664 76.3559 8.11909C76.3559 8.42801 76.4886 8.66976 76.7685 8.8578C77.019 9.03241 77.299 9.113 77.6231 9.113C78.2125 9.12643 78.6841 8.96526 79.0229 8.65634ZM88.8364 9.89202H87.5986V6.69537C87.5986 5.94321 87.4955 5.40595 87.2892 5.07017C87.0682 4.70752 86.6998 4.51948 86.1694 4.50605C85.4916 4.49262 84.9611 4.72094 84.6075 5.19104C84.2686 5.63428 84.1064 6.25213 84.1064 7.04458V9.89202H82.8687V3.72703H84.077V4.70751H84.1064C84.298 4.37173 84.5927 4.08967 84.9905 3.8882C85.4031 3.68673 85.8452 3.57928 86.3167 3.57928C88.0112 3.57928 88.8511 4.46575 88.8511 6.22526V9.89202H88.8364ZM95.4081 9.79801C95.0103 9.97262 94.4798 10.0532 93.8462 10.0532C92.8442 10.0532 92.0191 9.73085 91.356 9.09958C90.7224 8.48173 90.3983 7.72957 90.3983 6.82967C90.3983 5.88948 90.7224 5.11046 91.356 4.50605C91.9896 3.90164 92.8295 3.60615 93.8462 3.60615C94.4209 3.60615 94.9218 3.68673 95.3639 3.84791L95.2607 4.7881C94.7892 4.61349 94.3472 4.51947 93.9052 4.51947C93.2421 4.51947 92.7116 4.76124 92.2991 5.23134C91.9307 5.67457 91.7391 6.1984 91.7391 6.82967C91.7391 7.44752 91.9159 7.97134 92.2696 8.38772C92.6821 8.88468 93.2568 9.12645 93.9936 9.12645C94.4945 9.12645 94.9366 9.00555 95.3344 8.77722L95.4081 9.79801ZM99.5633 3.59271C101.553 3.59271 102.54 4.74782 102.54 7.07145H97.7215C97.7215 7.66243 97.9425 8.15938 98.3993 8.54889C98.8266 8.92496 99.3423 9.12645 99.9464 9.12645C100.315 9.12645 100.727 9.04586 101.184 8.89811C101.567 8.77723 101.847 8.64291 102.039 8.50859V9.65027C101.228 9.9189 100.521 10.0532 99.9022 10.0532C98.7382 10.0532 97.8541 9.74429 97.25 9.12645C96.6753 8.5489 96.3953 7.74301 96.3953 6.70879C96.3953 5.79546 96.69 5.04331 97.2647 4.46576C97.8541 3.87478 98.6203 3.59271 99.5633 3.59271ZM101.228 6.22526C101.228 5.74173 101.081 5.3388 100.786 5.01645C100.477 4.68066 100.064 4.51947 99.5486 4.51947C98.9887 4.51947 98.5466 4.70752 98.2077 5.07017C97.9425 5.37909 97.7804 5.7686 97.7215 6.22526H101.228ZM110.202 9.89202H109.008V9.01899H108.979C108.493 9.69056 107.726 10.0398 106.68 10.0398C105.722 10.0398 104.986 9.69055 104.455 9.00555C103.999 8.40114 103.763 7.63556 103.763 6.70879C103.763 5.82232 103.999 5.09704 104.485 4.53292C105.015 3.90164 105.737 3.59271 106.68 3.59271C107.726 3.59271 108.478 3.9285 108.92 4.58663H108.949V0.839291H110.187V9.89202H110.202ZM108.493 8.36085C108.802 7.93104 108.964 7.42065 108.964 6.82967C108.964 6.1984 108.802 5.67457 108.478 5.23134C108.11 4.74781 107.609 4.50605 106.975 4.50605C106.341 4.50605 105.87 4.74781 105.531 5.23134C105.251 5.63428 105.104 6.1581 105.104 6.78938C105.104 7.36693 105.251 7.87732 105.531 8.32055C105.87 8.85781 106.356 9.12645 106.975 9.12645C107.609 9.12645 108.124 8.87124 108.493 8.36085ZM113.841 8.54889L112.722 11.5038H111.528L112.368 8.54889H113.841ZM122.417 3.59271C124.406 3.59271 125.394 4.74782 125.394 7.07145H120.575C120.575 7.66243 120.796 8.15938 121.253 8.54889C121.68 8.92496 122.196 9.12645 122.8 9.12645C123.169 9.12645 123.581 9.04586 124.038 8.89811C124.421 8.77723 124.701 8.64291 124.893 8.50859V9.65027C124.082 9.9189 123.375 10.0532 122.756 10.0532C121.592 10.0532 120.708 9.74429 120.104 9.12645C119.529 8.5489 119.249 7.74301 119.249 6.70879C119.249 5.79546 119.544 5.04331 120.118 4.46576C120.708 3.87478 121.474 3.59271 122.417 3.59271ZM124.082 6.22526C124.082 5.74173 123.935 5.3388 123.64 5.01645C123.331 4.68066 122.918 4.51947 122.402 4.51947C121.842 4.51947 121.4 4.70752 121.061 5.07017C120.796 5.37909 120.634 5.7686 120.575 6.22526H124.082ZM132.334 8.68321C132.334 9.24732 132.348 9.65026 132.393 9.89202H131.229V9.09958H131.199C130.713 9.73085 130.006 10.0398 129.107 10.0398C128.34 10.0398 127.751 9.89203 127.324 9.58311C126.867 9.24732 126.631 8.7638 126.631 8.11909C126.631 7.42066 127 6.8834 127.722 6.52076C128.296 6.22527 128.989 6.07752 129.784 6.07752C130.344 6.07752 130.786 6.09096 131.111 6.10439C131.111 5.5537 130.993 5.15075 130.742 4.89555C130.477 4.62692 130.05 4.49261 129.431 4.49261C128.665 4.49261 128.016 4.70751 127.471 5.12388L127.412 4.15682C128.119 3.76731 128.871 3.57928 129.637 3.57928C130.58 3.57928 131.287 3.79418 131.729 4.22398C132.157 4.64035 132.363 5.27163 132.363 6.13123V8.68321H132.334ZM130.61 8.65634C130.934 8.36085 131.096 7.98477 131.096 7.50124V6.96399C131.007 6.96399 130.875 6.96398 130.698 6.95055C130.521 6.93712 130.389 6.93713 130.3 6.93713C128.738 6.93713 127.943 7.32664 127.943 8.11909C127.943 8.42801 128.075 8.66976 128.355 8.8578C128.606 9.03241 128.886 9.113 129.21 9.113C129.799 9.12643 130.271 8.96526 130.61 8.65634ZM137.329 6.77596C137.83 7.11174 138.08 7.55498 138.08 8.11909C138.08 8.73694 137.844 9.22047 137.358 9.56968C136.916 9.8786 136.371 10.0398 135.723 10.0398C134.956 10.0398 134.338 9.91889 133.866 9.70398L133.925 8.68321C134.411 8.9787 134.942 9.12645 135.472 9.12645C135.811 9.12645 136.091 9.05928 136.327 8.92496C136.607 8.77722 136.754 8.53546 136.754 8.23997C136.754 7.94448 136.504 7.66243 136.003 7.40723C135.531 7.1789 135.06 6.93713 134.588 6.70879C134.087 6.37301 133.837 5.97007 133.837 5.47311C133.837 4.85527 134.072 4.38517 134.529 4.04939C134.956 3.74047 135.516 3.57928 136.224 3.57928C136.666 3.57928 137.181 3.65986 137.771 3.82104L137.668 4.81497C137.535 4.73438 137.314 4.66722 137.019 4.60006C136.739 4.5329 136.518 4.50605 136.356 4.50605C136.017 4.50605 135.737 4.57321 135.516 4.69409C135.281 4.8284 135.148 5.01644 135.148 5.2582C135.148 5.59399 135.398 5.87605 135.914 6.11781C136.386 6.34614 136.857 6.56105 137.329 6.77596ZM144.961 3.74045L142.471 10.0398C142.132 10.8859 141.852 11.4501 141.617 11.759C141.175 12.3097 140.6 12.5917 139.878 12.5917C139.657 12.5917 139.377 12.5649 139.023 12.4977L139.097 11.5709C139.303 11.6381 139.509 11.665 139.686 11.665C140.158 11.665 140.541 11.4232 140.85 10.9531C141.071 10.6173 141.175 10.3353 141.175 10.1472C141.175 10.1069 141.101 9.89202 140.939 9.48908L138.64 3.74045H140.01L141.823 8.84438H141.852L143.709 3.74045H144.961ZM152.992 0.678101C153.213 0.678101 153.493 0.70496 153.832 0.758686L153.773 1.67203C153.625 1.6183 153.434 1.60487 153.183 1.60487C152.682 1.60487 152.344 1.75262 152.167 2.04811C152.034 2.24958 151.975 2.59879 151.975 3.06888V3.74045H153.773V4.6538H151.975V9.90547H150.737V4.6538H149.146V3.74045H150.737V3.16291C150.737 2.3436 150.885 1.73919 151.18 1.36311C151.518 0.906447 152.137 0.678101 152.992 0.678101ZM156.558 2.35702H155.158V1.08105H156.558V2.35702ZM156.484 9.89202H155.232V3.72703H156.484V9.89202ZM164.736 9.89202H163.498V6.69537C163.498 5.94321 163.395 5.40595 163.188 5.07017C162.967 4.70752 162.599 4.51948 162.069 4.50605C161.391 4.49262 160.86 4.72094 160.507 5.19104C160.168 5.63428 160.006 6.25213 160.006 7.04458V9.89202H158.768V3.72703H159.976V4.70751H160.006C160.197 4.37173 160.492 4.08967 160.89 3.8882C161.302 3.68673 161.744 3.57928 162.216 3.57928C163.91 3.57928 164.75 4.46575 164.75 6.22526V9.89202H164.736ZM168.346 2.35702H166.946V1.08105H168.346V2.35702ZM168.272 9.89202H167.019V3.72703H168.272V9.89202ZM173.444 6.77596C173.945 7.11174 174.195 7.55498 174.195 8.11909C174.195 8.73694 173.96 9.22047 173.473 9.56968C173.031 9.8786 172.486 10.0398 171.838 10.0398C171.072 10.0398 170.453 9.91889 169.981 9.70398L170.04 8.68321C170.526 8.9787 171.057 9.12645 171.587 9.12645C171.926 9.12645 172.206 9.05928 172.442 8.92496C172.722 8.77722 172.869 8.53546 172.869 8.23997C172.869 7.94448 172.619 7.66243 172.118 7.40723C171.646 7.1789 171.175 6.93713 170.703 6.70879C170.202 6.37301 169.952 5.97007 169.952 5.47311C169.952 4.85527 170.187 4.38517 170.644 4.04939C171.072 3.74047 171.631 3.57928 172.339 3.57928C172.781 3.57928 173.297 3.65986 173.886 3.82104L173.783 4.81497C173.65 4.73438 173.429 4.66722 173.134 4.60006C172.854 4.5329 172.633 4.50605 172.471 4.50605C172.132 4.50605 171.852 4.57321 171.631 4.69409C171.396 4.8284 171.263 5.01644 171.263 5.2582C171.263 5.59399 171.514 5.87605 172.029 6.11781C172.501 6.34614 172.972 6.56105 173.444 6.77596ZM181.695 9.89202H180.458V6.69537C180.458 5.94321 180.355 5.40595 180.148 5.07017C179.927 4.70752 179.559 4.51948 179.028 4.50605C178.351 4.49262 177.82 4.72094 177.466 5.19104C177.128 5.63428 176.965 6.25213 176.965 7.04458V9.89202H175.728V0.825847H176.965V4.6135H176.995C177.466 3.9285 178.188 3.59271 179.176 3.59271C180.87 3.59271 181.71 4.47918 181.71 6.23869V9.89202H181.695Z" fill="black"></path>
</svg>
