<svg width="227" height="13" viewBox="0 0 227 13" fill="none" xmlns="http://www.w3.org/2000/svg">
<path d="M7.38421 6.24105C7.38421 7.42301 7.07478 8.32291 6.44118 8.94076C5.82232 9.57203 4.93823 9.88095 3.78891 9.88095C2.63959 9.88095 1.7555 9.57202 1.13664 8.95418C0.503037 8.32291 0.193604 7.42301 0.193604 6.24105V1.2983H1.51974V6.0933C1.51974 7.90654 2.27122 8.81987 3.78891 8.81987C5.3066 8.81987 6.05808 7.90654 6.05808 6.0933V1.2983H7.38421V6.24105ZM15.6063 9.74664H14.3685V6.54997C14.3685 5.79781 14.2654 5.26056 14.0591 4.92477C13.8381 4.56213 13.4697 4.37409 12.9392 4.36065C12.2614 4.34722 11.731 4.57556 11.3774 5.04566C11.0385 5.48889 10.8764 6.10674 10.8764 6.89919V9.74664H9.63864V3.58164H10.8469V4.56213H10.8764C11.0679 4.22634 11.3626 3.94428 11.7605 3.74281C12.173 3.54134 12.6151 3.43389 13.0866 3.43389C14.7811 3.43389 15.621 4.32036 15.621 6.07987V9.74664H15.6063ZM24.1672 6.65742C24.1672 7.55732 23.843 8.30948 23.2094 8.92732C22.5611 9.5586 21.736 9.88095 20.734 9.88095C19.732 9.88095 18.8921 9.5586 18.2438 8.92732C17.6102 8.30948 17.286 7.55732 17.286 6.65742C17.286 5.71723 17.6102 4.93821 18.2438 4.3338C18.8774 3.72938 19.7173 3.43389 20.734 3.43389C21.7507 3.43389 22.5758 3.72938 23.2094 4.3338C23.8578 4.93821 24.1672 5.71723 24.1672 6.65742ZM22.3401 8.22889C22.679 7.79909 22.8411 7.27526 22.8411 6.67085C22.8411 6.05301 22.6495 5.51576 22.2811 5.07252C21.8833 4.60242 21.3676 4.36065 20.734 4.36065C20.0856 4.36065 19.5699 4.60242 19.1721 5.07252C18.8037 5.51576 18.6122 6.03958 18.6122 6.67085C18.6122 7.28869 18.789 7.81252 19.1279 8.22889C19.511 8.72585 20.0562 8.96762 20.734 8.96762C21.4118 8.96762 21.9422 8.72585 22.3401 8.22889ZM31.1073 8.53781C31.1073 9.10193 31.1221 9.50487 31.1663 9.74664H30.0022V8.95418H29.9727C29.4865 9.58546 28.7792 9.89438 27.8804 9.89438C27.1142 9.89438 26.5248 9.74663 26.0975 9.43771C25.6407 9.10193 25.4049 8.6184 25.4049 7.9737C25.4049 7.27527 25.7733 6.73801 26.4953 6.37536C27.07 6.07987 27.7625 5.93213 28.5582 5.93213C29.1181 5.93213 29.5602 5.94556 29.8843 5.95899C29.8843 5.4083 29.7664 5.00536 29.516 4.75016C29.2507 4.48154 28.8234 4.34722 28.2046 4.34722C27.4383 4.34722 26.79 4.56213 26.2448 4.9785L26.1859 4.01144C26.8932 3.62193 27.6446 3.43389 28.4108 3.43389C29.3539 3.43389 30.0611 3.64879 30.5032 4.0786C30.9305 4.49497 31.1368 5.12625 31.1368 5.98585V8.53781H31.1073ZM29.3833 8.49752C29.7075 8.20203 29.8696 7.82595 29.8696 7.34242V6.80516C29.7812 6.80516 29.6486 6.80517 29.4717 6.79173C29.2949 6.7783 29.1623 6.77831 29.0739 6.77831C27.512 6.77831 26.7163 7.16781 26.7163 7.96026C26.7163 8.26918 26.8489 8.51095 27.1289 8.69899C27.3794 8.8736 27.6594 8.95418 27.9835 8.95418C28.5729 8.96761 29.0444 8.81987 29.3833 8.49752ZM39.2704 9.74664H37.4728L34.4521 6.57683V9.74664H33.2144V0.680461H34.4521V6.07987L37.1781 3.58164H38.8726L35.7341 6.3082L39.2704 9.74664ZM43.3078 3.43389C45.297 3.43389 46.2842 4.58899 46.2842 6.91262H41.4659C41.4659 7.5036 41.6869 8.00056 42.1437 8.39007C42.571 8.76614 43.0868 8.96762 43.6909 8.96762C44.0592 8.96762 44.4718 8.88703 44.9286 8.73928C45.3117 8.6184 45.5917 8.48409 45.7832 8.34977V9.49144C44.9728 9.76007 44.2655 9.89438 43.6467 9.89438C42.4826 9.89438 41.5985 9.58546 40.9944 8.96762C40.4197 8.39007 40.1398 7.58418 40.1398 6.54997C40.1398 5.63664 40.4345 4.88448 41.0091 4.30693C41.5985 3.71595 42.3647 3.43389 43.3078 3.43389ZM44.9728 6.06644C44.9728 5.58291 44.8255 5.17997 44.5308 4.85762C44.2213 4.52183 43.8088 4.36065 43.293 4.36065C42.7331 4.36065 42.2911 4.54869 41.9522 4.91134C41.6869 5.22026 41.5249 5.60977 41.4659 6.06644H44.9728ZM53.9316 9.74664H52.7381V8.8736H52.7086C52.2224 9.54517 51.4561 9.89438 50.41 9.89438C49.4522 9.89438 48.7155 9.54516 48.185 8.86016C47.7282 8.25575 47.4925 7.49017 47.4925 6.5634C47.4925 5.67693 47.7282 4.95163 48.2145 4.38752C48.7449 3.75624 49.4669 3.44732 50.41 3.44732C51.4561 3.44732 52.2076 3.78311 52.6497 4.44124H52.6791V0.69389H53.9169V9.74664H53.9316ZM52.2224 8.20203C52.5318 7.77222 52.6939 7.26183 52.6939 6.67085C52.6939 6.03958 52.5318 5.51576 52.2076 5.07252C51.8393 4.58899 51.3383 4.34722 50.7047 4.34722C50.0711 4.34722 49.5996 4.58899 49.2607 5.07252C48.9807 5.47546 48.8333 5.99928 48.8333 6.63056C48.8333 7.20811 48.9807 7.7185 49.2607 8.16174C49.5996 8.69899 50.0858 8.96762 50.7047 8.96762C51.353 8.96762 51.8687 8.71242 52.2224 8.20203ZM69.58 3.58164L67.414 9.74664H65.97L64.2165 4.57556H64.1871L62.4778 9.74664H61.0338L58.8678 3.58164H60.2381L61.7853 8.68556H61.8147L63.5387 3.58164H65.0122L66.7067 8.68556H66.7362L68.3865 3.58164H69.58ZM72.2765 2.19821H70.8767V0.922226H72.2765V2.19821ZM72.2028 9.74664H70.9504V3.58164H72.2028V9.74664ZM78.1852 9.71977C77.7579 9.82722 77.4042 9.89438 77.1242 9.89438C75.7392 9.89438 75.0466 9.28997 75.0466 8.09458V4.49497H73.5142V3.58164H75.0466V2.15791L76.2844 1.79526V3.59507H78.082V4.5084H76.2844V7.87968C76.2844 8.21546 76.3875 8.49752 76.5938 8.69899C76.7854 8.88703 77.0359 8.98105 77.3305 8.98105C77.6547 8.98105 77.9347 8.91389 78.1852 8.76614V9.71977ZM85.6263 9.74664H84.3885V6.54997C84.3885 5.79781 84.2854 5.26056 84.0791 4.92477C83.8581 4.56213 83.4897 4.37409 82.9593 4.36065C82.2815 4.34722 81.751 4.57556 81.3974 5.04566C81.0585 5.48889 80.8964 6.10674 80.8964 6.89919V9.74664H79.6586V0.680461H80.8964V4.46811H80.9258C81.3974 3.78311 82.1194 3.44732 83.1066 3.44732C84.8011 3.44732 85.641 4.33379 85.641 6.0933V9.74664H85.6263ZM96.6921 8.53781C96.6921 9.10193 96.7069 9.50487 96.7511 9.74664H95.587V8.95418H95.5575C95.0713 9.58546 94.364 9.89438 93.4652 9.89438C92.699 9.89438 92.1096 9.74663 91.6823 9.43771C91.2255 9.10193 90.9897 8.6184 90.9897 7.9737C90.9897 7.27527 91.3581 6.73801 92.0801 6.37536C92.6548 6.07987 93.3473 5.93213 94.143 5.93213C94.7029 5.93213 95.145 5.94556 95.4691 5.95899C95.4691 5.4083 95.3513 5.00536 95.1008 4.75016C94.8355 4.48154 94.4082 4.34722 93.7894 4.34722C93.0232 4.34722 92.3748 4.56213 91.8296 4.9785L91.7707 4.01144C92.478 3.62193 93.2294 3.43389 93.9957 3.43389C94.9387 3.43389 95.646 3.64879 96.088 4.0786C96.5153 4.49497 96.7216 5.12625 96.7216 5.98585V8.53781H96.6921ZM94.9681 8.49752C95.2923 8.20203 95.4544 7.82595 95.4544 7.34242V6.80516C95.366 6.80516 95.2334 6.80517 95.0566 6.79173C94.8797 6.7783 94.7471 6.77831 94.6587 6.77831C93.0968 6.77831 92.3011 7.16781 92.3011 7.96026C92.3011 8.26918 92.4338 8.51095 92.7137 8.69899C92.9642 8.8736 93.2442 8.95418 93.5683 8.95418C94.1577 8.96761 94.6292 8.81987 94.9681 8.49752ZM105.386 6.63056C105.887 6.96634 106.137 7.40958 106.137 7.9737C106.137 8.59154 105.901 9.07507 105.415 9.42429C104.973 9.73321 104.428 9.89438 103.78 9.89438C103.013 9.89438 102.395 9.7735 101.923 9.5586L101.982 8.53781C102.468 8.8333 102.999 8.98105 103.529 8.98105C103.868 8.98105 104.148 8.91389 104.384 8.77958C104.664 8.63183 104.811 8.39007 104.811 8.09458C104.811 7.79909 104.561 7.51703 104.06 7.26183C103.588 7.0335 103.117 6.79174 102.645 6.5634C102.144 6.22762 101.894 5.82468 101.894 5.32771C101.894 4.70987 102.129 4.23977 102.586 3.90399C103.013 3.59507 103.573 3.43389 104.281 3.43389C104.723 3.43389 105.238 3.51448 105.828 3.67566L105.725 4.66958C105.592 4.58899 105.371 4.52183 105.076 4.45467C104.796 4.38752 104.575 4.36065 104.413 4.36065C104.074 4.36065 103.794 4.42782 103.573 4.5487C103.338 4.68301 103.205 4.87105 103.205 5.11281C103.205 5.4486 103.455 5.73066 103.971 5.97242C104.443 6.18732 104.914 6.40223 105.386 6.63056ZM117.35 9.74664H116.098V6.06644C116.098 4.92477 115.7 4.36065 114.89 4.36065C114.3 4.36065 113.843 4.60242 113.519 5.07252C113.254 5.48889 113.107 6.01271 113.107 6.64399V9.74664H111.869V6.06644C111.869 4.92477 111.471 4.36065 110.661 4.36065C110.071 4.36065 109.615 4.60242 109.29 5.07252C109.01 5.48889 108.878 6.01271 108.878 6.64399V9.74664H107.64V3.58164H108.804V4.46811H108.834C109.305 3.76968 110.012 3.43389 110.985 3.43389C111.928 3.43389 112.562 3.83683 112.915 4.62928C113.121 4.22634 113.46 3.91742 113.902 3.70252C114.271 3.52791 114.639 3.43389 115.008 3.43389C116.569 3.43389 117.365 4.21291 117.365 5.78438V9.74664H117.35ZM125.867 6.65742C125.867 7.55732 125.543 8.30948 124.909 8.92732C124.261 9.5586 123.436 9.88095 122.434 9.88095C121.432 9.88095 120.592 9.5586 119.944 8.92732C119.31 8.30948 118.986 7.55732 118.986 6.65742C118.986 5.71723 119.31 4.93821 119.944 4.3338C120.577 3.72938 121.417 3.43389 122.434 3.43389C123.451 3.43389 124.276 3.72938 124.909 4.3338C125.558 4.93821 125.867 5.71723 125.867 6.65742ZM124.04 8.22889C124.379 7.79909 124.541 7.27526 124.541 6.67085C124.541 6.05301 124.349 5.51576 123.981 5.07252C123.583 4.60242 123.068 4.36065 122.434 4.36065C121.786 4.36065 121.27 4.60242 120.872 5.07252C120.504 5.51576 120.312 6.03958 120.312 6.67085C120.312 7.28869 120.489 7.81252 120.828 8.22889C121.211 8.72585 121.756 8.96762 122.434 8.96762C123.112 8.96762 123.657 8.72585 124.04 8.22889ZM133.971 6.65742C133.971 7.55732 133.647 8.30948 133.014 8.92732C132.365 9.5586 131.54 9.88095 130.538 9.88095C129.536 9.88095 128.696 9.5586 128.048 8.92732C127.414 8.30948 127.09 7.55732 127.09 6.65742C127.09 5.71723 127.414 4.93821 128.048 4.3338C128.681 3.72938 129.521 3.43389 130.538 3.43389C131.555 3.43389 132.38 3.72938 133.014 4.3338C133.662 4.93821 133.971 5.71723 133.971 6.65742ZM132.144 8.22889C132.483 7.79909 132.645 7.27526 132.645 6.67085C132.645 6.05301 132.454 5.51576 132.085 5.07252C131.687 4.60242 131.172 4.36065 130.538 4.36065C129.89 4.36065 129.374 4.60242 128.976 5.07252C128.608 5.51576 128.416 6.03958 128.416 6.67085C128.416 7.28869 128.593 7.81252 128.932 8.22889C129.315 8.72585 129.86 8.96762 130.538 8.96762C131.216 8.96762 131.746 8.72585 132.144 8.22889ZM139.35 9.71977C138.922 9.82722 138.569 9.89438 138.289 9.89438C136.904 9.89438 136.211 9.28997 136.211 8.09458V4.49497H134.679V3.58164H136.211V2.15791L137.449 1.79526V3.59507H139.246V4.5084H137.449V7.87968C137.449 8.21546 137.552 8.49752 137.758 8.69899C137.95 8.88703 138.2 8.98105 138.495 8.98105C138.819 8.98105 139.099 8.91389 139.35 8.76614V9.71977ZM146.776 9.74664H145.538V6.54997C145.538 5.79781 145.435 5.26056 145.229 4.92477C145.008 4.56213 144.639 4.37409 144.109 4.36065C143.431 4.34722 142.901 4.57556 142.547 5.04566C142.208 5.48889 142.046 6.10674 142.046 6.89919V9.74664H140.808V0.680461H142.046V4.46811H142.075C142.547 3.78311 143.269 3.44732 144.256 3.44732C145.951 3.44732 146.791 4.33379 146.791 6.0933V9.74664H146.776ZM158.299 4.37409C158.785 4.93821 159.021 5.67693 159.021 6.54997C159.021 7.47673 158.785 8.25576 158.328 8.84674C157.812 9.54517 157.061 9.88095 156.118 9.88095C155.072 9.88095 154.291 9.54516 153.804 8.86016H153.775V9.7332H152.581V0.667027H153.819V4.41438H153.849C154.291 3.75624 155.042 3.42046 156.088 3.42046C157.046 3.43389 157.768 3.74281 158.299 4.37409ZM157.267 8.16174C157.547 7.7185 157.694 7.20811 157.694 6.63056C157.694 5.99928 157.547 5.47546 157.267 5.07252C156.943 4.58899 156.457 4.34722 155.838 4.34722C155.204 4.34722 154.703 4.58899 154.335 5.07252C153.996 5.50232 153.834 6.03958 153.834 6.67085C153.834 7.26183 153.996 7.77222 154.305 8.20203C154.674 8.71242 155.175 8.96762 155.823 8.96762C156.442 8.96762 156.913 8.69899 157.267 8.16174ZM164.472 4.53526C164.281 4.46811 164.045 4.42781 163.78 4.42781C163.22 4.42781 162.778 4.65615 162.439 5.11281C162.1 5.56948 161.938 6.17389 161.938 6.95291V9.76007H160.7V3.59507H161.864V4.5487H161.894C162.056 4.22634 162.306 3.95772 162.631 3.75625C162.955 3.55478 163.294 3.44732 163.662 3.44732C163.898 3.44732 164.178 3.47418 164.487 3.52791V4.53526H164.472ZM167.331 2.19821H165.931V0.922226H167.331V2.19821ZM167.257 9.74664H166.005V3.58164H167.257V9.74664ZM175.524 9.47801C175.524 11.439 174.36 12.4329 172.046 12.4329C171.339 12.4329 170.528 12.2852 169.615 12.0031L169.748 10.9555C170.632 11.3315 171.442 11.5061 172.179 11.5061C172.842 11.5061 173.343 11.3181 173.726 10.942C174.094 10.566 174.286 10.0421 174.286 9.39742V8.79301H174.256C173.726 9.42429 172.974 9.74664 171.987 9.74664C171.059 9.74664 170.337 9.43771 169.806 8.81987C169.32 8.26918 169.084 7.55732 169.084 6.71114C169.084 5.83811 169.335 5.09938 169.836 4.48154C170.396 3.78311 171.162 3.43389 172.12 3.43389C173.21 3.43389 173.947 3.78311 174.345 4.49497H174.374V3.58164H175.524V9.47801ZM173.726 8.20203C174.094 7.79909 174.271 7.31556 174.271 6.72458C174.271 6.03958 174.109 5.48889 173.785 5.05909C173.431 4.58899 172.93 4.34722 172.297 4.34722C171.707 4.34722 171.236 4.60242 170.882 5.09938C170.573 5.54262 170.411 6.05301 170.411 6.64399C170.411 7.2484 170.573 7.75879 170.912 8.16174C171.265 8.59154 171.722 8.80645 172.297 8.80645C172.871 8.81988 173.343 8.6184 173.726 8.20203ZM183.628 9.74664H182.39V6.54997C182.39 5.79781 182.287 5.26056 182.081 4.92477C181.86 4.56213 181.491 4.37409 180.961 4.36065C180.283 4.34722 179.752 4.57556 179.399 5.04566C179.06 5.48889 178.898 6.10674 178.898 6.89919V9.74664H177.66V0.680461H178.898V4.46811H178.927C179.399 3.78311 180.121 3.44732 181.108 3.44732C182.803 3.44732 183.642 4.33379 183.642 6.0933V9.74664H183.628ZM189.448 9.71977C189.021 9.82722 188.667 9.89438 188.387 9.89438C187.002 9.89438 186.309 9.28997 186.309 8.09458V4.49497H184.777V3.58164H186.309V2.15791L187.547 1.79526V3.59507H189.345V4.5084H187.547V7.87968C187.547 8.21546 187.65 8.49752 187.857 8.69899C188.048 8.88703 188.299 8.98105 188.593 8.98105C188.918 8.98105 189.198 8.91389 189.448 8.76614V9.71977ZM197.67 0.532715C197.891 0.532715 198.171 0.559579 198.51 0.613305L198.451 1.52664C198.304 1.47291 198.112 1.45948 197.862 1.45948C197.361 1.45948 197.022 1.60723 196.845 1.90272C196.712 2.10419 196.653 2.4534 196.653 2.9235V3.59507H198.451V4.5084H196.653V9.76007H195.416V4.49497H193.824V3.58164H195.416V3.00409C195.416 2.18477 195.563 1.58036 195.858 1.20428C196.197 0.761048 196.801 0.532715 197.67 0.532715ZM201.236 2.19821H199.836V0.922226H201.236V2.19821ZM201.162 9.74664H199.91V3.58164H201.162V9.74664ZM209.414 9.74664H208.176V6.54997C208.176 5.79781 208.073 5.26056 207.867 4.92477C207.646 4.56213 207.277 4.37409 206.747 4.36065C206.069 4.34722 205.538 4.57556 205.185 5.04566C204.846 5.48889 204.684 6.10674 204.684 6.89919V9.74664H203.446V3.58164H204.654V4.56213H204.684C204.875 4.22634 205.17 3.94428 205.568 3.74281C205.981 3.54134 206.423 3.43389 206.894 3.43389C208.589 3.43389 209.428 4.32036 209.428 6.07987V9.74664H209.414ZM213.024 2.19821H211.624V0.922226H213.024V2.19821ZM212.95 9.74664H211.698V3.58164H212.95V9.74664ZM218.122 6.63056C218.623 6.96634 218.874 7.40958 218.874 7.9737C218.874 8.59154 218.638 9.07507 218.151 9.42429C217.709 9.73321 217.164 9.89438 216.516 9.89438C215.75 9.89438 215.131 9.7735 214.659 9.5586L214.718 8.53781C215.205 8.8333 215.735 8.98105 216.265 8.98105C216.604 8.98105 216.884 8.91389 217.12 8.77958C217.4 8.63183 217.547 8.39007 217.547 8.09458C217.547 7.79909 217.297 7.51703 216.796 7.26183C216.324 7.0335 215.853 6.79174 215.381 6.5634C214.88 6.22762 214.63 5.82468 214.63 5.32771C214.63 4.70987 214.866 4.23977 215.322 3.90399C215.75 3.59507 216.31 3.43389 217.017 3.43389C217.459 3.43389 217.975 3.51448 218.564 3.67566L218.461 4.66958C218.328 4.58899 218.107 4.52183 217.813 4.45467C217.533 4.38752 217.312 4.36065 217.15 4.36065C216.811 4.36065 216.531 4.42782 216.31 4.5487C216.074 4.68301 215.941 4.87105 215.941 5.11281C215.941 5.4486 216.192 5.73066 216.707 5.97242C217.179 6.18732 217.651 6.40223 218.122 6.63056ZM226.359 9.74664H225.121V6.54997C225.121 5.79781 225.018 5.26056 224.812 4.92477C224.591 4.56213 224.222 4.37409 223.692 4.36065C223.014 4.34722 222.484 4.57556 222.13 5.04566C221.791 5.48889 221.629 6.10674 221.629 6.89919V9.74664H220.391V0.680461H221.629V4.46811H221.658C222.13 3.78311 222.852 3.44732 223.839 3.44732C225.534 3.44732 226.374 4.33379 226.374 6.0933V9.74664H226.359Z" fill="black"></path>
</svg>
