<svg width="240" height="13" fill="none" xmlns="http://www.w3.org/2000/svg"><path d="M4.98 5.237c.693.484 1.032 1.128 1.032 1.92 0 .847-.34 1.492-1.002 1.935-.59.39-1.385.591-2.387.591-.487 0-1.105-.12-1.901-.35L.855 8.22c.736.269 1.37.403 1.93.403.442 0 .84-.108 1.193-.309.413-.255.634-.604.634-1.061 0-.51-.339-.94-1.031-1.29-.634-.308-1.282-.604-1.916-.913C.972 4.606.634 4.015.634 3.263c0-.726.28-1.29.854-1.706.545-.39 1.238-.591 2.107-.591a6.36 6.36 0 0 1 1.975.296l-.192 1.114c-.648-.241-1.223-.349-1.739-.349-1.075 0-1.62.376-1.62 1.128 0 .43.339.806 1.031 1.142 1.208.564 1.842.886 1.93.94ZM17.52 3.37l-2.166 6.165H13.91l-1.754-5.17h-.03l-1.708 5.17H8.973L6.807 3.37h1.37l1.548 5.104h.03l1.723-5.104h1.474l1.694 5.104h.03l1.65-5.104h1.194Zm2.696-1.383h-1.4V.71h1.4v1.276Zm-.074 7.535H18.89V3.357h1.252v6.165Zm6.071-5.212a2.113 2.113 0 0 0-.692-.107c-.56 0-1.002.228-1.341.685-.34.457-.501 1.061-.501 1.84v2.807H22.44V3.37h1.164v.954h.03c.162-.322.412-.591.736-.793a1.917 1.917 0 0 1 1.032-.309c.236 0 .516.027.825.081V4.31h-.015Zm2.77 5.212h-1.252V.456h1.252v9.066Zm3.772-7.535h-1.4V.71h1.4v1.276Zm-.073 7.535h-1.253V3.357h1.253v6.165Zm8.251 0h-1.237V6.325c0-.752-.103-1.29-.31-1.625-.22-.363-.59-.55-1.12-.564-.677-.014-1.208.215-1.561.685-.34.443-.502 1.06-.502 1.853v2.848h-1.237V3.357h1.208v.98h.03a2.07 2.07 0 0 1 .884-.819 2.988 2.988 0 0 1 1.326-.309c1.694 0 2.534.887 2.534 2.646v3.667h-.015Zm8.105-.255c0 1.96-1.164 2.955-3.478 2.955-.707 0-1.518-.148-2.431-.43l.133-1.048c.884.376 1.694.55 2.43.55.664 0 1.165-.187 1.548-.563.368-.377.56-.9.56-1.545v-.604h-.03c-.53.63-1.282.953-2.269.953-.928 0-1.65-.309-2.18-.927-.487-.55-.723-1.262-.723-2.108 0-.873.25-1.612.752-2.23.56-.698 1.326-1.048 2.284-1.048 1.09 0 1.827.35 2.225 1.062h.03V3.37h1.148v5.897ZM47.24 7.99c.368-.403.545-.887.545-1.478 0-.685-.162-1.236-.486-1.665-.354-.47-.855-.712-1.488-.712-.59 0-1.061.255-1.415.752-.31.443-.471.954-.471 1.545 0 .604.162 1.114.5 1.517.354.43.81.645 1.386.645.589.013 1.06-.188 1.429-.604ZM57.73 6.406c.501.336.752.779.752 1.343 0 .618-.236 1.101-.722 1.45-.443.31-.988.47-1.636.47-.766 0-1.385-.12-1.857-.335l.06-1.021a2.97 2.97 0 0 0 1.546.443c.34 0 .62-.067.855-.201.28-.148.427-.39.427-.685 0-.296-.25-.578-.751-.833-.472-.228-.943-.47-1.415-.698-.5-.336-.751-.74-.751-1.236 0-.618.236-1.088.693-1.424.427-.309.987-.47 1.694-.47.442 0 .958.08 1.547.242l-.103.994c-.133-.08-.354-.148-.648-.215a2.944 2.944 0 0 0-.663-.094c-.34 0-.62.067-.84.188-.236.134-.369.322-.369.564 0 .336.25.618.767.86.486.228.957.443 1.414.658ZM69.828 3.37l-2.166 6.165h-1.444l-1.753-5.17h-.03l-1.709 5.17h-1.444L59.116 3.37h1.37l1.548 5.104h.03l1.723-5.104h1.474l1.694 5.104h.03l1.65-5.104h1.193Zm3.95-.148c1.988 0 2.976 1.156 2.976 3.48h-4.819c0 .59.221 1.087.678 1.477.428.376.943.577 1.547.577.369 0 .781-.08 1.238-.228.383-.121.663-.255.855-.39V9.28c-.81.269-1.518.403-2.137.403-1.164 0-2.048-.309-2.652-.927-.575-.577-.855-1.383-.855-2.417 0-.914.295-1.666.87-2.243.574-.591 1.34-.874 2.298-.874Zm1.65 2.633c0-.484-.148-.886-.442-1.209-.31-.336-.722-.497-1.238-.497-.56 0-1.002.188-1.341.551-.265.309-.427.698-.486 1.155h3.507Zm5.717-2.633c1.989 0 2.976 1.156 2.976 3.48h-4.818c0 .59.22 1.087.678 1.477.427.376.943.577 1.547.577.368 0 .78-.08 1.238-.228.383-.121.663-.255.854-.39V9.28c-.81.269-1.517.403-2.136.403-1.164 0-2.048-.309-2.653-.927-.574-.577-.854-1.383-.854-2.417 0-.914.294-1.666.87-2.243.589-.591 1.355-.874 2.298-.874Zm1.665 2.633c0-.484-.148-.886-.442-1.209-.31-.336-.722-.497-1.238-.497-.56 0-1.002.188-1.34.551-.266.309-.428.698-.487 1.155h3.507Zm6.69 3.653c-.428.108-.781.175-1.061.175-1.386 0-2.078-.604-2.078-1.8v-3.6h-1.532V3.37h1.532V1.946l1.238-.362v1.8h1.797v.913H87.6v3.371c0 .336.103.618.31.82.19.188.441.282.736.282.324 0 .604-.068.854-.215v.953Zm7.44.014h-1.237V6.325c0-.752-.103-1.29-.31-1.625-.22-.363-.589-.55-1.12-.564-.677-.014-1.208.215-1.561.685-.34.443-.501 1.06-.501 1.853v2.848h-1.238V3.357h1.208v.98h.03c.191-.336.486-.618.884-.819a2.988 2.988 0 0 1 1.326-.309c1.694 0 2.534.887 2.534 2.646v3.667h-.014Zm4.848-6.3c1.989 0 2.977 1.156 2.977 3.48h-4.819c0 .59.221 1.087.678 1.477.428.376.943.577 1.547.577.369 0 .781-.08 1.238-.228.383-.121.663-.255.855-.39V9.28c-.811.269-1.518.403-2.137.403-1.164 0-2.048-.309-2.652-.927-.575-.577-.855-1.383-.855-2.417 0-.914.295-1.666.87-2.243.574-.591 1.341-.874 2.298-.874Zm1.651 2.633c0-.484-.148-.886-.442-1.209-.31-.336-.722-.497-1.238-.497-.56 0-1.002.188-1.341.551-.265.309-.427.698-.486 1.155h3.507Zm5.879.55c.501.337.751.78.751 1.344 0 .618-.235 1.101-.722 1.45-.442.31-.987.47-1.635.47-.767 0-1.385-.12-1.857-.335l.059-1.021a2.97 2.97 0 0 0 1.547.443c.339 0 .619-.067.855-.201.28-.148.427-.39.427-.685 0-.296-.25-.578-.751-.833-.472-.228-.943-.47-1.415-.698-.501-.336-.751-.74-.751-1.236 0-.618.235-1.088.692-1.424.427-.309.987-.47 1.695-.47.442 0 .957.08 1.547.242l-.103.994c-.133-.08-.354-.148-.649-.215a2.944 2.944 0 0 0-.663-.094c-.339 0-.619.067-.84.188-.235.134-.368.322-.368.564 0 .336.251.618.766.86.486.228.958.443 1.415.658Zm5.172 0c.501.337.751.78.751 1.344 0 .618-.236 1.101-.722 1.45-.442.31-.987.47-1.635.47-.767 0-1.385-.12-1.857-.335l.059-1.021a2.97 2.97 0 0 0 1.547.443c.339 0 .619-.067.855-.201.28-.148.427-.39.427-.685 0-.296-.25-.578-.751-.833-.472-.228-.943-.47-1.415-.698-.501-.336-.751-.74-.751-1.236 0-.618.235-1.088.692-1.424.427-.309.987-.47 1.695-.47.442 0 .957.08 1.547.242l-.103.994c-.133-.08-.354-.148-.649-.215a2.944 2.944 0 0 0-.663-.094c-.339 0-.619.067-.84.188-.235.134-.368.322-.368.564 0 .336.25.618.766.86.472.228.943.443 1.415.658Zm3.787 1.774-1.12 2.955h-1.194l.84-2.955h1.474Zm10.299 1.249c-.398.174-.928.255-1.562.255-1.002 0-1.827-.322-2.49-.954a3.05 3.05 0 0 1-.958-2.27c0-.94.325-1.719.958-2.323.634-.605 1.474-.9 2.49-.9.575 0 1.076.08 1.518.242l-.103.94c-.472-.175-.914-.269-1.356-.269-.663 0-1.193.242-1.606.712-.368.443-.56.967-.56 1.598 0 .618.177 1.142.531 1.559.412.496.987.738 1.724.738.501 0 .943-.12 1.341-.349l.073 1.02Zm7.869-2.982c0 .9-.325 1.652-.958 2.27-.648.631-1.474.954-2.476.954s-1.841-.323-2.49-.954a3.05 3.05 0 0 1-.958-2.27c0-.94.325-1.72.958-2.324.634-.604 1.474-.9 2.49-.9 1.017 0 1.842.296 2.476.9.648.605.958 1.384.958 2.324Zm-1.827 1.558c.338-.43.5-.954.5-1.558 0-.618-.191-1.155-.559-1.598a1.94 1.94 0 0 0-1.548-.712c-.648 0-1.164.242-1.561.712-.369.443-.56.967-.56 1.598 0 .618.176 1.142.515 1.558.383.497.929.739 1.606.739.678.013 1.209-.242 1.607-.739Zm7.19 1.504c-.427.108-.781.175-1.061.175-1.385 0-2.077-.604-2.077-1.8v-3.6h-1.533V3.37h1.533V1.946l1.237-.362v1.8h1.798v.913h-1.798v3.371c0 .336.103.618.31.82.191.188.442.282.737.282.324 0 .604-.068.854-.215v.953Zm5.172 0c-.427.108-.781.175-1.061.175-1.385 0-2.077-.604-2.077-1.8v-3.6h-1.533V3.37h1.533V1.946l1.237-.362v1.8h1.798v.913h-1.798v3.371c0 .336.103.618.31.82.191.188.442.282.736.282.325 0 .605-.068.855-.215v.953Zm7.883-3.062c0 .9-.324 1.652-.958 2.27-.648.631-1.473.954-2.475.954s-1.842-.323-2.49-.954a3.047 3.047 0 0 1-.958-2.27c0-.94.324-1.72.958-2.324.633-.604 1.473-.9 2.49-.9 1.017 0 1.842.296 2.475.9.649.605.958 1.384.958 2.324Zm-1.827 1.558c.339-.43.501-.954.501-1.558 0-.618-.191-1.155-.56-1.598a1.937 1.937 0 0 0-1.547-.712c-.648 0-1.164.242-1.562.712-.368.443-.56.967-.56 1.598 0 .618.177 1.142.516 1.558.383.497.928.739 1.606.739.678.013 1.208-.242 1.606-.739Zm9.475 1.518h-1.238V6.325c0-.752-.103-1.29-.31-1.625-.221-.363-.589-.55-1.119-.564-.678-.014-1.209.215-1.562.685-.339.443-.501 1.06-.501 1.853v2.848h-1.238V3.357h1.208v.98h.03c.191-.336.486-.618.884-.819a2.984 2.984 0 0 1 1.326-.309c1.694 0 2.534.887 2.534 2.646v3.667h-.014Zm10.27-.094c-.398.174-.929.255-1.562.255-1.002 0-1.827-.322-2.49-.954a3.047 3.047 0 0 1-.958-2.27c0-.94.324-1.719.958-2.323.633-.605 1.473-.9 2.49-.9.575 0 1.076.08 1.518.242l-.104.94c-.471-.175-.913-.269-1.355-.269-.663 0-1.194.242-1.606.712-.369.443-.56.967-.56 1.598 0 .618.177 1.142.53 1.559.413.496.988.738 1.724.738.501 0 .943-.12 1.341-.349l.074 1.02Zm6.704-1.115c0 .564.015.967.059 1.209h-1.164v-.793h-.029c-.487.632-1.194.94-2.093.94-.766 0-1.355-.147-1.783-.456-.456-.336-.692-.82-.692-1.464 0-.699.368-1.236 1.09-1.598.575-.296 1.267-.444 2.063-.444.56 0 1.002.014 1.326.027 0-.55-.118-.953-.368-1.209-.265-.268-.693-.403-1.312-.403-.766 0-1.414.215-1.959.632l-.059-.967a4.565 4.565 0 0 1 2.225-.578c.943 0 1.65.215 2.092.645.427.416.634 1.047.634 1.907v2.552h-.03Zm-1.739-.027c.325-.295.487-.671.487-1.155v-.537c-.089 0-.221 0-.398-.014a4.932 4.932 0 0 0-.398-.013c-1.562 0-2.358.39-2.358 1.182 0 .309.133.55.413.739.25.174.53.255.855.255.604.013 1.061-.148 1.399-.457Zm9.814 1.236h-1.238V6.325c0-.752-.103-1.29-.309-1.625-.221-.363-.59-.55-1.12-.564-.678-.014-1.208.215-1.562.685-.339.443-.501 1.06-.501 1.853v2.848h-1.238V3.357h1.208v.98h.03c.191-.336.486-.618.884-.819a2.99 2.99 0 0 1 1.326-.309c1.695 0 2.535.887 2.535 2.646v3.667h-.015Zm8.104 0h-1.194v-.873h-.029c-.486.671-1.252 1.02-2.299 1.02-.957 0-1.694-.349-2.225-1.034-.456-.604-.692-1.37-.692-2.296 0-.887.236-1.612.722-2.176.53-.632 1.252-.94 2.195-.94 1.047 0 1.798.335 2.24.993h.03V.47h1.237v9.053h.015Zm-1.709-1.531c.309-.43.471-.94.471-1.532 0-.63-.162-1.155-.486-1.598-.368-.483-.869-.725-1.503-.725-.634 0-1.105.242-1.444.725-.28.403-.427.927-.427 1.558 0 .578.147 1.088.427 1.531.339.538.825.806 1.444.806.648 0 1.149-.255 1.518-.765Zm9.194-4.62-2.49 6.299c-.339.846-.619 1.41-.854 1.719a2.124 2.124 0 0 1-1.739.833 4.66 4.66 0 0 1-.855-.095l.074-.926c.206.067.412.094.589.094.472 0 .855-.242 1.164-.712.221-.336.324-.618.324-.806 0-.04-.073-.255-.235-.658l-2.299-5.749h1.37l1.813 5.104h.029l1.857-5.104h1.252ZM211.18.307c.221 0 .501.027.84.08l-.059.914c-.148-.054-.339-.067-.59-.067-.501 0-.84.147-1.016.443-.133.201-.192.55-.192 1.02v.672h1.798v.914h-1.798v5.251h-1.238V4.284h-1.591V3.37h1.591v-.577c0-.82.148-1.424.442-1.8.354-.457.958-.685 1.813-.685Zm3.58 1.679h-1.399V.71h1.399v1.276Zm-.088 7.535h-1.253V3.357h1.253v6.165Zm8.266 0H221.7V6.325c0-.752-.103-1.29-.309-1.625-.221-.363-.589-.55-1.12-.564-.678-.014-1.208.215-1.562.685-.339.443-.501 1.06-.501 1.853v2.848h-1.237V3.357h1.208v.98h.029c.192-.336.487-.618.884-.819a2.991 2.991 0 0 1 1.327-.309c1.694 0 2.534.887 2.534 2.646v3.667h-.015Zm3.61-7.535h-1.4V.71h1.4v1.276Zm-.088 7.535h-1.253V3.357h1.253v6.165Zm5.172-3.116c.501.336.751.779.751 1.343 0 .618-.235 1.101-.722 1.45-.442.31-.987.47-1.635.47-.767 0-1.385-.12-1.857-.335l.059-1.021a2.97 2.97 0 0 0 1.547.443c.339 0 .619-.067.855-.201.28-.148.427-.39.427-.685 0-.296-.25-.578-.751-.833-.472-.228-.943-.47-1.415-.698-.501-.336-.751-.74-.751-1.236 0-.618.235-1.088.692-1.424.427-.309.987-.47 1.695-.47.442 0 .957.08 1.547.242l-.103.994c-.133-.08-.354-.148-.649-.215a2.944 2.944 0 0 0-.663-.094c-.339 0-.619.067-.84.188-.235.134-.368.322-.368.564 0 .336.25.618.766.86.472.228.943.443 1.415.658Zm8.251 3.116h-1.237V6.325c0-.752-.104-1.29-.31-1.625-.221-.363-.589-.55-1.12-.564-.678-.014-1.208.215-1.562.685-.339.443-.501 1.06-.501 1.853v2.848h-1.237V.456h1.237v3.787h.03c.471-.685 1.193-1.02 2.181-1.02 1.694 0 2.534.886 2.534 2.645v3.654h-.015Z" fill="#000"/></svg>