<svg width="170" height="13" fill="none" xmlns="http://www.w3.org/2000/svg"><path d="M7.692 9.391c-.53.202-1.238.31-2.107.31-1.474 0-2.653-.404-3.537-1.196-.884-.793-1.34-1.867-1.34-3.21 0-1.29.456-2.337 1.384-3.143C3.006 1.359 4.17.97 5.6.97c.781 0 1.474.12 2.093.363L7.588 2.5a4.055 4.055 0 0 0-1.915-.47c-1.046 0-1.916.309-2.579.94-.648.618-.972 1.41-.972 2.364 0 .967.339 1.773 1.017 2.39.663.605 1.473.9 2.46.9.84 0 1.518-.134 2.019-.402l.074 1.168Zm7.455.148H13.91V6.342c0-.752-.103-1.289-.31-1.625-.22-.362-.59-.55-1.12-.564-.677-.013-1.208.215-1.562.685-.338.443-.5 1.061-.5 1.854v2.847H9.18V.473h1.238V4.26h.029c.472-.685 1.194-1.021 2.18-1.021 1.695 0 2.535.886 2.535 2.646v3.653h-.015Zm3.596-7.535h-1.4V.728h1.4v1.276Zm-.074 7.535h-1.252V3.374h1.252V9.54Zm3.684 0H21.1V.473h1.253v9.066Zm5.01-6.3c1.989 0 2.976 1.156 2.976 3.48h-4.818c0 .59.22 1.087.677 1.477.428.376.944.578 1.548.578.368 0 .78-.081 1.238-.229.383-.12.662-.255.854-.39v1.142c-.81.269-1.518.403-2.137.403-1.164 0-2.048-.309-2.652-.926-.574-.578-.854-1.384-.854-2.418 0-.913.294-1.666.869-2.243.575-.591 1.34-.873 2.299-.873Zm1.65 2.633c0-.483-.147-.886-.442-1.208-.31-.336-.722-.497-1.238-.497-.56 0-1.002.188-1.34.55-.266.31-.428.699-.487 1.155h3.507Zm8.266 2.458c0 .564.015.967.06 1.21h-1.165v-.793h-.03c-.486.63-1.193.94-2.092.94-.766 0-1.355-.148-1.783-.457-.456-.336-.692-.82-.692-1.464 0-.698.368-1.236 1.09-1.598.575-.296 1.267-.443 2.063-.443.56 0 1.002.013 1.326.026 0-.55-.118-.953-.368-1.208-.265-.269-.693-.403-1.312-.403-.766 0-1.414.215-1.96.631l-.058-.967a4.568 4.568 0 0 1 2.225-.578c.943 0 1.65.215 2.092.645.427.416.634 1.048.634 1.907V8.33h-.03Zm-1.724-.027c.324-.295.486-.671.486-1.155v-.537c-.088 0-.22 0-.397-.013-.177-.014-.31-.014-.398-.014-1.562 0-2.358.39-2.358 1.182 0 .31.133.55.413.739.25.175.53.255.854.255.59.014 1.061-.148 1.4-.457ZM45.37 9.54H44.13V6.342c0-.752-.103-1.289-.31-1.625-.22-.362-.589-.55-1.12-.564-.677-.013-1.208.215-1.561.685-.34.443-.501 1.061-.501 1.854v2.847H39.4V3.374h1.208v.98h.03a2.07 2.07 0 0 1 .884-.819 2.988 2.988 0 0 1 1.326-.309c1.694 0 2.534.887 2.534 2.646V9.54h-.014ZM56.89 4.18c.486.564.722 1.303.722 2.176 0 .927-.236 1.706-.692 2.297-.516.698-1.267 1.034-2.21 1.034-1.047 0-1.828-.336-2.314-1.02h-.03v.872h-1.193V.473h1.238V4.22h.03c.441-.658 1.193-.994 2.239-.994.943.014 1.68.323 2.21.954Zm-1.046 3.788c.28-.444.427-.954.427-1.532 0-.63-.147-1.155-.427-1.558-.324-.483-.81-.725-1.43-.725-.633 0-1.134.242-1.502.725-.34.43-.501.967-.501 1.599 0 .59.162 1.101.471 1.53.369.511.87.767 1.518.767.619 0 1.105-.27 1.444-.806Zm4.833 1.571h-1.252V.473h1.252v9.066Zm5.01-6.3c1.99 0 2.976 1.156 2.976 3.48h-4.818c0 .59.221 1.087.678 1.477.427.376.943.578 1.547.578.368 0 .781-.081 1.238-.229.383-.12.663-.255.854-.39v1.142c-.81.269-1.517.403-2.136.403-1.164 0-2.048-.309-2.652-.926-.575-.578-.855-1.384-.855-2.418 0-.913.295-1.666.87-2.243.574-.591 1.34-.873 2.298-.873Zm1.65 2.633c0-.483-.147-.886-.442-1.208-.31-.336-.722-.497-1.237-.497-.56 0-1.003.188-1.341.55-.266.31-.428.699-.487 1.155h3.507Zm8.974 3.667h-1.238V6.342c0-.752-.103-1.289-.31-1.625-.22-.362-.589-.55-1.12-.564-.677-.013-1.208.215-1.561.685-.339.443-.501 1.061-.501 1.854v2.847h-1.238V3.374h1.208v.98h.03a2.07 2.07 0 0 1 .884-.819 2.988 2.988 0 0 1 1.326-.309c1.695 0 2.534.887 2.534 2.646V9.54h-.014Zm8.104 0h-1.194v-.873h-.03c-.485.672-1.251 1.02-2.298 1.02-.958 0-1.694-.348-2.225-1.033-.456-.605-.692-1.37-.692-2.297 0-.887.236-1.612.722-2.176.53-.631 1.252-.94 2.195-.94 1.046 0 1.798.336 2.24.994h.03V.486H84.4V9.54h.015Zm-1.71-1.531c.31-.43.472-.94.472-1.531 0-.632-.162-1.155-.486-1.599-.368-.483-.87-.725-1.503-.725-.634 0-1.105.242-1.444.725-.28.403-.427.927-.427 1.558 0 .578.147 1.088.427 1.532.339.537.825.806 1.444.806.648 0 1.15-.256 1.518-.766Zm5.364.188-1.134 2.955h-1.194l.84-2.955h1.488Zm8.738-1.773c.5.336.751.779.751 1.343 0 .618-.235 1.102-.722 1.45-.442.31-.987.47-1.635.47-.766 0-1.385-.12-1.857-.335l.06-1.02a2.97 2.97 0 0 0 1.546.443c.34 0 .62-.068.855-.202.28-.148.427-.39.427-.685 0-.295-.25-.577-.751-.833-.472-.228-.943-.47-1.415-.698-.5-.336-.751-.739-.751-1.236 0-.618.236-1.088.692-1.424.428-.308.988-.47 1.695-.47.442 0 .958.081 1.547.242l-.103.994c-.133-.08-.354-.148-.648-.215a2.944 2.944 0 0 0-.664-.094c-.338 0-.618.067-.84.188-.235.134-.368.323-.368.564 0 .336.25.618.766.86.472.228.943.443 1.415.658Zm7.986-2.243c.486.564.722 1.303.722 2.176 0 .927-.236 1.706-.692 2.297-.516.698-1.267 1.034-2.211 1.034-1.06 0-1.812-.336-2.254-.994h-.029v3.385h-1.238V3.374h1.193v.873h.03c.486-.671 1.252-1.02 2.298-1.02.914.013 1.636.322 2.181.953Zm-1.046 3.788a2.81 2.81 0 0 0 .427-1.532c0-.63-.147-1.155-.427-1.558-.324-.483-.81-.725-1.429-.725-.634 0-1.135.242-1.503.725-.339.43-.501.967-.501 1.599 0 .59.162 1.101.471 1.53.369.511.87.767 1.518.767.619 0 1.09-.27 1.444-.806Zm4.907-5.964h-1.4V.728h1.4v1.276Zm-.074 7.535h-1.252V3.374h1.252V9.54Zm6.734-.094c-.398.175-.928.255-1.562.255-1.002 0-1.827-.322-2.49-.953a3.047 3.047 0 0 1-.958-2.27c0-.94.324-1.72.958-2.324.633-.604 1.473-.9 2.49-.9.575 0 1.076.08 1.518.242l-.103.94c-.472-.174-.914-.268-1.356-.268-.663 0-1.194.241-1.606.711-.369.444-.56.967-.56 1.599 0 .618.177 1.141.53 1.558.413.497.988.739 1.724.739.501 0 .943-.121 1.341-.35l.074 1.021Zm6.793-6.057-2.491 6.299c-.338.846-.618 1.41-.854 1.72-.442.55-1.017.832-1.739.832-.221 0-.501-.027-.854-.094l.073-.927c.207.067.413.094.59.094.471 0 .854-.242 1.164-.712.221-.336.324-.618.324-.806 0-.04-.074-.255-.236-.658l-2.299-5.748h1.371l1.812 5.103h.03l1.856-5.103h1.253Zm8.045-3.063c.221 0 .501.027.84.08l-.059.914c-.148-.054-.339-.067-.59-.067-.501 0-.839.148-1.016.443-.133.202-.192.55-.192 1.021v.672h1.798V4.3h-1.798v5.252h-1.238V4.3h-1.591v-.913h1.591V2.81c0-.82.148-1.424.443-1.8.338-.456.943-.685 1.812-.685Zm3.566 1.68h-1.4V.727h1.4v1.276Zm-.089 7.534h-1.252V3.374h1.252V9.54Zm8.267 0h-1.238V6.342c0-.752-.103-1.289-.31-1.625-.221-.362-.589-.55-1.119-.564-.678-.013-1.209.215-1.562.685-.339.443-.501 1.061-.501 1.854v2.847h-1.238V3.374h1.208v.98h.03c.191-.335.486-.617.884-.819a2.984 2.984 0 0 1 1.326-.309c1.694 0 2.534.887 2.534 2.646V9.54h-.014Zm3.61-7.535h-1.4V.728h1.4v1.276Zm-.089 7.535h-1.252V3.374h1.252V9.54Zm5.172-3.116c.501.336.752.779.752 1.343 0 .618-.236 1.102-.722 1.45-.442.31-.988.47-1.636.47-.766 0-1.385-.12-1.857-.335l.059-1.02a2.973 2.973 0 0 0 1.548.443c.338 0 .618-.068.854-.202.28-.148.427-.39.427-.685 0-.295-.25-.577-.751-.833-.472-.228-.943-.47-1.415-.698-.501-.336-.751-.739-.751-1.236 0-.618.236-1.088.692-1.424.428-.308.988-.47 1.695-.47.442 0 .958.081 1.547.242l-.103.994c-.133-.08-.354-.148-.648-.215a2.944 2.944 0 0 0-.663-.094c-.339 0-.619.067-.84.188-.236.134-.369.323-.369.564 0 .336.251.618.767.86.471.228.943.443 1.414.658Zm8.252 3.116h-1.238V6.342c0-.752-.103-1.289-.31-1.625-.221-.362-.589-.55-1.119-.564-.678-.013-1.209.215-1.562.685-.339.443-.501 1.061-.501 1.854v2.847h-1.238V.473h1.238V4.26h.029c.472-.685 1.194-1.021 2.181-1.021 1.694 0 2.534.886 2.534 2.646v3.653h-.014Zm3.639 0h-1.488V8.196h1.488v1.343Zm3.699 0h-1.489V8.196h1.489v1.343Zm3.683 0h-1.488V8.196h1.488v1.343Z" fill="#000"/></svg>