<svg width="227" height="13" fill="none" xmlns="http://www.w3.org/2000/svg"><path d="M7.384 6.241c0 1.182-.31 2.082-.943 2.7-.619.631-1.503.94-2.652.94-1.15 0-2.034-.309-2.652-.927C.503 8.323.194 7.423.194 6.241V1.298H1.52v4.795c0 1.814.751 2.727 2.269 2.727 1.518 0 2.27-.913 2.27-2.727V1.298h1.325v4.943Zm8.222 3.506h-1.238V6.55c0-.752-.103-1.29-.309-1.625-.22-.363-.59-.55-1.12-.564-.678-.014-1.208.215-1.562.685-.338.443-.5 1.06-.5 1.853v2.848H9.638V3.582h1.208v.98h.03a2.07 2.07 0 0 1 .883-.82 2.988 2.988 0 0 1 1.327-.308c1.694 0 2.534.886 2.534 2.646v3.667h-.015Zm8.561-3.09c0 .9-.324 1.652-.958 2.27-.648.632-1.473.954-2.475.954s-1.842-.322-2.49-.954a3.048 3.048 0 0 1-.958-2.27c0-.94.324-1.719.958-2.323.633-.605 1.473-.9 2.49-.9 1.017 0 1.842.295 2.475.9.649.604.958 1.383.958 2.323ZM22.34 8.23c.339-.43.501-.954.501-1.558 0-.618-.192-1.155-.56-1.598a1.938 1.938 0 0 0-1.547-.712c-.648 0-1.164.241-1.562.712-.368.443-.56.967-.56 1.598 0 .618.177 1.142.516 1.558.383.497.928.739 1.606.739s1.208-.242 1.606-.74Zm8.767.309c0 .564.015.967.06 1.209h-1.165v-.793h-.03c-.486.631-1.193.94-2.092.94-.766 0-1.355-.147-1.782-.456-.457-.336-.693-.82-.693-1.464 0-.699.368-1.236 1.09-1.599.575-.295 1.267-.443 2.063-.443.56 0 1.002.014 1.326.027 0-.55-.118-.954-.368-1.209-.265-.268-.693-.403-1.311-.403-.767 0-1.415.215-1.96.631l-.06-.967a4.568 4.568 0 0 1 2.226-.577c.943 0 1.65.215 2.092.645.427.416.634 1.047.634 1.907v2.552h-.03Zm-1.724-.04c.325-.296.487-.672.487-1.156v-.537c-.089 0-.221 0-.398-.013-.177-.014-.31-.014-.398-.014-1.562 0-2.358.39-2.358 1.182 0 .31.133.55.413.739.25.175.53.255.854.255.59.014 1.061-.134 1.4-.456Zm9.887 1.249h-1.797l-3.02-3.17v3.17h-1.239V.68h1.238v5.4l2.726-2.498h1.695l-3.139 2.726 3.536 3.439Zm4.038-6.313c1.989 0 2.976 1.155 2.976 3.479h-4.818c0 .59.22 1.088.678 1.477.427.376.943.578 1.547.578.368 0 .78-.081 1.238-.229.383-.12.663-.255.854-.39v1.142c-.81.27-1.517.403-2.136.403-1.164 0-2.048-.309-2.653-.926-.574-.578-.854-1.384-.854-2.418 0-.913.294-1.666.87-2.243.589-.591 1.355-.873 2.298-.873Zm1.665 2.632c0-.483-.148-.886-.442-1.208-.31-.336-.722-.497-1.238-.497-.56 0-1.002.188-1.34.55-.266.31-.428.699-.487 1.155h3.507Zm8.959 3.68h-1.194v-.872h-.03c-.486.671-1.252 1.02-2.298 1.02-.958 0-1.694-.349-2.225-1.034-.457-.604-.693-1.37-.693-2.297 0-.886.236-1.611.723-2.175.53-.632 1.252-.94 2.195-.94 1.046 0 1.798.335 2.24.993h.03V.694h1.237v9.053h.015Zm-1.71-1.544c.31-.43.472-.94.472-1.531 0-.631-.162-1.155-.486-1.598-.369-.484-.87-.726-1.503-.726-.634 0-1.105.242-1.444.726-.28.402-.428.926-.428 1.558 0 .577.148 1.087.428 1.53.339.538.825.807 1.444.807.648 0 1.164-.256 1.517-.766Zm17.358-4.62-2.166 6.165H65.97l-1.754-5.171h-.029l-1.71 5.17h-1.443l-2.166-6.164h1.37l1.547 5.104h.03l1.724-5.104h1.473l1.695 5.104h.03l1.65-5.104h1.193Zm2.697-1.384h-1.4V.922h1.4v1.276Zm-.074 7.549H70.95V3.582h1.253v6.165Zm5.982-.027c-.427.107-.78.174-1.06.174-1.386 0-2.078-.604-2.078-1.8V4.496h-1.533v-.913h1.533V2.158l1.237-.363v1.8h1.798v.913h-1.798V7.88c0 .335.103.618.31.819.191.188.442.282.737.282.324 0 .604-.067.854-.215v.954Zm7.441.027h-1.238V6.55c0-.752-.103-1.29-.309-1.625-.22-.363-.59-.55-1.12-.564-.678-.014-1.208.215-1.562.685-.339.443-.5 1.06-.5 1.853v2.848h-1.238V.68h1.237v3.788h.03c.471-.685 1.193-1.02 2.18-1.02 1.695 0 2.535.886 2.535 2.645v3.654h-.015Zm11.066-1.21c0 .565.015.968.06 1.21h-1.165v-.793h-.03c-.486.631-1.193.94-2.092.94-.766 0-1.355-.147-1.783-.456-.457-.336-.692-.82-.692-1.464 0-.699.368-1.236 1.09-1.599.575-.295 1.267-.443 2.063-.443.56 0 1.002.014 1.326.027 0-.55-.118-.954-.368-1.209-.266-.268-.693-.403-1.312-.403-.766 0-1.414.215-1.96.631l-.058-.967a4.568 4.568 0 0 1 2.225-.577c.943 0 1.65.215 2.092.645.427.416.634 1.047.634 1.907v2.552h-.03Zm-1.724-.04c.324-.295.486-.671.486-1.155v-.537c-.088 0-.22 0-.397-.013-.177-.014-.31-.014-.398-.014-1.562 0-2.358.39-2.358 1.182 0 .31.133.55.413.739.25.175.53.255.854.255.59.014 1.061-.134 1.4-.456Zm10.418-1.866c.501.335.751.779.751 1.343 0 .618-.236 1.101-.722 1.45-.442.31-.987.47-1.635.47-.767 0-1.385-.12-1.857-.335l.059-1.021a2.97 2.97 0 0 0 1.547.443c.339 0 .619-.067.855-.201.28-.148.427-.39.427-.685 0-.296-.25-.578-.751-.833-.472-.228-.943-.47-1.415-.699-.501-.335-.751-.738-.751-1.235 0-.618.235-1.088.692-1.424.427-.309.987-.47 1.695-.47.442 0 .957.08 1.547.242l-.103.994c-.133-.081-.354-.148-.649-.215a2.944 2.944 0 0 0-.663-.094c-.339 0-.619.067-.84.188-.235.134-.368.322-.368.564 0 .336.25.618.766.86.472.214.943.43 1.415.658Zm11.964 3.116h-1.252v-3.68c0-1.142-.398-1.706-1.208-1.706-.59 0-1.047.241-1.371.712-.265.416-.412.94-.412 1.571v3.103h-1.238v-3.68c0-1.142-.398-1.706-1.208-1.706-.59 0-1.046.241-1.371.712-.28.416-.412.94-.412 1.571v3.103h-1.238V3.582h1.164v.886h.03c.471-.698 1.178-1.034 2.151-1.034.943 0 1.577.403 1.93 1.195.206-.403.545-.712.987-.926a2.575 2.575 0 0 1 1.106-.27c1.561 0 2.357.78 2.357 2.351v3.963h-.015Zm8.517-3.09c0 .9-.324 1.652-.958 2.27-.648.632-1.473.954-2.475.954s-1.842-.322-2.49-.954a3.047 3.047 0 0 1-.958-2.27c0-.94.324-1.719.958-2.323.633-.605 1.473-.9 2.49-.9 1.017 0 1.842.295 2.475.9.649.604.958 1.383.958 2.323ZM124.04 8.23c.339-.43.501-.954.501-1.558 0-.618-.192-1.155-.56-1.598a1.937 1.937 0 0 0-1.547-.712c-.648 0-1.164.241-1.562.712-.368.443-.56.967-.56 1.598 0 .618.177 1.142.516 1.558.383.497.928.739 1.606.739s1.223-.242 1.606-.74Zm9.931-1.572c0 .9-.324 1.652-.957 2.27-.649.632-1.474.954-2.476.954s-1.842-.322-2.49-.954a3.047 3.047 0 0 1-.958-2.27c0-.94.324-1.719.958-2.323.633-.605 1.473-.9 2.49-.9 1.017 0 1.842.295 2.476.9.648.604.957 1.383.957 2.323Zm-1.827 1.572c.339-.43.501-.954.501-1.558 0-.618-.191-1.155-.56-1.598a1.937 1.937 0 0 0-1.547-.712c-.648 0-1.164.241-1.562.712-.368.443-.56.967-.56 1.598 0 .618.177 1.142.516 1.558.383.497.928.739 1.606.739s1.208-.242 1.606-.74Zm7.206 1.49c-.428.108-.781.175-1.061.175-1.385 0-2.078-.604-2.078-1.8V4.496h-1.532v-.913h1.532V2.158l1.238-.363v1.8h1.797v.913h-1.797V7.88c0 .335.103.618.309.819.192.188.442.282.737.282.324 0 .604-.067.855-.215v.954Zm7.426.028h-1.238V6.55c0-.752-.103-1.29-.309-1.625-.221-.363-.59-.55-1.12-.564-.678-.014-1.208.215-1.562.685-.339.443-.501 1.06-.501 1.853v2.848h-1.238V.68h1.238v3.788h.029c.472-.685 1.194-1.02 2.181-1.02 1.695 0 2.535.886 2.535 2.645v3.654h-.015Zm11.523-5.373c.486.564.722 1.303.722 2.176 0 .927-.236 1.706-.693 2.297-.516.698-1.267 1.034-2.21 1.034-1.046 0-1.827-.336-2.314-1.02h-.029v.872h-1.194V.667h1.238v3.747h.03c.442-.658 1.193-.994 2.239-.994.958.014 1.68.323 2.211.954Zm-1.032 3.788a2.81 2.81 0 0 0 .427-1.531c0-.632-.147-1.156-.427-1.558-.324-.484-.81-.726-1.429-.726-.634 0-1.135.242-1.503.726-.339.43-.501.967-.501 1.598 0 .59.162 1.101.471 1.531.369.51.87.766 1.518.766.619 0 1.09-.269 1.444-.806Zm7.205-3.627a2.109 2.109 0 0 0-.692-.107c-.56 0-1.002.228-1.341.685-.339.456-.501 1.06-.501 1.84V9.76H160.7V3.595h1.164v.954h.03c.162-.323.412-.591.737-.793a1.916 1.916 0 0 1 1.031-.309c.236 0 .516.027.825.08v1.008h-.015Zm2.859-2.337h-1.4V.922h1.4v1.276Zm-.074 7.549h-1.252V3.582h1.252v6.165Zm8.267-.269c0 1.961-1.164 2.955-3.478 2.955-.707 0-1.518-.148-2.431-.43l.133-1.047c.884.376 1.694.55 2.431.55.663 0 1.164-.188 1.547-.564.368-.376.56-.9.56-1.545v-.604h-.03c-.53.631-1.282.954-2.269.954-.928 0-1.65-.31-2.181-.927-.486-.55-.722-1.263-.722-2.109 0-.873.251-1.612.752-2.23.56-.698 1.326-1.047 2.284-1.047 1.09 0 1.827.35 2.225 1.061h.029v-.913h1.15v5.896Zm-1.798-1.276c.368-.403.545-.886.545-1.477 0-.685-.162-1.236-.486-1.666-.354-.47-.855-.712-1.488-.712-.59 0-1.061.255-1.415.752a2.629 2.629 0 0 0-.471 1.545c0 .604.162 1.115.501 1.518.353.43.81.644 1.385.644a1.795 1.795 0 0 0 1.429-.604Zm9.902 1.545h-1.238V6.55c0-.752-.103-1.29-.309-1.625-.221-.363-.59-.55-1.12-.564-.678-.014-1.209.215-1.562.685-.339.443-.501 1.06-.501 1.853v2.848h-1.238V.68h1.238v3.788h.029c.472-.685 1.194-1.02 2.181-1.02 1.695 0 2.534.886 2.534 2.645v3.654h-.014Zm5.82-.027c-.427.107-.781.174-1.061.174-1.385 0-2.078-.604-2.078-1.8V4.496h-1.532v-.913h1.532V2.158l1.238-.363v1.8h1.798v.913h-1.798V7.88c0 .335.103.618.31.819.191.188.442.282.736.282.325 0 .605-.067.855-.215v.954ZM197.67.533c.221 0 .501.027.84.08l-.059.914c-.147-.054-.339-.068-.589-.068-.501 0-.84.148-1.017.444-.133.201-.192.55-.192 1.02v.672h1.798v.913h-1.798V9.76h-1.237V4.495h-1.592v-.913h1.592v-.578c0-.82.147-1.424.442-1.8.339-.443.943-.671 1.812-.671Zm3.566 1.665h-1.4V.922h1.4v1.276Zm-.074 7.549h-1.252V3.582h1.252v6.165Zm8.252 0h-1.238V6.55c0-.752-.103-1.29-.309-1.625-.221-.363-.59-.55-1.12-.564-.678-.014-1.209.215-1.562.685-.339.443-.501 1.06-.501 1.853v2.848h-1.238V3.582h1.208v.98h.03c.191-.336.486-.618.884-.82a2.99 2.99 0 0 1 1.326-.308c1.695 0 2.534.886 2.534 2.646v3.667h-.014Zm3.61-7.549h-1.4V.922h1.4v1.276Zm-.074 7.549h-1.252V3.582h1.252v6.165Zm5.172-3.116c.501.335.752.779.752 1.343 0 .618-.236 1.101-.723 1.45-.442.31-.987.47-1.635.47-.766 0-1.385-.12-1.857-.335l.059-1.021a2.972 2.972 0 0 0 1.547.443c.339 0 .619-.067.855-.201.28-.148.427-.39.427-.685 0-.296-.25-.578-.751-.833-.472-.228-.943-.47-1.415-.699-.501-.335-.751-.738-.751-1.235 0-.618.236-1.088.692-1.424.428-.309.988-.47 1.695-.47.442 0 .958.08 1.547.242l-.103.994c-.133-.081-.354-.148-.648-.215a2.944 2.944 0 0 0-.663-.094c-.339 0-.619.067-.84.188-.236.134-.369.322-.369.564 0 .336.251.618.766.86.472.214.944.43 1.415.658Zm8.237 3.116h-1.238V6.55c0-.752-.103-1.29-.309-1.625-.221-.363-.59-.55-1.12-.564-.678-.014-1.208.215-1.562.685-.339.443-.501 1.06-.501 1.853v2.848h-1.238V.68h1.238v3.788h.029c.472-.685 1.194-1.02 2.181-1.02 1.695 0 2.535.886 2.535 2.645v3.654h-.015Z" fill="#000"/></svg>