<svg width="162" height="13" viewBox="0 0 162 13" fill="none" xmlns="http://www.w3.org/2000/svg">
<path d="M9.41559 9.523H7.97158L7.02855 7.40085H2.50495L1.56192 9.523H0.162109L4.11105 1.08808H5.51086L9.41559 9.523ZM6.60124 6.40692L4.75938 2.21633L2.93226 6.40692H6.60124ZM16.3557 4.15046C16.842 4.71457 17.0777 5.45329 17.0777 6.32633C17.0777 7.2531 16.842 8.0321 16.3852 8.62308C15.8695 9.32152 15.118 9.65731 14.175 9.65731C13.114 9.65731 12.3626 9.32154 11.9205 8.6634H11.891V12.0481H10.6533V3.34456H11.8468V4.2176H11.8763C12.3626 3.54603 13.1288 3.19682 14.175 3.19682C15.1032 3.21025 15.8253 3.51918 16.3557 4.15046ZM15.3243 7.93809C15.6042 7.49486 15.7516 6.98447 15.7516 6.40692C15.7516 5.77564 15.6042 5.25181 15.3243 4.84887C15.0001 4.36534 14.5139 4.12359 13.895 4.12359C13.2614 4.12359 12.7604 4.36534 12.392 4.84887C12.0531 5.27868 11.891 5.81593 11.891 6.44721C11.891 7.03819 12.0531 7.54858 12.3626 7.97838C12.7309 8.48878 13.2319 8.74398 13.8803 8.74398C14.4991 8.74398 14.9706 8.47535 15.3243 7.93809ZM24.4599 4.15046C24.9461 4.71457 25.1819 5.45329 25.1819 6.32633C25.1819 7.2531 24.9461 8.0321 24.4893 8.62308C23.9736 9.32152 23.2221 9.65731 22.2791 9.65731C21.2182 9.65731 20.4667 9.32154 20.0247 8.6634H19.9952V12.0481H18.7575V3.34456H19.951V4.2176H19.9805C20.4667 3.54603 21.2329 3.19682 22.2791 3.19682C23.2074 3.21025 23.9294 3.51918 24.4599 4.15046ZM23.4284 7.93809C23.7084 7.49486 23.8557 6.98447 23.8557 6.40692C23.8557 5.77564 23.7084 5.25181 23.4284 4.84887C23.1043 4.36534 22.618 4.12359 21.9992 4.12359C21.3656 4.12359 20.8646 4.36534 20.4962 4.84887C20.1573 5.27868 19.9952 5.81593 19.9952 6.44721C19.9952 7.03819 20.1573 7.54858 20.4667 7.97838C20.8351 8.48878 21.3361 8.74398 21.9844 8.74398C22.6033 8.74398 23.0748 8.47535 23.4284 7.93809ZM28.2615 9.523H27.009V0.456828H28.2615V9.523ZM33.2566 3.21024C35.2458 3.21024 36.233 4.36536 36.233 6.68898H31.4147C31.4147 7.27996 31.6357 7.77691 32.0925 8.16642C32.5198 8.5425 33.0356 8.74398 33.6397 8.74398C34.0081 8.74398 34.4206 8.6634 34.8774 8.51565C35.2605 8.39477 35.5405 8.26044 35.732 8.12613V9.26781C34.9216 9.53643 34.2143 9.67075 33.5955 9.67075C32.4314 9.67075 31.5473 9.36183 30.9432 8.74398C30.3685 8.16643 30.0886 7.36055 30.0886 6.32633C30.0886 5.413 30.3833 4.66084 30.9579 4.08329C31.5473 3.49231 32.3135 3.21024 33.2566 3.21024ZM34.9216 5.8428C34.9216 5.35927 34.7743 4.95634 34.4796 4.63399C34.1701 4.2982 33.7576 4.13701 33.2418 4.13701C32.6819 4.13701 32.2399 4.32506 31.901 4.6877C31.6357 4.99662 31.4737 5.38613 31.4147 5.8428H34.9216ZM44.4845 6.40692C44.9855 6.7427 45.236 7.18594 45.236 7.75005C45.236 8.3679 45.0003 8.85143 44.514 9.20064C44.072 9.50957 43.5268 9.67075 42.8784 9.67075C42.1122 9.67075 41.4934 9.54987 41.0218 9.33497L41.0808 8.31417C41.567 8.60966 42.0975 8.75741 42.6279 8.75741C42.9668 8.75741 43.2468 8.69026 43.4826 8.55594C43.7625 8.4082 43.9099 8.16642 43.9099 7.87093C43.9099 7.57544 43.6594 7.29339 43.1584 7.03819C42.6869 6.80986 42.2154 6.56809 41.7439 6.33976C41.2429 6.00397 40.9924 5.60103 40.9924 5.10407C40.9924 4.48623 41.2281 4.01613 41.6849 3.68035C42.1122 3.37143 42.6721 3.21024 43.3794 3.21024C43.8215 3.21024 44.3372 3.29084 44.9266 3.45202L44.8234 4.44593C44.6908 4.36534 44.4698 4.2982 44.1751 4.23104C43.8951 4.16388 43.6741 4.13701 43.512 4.13701C43.1731 4.13701 42.8932 4.20417 42.6721 4.32505C42.4364 4.45936 42.3038 4.6474 42.3038 4.88916C42.3038 5.22495 42.5543 5.50701 43.07 5.74877C43.5415 5.96367 44.013 6.17858 44.4845 6.40692ZM50.4521 9.49614C50.0248 9.60359 49.6712 9.67075 49.3912 9.67075C48.0062 9.67075 47.3136 9.06632 47.3136 7.87093V4.27133H45.7812V3.35799H47.3136V1.93427L48.5514 1.57161V3.37143H50.349V4.28476H48.5514V7.65604C48.5514 7.99183 48.6545 8.27387 48.8608 8.47534C49.0523 8.66338 49.3028 8.75741 49.5975 8.75741C49.9217 8.75741 50.2017 8.69024 50.4521 8.5425V9.49614ZM57.186 8.31417C57.186 8.87829 57.2007 9.28124 57.2449 9.523H56.0809V8.73054H56.0514C55.5651 9.36181 54.8579 9.67075 53.959 9.67075C53.1928 9.67075 52.6034 9.52299 52.1761 9.21407C51.7193 8.87828 51.4836 8.39476 51.4836 7.75005C51.4836 7.05162 51.852 6.51436 52.574 6.15172C53.1486 5.85623 53.8412 5.70848 54.6368 5.70848C55.1968 5.70848 55.6388 5.72192 55.963 5.73535C55.963 5.18466 55.8451 4.78173 55.5946 4.52653C55.3294 4.2579 54.9021 4.12359 54.2832 4.12359C53.517 4.12359 52.8687 4.33849 52.3235 4.75486L52.2645 3.7878C52.9718 3.39829 53.7233 3.21024 54.4895 3.21024C55.4325 3.21024 56.1398 3.42516 56.5818 3.85496C57.0092 4.27134 57.2154 4.90261 57.2154 5.76222V8.31417H57.186ZM55.462 8.27388C55.7862 7.97839 55.9482 7.60231 55.9482 7.11878V6.58153C55.8598 6.58153 55.7272 6.58152 55.5504 6.56809C55.3736 6.55465 55.241 6.55466 55.1526 6.55466C53.5907 6.55466 52.795 6.94418 52.795 7.73663C52.795 8.04555 52.9276 8.2873 53.2076 8.47534C53.4581 8.64995 53.738 8.73054 54.0622 8.73054C54.6516 8.74397 55.1231 8.59623 55.462 8.27388ZM63.0799 4.31163C62.8884 4.24447 62.6526 4.20417 62.3874 4.20417C61.8274 4.20417 61.3854 4.4325 61.0465 4.88916C60.7076 5.34583 60.5455 5.95026 60.5455 6.72928V9.53643H59.3078V3.37143H60.4718V4.32505H60.5013C60.6634 4.0027 60.9139 3.73407 61.2381 3.5326C61.5622 3.33113 61.9011 3.22369 62.2695 3.22369C62.5053 3.22369 62.7852 3.25055 63.0946 3.30427V4.31163H63.0799ZM68.1487 9.49614C67.7214 9.60359 67.3678 9.67075 67.0878 9.67075C65.7027 9.67075 65.0102 9.06632 65.0102 7.87093V4.27133H63.4778V3.35799H65.0102V1.93427L66.2479 1.57161V3.37143H68.0456V4.28476H66.2479V7.65604C66.2479 7.99183 66.351 8.27387 66.5573 8.47534C66.7489 8.66338 66.9994 8.75741 67.2941 8.75741C67.6182 8.75741 67.8982 8.69024 68.1487 8.5425V9.49614ZM71.1251 8.16642L70.0053 11.1213H68.8118L69.6516 8.16642H71.1251ZM86.803 3.35799L84.637 9.523H83.193L81.4395 4.35192H81.4101L79.7008 9.523H78.2568L76.0908 3.35799H77.4611L79.0083 8.46192H79.0378L80.7617 3.35799H82.2352L83.9297 8.46192H83.9592L85.6095 3.35799H86.803ZM94.0084 9.523H92.7706V6.32633C92.7706 5.57417 92.6675 5.03691 92.4612 4.70113C92.2402 4.33848 91.8718 4.15044 91.3413 4.13701C90.6635 4.12358 90.1331 4.35193 89.7795 4.82202C89.4406 5.26526 89.2785 5.88309 89.2785 6.67554V9.523H88.0407V0.456828H89.2785V4.24446H89.3079C89.7795 3.55946 90.5015 3.22369 91.4887 3.22369C93.1832 3.22369 94.0231 4.11016 94.0231 5.86967V9.523H94.0084ZM97.6184 1.97456H96.2186V0.698583H97.6184V1.97456ZM97.5447 9.523H96.2923V3.35799H97.5447V9.523ZM102.702 6.40692C103.203 6.7427 103.453 7.18594 103.453 7.75005C103.453 8.3679 103.218 8.85143 102.731 9.20064C102.289 9.50957 101.744 9.67075 101.096 9.67075C100.33 9.67075 99.7107 9.54987 99.2392 9.33497L99.2982 8.31417C99.7844 8.60966 100.315 8.75741 100.845 8.75741C101.184 8.75741 101.464 8.69026 101.7 8.55594C101.98 8.4082 102.127 8.16642 102.127 7.87093C102.127 7.57544 101.877 7.29339 101.376 7.03819C100.904 6.80986 100.433 6.56809 99.9612 6.33976C99.4603 6.00397 99.2098 5.60103 99.2098 5.10407C99.2098 4.48623 99.4455 4.01613 99.9023 3.68035C100.33 3.37143 100.89 3.21024 101.597 3.21024C102.039 3.21024 102.555 3.29084 103.144 3.45202L103.041 4.44593C102.908 4.36534 102.687 4.2982 102.392 4.23104C102.113 4.16388 101.892 4.13701 101.729 4.13701C101.391 4.13701 101.111 4.20417 100.89 4.32505C100.654 4.45936 100.521 4.6474 100.521 4.88916C100.521 5.22495 100.772 5.50701 101.287 5.74877C101.774 5.96367 102.23 6.17858 102.702 6.40692ZM111.042 9.523H109.244L106.224 6.3532V9.523H104.986V0.456828H106.224V5.85623L108.95 3.35799H110.644L107.505 6.08456L111.042 9.523ZM115.064 3.21024C117.054 3.21024 118.041 4.36536 118.041 6.68898H113.223C113.223 7.27996 113.444 7.77691 113.9 8.16642C114.328 8.5425 114.843 8.74398 115.448 8.74398C115.816 8.74398 116.229 8.6634 116.685 8.51565C117.068 8.39477 117.348 8.26044 117.54 8.12613V9.26781C116.729 9.53643 116.022 9.67075 115.403 9.67075C114.239 9.67075 113.355 9.36183 112.751 8.74398C112.176 8.16643 111.896 7.36055 111.896 6.32633C111.896 5.413 112.191 4.66084 112.766 4.08329C113.355 3.49231 114.121 3.21024 115.064 3.21024ZM116.729 5.8428C116.729 5.35927 116.582 4.95634 116.287 4.63399C115.978 4.2982 115.565 4.13701 115.05 4.13701C114.49 4.13701 114.048 4.32506 113.709 4.6877C113.444 4.99662 113.282 5.38613 113.223 5.8428H116.729ZM125.084 3.35799L122.594 9.65731C122.255 10.5035 121.975 11.0676 121.739 11.3765C121.297 11.9272 120.723 12.2093 120.001 12.2093C119.78 12.2093 119.5 12.1824 119.146 12.1152L119.22 11.1885C119.426 11.2556 119.632 11.2825 119.809 11.2825C120.281 11.2825 120.664 11.0407 120.973 10.5707C121.194 10.2349 121.297 9.9528 121.297 9.76476C121.297 9.72447 121.224 9.50956 121.062 9.10662L118.763 3.35799H120.133L121.946 8.46192H121.975L123.832 3.35799H125.084ZM133.115 0.309082C133.336 0.309082 133.616 0.335941 133.955 0.389667L133.896 1.30299C133.748 1.24927 133.557 1.23583 133.306 1.23583C132.805 1.23583 132.466 1.38358 132.289 1.67907C132.157 1.88054 132.098 2.22977 132.098 2.69986V3.37143H133.896V4.28476H132.098V9.53643H130.86V4.28476H129.269V3.37143H130.86V2.79387C130.86 1.97456 131.008 1.37015 131.302 0.994075C131.641 0.537408 132.26 0.309082 133.115 0.309082ZM136.68 1.97456H135.281V0.698583H136.68V1.97456ZM136.607 9.523H135.354V3.35799H136.607V9.523ZM144.858 9.523H143.621V6.32633C143.621 5.57417 143.517 5.03691 143.311 4.70113C143.09 4.33848 142.722 4.15044 142.191 4.13701C141.514 4.12358 140.983 4.35193 140.629 4.82202C140.291 5.26526 140.128 5.88309 140.128 6.67554V9.523H138.891V3.35799H140.099V4.33849H140.128C140.32 4.00271 140.615 3.72065 141.013 3.51918C141.425 3.31771 141.867 3.21024 142.339 3.21024C144.033 3.21024 144.873 4.09672 144.873 5.85623V9.523H144.858ZM148.468 1.97456H147.069V0.698583H148.468V1.97456ZM148.395 9.523H147.142V3.35799H148.395V9.523ZM153.567 6.40692C154.068 6.7427 154.318 7.18594 154.318 7.75005C154.318 8.3679 154.082 8.85143 153.596 9.20064C153.154 9.50957 152.609 9.67075 151.961 9.67075C151.194 9.67075 150.575 9.54987 150.104 9.33497L150.163 8.31417C150.649 8.60966 151.18 8.75741 151.71 8.75741C152.049 8.75741 152.329 8.69026 152.565 8.55594C152.845 8.4082 152.992 8.16642 152.992 7.87093C152.992 7.57544 152.741 7.29339 152.24 7.03819C151.769 6.80986 151.297 6.56809 150.826 6.33976C150.325 6.00397 150.074 5.60103 150.074 5.10407C150.074 4.48623 150.31 4.01613 150.767 3.68035C151.194 3.37143 151.754 3.21024 152.462 3.21024C152.904 3.21024 153.419 3.29084 154.009 3.45202L153.906 4.44593C153.773 4.36534 153.552 4.2982 153.257 4.23104C152.977 4.16388 152.756 4.13701 152.594 4.13701C152.255 4.13701 151.975 4.20417 151.754 4.32505C151.518 4.45936 151.386 4.6474 151.386 4.88916C151.386 5.22495 151.636 5.50701 152.152 5.74877C152.624 5.96367 153.095 6.17858 153.567 6.40692ZM161.818 9.523H160.58V6.32633C160.58 5.57417 160.477 5.03691 160.271 4.70113C160.05 4.33848 159.682 4.15044 159.151 4.13701C158.473 4.12358 157.943 4.35193 157.589 4.82202C157.25 5.26526 157.088 5.88309 157.088 6.67554V9.523H155.851V0.456828H157.088V4.24446H157.118C157.589 3.55946 158.311 3.22369 159.298 3.22369C160.993 3.22369 161.833 4.11016 161.833 5.86967V9.523H161.818Z" fill="black"></path>
</svg>
