<svg width="182" height="13" fill="none" xmlns="http://www.w3.org/2000/svg"><path d="M4.98 5.607c.693.484 1.032 1.129 1.032 1.921 0 .846-.34 1.491-1.002 1.934-.59.39-1.385.591-2.387.591-.486 0-1.105-.12-1.901-.349l.133-1.115c.736.269 1.37.403 1.93.403.442 0 .84-.107 1.193-.309.413-.255.634-.604.634-1.06 0-.511-.339-.941-1.031-1.29-.634-.31-1.282-.605-1.916-.914C.972 4.976.634 4.385.634 3.633c0-.725.28-1.29.854-1.706.545-.39 1.238-.59 2.107-.59a6.36 6.36 0 0 1 1.975.295l-.192 1.115c-.648-.242-1.223-.35-1.739-.35-1.075 0-1.62.376-1.62 1.129 0 .43.339.805 1.031 1.141 1.208.564 1.842.887 1.93.94Zm12.407 4.285h-1.252v-3.68c0-1.142-.398-1.706-1.209-1.706-.589 0-1.046.242-1.37.712-.265.416-.412.94-.412 1.571v3.103H11.89v-3.68c0-1.142-.398-1.706-1.208-1.706-.59 0-1.046.242-1.37.712-.28.416-.413.94-.413 1.571v3.103H7.662V3.727h1.179v.887h.03c.47-.699 1.178-1.035 2.15-1.035.944 0 1.577.403 1.93 1.196.207-.403.546-.712.988-.927a2.571 2.571 0 0 1 1.105-.269c1.562 0 2.358.78 2.358 2.35v3.963h-.015Zm8.532-3.076c0 .9-.325 1.652-.958 2.27-.648.631-1.474.954-2.476.954s-1.841-.323-2.49-.954a3.048 3.048 0 0 1-.958-2.27c0-.94.325-1.719.958-2.323.634-.605 1.474-.9 2.49-.9 1.017 0 1.842.295 2.476.9.633.604.958 1.383.958 2.323Zm-1.842 1.558c.339-.43.5-.953.5-1.558 0-.618-.19-1.155-.56-1.598a1.938 1.938 0 0 0-1.546-.712c-.649 0-1.164.242-1.562.712-.369.443-.56.967-.56 1.598 0 .618.177 1.142.515 1.558.384.497.929.739 1.607.739.692.013 1.223-.242 1.606-.739Zm9.931-1.558c0 .9-.324 1.652-.958 2.27-.648.631-1.473.954-2.475.954s-1.842-.323-2.49-.954a3.048 3.048 0 0 1-.958-2.27c0-.94.324-1.719.958-2.323.633-.605 1.473-.9 2.49-.9 1.017 0 1.842.295 2.475.9.649.604.958 1.383.958 2.323Zm-1.827 1.558c.339-.43.5-.953.5-1.558 0-.618-.19-1.155-.56-1.598a1.938 1.938 0 0 0-1.546-.712c-.649 0-1.164.242-1.562.712-.369.443-.56.967-.56 1.598 0 .618.177 1.142.516 1.558.383.497.928.739 1.606.739.692.013 1.223-.242 1.606-.739Zm7.205 1.505c-.427.107-.78.174-1.06.174-1.386 0-2.078-.604-2.078-1.8v-3.6h-1.533V3.74h1.533V2.317l1.237-.363v1.8h1.798v.913h-1.798V8.04c0 .335.104.617.31.819.191.188.442.282.737.282.324 0 .604-.067.854-.215v.954Zm7.441.013H45.59V6.695c0-.752-.104-1.29-.31-1.625-.22-.362-.59-.55-1.12-.564-.677-.013-1.208.215-1.562.685-.338.443-.5 1.061-.5 1.854v2.847H40.86V.826h1.237v3.788h.03c.471-.685 1.193-1.021 2.18-1.021 1.695 0 2.535.886 2.535 2.646v3.653h-.015Zm3.64-1.343-1.12 2.955h-1.194l.84-2.955h1.474Zm11.567-4.016c.486.564.722 1.303.722 2.176 0 .927-.236 1.706-.693 2.297-.516.698-1.267 1.034-2.21 1.034-1.046 0-1.827-.336-2.314-1.021h-.029v.873h-1.194V.826h1.238v3.747h.03c.442-.658 1.193-.994 2.24-.994.943.014 1.68.323 2.21.954ZM61.002 8.32a2.81 2.81 0 0 0 .427-1.532c0-.63-.147-1.155-.427-1.558-.324-.483-.81-.725-1.43-.725-.633 0-1.134.242-1.502.725-.339.43-.501.967-.501 1.599 0 .59.162 1.101.471 1.53.369.511.87.766 1.518.766.604 0 1.09-.268 1.444-.805Zm8.694.362c0 .564.014.967.059 1.209H68.59V9.1h-.03c-.486.63-1.193.94-2.092.94-.766 0-1.356-.148-1.783-.457-.457-.336-.693-.82-.693-1.464 0-.698.369-1.236 1.09-1.598.576-.296 1.268-.443 2.064-.443.56 0 1.002.013 1.326.026 0-.55-.118-.953-.369-1.208-.265-.27-.692-.403-1.311-.403-.766 0-1.415.215-1.96.63l-.059-.966A4.568 4.568 0 0 1 67 3.579c.943 0 1.65.215 2.093.645.427.416.633 1.048.633 1.907v2.552h-.03Zm-1.739-.027c.324-.295.486-.671.486-1.155v-.537c-.088 0-.22 0-.397-.013-.177-.014-.31-.014-.398-.014-1.562 0-2.358.39-2.358 1.182 0 .309.133.55.413.739.25.174.53.255.854.255.604.013 1.061-.148 1.4-.457Zm5.246 1.236H71.95V.826h1.253v9.066Zm7.544-1.209c0 .564.015.967.059 1.209h-1.164V9.1h-.03c-.486.63-1.193.94-2.092.94-.766 0-1.356-.148-1.783-.457-.457-.336-.692-.82-.692-1.464 0-.698.368-1.236 1.09-1.598.575-.296 1.267-.443 2.063-.443.56 0 1.002.013 1.326.026 0-.55-.118-.953-.368-1.208-.266-.27-.693-.403-1.312-.403-.766 0-1.414.215-1.96.63l-.058-.966a4.568 4.568 0 0 1 2.224-.578c.944 0 1.65.215 2.093.645.427.416.633 1.048.633 1.907v2.552h-.03Zm-1.724-.027c.324-.295.486-.671.486-1.155v-.537c-.088 0-.22 0-.398-.013-.177-.014-.31-.014-.398-.014-1.561 0-2.357.39-2.357 1.182 0 .309.133.55.413.739.25.174.53.255.854.255.59.013 1.061-.148 1.4-.457Zm9.813 1.236H87.6V6.695c0-.752-.103-1.29-.31-1.625-.22-.362-.59-.55-1.12-.564-.677-.013-1.208.215-1.561.685-.34.443-.502 1.061-.502 1.854v2.847H82.87V3.727h1.208v.98h.03c.191-.335.486-.617.883-.819a2.988 2.988 0 0 1 1.327-.309c1.694 0 2.534.887 2.534 2.646v3.667h-.015Zm6.572-.094c-.398.175-.928.255-1.562.255-1.002 0-1.827-.322-2.49-.953a3.048 3.048 0 0 1-.958-2.27c0-.94.324-1.72.958-2.324.634-.604 1.474-.9 2.49-.9.575 0 1.076.08 1.518.242l-.103.94c-.472-.175-.914-.269-1.356-.269-.663 0-1.193.242-1.606.712-.368.444-.56.967-.56 1.599 0 .618.177 1.141.53 1.558.413.497.988.738 1.725.738.5 0 .943-.12 1.34-.349l.074 1.021Zm4.155-6.205c1.99 0 2.977 1.155 2.977 3.478h-4.819c0 .591.221 1.088.678 1.478.428.376.943.577 1.547.577.369 0 .781-.08 1.238-.228.383-.12.663-.255.855-.39V9.65c-.811.269-1.518.403-2.137.403-1.164 0-2.048-.309-2.652-.927-.575-.577-.855-1.383-.855-2.417 0-.914.295-1.666.87-2.243.59-.591 1.355-.873 2.298-.873Zm1.665 2.632c0-.483-.147-.886-.442-1.209-.309-.335-.722-.497-1.237-.497-.56 0-1.002.189-1.341.551-.266.31-.428.699-.486 1.155h3.506Zm8.974 3.667h-1.194v-.873h-.029c-.486.672-1.253 1.02-2.299 1.02-.958 0-1.694-.348-2.225-1.033-.456-.605-.692-1.37-.692-2.297 0-.887.236-1.612.722-2.176.53-.631 1.252-.94 2.195-.94 1.046 0 1.798.336 2.24.994h.029V.839h1.238v9.053h.015Zm-1.709-1.531c.309-.43.471-.94.471-1.531 0-.632-.162-1.155-.486-1.599-.368-.483-.869-.725-1.503-.725-.634 0-1.105.242-1.444.725-.28.403-.427.927-.427 1.558 0 .578.147 1.088.427 1.532.339.537.825.805 1.444.805.634 0 1.149-.255 1.518-.765Zm5.348.188-1.119 2.955h-1.194l.84-2.955h1.473Zm8.576-4.956c1.989 0 2.977 1.155 2.977 3.478h-4.819c0 .591.221 1.088.678 1.478.427.376.943.577 1.547.577.369 0 .781-.08 1.238-.228.383-.12.663-.255.855-.39V9.65c-.811.269-1.518.403-2.137.403-1.164 0-2.048-.309-2.652-.927-.575-.577-.855-1.383-.855-2.417 0-.914.295-1.666.869-2.243.59-.591 1.356-.873 2.299-.873Zm1.665 2.632c0-.483-.147-.886-.442-1.209-.309-.335-.722-.497-1.238-.497-.56 0-1.002.189-1.341.551-.265.31-.427.699-.486 1.155h3.507Zm8.252 2.458c0 .564.014.967.059 1.209h-1.164V9.1h-.03c-.486.63-1.193.94-2.092.94-.767 0-1.356-.148-1.783-.457-.457-.336-.693-.82-.693-1.464 0-.698.369-1.236 1.091-1.598.574-.296 1.267-.443 2.062-.443.56 0 1.002.013 1.327.026 0-.55-.118-.953-.369-1.208-.265-.27-.692-.403-1.311-.403-.766 0-1.415.215-1.96.63l-.059-.966a4.568 4.568 0 0 1 2.225-.578c.943 0 1.65.215 2.092.645.428.416.634 1.048.634 1.907v2.552h-.029Zm-1.724-.027c.324-.295.486-.671.486-1.155v-.537c-.089 0-.221 0-.398-.013-.177-.014-.309-.014-.398-.014-1.562 0-2.357.39-2.357 1.182 0 .309.132.55.412.739.251.174.531.255.855.255.589.013 1.061-.148 1.4-.457Zm6.719-1.88c.501.336.751.779.751 1.343 0 .618-.236 1.101-.722 1.45-.442.31-.987.47-1.635.47-.767 0-1.385-.12-1.857-.335l.059-1.02a2.97 2.97 0 0 0 1.547.442c.339 0 .619-.067.855-.201.28-.148.427-.39.427-.685 0-.296-.25-.578-.751-.833-.472-.228-.943-.47-1.415-.698-.501-.336-.751-.739-.751-1.236 0-.618.235-1.088.692-1.424.427-.309.987-.47 1.695-.47.442 0 .957.08 1.547.242l-.103.994c-.133-.08-.354-.148-.649-.215a2.944 2.944 0 0 0-.663-.094c-.339 0-.619.067-.84.188-.235.134-.368.322-.368.564 0 .336.25.618.766.86.472.228.943.443 1.415.658Zm7.632-3.036-2.49 6.3c-.339.846-.619 1.41-.854 1.719-.442.55-1.017.833-1.739.833a4.66 4.66 0 0 1-.855-.094l.074-.927c.206.067.412.094.589.094.472 0 .855-.242 1.164-.712.221-.336.325-.618.325-.806 0-.04-.074-.255-.236-.658L138.64 3.74h1.37l1.813 5.104h.029l1.857-5.104h1.252Zm8.031-3.062c.221 0 .501.027.84.08l-.059.914c-.148-.054-.339-.067-.59-.067-.501 0-.839.148-1.016.443-.133.202-.192.55-.192 1.02v.672h1.798v.914h-1.798v5.251h-1.238V4.654h-1.591V3.74h1.591v-.577c0-.82.148-1.424.443-1.8.338-.457.957-.685 1.812-.685Zm3.566 1.679h-1.4V1.081h1.4v1.276Zm-.074 7.535h-1.252V3.727h1.252v6.165Zm8.252 0h-1.238V6.695c0-.752-.103-1.29-.31-1.625-.221-.362-.589-.55-1.119-.564-.678-.013-1.209.215-1.562.685-.339.443-.501 1.061-.501 1.854v2.847h-1.238V3.727h1.208v.98h.03c.191-.335.486-.617.884-.819a2.984 2.984 0 0 1 1.326-.309c1.694 0 2.534.887 2.534 2.646v3.667h-.014Zm3.61-7.535h-1.4V1.081h1.4v1.276Zm-.074 7.535h-1.253V3.727h1.253v6.165Zm5.172-3.116c.501.336.751.779.751 1.343 0 .618-.235 1.101-.722 1.45-.442.31-.987.47-1.635.47-.766 0-1.385-.12-1.857-.335l.059-1.02a2.97 2.97 0 0 0 1.547.442c.339 0 .619-.067.855-.201.28-.148.427-.39.427-.685 0-.296-.25-.578-.751-.833-.472-.228-.943-.47-1.415-.698-.501-.336-.751-.739-.751-1.236 0-.618.235-1.088.692-1.424.428-.309.987-.47 1.695-.47.442 0 .958.08 1.547.242l-.103.994c-.133-.08-.354-.148-.649-.215a2.944 2.944 0 0 0-.663-.094c-.339 0-.619.067-.84.188-.235.134-.368.322-.368.564 0 .336.251.618.766.86.472.228.943.443 1.415.658Zm8.251 3.116h-1.237V6.695c0-.752-.103-1.29-.31-1.625-.221-.362-.589-.55-1.12-.564-.677-.013-1.208.215-1.562.685-.338.443-.501 1.061-.501 1.854v2.847h-1.237V.826h1.237v3.788h.03c.471-.685 1.193-1.021 2.181-1.021 1.694 0 2.534.886 2.534 2.646v3.653h-.015Z" fill="#000"/></svg>