<svg width="183" height="14" fill="none" xmlns="http://www.w3.org/2000/svg"><path d="M7.603 11.515c1.135 0 2.034-.161 2.697-.47l.103 1.894c-1.105.242-2.034.349-2.8.349-2.077 0-3.698-.47-4.892-1.397-1.267-.98-1.886-2.39-1.886-4.23 0-1.908.604-3.399 1.813-4.46C3.83 2.167 5.48 1.643 7.603 1.643a8.26 8.26 0 0 1 2.785.47l-.177 1.907c-.766-.403-1.665-.604-2.681-.604-1.238 0-2.255.39-3.021 1.169-.737.765-1.12 1.732-1.12 2.9 0 1.183.368 2.136 1.12 2.862.78.779 1.812 1.168 3.094 1.168Zm4.42 1.585V1.012h2.373v4.916h.03c.662-.887 1.606-1.317 2.873-1.317 1.031 0 1.812.31 2.357.927.487.564.737 1.343.737 2.324V13.1h-2.372V8.668c0-.726-.06-1.25-.192-1.572-.22-.537-.678-.806-1.34-.806-.767 0-1.327.323-1.68.98-.266.484-.398 1.075-.398 1.774V13.1h-2.387Zm11.48-1.061c-.84-.793-1.253-1.8-1.253-3.036 0-1.343.456-2.417 1.37-3.223.884-.78 2.019-1.169 3.39-1.169 1.37 0 2.519.39 3.403 1.169.913.806 1.37 1.88 1.37 3.223 0 1.236-.427 2.243-1.267 3.036-.87.833-2.048 1.249-3.507 1.249-1.473 0-2.637-.416-3.507-1.25Zm1.782-4.997c-.383.457-.575 1.035-.575 1.706 0 1.92.767 2.875 2.284 2.875 1.533 0 2.299-.954 2.299-2.875 0-.685-.192-1.262-.575-1.706-.412-.51-.987-.752-1.724-.752-.722-.013-1.282.242-1.709.752Zm12.171-2.444c.855 0 1.62.094 2.299.282l-.221 1.706a4.195 4.195 0 0 0-1.606-.31c-.737 0-1.312.243-1.754.726-.442.484-.663 1.115-.663 1.907 0 .806.206 1.451.619 1.934.427.524 1.046.78 1.842.78.56 0 1.164-.135 1.827-.39l.103 1.8c-.648.188-1.444.282-2.372.282-1.444 0-2.579-.416-3.375-1.25-.751-.778-1.12-1.826-1.12-3.142 0-1.25.384-2.27 1.135-3.05.81-.859 1.9-1.275 3.286-1.275Zm4.7 7.44c-.84-.792-1.252-1.799-1.252-3.035 0-1.343.457-2.417 1.37-3.223.884-.78 2.019-1.169 3.39-1.169 1.37 0 2.519.39 3.403 1.169.914.806 1.37 1.88 1.37 3.223 0 1.236-.427 2.243-1.267 3.036-.87.833-2.048 1.249-3.507 1.249-1.473 0-2.637-.416-3.507-1.25Zm1.783-4.996c-.383.457-.574 1.035-.574 1.706 0 1.92.766 2.875 2.284 2.875 1.532 0 2.298-.954 2.298-2.875 0-.685-.191-1.262-.574-1.706-.413-.51-.988-.752-1.724-.752-.722-.013-1.297.242-1.71.752Zm8.4 6.058V1.012h2.372V13.1h-2.373Zm8.148-6.917c-1.002 0-1.93.295-2.8.9l-.074-1.854a8.143 8.143 0 0 1 3.168-.631c1.385 0 2.387.282 3.006.833.619.55.929 1.437.929 2.673v1.06c0 .565.014 1.25.029 2.082.015.578.059 1.196.103 1.854h-2.092a21.106 21.106 0 0 1-.103-1.25h-.03c-.265.444-.663.807-1.208 1.062a3.512 3.512 0 0 1-1.606.376c-.855 0-1.592-.215-2.196-.645-.663-.456-.987-1.074-.987-1.826 0-1.115.516-1.908 1.547-2.364.722-.323 1.739-.484 3.05-.484h1.312c0-.658-.162-1.128-.501-1.397-.31-.268-.825-.39-1.547-.39Zm1.031 3.076c-1.753 0-2.638.483-2.638 1.437 0 .671.502 1.02 1.503 1.02.944 0 1.592-.402 1.945-1.195.148-.336.221-.752.221-1.249h-1.031v-.013Zm6.292 1.343V6.37H66.07V4.786h1.739V3.12l2.372-.698v2.35h2.107v1.585h-2.107v3.869c0 .913.368 1.37 1.12 1.37.457 0 .825-.08 1.076-.229l.073 1.706c-.5.134-1.075.202-1.753.202-.914 0-1.621-.242-2.122-.726-.516-.47-.766-1.114-.766-1.947Zm10.373 1.115c.914 0 1.93-.283 3.02-.847v1.76c-.869.443-1.915.658-3.123.658-1.503 0-2.682-.376-3.507-1.128-.825-.752-1.252-1.813-1.252-3.17 0-1.276.353-2.297 1.046-3.09.766-.859 1.812-1.289 3.168-1.289 1.591 0 2.74.47 3.433 1.41.604.807.899 2.002.899 3.6h-6.292c.059.658.31 1.169.781 1.545.486.362 1.09.55 1.827.55Zm-.486-5.534c-1.282 0-1.99.645-2.107 1.947h4.037c-.088-1.302-.737-1.947-1.93-1.947ZM91.12 13.1V3.63h-3.536V1.859h9.548V3.63h-3.536V13.1H91.12Zm7.412 0V4.8h2.107v1.893h.03c.058-.456.309-.9.766-1.33.516-.496 1.09-.752 1.738-.752.31 0 .56.027.722.068v2.175c-.221-.12-.574-.174-1.06-.174-.84 0-1.4.416-1.68 1.249-.162.47-.236 1.182-.236 2.136v3.048h-2.387V13.1Zm15.192-8.314v8.3h-2.24v-1.128h-.03c-.795.887-1.782 1.317-2.991 1.317-1.031 0-1.827-.31-2.357-.927-.501-.564-.737-1.343-.737-2.324V4.786h2.372v4.432c0 .726.059 1.25.192 1.572.221.55.678.82 1.341.82.766 0 1.326-.323 1.679-.981.266-.484.413-1.075.413-1.773V4.799h2.358v-.013Zm3.315 8.314V6.384h-1.754V4.8h1.754V3.644c0-.846.25-1.53.737-2.028.515-.524 1.237-.792 2.151-.792.589 0 1.164.053 1.724.174l-.192 1.787c-.368-.188-.707-.296-1.031-.296-.693 0-1.046.43-1.046 1.276V4.8h2.077v1.585h-2.077V13.1h-2.343Zm6.881 0V6.384h-1.753V4.8h1.753V3.644c0-.846.251-1.53.737-2.028.516-.524 1.238-.792 2.151-.792.59 0 1.164.053 1.724.174l-.191 1.787c-.369-.188-.708-.296-1.032-.296-.692 0-1.046.43-1.046 1.276V4.8h2.078v1.585h-2.078V13.1h-2.343Zm6.056 0V1.012h2.372V13.1h-2.372Zm9.15-1.383c.914 0 1.931-.283 3.021-.847v1.76c-.869.443-1.915.658-3.124.658-1.503 0-2.681-.376-3.507-1.128-.825-.752-1.252-1.813-1.252-3.17 0-1.276.354-2.297 1.046-3.09.766-.859 1.813-1.289 3.168-1.289 1.591 0 2.741.47 3.433 1.41.605.807.899 2.002.899 3.6h-6.292c.059.658.31 1.169.781 1.545.472.362 1.076.55 1.827.55Zm-.5-5.534c-1.282 0-1.99.645-2.108 1.947h4.038c-.089-1.302-.737-1.947-1.93-1.947Zm10.962 6.917V1.844h3.139c3.433 0 5.142 1.142 5.142 3.412 0 1.236-.457 2.163-1.385 2.767-.81.537-1.945.806-3.374.806h-1.046V13.1h-2.476Zm2.476-9.483v3.425h.869c1.577 0 2.358-.564 2.358-1.678 0-1.169-.781-1.76-2.358-1.76h-.869v.013Zm8.03 8.422c-.84-.793-1.252-1.8-1.252-3.036 0-1.343.456-2.417 1.37-3.223.884-.78 2.019-1.169 3.389-1.169 1.37 0 2.52.39 3.404 1.169.913.806 1.37 1.88 1.37 3.223 0 1.236-.427 2.243-1.267 3.036-.869.833-2.048 1.249-3.507 1.249-1.473 0-2.637-.416-3.507-1.25Zm1.783-4.997c-.383.457-.575 1.035-.575 1.706 0 1.92.767 2.875 2.284 2.875 1.533 0 2.299-.954 2.299-2.875 0-.685-.192-1.262-.575-1.706-.412-.51-.987-.752-1.724-.752-.722-.013-1.282.242-1.709.752Zm8.399 6.058V4.8h2.107v1.893h.03c.058-.456.309-.9.766-1.33.515-.496 1.09-.752 1.738-.752.31 0 .56.027.722.068v2.175c-.221-.12-.574-.174-1.06-.174-.84 0-1.4.416-1.68 1.249-.162.47-.236 1.182-.236 2.136v3.048h-2.387V13.1Zm7.603-2.498V6.37h-1.739V4.786h1.739V3.12l2.372-.698v2.35h2.108v1.585h-2.108v3.869c0 .913.369 1.37 1.12 1.37.457 0 .825-.08 1.076-.229l.074 1.706c-.501.134-1.076.202-1.754.202-.913 0-1.621-.242-2.122-.726-.515-.47-.766-1.114-.766-1.947Z" fill="#000"/></svg>