<svg width="183" height="14" viewBox="0 0 183 14" fill="none" xmlns="http://www.w3.org/2000/svg">
<path d="M7.60319 11.5151C8.73777 11.5151 9.63662 11.3539 10.2997 11.045L10.4028 12.9388C9.29773 13.1806 8.3694 13.288 7.60319 13.288C5.52558 13.288 3.90482 12.8179 2.7113 11.8912C1.4441 10.9107 0.825195 9.50039 0.825195 7.66029C0.825195 5.75304 1.4293 4.26215 2.63755 3.20107C3.83108 2.16685 5.48137 1.64302 7.60319 1.64302C8.59042 1.64302 9.51874 1.80421 10.3881 2.11313L10.2113 4.02036C9.44508 3.61742 8.54624 3.41598 7.52953 3.41598C6.29181 3.41598 5.27512 3.80548 4.50891 4.5845C3.77217 5.35009 3.38904 6.31715 3.38904 7.48568C3.38904 8.66764 3.75743 9.62127 4.50891 10.3466C5.28985 11.1256 6.32126 11.5151 7.60319 11.5151ZM12.0236 13.1V1.01175H14.396V5.92764H14.4254C15.0885 5.04116 16.0315 4.61135 17.2987 4.61135C18.3302 4.61135 19.1112 4.92027 19.6564 5.53811C20.1426 6.10223 20.3931 6.88127 20.3931 7.86176V13.1H18.0207V8.66765C18.0207 7.94235 17.9618 7.41851 17.8292 7.09616C17.6082 6.5589 17.1514 6.29027 16.4883 6.29027C15.7221 6.29027 15.1622 6.61264 14.8086 7.27077C14.5433 7.7543 14.4108 8.34529 14.4108 9.04372V13.1H12.0236ZM23.5021 12.0389C22.6623 11.2464 22.2496 10.2391 22.2496 9.00343C22.2496 7.66029 22.7065 6.58575 23.6201 5.77987C24.5041 5.00085 25.6387 4.61135 27.0091 4.61135C28.3794 4.61135 29.5287 5.00085 30.4128 5.77987C31.3264 6.58575 31.7831 7.66029 31.7831 9.00343C31.7831 10.2391 31.3558 11.2464 30.516 12.0389C29.6466 12.8716 28.4678 13.288 27.0091 13.288C25.5356 13.288 24.3715 12.8716 23.5021 12.0389ZM25.285 7.04242C24.9019 7.49909 24.7104 8.07666 24.7104 8.74823C24.7104 10.6689 25.4766 11.6225 26.9943 11.6225C28.5267 11.6225 29.2929 10.6689 29.2929 8.74823C29.2929 8.06323 29.1014 7.48566 28.7183 7.04242C28.3057 6.53203 27.731 6.29027 26.9943 6.29027C26.2723 6.27684 25.7123 6.53203 25.285 7.04242ZM37.456 4.59794C38.3106 4.59794 39.0768 4.69195 39.7546 4.87999L39.5337 6.58576C39.0474 6.38429 38.5022 6.27686 37.9275 6.27686C37.1908 6.27686 36.6161 6.5186 36.1741 7.00213C35.732 7.48566 35.511 8.11695 35.511 8.9094C35.511 9.71528 35.7174 10.36 36.1299 10.8435C36.5572 11.3673 37.1761 11.6225 37.9718 11.6225C38.5317 11.6225 39.1358 11.4882 39.7989 11.233L39.902 13.0328C39.2537 13.2209 38.458 13.3149 37.5297 13.3149C36.0856 13.3149 34.9511 12.8985 34.1554 12.0658C33.4039 11.2868 33.0356 10.2391 33.0356 8.92285C33.0356 7.67373 33.4187 6.65292 34.1702 5.8739C34.9806 5.01429 36.0709 4.59794 37.456 4.59794ZM42.1564 12.0389C41.3165 11.2464 40.904 10.2391 40.904 9.00343C40.904 7.66029 41.3608 6.58575 42.2743 5.77987C43.1584 5.00085 44.293 4.61135 45.6633 4.61135C47.0337 4.61135 48.183 5.00085 49.0671 5.77987C49.9806 6.58575 50.4374 7.66029 50.4374 9.00343C50.4374 10.2391 50.0101 11.2464 49.1702 12.0389C48.3009 12.8716 47.1221 13.288 45.6633 13.288C44.1898 13.288 43.0258 12.8716 42.1564 12.0389ZM43.9394 7.04242C43.5563 7.49909 43.3647 8.07666 43.3647 8.74823C43.3647 10.6689 44.1309 11.6225 45.6486 11.6225C47.181 11.6225 47.9472 10.6689 47.9472 8.74823C47.9472 8.06323 47.7557 7.48566 47.3726 7.04242C46.96 6.53203 46.3853 6.29027 45.6486 6.29027C44.9266 6.27684 44.352 6.53203 43.9394 7.04242ZM52.3383 13.1V1.01175H54.7105V13.1H52.3383ZM60.4866 6.18284C59.4846 6.18284 58.5564 6.4783 57.687 7.08271L57.6133 5.22922C58.6152 4.81285 59.6614 4.59794 60.7813 4.59794C62.1664 4.59794 63.1683 4.88 63.7872 5.43068C64.406 5.98137 64.7155 6.86783 64.7155 8.10351V9.1646C64.7155 9.72872 64.7302 10.4137 64.745 11.2464C64.7597 11.824 64.8039 12.4418 64.8481 13.1H62.7558C62.7411 12.9925 62.6969 12.5762 62.6527 11.8509H62.6232C62.3579 12.2941 61.9601 12.6568 61.4149 12.912C60.9139 13.1672 60.3688 13.288 59.8088 13.288C58.9542 13.288 58.2174 13.0731 57.6133 12.6433C56.9502 12.1867 56.6261 11.5688 56.6261 10.8166C56.6261 9.70183 57.1418 8.90941 58.1732 8.45274C58.8952 8.13039 59.9119 7.96919 61.2233 7.96919H62.5347C62.5347 7.31105 62.3726 6.84098 62.0337 6.57236C61.7243 6.30373 61.2086 6.18284 60.4866 6.18284ZM61.518 9.25863C59.7646 9.25863 58.8805 9.74213 58.8805 10.6958C58.8805 11.3673 59.3815 11.7166 60.3834 11.7166C61.3265 11.7166 61.9748 11.3136 62.3284 10.5211C62.4758 10.1854 62.5495 9.769 62.5495 9.27203H61.518V9.25863ZM67.8099 10.6018V6.37085H66.0712V4.78596H67.8099V3.12048L70.1821 2.42203V4.77252H72.2892V6.35745H70.1821V10.2257C70.1821 11.139 70.5505 11.5957 71.302 11.5957C71.7588 11.5957 72.1271 11.5151 72.3776 11.3673L72.4513 13.0731C71.9503 13.2074 71.3756 13.2746 70.6978 13.2746C69.7843 13.2746 69.077 13.0328 68.576 12.5493C68.0603 12.0792 67.8099 11.4345 67.8099 10.6018ZM78.1832 11.7166C79.0967 11.7166 80.1134 11.4345 81.2038 10.8704V12.6299C80.3344 13.0731 79.2883 13.288 78.08 13.288C76.577 13.288 75.3982 12.9119 74.5731 12.1598C73.7479 11.4076 73.3207 10.3466 73.3207 8.98999C73.3207 7.71401 73.6742 6.69324 74.3668 5.90079C75.133 5.04118 76.1792 4.61135 77.5348 4.61135C79.1262 4.61135 80.2755 5.08147 80.9681 6.02167C81.5722 6.82755 81.8669 8.02293 81.8669 9.62126H75.5751C75.634 10.2794 75.8845 10.7898 76.356 11.1659C76.8423 11.5285 77.4464 11.7166 78.1832 11.7166ZM77.6969 6.18284C76.4149 6.18284 75.7077 6.82752 75.5898 8.13036H79.6271C79.5387 6.82752 78.8904 6.18284 77.6969 6.18284ZM91.1204 13.1V3.63088H87.584V1.85793H97.1321V3.63088H93.5958V13.1H91.1204ZM98.532 13.1V4.79941H100.639V6.69323H100.669C100.727 6.23657 100.978 5.7933 101.435 5.3635C101.951 4.86654 102.525 4.61135 103.173 4.61135C103.483 4.61135 103.733 4.63823 103.895 4.67853V6.8544C103.674 6.73352 103.321 6.67979 102.835 6.67979C101.995 6.67979 101.435 7.09615 101.155 7.9289C100.993 8.39899 100.919 9.11085 100.919 10.0645V13.1134H98.532V13.1ZM113.724 4.78596V13.0865H111.484V11.9583H111.454C110.659 12.8448 109.672 13.2746 108.463 13.2746C107.432 13.2746 106.636 12.9657 106.106 12.3478C105.605 11.7837 105.369 11.0047 105.369 10.0242V4.78596H107.741V9.21834C107.741 9.94363 107.8 10.4674 107.933 10.7898C108.154 11.3405 108.611 11.6091 109.274 11.6091C110.04 11.6091 110.6 11.2868 110.953 10.6286C111.219 10.1451 111.366 9.5541 111.366 8.85567V4.79941H113.724V4.78596ZM117.039 13.1V6.3843H115.285V4.79941H117.039V3.64429C117.039 2.79811 117.289 2.11314 117.776 1.61618C118.291 1.09235 119.013 0.82373 119.927 0.82373C120.516 0.82373 121.091 0.877422 121.651 0.998304L121.459 2.7847C121.091 2.59666 120.752 2.48921 120.428 2.48921C119.735 2.48921 119.382 2.91899 119.382 3.76516V4.79941H121.459V6.3843H119.382V13.1H117.039ZM123.92 13.1V6.3843H122.167V4.79941H123.92V3.64429C123.92 2.79811 124.171 2.11314 124.657 1.61618C125.173 1.09235 125.895 0.82373 126.808 0.82373C127.398 0.82373 127.972 0.877422 128.532 0.998304L128.341 2.7847C127.972 2.59666 127.633 2.48921 127.309 2.48921C126.617 2.48921 126.263 2.91899 126.263 3.76516V4.79941H128.341V6.3843H126.263V13.1H123.92ZM129.976 13.1V1.01175H132.348V13.1H129.976ZM139.126 11.7166C140.04 11.7166 141.057 11.4345 142.147 10.8704V12.6299C141.278 13.0731 140.232 13.288 139.023 13.288C137.52 13.288 136.342 12.9119 135.516 12.1598C134.691 11.4076 134.264 10.3466 134.264 8.98999C134.264 7.71401 134.618 6.69324 135.31 5.90079C136.076 5.04118 137.123 4.61135 138.478 4.61135C140.069 4.61135 141.219 5.08147 141.911 6.02167C142.516 6.82755 142.81 8.02293 142.81 9.62126H136.518C136.577 10.2794 136.828 10.7898 137.299 11.1659C137.771 11.5285 138.375 11.7166 139.126 11.7166ZM138.626 6.18284C137.344 6.18284 136.636 6.82752 136.518 8.13036H140.556C140.467 6.82752 139.819 6.18284 138.626 6.18284ZM149.588 13.1V1.84449H152.727C156.16 1.84449 157.869 2.98617 157.869 5.25607C157.869 6.49175 157.412 7.41851 156.484 8.02293C155.674 8.56018 154.539 8.82882 153.11 8.82882H152.064V13.1H149.588ZM152.064 3.61744V7.04242H152.933C154.51 7.04242 155.291 6.4783 155.291 5.3635C155.291 4.19497 154.51 3.60399 152.933 3.60399H152.064V3.61744ZM160.094 12.0389C159.254 11.2464 158.842 10.2391 158.842 9.00343C158.842 7.66029 159.298 6.58575 160.212 5.77987C161.096 5.00085 162.231 4.61135 163.601 4.61135C164.971 4.61135 166.121 5.00085 167.005 5.77987C167.918 6.58575 168.375 7.66029 168.375 9.00343C168.375 10.2391 167.948 11.2464 167.108 12.0389C166.239 12.8716 165.06 13.288 163.601 13.288C162.128 13.288 160.964 12.8716 160.094 12.0389ZM161.877 7.04242C161.494 7.49909 161.302 8.07666 161.302 8.74823C161.302 10.6689 162.069 11.6225 163.586 11.6225C165.119 11.6225 165.885 10.6689 165.885 8.74823C165.885 8.06323 165.693 7.48566 165.31 7.04242C164.898 6.53203 164.323 6.29027 163.586 6.29027C162.864 6.27684 162.304 6.53203 161.877 7.04242ZM170.276 13.1V4.79941H172.383V6.69323H172.413C172.471 6.23657 172.722 5.7933 173.179 5.3635C173.694 4.86654 174.269 4.61135 174.917 4.61135C175.227 4.61135 175.477 4.63823 175.639 4.67853V6.8544C175.418 6.73352 175.065 6.67979 174.579 6.67979C173.739 6.67979 173.179 7.09615 172.899 7.9289C172.737 8.39899 172.663 9.11085 172.663 10.0645V13.1134H170.276V13.1ZM177.879 10.6018V6.37085H176.14V4.78596H177.879V3.12048L180.251 2.42203V4.77252H182.359V6.35745H180.251V10.2257C180.251 11.139 180.62 11.5957 181.371 11.5957C181.828 11.5957 182.196 11.5151 182.447 11.3673L182.521 13.0731C182.02 13.2074 181.445 13.2746 180.767 13.2746C179.854 13.2746 179.146 13.0328 178.645 12.5493C178.13 12.0792 177.879 11.4345 177.879 10.6018Z" fill="black"></path>
</svg>
