<svg width="162" height="13" fill="none" xmlns="http://www.w3.org/2000/svg"><path d="M9.416 9.523H7.972l-.943-2.122H2.505l-.943 2.122h-1.4l3.949-8.435h1.4l3.905 8.435ZM6.6 6.407 4.76 2.217l-1.827 4.19h3.67Zm9.755-2.257c.486.565.722 1.303.722 2.176 0 .927-.236 1.706-.693 2.297-.516.699-1.267 1.034-2.21 1.034-1.061 0-1.812-.335-2.255-.994h-.029v3.385h-1.238V3.345h1.194v.873h.03c.486-.672 1.252-1.021 2.298-1.021.928.013 1.65.322 2.18.953Zm-1.032 3.788c.28-.443.428-.954.428-1.531 0-.631-.148-1.155-.428-1.558-.324-.484-.81-.725-1.429-.725-.634 0-1.135.241-1.503.725-.339.43-.501.967-.501 1.598 0 .591.162 1.102.472 1.531.368.51.869.766 1.517.766.62 0 1.09-.269 1.444-.806ZM24.46 4.15c.486.565.722 1.303.722 2.176 0 .927-.236 1.706-.693 2.297-.515.699-1.267 1.034-2.21 1.034-1.06 0-1.812-.335-2.254-.994h-.03v3.385h-1.238V3.345h1.194v.873h.03c.486-.672 1.252-1.021 2.298-1.021.928.013 1.65.322 2.18.953Zm-1.032 3.788a2.81 2.81 0 0 0 .428-1.531c0-.631-.148-1.155-.428-1.558-.324-.484-.81-.725-1.429-.725-.633 0-1.134.241-1.503.725-.339.43-.5.967-.5 1.598 0 .591.161 1.102.47 1.531.37.51.87.766 1.518.766.62 0 1.09-.269 1.444-.806Zm4.834 1.585h-1.253V.457h1.253v9.066Zm4.995-6.313c1.989 0 2.976 1.155 2.976 3.479h-4.818c0 .591.22 1.088.678 1.477.427.377.943.578 1.547.578.368 0 .78-.08 1.237-.228.383-.121.663-.256.855-.39v1.142c-.81.268-1.518.403-2.136.403-1.165 0-2.049-.31-2.653-.927-.575-.578-.854-1.383-.854-2.418 0-.913.294-1.665.869-2.243.59-.59 1.355-.873 2.299-.873Zm1.665 2.633c0-.484-.148-.887-.442-1.209-.31-.336-.722-.497-1.238-.497-.56 0-1.002.188-1.341.55-.265.31-.427.7-.486 1.156h3.507Zm9.563.564c.5.336.751.779.751 1.343 0 .618-.236 1.101-.722 1.45-.442.31-.987.47-1.636.47-.766 0-1.385-.12-1.856-.335l.059-1.02a2.969 2.969 0 0 0 1.547.442c.339 0 .619-.067.855-.201.28-.148.427-.39.427-.685 0-.296-.25-.578-.752-.833-.471-.228-.943-.47-1.414-.698-.501-.336-.752-.739-.752-1.236 0-.618.236-1.088.693-1.424.427-.309.987-.47 1.694-.47.443 0 .958.08 1.548.242l-.104.994c-.132-.08-.353-.148-.648-.215a2.944 2.944 0 0 0-.663-.094c-.339 0-.619.067-.84.188-.236.134-.368.322-.368.564 0 .336.25.618.766.86.471.215.943.43 1.414.658Zm5.967 3.09c-.427.107-.78.174-1.06.174-1.386 0-2.078-.605-2.078-1.8v-3.6H45.78v-.913h1.533V1.934l1.237-.362v1.8h1.798v.913h-1.798v3.371c0 .336.103.618.31.82.191.187.442.281.736.281.325 0 .605-.067.855-.214v.953Zm6.734-1.183c0 .564.015.967.059 1.209H56.08v-.792h-.03c-.486.63-1.193.94-2.092.94-.766 0-1.356-.148-1.783-.457-.457-.336-.692-.82-.692-1.464 0-.698.368-1.236 1.09-1.598.575-.296 1.267-.444 2.063-.444.56 0 1.002.014 1.326.027 0-.55-.118-.953-.368-1.208-.266-.27-.693-.403-1.312-.403-.766 0-1.414.214-1.96.63l-.059-.966a4.568 4.568 0 0 1 2.225-.578c.944 0 1.65.215 2.093.645.427.416.633 1.048.633 1.907v2.552h-.029Zm-1.724-.04c.324-.296.486-.672.486-1.155v-.537c-.088 0-.22 0-.398-.014-.176-.013-.309-.013-.397-.013-1.562 0-2.358.39-2.358 1.182 0 .309.133.55.413.738.25.175.53.256.854.256.59.013 1.061-.135 1.4-.457Zm7.618-3.962a2.113 2.113 0 0 0-.693-.108c-.56 0-1.002.229-1.34.685-.34.457-.502 1.061-.502 1.84v2.807h-1.237V3.371h1.164v.954h.03c.161-.322.412-.59.736-.792a1.917 1.917 0 0 1 1.032-.31c.235 0 .515.028.825.081v1.008h-.015Zm5.069 5.184c-.428.108-.781.175-1.061.175-1.385 0-2.078-.605-2.078-1.8v-3.6h-1.532v-.913h1.532V1.934l1.238-.362v1.8h1.798v.913h-1.798v3.371c0 .336.103.618.31.82.19.187.441.281.736.281.324 0 .604-.067.855-.214v.953Zm2.976-1.33-1.12 2.955h-1.193l.84-2.955h1.473Zm15.678-4.808-2.166 6.165h-1.444l-1.754-5.171h-.029L79.7 9.523h-1.443L76.09 3.358h1.37l1.547 5.104h.03l1.724-5.104h1.473l1.695 5.104h.03l1.65-5.104h1.193Zm7.205 6.165h-1.237V6.326c0-.752-.103-1.29-.31-1.625-.22-.363-.59-.55-1.12-.564-.677-.013-1.208.215-1.561.685-.34.443-.502 1.061-.502 1.854v2.847h-1.237V.457h1.237v3.787h.03c.471-.685 1.193-1.02 2.18-1.02 1.695 0 2.535.886 2.535 2.646v3.653h-.015Zm3.61-7.548h-1.4V.699h1.4v1.276Zm-.073 7.548h-1.253V3.358h1.253v6.165Zm5.157-3.116c.501.336.751.779.751 1.343 0 .618-.235 1.101-.722 1.45-.442.31-.987.47-1.635.47-.766 0-1.385-.12-1.857-.335l.06-1.02a2.969 2.969 0 0 0 1.546.442c.339 0 .619-.067.855-.201.28-.148.427-.39.427-.685 0-.296-.25-.578-.751-.833-.472-.228-.943-.47-1.415-.698-.5-.336-.751-.739-.751-1.236 0-.618.236-1.088.692-1.424.428-.309.988-.47 1.695-.47.442 0 .958.08 1.547.242l-.103.994c-.133-.08-.354-.148-.649-.215a2.93 2.93 0 0 0-.663-.094c-.338 0-.618.067-.839.188-.236.134-.369.322-.369.564 0 .336.251.618.766.86.487.215.943.43 1.415.658Zm8.34 3.116h-1.798l-3.02-3.17v3.17h-1.238V.457h1.238v5.4l2.726-2.499h1.694l-3.139 2.727 3.537 3.438Zm4.022-6.313c1.99 0 2.977 1.155 2.977 3.479h-4.818c0 .591.221 1.088.677 1.477.428.377.943.578 1.548.578.368 0 .781-.08 1.237-.228.383-.121.663-.256.855-.39v1.142c-.811.268-1.518.403-2.137.403-1.164 0-2.048-.31-2.652-.927-.575-.578-.855-1.383-.855-2.418 0-.913.295-1.665.87-2.243.589-.59 1.355-.873 2.298-.873Zm1.665 2.633c0-.484-.147-.887-.442-1.209-.309-.336-.722-.497-1.237-.497-.56 0-1.002.188-1.341.55-.265.31-.427.7-.486 1.156h3.506Zm8.355-2.485-2.49 6.3c-.339.846-.619 1.41-.855 1.719-.442.55-1.016.832-1.738.832a4.66 4.66 0 0 1-.855-.094l.074-.927c.206.068.412.095.589.095.472 0 .855-.242 1.164-.712.221-.336.324-.618.324-.806 0-.04-.073-.255-.235-.658l-2.299-5.749h1.37l1.813 5.104h.029l1.857-5.104h1.252Zm8.031-3.049c.221 0 .501.027.84.08l-.059.914c-.148-.054-.339-.067-.59-.067-.501 0-.84.148-1.017.443-.132.202-.191.55-.191 1.02v.672h1.798v.914h-1.798v5.251h-1.238V4.285h-1.591V3.37h1.591v-.577c0-.82.148-1.424.442-1.8.339-.457.958-.685 1.813-.685Zm3.565 1.666h-1.399V.699h1.399v1.276Zm-.073 7.548h-1.253V3.358h1.253v6.165Zm8.251 0h-1.237V6.326c0-.752-.104-1.29-.31-1.625-.221-.363-.589-.55-1.12-.564-.677-.013-1.208.215-1.562.685-.338.443-.501 1.061-.501 1.854v2.847h-1.237V3.358h1.208v.98h.029c.192-.335.487-.617.885-.819a2.984 2.984 0 0 1 1.326-.309c1.694 0 2.534.887 2.534 2.646v3.667h-.015Zm3.61-7.548h-1.399V.699h1.399v1.276Zm-.073 7.548h-1.253V3.358h1.253v6.165Zm5.172-3.116c.501.336.751.779.751 1.343 0 .618-.236 1.101-.722 1.45-.442.31-.987.47-1.635.47-.767 0-1.386-.12-1.857-.335l.059-1.02a2.97 2.97 0 0 0 1.547.442c.339 0 .619-.067.855-.201.28-.148.427-.39.427-.685 0-.296-.251-.578-.752-.833-.471-.228-.943-.47-1.414-.698-.501-.336-.752-.739-.752-1.236 0-.618.236-1.088.693-1.424.427-.309.987-.47 1.695-.47.442 0 .957.08 1.547.242l-.103.994c-.133-.08-.354-.148-.649-.215a2.944 2.944 0 0 0-.663-.094c-.339 0-.619.067-.84.188-.236.134-.368.322-.368.564 0 .336.25.618.766.86.472.215.943.43 1.415.658Zm8.251 3.116h-1.238V6.326c0-.752-.103-1.29-.309-1.625-.221-.363-.589-.55-1.12-.564-.678-.013-1.208.215-1.562.685-.339.443-.501 1.061-.501 1.854v2.847h-1.237V.457h1.237v3.787h.03c.471-.685 1.193-1.02 2.18-1.02 1.695 0 2.535.886 2.535 2.646v3.653h-.015Z" fill="#000"/></svg>