<svg width="248" height="12" viewBox="0 0 248 12" fill="none" xmlns="http://www.w3.org/2000/svg">
<path d="M5.02666 1.89038H1.43136V4.36176H4.86458V5.42284H1.43136V9.26422H0.105225V0.829315H5.02666V1.89038ZM12.6741 9.26422H11.4658V8.28372H11.4363C11.2595 8.63294 10.9648 8.90156 10.5522 9.10303C10.1397 9.30451 9.69761 9.41196 9.2261 9.41196C7.53159 9.41196 6.6917 8.52549 6.6917 6.76598V3.11264H7.92943V6.29588C7.92943 7.04804 8.03257 7.58529 8.23886 7.92108C8.45988 8.29716 8.82826 8.4852 9.35871 8.49863C10.0365 8.51206 10.5522 8.28372 10.9059 7.80019C11.2448 7.35696 11.4069 6.73912 11.4069 5.9601V3.11264H12.6446V9.26422H12.6741ZM16.1957 9.26422H14.9432V0.198039H16.1957V9.26422ZM19.8941 9.26422H18.6417V0.198039H19.8941V9.26422ZM31.5641 3.89167C32.0504 4.45578 32.2861 5.1945 32.2861 6.06754C32.2861 6.99431 32.0504 7.77333 31.5936 8.36431C31.0779 9.06274 30.3264 9.39853 29.3834 9.39853C28.3372 9.39853 27.5562 9.06274 27.07 8.37774H27.0405V9.25078H25.847V0.184605H27.0847V3.93196H27.1142C27.5562 3.27382 28.3077 2.93804 29.3539 2.93804C30.2969 2.95147 31.0337 3.26039 31.5641 3.89167ZM30.5327 7.67931C30.8127 7.23608 30.96 6.72569 30.96 6.14814C30.96 5.51686 30.8127 4.99303 30.5327 4.59009C30.2085 4.10656 29.7223 3.8648 29.1034 3.8648C28.4698 3.8648 27.9688 4.10656 27.6005 4.59009C27.2616 5.0199 27.0995 5.55716 27.0995 6.18843C27.0995 6.77941 27.2615 7.2898 27.571 7.71961C27.9394 8.23 28.4403 8.48519 29.0887 8.48519C29.7075 8.48519 30.1791 8.21657 30.5327 7.67931ZM40.3903 6.175C40.3903 7.0749 40.0661 7.82706 39.4325 8.4449C38.7842 9.07618 37.959 9.39853 36.9571 9.39853C35.9551 9.39853 35.1152 9.07618 34.4669 8.4449C33.8333 7.82706 33.5091 7.0749 33.5091 6.175C33.5091 5.2348 33.8333 4.45579 34.4669 3.85137C35.1005 3.24696 35.9404 2.95146 36.9571 2.95146C37.9738 2.95146 38.7989 3.24696 39.4325 3.85137C40.0661 4.45579 40.3903 5.2348 40.3903 6.175ZM38.5484 7.74646C38.8873 7.31666 39.0494 6.79284 39.0494 6.18843C39.0494 5.57059 38.8579 5.03333 38.4895 4.59009C38.0917 4.12 37.5759 3.87823 36.9423 3.87823C36.294 3.87823 35.7783 4.12 35.3805 4.59009C35.0121 5.03333 34.8205 5.55716 34.8205 6.18843C34.8205 6.80627 34.9973 7.33009 35.3362 7.74646C35.7194 8.24342 36.2645 8.48519 36.9423 8.48519C37.6349 8.48519 38.1653 8.24342 38.5484 7.74646ZM48.0377 9.26422H46.8442V8.39117H46.8147C46.3284 9.06274 45.5622 9.41196 44.5161 9.41196C43.5583 9.41196 42.8216 9.06274 42.2911 8.37774C41.8343 7.77333 41.5986 7.00774 41.5986 6.08098C41.5986 5.19451 41.8343 4.46921 42.3206 3.90509C42.851 3.27382 43.573 2.9649 44.5161 2.9649C45.5622 2.9649 46.3137 3.30068 46.7558 3.95882H46.7852V0.211463H48.023V9.26422H48.0377ZM46.3284 7.71961C46.6379 7.2898 46.8 6.77941 46.8 6.18843C46.8 5.55716 46.6379 5.03333 46.3137 4.59009C45.9453 4.10656 45.4444 3.8648 44.8108 3.8648C44.1772 3.8648 43.7056 4.10656 43.3667 4.59009C43.0868 4.99303 42.9394 5.51686 42.9394 6.14814C42.9394 6.72569 43.0868 7.23608 43.3667 7.67931C43.7056 8.21657 44.1919 8.48519 44.8108 8.48519C45.4591 8.48519 45.9601 8.23 46.3284 7.71961ZM51.6477 1.71578H50.2479V0.439804H51.6477V1.71578ZM51.5741 9.26422H50.3216V3.09921H51.5741V9.26422ZM56.5692 2.95146C58.5584 2.95146 59.5456 4.10657 59.5456 6.43019H54.7273C54.7273 7.02118 54.9483 7.51813 55.4051 7.90764C55.8324 8.28372 56.3481 8.48519 56.9523 8.48519C57.3206 8.48519 57.7332 8.40461 58.19 8.25686C58.5731 8.13598 58.8531 8.00167 59.0446 7.86735V9.00902C58.2342 9.27764 57.5269 9.41196 56.9081 9.41196C55.744 9.41196 54.8599 9.10304 54.2558 8.48519C53.6811 7.90764 53.4012 7.10176 53.4012 6.06754C53.4012 5.15421 53.6959 4.40205 54.2705 3.82451C54.8599 3.23353 55.6261 2.95146 56.5692 2.95146ZM58.2342 5.58401C58.2342 5.10048 58.0869 4.69755 57.7922 4.3752C57.4827 4.03941 57.0702 3.87823 56.5544 3.87823C55.9945 3.87823 55.5525 4.06628 55.2136 4.42892C54.9483 4.73784 54.7862 5.12735 54.7273 5.58401H58.2342ZM67.193 9.26422H65.9995V8.39117H65.97C65.4837 9.06274 64.7175 9.41196 63.6714 9.41196C62.7136 9.41196 61.9769 9.06274 61.4464 8.37774C60.9896 7.77333 60.7539 7.00774 60.7539 6.08098C60.7539 5.19451 60.9896 4.46921 61.4759 3.90509C62.0063 3.27382 62.7283 2.9649 63.6714 2.9649C64.7175 2.9649 65.469 3.30068 65.9111 3.95882H65.9405V0.211463H67.1783V9.26422H67.193ZM65.4837 7.71961C65.7932 7.2898 65.9553 6.77941 65.9553 6.18843C65.9553 5.55716 65.7932 5.03333 65.469 4.59009C65.1006 4.10656 64.5997 3.8648 63.9661 3.8648C63.3325 3.8648 62.8609 4.10656 62.522 4.59009C62.2421 4.99303 62.0947 5.51686 62.0947 6.14814C62.0947 6.72569 62.2421 7.23608 62.522 7.67931C62.8609 8.21657 63.3472 8.48519 63.9661 8.48519C64.6144 8.48519 65.1301 8.23 65.4837 7.71961ZM70.8472 7.90764L69.7274 10.8625H68.5339L69.3737 7.90764H70.8472ZM78.0968 9.26422H76.8443V0.198039H78.0968V9.26422ZM81.8689 1.71578H80.4691V0.439804H81.8689V1.71578ZM81.7952 9.26422H80.5428V3.09921H81.7952V9.26422ZM90.0467 8.99558C90.0467 10.9566 88.8827 11.9505 86.5693 11.9505C85.862 11.9505 85.0516 11.8027 84.1381 11.5207L84.2707 10.473C85.1548 10.8491 85.9652 11.0237 86.7019 11.0237C87.365 11.0237 87.866 10.8357 88.2491 10.4596C88.6175 10.0835 88.809 9.5597 88.809 8.915V8.31059H88.7795C88.2491 8.94186 87.4976 9.26422 86.5104 9.26422C85.5821 9.26422 84.8601 8.95529 84.3296 8.33745C83.8434 7.78676 83.6076 7.0749 83.6076 6.22872C83.6076 5.35568 83.8581 4.61695 84.3591 3.99911C84.919 3.30068 85.6852 2.95146 86.643 2.95146C87.7334 2.95146 88.4701 3.30068 88.868 4.01254H88.8974V3.09921H90.0467V8.99558ZM88.2491 7.71961C88.6175 7.31666 88.7943 6.83314 88.7943 6.24216C88.7943 5.55716 88.6322 5.00646 88.308 4.57666C87.9544 4.10656 87.4534 3.8648 86.8198 3.8648C86.2304 3.8648 85.7589 4.12 85.4053 4.61696C85.0958 5.0602 84.9337 5.57058 84.9337 6.16156C84.9337 6.76597 85.0958 7.27637 85.4347 7.67931C85.7884 8.10912 86.2451 8.32401 86.8198 8.32401C87.4092 8.33744 87.8807 8.13598 88.2491 7.71961ZM98.1509 9.26422H96.9132V6.06754C96.9132 5.31539 96.81 4.77813 96.6037 4.44235C96.3827 4.0797 96.0144 3.89166 95.4839 3.87823C94.8061 3.8648 94.2756 4.09314 93.922 4.56323C93.5831 5.00647 93.421 5.62431 93.421 6.41676V9.26422H92.1833V0.198039H93.421V3.98569H93.4505C93.922 3.30069 94.644 2.9649 95.6312 2.9649C97.3258 2.9649 98.1656 3.85137 98.1656 5.61088V9.26422H98.1509ZM103.971 9.23735C103.544 9.3448 103.19 9.41196 102.91 9.41196C101.525 9.41196 100.833 8.80754 100.833 7.61215V4.01254H99.3002V3.09921H100.833V1.67549L102.07 1.31283V3.11264H103.868V4.02598H102.07V7.39726C102.07 7.73304 102.174 8.0151 102.38 8.21657C102.571 8.40461 102.822 8.49863 103.117 8.49863C103.441 8.49863 103.721 8.43147 103.971 8.28372V9.23735ZM106.844 9.26422H105.592V0.198039H106.844V9.26422ZM114.477 3.09921L111.987 9.39853C111.648 10.2447 111.368 10.8088 111.132 11.1177C110.69 11.6684 110.116 11.9505 109.394 11.9505C109.173 11.9505 108.893 11.9236 108.539 11.8565L108.613 10.9297C108.819 10.9969 109.025 11.0237 109.202 11.0237C109.674 11.0237 110.057 10.782 110.366 10.3119C110.587 9.97608 110.69 9.69402 110.69 9.50598C110.69 9.46569 110.617 9.25078 110.455 8.84784L108.156 3.09921H109.511L111.324 8.20314H111.353L113.21 3.09921H114.477ZM125.867 6.175C125.867 7.0749 125.543 7.82706 124.909 8.4449C124.261 9.07618 123.436 9.39853 122.434 9.39853C121.432 9.39853 120.592 9.07618 119.944 8.4449C119.31 7.82706 118.986 7.0749 118.986 6.175C118.986 5.2348 119.31 4.45579 119.944 3.85137C120.577 3.24696 121.417 2.95146 122.434 2.95146C123.451 2.95146 124.276 3.24696 124.909 3.85137C125.558 4.45579 125.867 5.2348 125.867 6.175ZM124.04 7.74646C124.379 7.31666 124.541 6.79284 124.541 6.18843C124.541 5.57059 124.349 5.03333 123.981 4.59009C123.583 4.12 123.068 3.87823 122.434 3.87823C121.786 3.87823 121.27 4.12 120.872 4.59009C120.504 5.03333 120.312 5.55716 120.312 6.18843C120.312 6.80627 120.489 7.33009 120.828 7.74646C121.211 8.24342 121.756 8.48519 122.434 8.48519C123.112 8.48519 123.642 8.24342 124.04 7.74646ZM132.807 8.05539C132.807 8.61951 132.822 9.02245 132.866 9.26422H131.702V8.47176H131.673C131.186 9.10303 130.479 9.41196 129.58 9.41196C128.814 9.41196 128.225 9.26421 127.797 8.95529C127.341 8.6195 127.105 8.13598 127.105 7.49127C127.105 6.79284 127.473 6.25559 128.195 5.89294C128.77 5.59745 129.462 5.4497 130.258 5.4497C130.818 5.4497 131.26 5.46314 131.584 5.47657C131.584 4.92588 131.466 4.52294 131.216 4.26774C130.951 3.99912 130.523 3.8648 129.904 3.8648C129.138 3.8648 128.49 4.0797 127.945 4.49607L127.886 3.52901C128.593 3.1395 129.345 2.95146 130.111 2.95146C131.054 2.95146 131.761 3.16637 132.203 3.59617C132.63 4.01255 132.837 4.64382 132.837 5.50343V8.05539H132.807ZM131.083 8.0151C131.407 7.71961 131.57 7.34353 131.57 6.86V6.32274C131.481 6.32274 131.349 6.32274 131.172 6.30931C130.995 6.29588 130.862 6.29588 130.774 6.29588C129.212 6.29588 128.416 6.68539 128.416 7.47784C128.416 7.78676 128.549 8.02853 128.829 8.21657C129.079 8.39118 129.359 8.47176 129.683 8.47176C130.273 8.48519 130.744 8.33745 131.083 8.0151ZM140.97 9.26422H139.173L136.152 6.09441V9.26422H134.914V0.198039H136.152V5.59745L138.878 3.09921H140.573L137.434 5.82578L140.97 9.26422ZM145.008 2.95146C146.997 2.95146 147.984 4.10657 147.984 6.43019H143.166C143.166 7.02118 143.387 7.51813 143.844 7.90764C144.271 8.28372 144.787 8.48519 145.391 8.48519C145.759 8.48519 146.172 8.40461 146.629 8.25686C147.012 8.13598 147.292 8.00167 147.483 7.86735V9.00902C146.673 9.27764 145.965 9.41196 145.347 9.41196C144.183 9.41196 143.298 9.10304 142.694 8.48519C142.12 7.90764 141.84 7.10176 141.84 6.06754C141.84 5.15421 142.134 4.40205 142.709 3.82451C143.298 3.23353 144.065 2.95146 145.008 2.95146ZM146.673 5.58401C146.673 5.10048 146.525 4.69755 146.231 4.3752C145.921 4.03941 145.509 3.87823 144.993 3.87823C144.433 3.87823 143.991 4.06628 143.652 4.42892C143.387 4.73784 143.225 5.12735 143.166 5.58401H146.673ZM155.646 9.26422H154.453V8.39117H154.423C153.937 9.06274 153.171 9.41196 152.125 9.41196C151.167 9.41196 150.43 9.06274 149.9 8.37774C149.443 7.77333 149.207 7.00774 149.207 6.08098C149.207 5.19451 149.443 4.46921 149.929 3.90509C150.46 3.27382 151.182 2.9649 152.125 2.9649C153.171 2.9649 153.922 3.30068 154.364 3.95882H154.394V0.211463H155.632V9.26422H155.646ZM153.937 7.71961C154.246 7.2898 154.409 6.77941 154.409 6.18843C154.409 5.55716 154.246 5.03333 153.922 4.59009C153.554 4.10656 153.053 3.8648 152.419 3.8648C151.786 3.8648 151.314 4.10656 150.975 4.59009C150.695 4.99303 150.548 5.51686 150.548 6.14814C150.548 6.72569 150.695 7.23608 150.975 7.67931C151.314 8.21657 151.8 8.48519 152.419 8.48519C153.053 8.48519 153.569 8.23 153.937 7.71961ZM159.286 7.90764L158.166 10.8625H156.972L157.812 7.90764H159.286ZM168.024 6.14814C168.525 6.48392 168.775 6.92716 168.775 7.49127C168.775 8.10912 168.539 8.59264 168.053 8.94186C167.611 9.25078 167.066 9.41196 166.417 9.41196C165.651 9.41196 165.032 9.29108 164.561 9.07618L164.62 8.05539C165.106 8.35088 165.637 8.49863 166.167 8.49863C166.506 8.49863 166.786 8.43147 167.022 8.29716C167.302 8.14941 167.449 7.90764 167.449 7.61215C167.449 7.31666 167.198 7.03461 166.697 6.77941C166.226 6.55108 165.754 6.30931 165.283 6.08098C164.782 5.74519 164.531 5.34225 164.531 4.84529C164.531 4.22745 164.767 3.75735 165.224 3.42157C165.651 3.11265 166.211 2.95146 166.918 2.95146C167.361 2.95146 167.876 3.03205 168.466 3.19323L168.362 4.18716C168.23 4.10657 168.009 4.03941 167.714 3.97225C167.434 3.90509 167.213 3.87823 167.051 3.87823C166.712 3.87823 166.432 3.94539 166.211 4.06627C165.975 4.20058 165.843 4.38862 165.843 4.63039C165.843 4.96617 166.093 5.24823 166.609 5.48999C167.081 5.70489 167.552 5.9198 168.024 6.14814ZM179.988 9.26422H178.736V5.58401C178.736 4.44235 178.338 3.87823 177.528 3.87823C176.938 3.87823 176.481 4.12 176.157 4.59009C175.892 5.00647 175.745 5.53029 175.745 6.16156V9.26422H174.492V5.58401C174.492 4.44235 174.094 3.87823 173.284 3.87823C172.695 3.87823 172.238 4.12 171.914 4.59009C171.634 5.00647 171.501 5.53029 171.501 6.16156V9.26422H170.263V3.09921H171.427V3.98569H171.457C171.928 3.28725 172.636 2.95146 173.608 2.95146C174.551 2.95146 175.185 3.3544 175.538 4.14686C175.745 3.74391 176.084 3.435 176.526 3.2201C176.894 3.04549 177.262 2.95146 177.631 2.95146C179.193 2.95146 179.988 3.73048 179.988 5.30195V9.26422ZM188.52 6.175C188.52 7.0749 188.196 7.82706 187.562 8.4449C186.914 9.07618 186.088 9.39853 185.087 9.39853C184.085 9.39853 183.245 9.07618 182.596 8.4449C181.963 7.82706 181.639 7.0749 181.639 6.175C181.639 5.2348 181.963 4.45579 182.596 3.85137C183.23 3.24696 184.07 2.95146 185.087 2.95146C186.103 2.95146 186.928 3.24696 187.562 3.85137C188.196 4.45579 188.52 5.2348 188.52 6.175ZM186.678 7.74646C187.017 7.31666 187.179 6.79284 187.179 6.18843C187.179 5.57059 186.987 5.03333 186.619 4.59009C186.221 4.12 185.705 3.87823 185.072 3.87823C184.423 3.87823 183.908 4.12 183.51 4.59009C183.142 5.03333 182.95 5.55716 182.95 6.18843C182.95 6.80627 183.127 7.33009 183.466 7.74646C183.849 8.24342 184.394 8.48519 185.072 8.48519C185.764 8.48519 186.295 8.24342 186.678 7.74646ZM196.624 6.175C196.624 7.0749 196.3 7.82706 195.666 8.4449C195.018 9.07618 194.193 9.39853 193.191 9.39853C192.189 9.39853 191.349 9.07618 190.701 8.4449C190.067 7.82706 189.743 7.0749 189.743 6.175C189.743 5.2348 190.067 4.45579 190.701 3.85137C191.334 3.24696 192.174 2.95146 193.191 2.95146C194.207 2.95146 195.033 3.24696 195.666 3.85137C196.3 4.45579 196.624 5.2348 196.624 6.175ZM194.782 7.74646C195.121 7.31666 195.283 6.79284 195.283 6.18843C195.283 5.57059 195.091 5.03333 194.723 4.59009C194.325 4.12 193.81 3.87823 193.176 3.87823C192.528 3.87823 192.012 4.12 191.614 4.59009C191.246 5.03333 191.054 5.55716 191.054 6.18843C191.054 6.80627 191.231 7.33009 191.57 7.74646C191.953 8.24342 192.498 8.48519 193.176 8.48519C193.868 8.48519 194.399 8.24342 194.782 7.74646ZM201.987 9.23735C201.56 9.3448 201.206 9.41196 200.926 9.41196C199.541 9.41196 198.849 8.80754 198.849 7.61215V4.01254H197.316V3.09921H198.849V1.67549L200.087 1.31283V3.11264H201.884V4.02598H200.087V7.39726C200.087 7.73304 200.19 8.0151 200.396 8.21657C200.588 8.40461 200.838 8.49863 201.133 8.49863C201.457 8.49863 201.737 8.43147 201.987 8.28372V9.23735ZM209.428 9.26422H208.191V6.06754C208.191 5.31539 208.088 4.77813 207.881 4.44235C207.66 4.0797 207.292 3.89166 206.761 3.87823C206.084 3.8648 205.553 4.09314 205.2 4.56323C204.861 5.00647 204.699 5.62431 204.699 6.41676V9.26422H203.461V0.198039H204.699V3.98569H204.728C205.2 3.30069 205.922 2.9649 206.909 2.9649C208.603 2.9649 209.443 3.85137 209.443 5.61088V9.26422H209.428ZM218.314 0.050293C218.535 0.050293 218.815 0.0771524 219.153 0.130878L219.095 1.04421C218.947 0.990486 218.756 0.977051 218.505 0.977051C218.004 0.977051 217.665 1.1248 217.488 1.42029C217.356 1.62176 217.297 1.97098 217.297 2.44108V3.11264H219.095V4.02598H217.297V9.27764H216.059V4.01254H214.468V3.09921H216.059V2.52166C216.059 1.70235 216.207 1.09794 216.501 0.721862C216.84 0.278626 217.459 0.050293 218.314 0.050293ZM221.879 1.71578H220.48V0.439804H221.879V1.71578ZM221.806 9.26422H220.553V3.09921H221.806V9.26422ZM230.057 9.26422H228.82V6.06754C228.82 5.31539 228.716 4.77813 228.51 4.44235C228.289 4.0797 227.921 3.89166 227.39 3.87823C226.712 3.8648 226.182 4.09314 225.828 4.56323C225.489 5.00647 225.327 5.62431 225.327 6.41676V9.26422H224.09V3.09921H225.298V4.0797H225.327C225.519 3.74392 225.814 3.46186 226.211 3.26039C226.624 3.05892 227.066 2.95146 227.538 2.95146C229.232 2.95146 230.072 3.83794 230.072 5.59745V9.26422H230.057ZM233.667 1.71578H232.268V0.439804H233.667V1.71578ZM233.594 9.26422H232.341V3.09921H233.594V9.26422ZM238.766 6.14814C239.267 6.48392 239.517 6.92716 239.517 7.49127C239.517 8.10912 239.281 8.59264 238.795 8.94186C238.353 9.25078 237.808 9.41196 237.159 9.41196C236.393 9.41196 235.774 9.29108 235.303 9.07618L235.362 8.05539C235.848 8.35088 236.379 8.49863 236.909 8.49863C237.248 8.49863 237.528 8.43147 237.764 8.29716C238.044 8.14941 238.191 7.90764 238.191 7.61215C238.191 7.31666 237.94 7.03461 237.439 6.77941C236.968 6.55108 236.496 6.30931 236.025 6.08098C235.524 5.74519 235.273 5.34225 235.273 4.84529C235.273 4.22745 235.509 3.75735 235.966 3.42157C236.393 3.11265 236.953 2.95146 237.66 2.95146C238.103 2.95146 238.618 3.03205 239.208 3.19323L239.104 4.18716C238.972 4.10657 238.751 4.03941 238.456 3.97225C238.176 3.90509 237.955 3.87823 237.793 3.87823C237.454 3.87823 237.174 3.94539 236.953 4.06627C236.717 4.20058 236.585 4.38862 236.585 4.63039C236.585 4.96617 236.835 5.24823 237.351 5.48999C237.823 5.70489 238.294 5.9198 238.766 6.14814ZM247.017 9.26422H245.779V6.06754C245.779 5.31539 245.676 4.77813 245.47 4.44235C245.249 4.0797 244.881 3.89166 244.35 3.87823C243.672 3.8648 243.142 4.09314 242.788 4.56323C242.449 5.00647 242.287 5.62431 242.287 6.41676V9.26422H241.049V0.198039H242.287V3.98569H242.317C242.788 3.30069 243.51 2.9649 244.497 2.9649C246.192 2.9649 247.032 3.85137 247.032 5.61088V9.26422H247.017Z" fill="black"></path>
</svg>
