<svg width="38" height="51" fill="none" xmlns="http://www.w3.org/2000/svg"><path d="M19 0C8.496 0 0 8.199 0 18.336 0 29.259 11.997 44.32 16.937 50.057c1.086 1.257 3.067 1.257 4.153 0C26.003 44.321 38 29.259 38 18.336 38 8.199 29.504 0 19 0Zm0 24.884c-1.8 0-3.526-.69-4.798-1.918a6.434 6.434 0 0 1-1.988-4.63c0-1.737.715-3.402 1.988-4.63A6.912 6.912 0 0 1 19 11.786c1.8 0 3.526.69 4.798 1.918a6.434 6.434 0 0 1 1.988 4.63 6.434 6.434 0 0 1-1.988 4.631A6.912 6.912 0 0 1 19 24.884Z" fill="#fff"/></svg>