<svg width="248" height="12" fill="none" xmlns="http://www.w3.org/2000/svg"><path d="M5.027 1.89H1.43v2.472h3.434v1.06H1.43v3.842H.105V.83h4.922V1.89Zm7.647 7.374h-1.208v-.98h-.03c-.177.349-.471.618-.884.819a2.987 2.987 0 0 1-1.326.309c-1.694 0-2.534-.887-2.534-2.646V3.113h1.237v3.183c0 .752.104 1.29.31 1.625.22.376.59.564 1.12.578.678.013 1.193-.215 1.547-.699.339-.443.5-1.06.5-1.84V3.113h1.239v6.151h.03Zm3.522 0h-1.253V.198h1.253v9.066Zm3.698 0h-1.252V.198h1.252v9.066Zm11.67-5.372c.486.564.722 1.302.722 2.176 0 .926-.236 1.705-.692 2.296-.516.699-1.268 1.035-2.21 1.035-1.047 0-1.828-.336-2.314-1.021h-.03v.873h-1.193V.185h1.238v3.747h.03c.441-.658 1.193-.994 2.239-.994.943.013 1.68.322 2.21.954Zm-1.031 3.787a2.81 2.81 0 0 0 .427-1.53c0-.632-.147-1.156-.427-1.559-.325-.483-.81-.725-1.43-.725-.633 0-1.134.242-1.503.725-.338.43-.5.967-.5 1.598 0 .591.162 1.102.471 1.532.368.51.87.765 1.518.765.619 0 1.09-.268 1.444-.806Zm9.857-1.504c0 .9-.324 1.652-.958 2.27-.648.631-1.473.954-2.475.954s-1.842-.323-2.49-.954a3.048 3.048 0 0 1-.958-2.27c0-.94.324-1.72.958-2.324.633-.604 1.473-.9 2.49-.9 1.017 0 1.842.296 2.475.9.634.605.958 1.384.958 2.324Zm-1.842 1.571c.34-.43.501-.953.501-1.558 0-.617-.191-1.155-.56-1.598a1.938 1.938 0 0 0-1.547-.712c-.648 0-1.164.242-1.562.712-.368.443-.56.967-.56 1.598 0 .618.177 1.142.516 1.558.383.497.928.74 1.606.74.693 0 1.223-.243 1.606-.74Zm9.49 1.518h-1.194v-.873h-.03c-.486.672-1.252 1.021-2.298 1.021-.958 0-1.694-.35-2.225-1.034-.457-.605-.692-1.37-.692-2.297 0-.886.235-1.612.722-2.176.53-.631 1.252-.94 2.195-.94 1.046 0 1.798.336 2.24.994h.03V.21h1.237v9.053h.015Zm-1.71-1.544c.31-.43.472-.94.472-1.532 0-.63-.162-1.155-.486-1.598-.369-.483-.87-.725-1.503-.725-.634 0-1.105.242-1.444.725-.28.403-.428.927-.428 1.558 0 .578.148 1.088.428 1.531.339.538.825.806 1.444.806.648 0 1.15-.255 1.517-.765Zm5.32-6.004h-1.4V.44h1.4v1.276Zm-.074 7.548h-1.252V3.1h1.252v6.165Zm4.995-6.313c1.99 0 2.977 1.156 2.977 3.48h-4.819c0 .59.221 1.087.678 1.477.427.376.943.577 1.547.577.369 0 .781-.08 1.238-.228.383-.121.663-.255.855-.39V9.01c-.81.269-1.518.403-2.137.403-1.164 0-2.048-.309-2.652-.927-.575-.577-.855-1.383-.855-2.417 0-.914.295-1.666.87-2.243.589-.591 1.355-.874 2.298-.874Zm1.665 2.633c0-.484-.147-.886-.442-1.209-.31-.336-.722-.497-1.238-.497-.56 0-1.002.188-1.34.55-.266.31-.428.7-.487 1.156h3.507Zm8.959 3.68h-1.194v-.873h-.029c-.486.672-1.252 1.021-2.299 1.021-.957 0-1.694-.35-2.225-1.034-.456-.605-.692-1.37-.692-2.297 0-.886.236-1.612.722-2.176.53-.631 1.252-.94 2.195-.94 1.047 0 1.798.336 2.24.994h.03V.21h1.237v9.053h.015Zm-1.71-1.544c.31-.43.472-.94.472-1.532 0-.63-.162-1.155-.486-1.598-.368-.483-.87-.725-1.503-.725-.633 0-1.105.242-1.444.725-.28.403-.427.927-.427 1.558 0 .578.147 1.088.427 1.531.339.538.825.806 1.444.806.648 0 1.164-.255 1.518-.765Zm5.364.188-1.12 2.955h-1.193l.84-2.955h1.473Zm7.25 1.356h-1.253V.198h1.253v9.066Zm3.772-7.548h-1.4V.44h1.4v1.276Zm-.074 7.548h-1.252V3.1h1.252v6.165Zm8.252-.268c0 1.96-1.164 2.954-3.478 2.954-.707 0-1.517-.147-2.43-.43l.132-1.047c.884.376 1.694.55 2.43.55.664 0 1.165-.187 1.548-.563.369-.377.56-.9.56-1.545v-.604h-.03c-.53.63-1.281.953-2.269.953-.928 0-1.65-.309-2.18-.927-.487-.55-.722-1.262-.722-2.108 0-.873.25-1.612.751-2.23.56-.698 1.326-1.048 2.284-1.048 1.09 0 1.827.35 2.225 1.062h.03v-.914h1.149v5.897ZM88.249 7.72c.369-.403.545-.887.545-1.478 0-.685-.162-1.236-.486-1.665-.354-.47-.855-.712-1.488-.712-.59 0-1.061.255-1.415.752-.31.443-.471.954-.471 1.545 0 .604.162 1.114.5 1.517.354.43.811.645 1.386.645.59.013 1.06-.188 1.43-.604Zm9.902 1.544h-1.238V6.068c0-.753-.103-1.29-.31-1.626-.22-.362-.589-.55-1.12-.564-.677-.013-1.207.215-1.561.685-.339.443-.501 1.061-.501 1.854v2.847h-1.238V.198h1.238v3.788h.03c.471-.685 1.193-1.021 2.18-1.021 1.695 0 2.535.886 2.535 2.646v3.653h-.015Zm5.82-.027c-.427.108-.781.175-1.061.175-1.385 0-2.077-.604-2.077-1.8v-3.6H99.3V3.1h1.533V1.675l1.237-.362v1.8h1.798v.913h-1.798v3.371c0 .336.104.618.31.82.191.188.442.282.737.282.324 0 .604-.068.854-.215v.953Zm2.873.027h-1.252V.198h1.252v9.066Zm7.633-6.165-2.49 6.3c-.339.846-.619 1.41-.855 1.719-.442.55-1.016.832-1.738.832-.221 0-.501-.026-.855-.093l.074-.927c.206.067.412.094.589.094.472 0 .855-.242 1.164-.712.221-.336.324-.618.324-.806 0-.04-.073-.255-.235-.658l-2.299-5.749h1.355l1.813 5.104h.029L113.21 3.1h1.267Zm11.39 3.076c0 .9-.324 1.652-.958 2.27-.648.631-1.473.954-2.475.954s-1.842-.323-2.49-.954a3.047 3.047 0 0 1-.958-2.27c0-.94.324-1.72.958-2.324.633-.604 1.473-.9 2.49-.9 1.017 0 1.842.296 2.475.9.649.605.958 1.384.958 2.324Zm-1.827 1.571c.339-.43.501-.953.501-1.558 0-.617-.192-1.155-.56-1.598a1.937 1.937 0 0 0-1.547-.712c-.648 0-1.164.242-1.562.712-.368.443-.56.967-.56 1.598 0 .618.177 1.142.516 1.558.383.497.928.74 1.606.74s1.208-.243 1.606-.74Zm8.767.31c0 .564.015.966.059 1.208h-1.164v-.792h-.029c-.487.631-1.194.94-2.093.94-.766 0-1.355-.148-1.783-.457-.456-.335-.692-.819-.692-1.464 0-.698.368-1.235 1.09-1.598.575-.296 1.267-.443 2.063-.443.56 0 1.002.013 1.326.027 0-.551-.118-.954-.368-1.21-.265-.268-.693-.402-1.312-.402-.766 0-1.414.215-1.959.631l-.059-.967a4.568 4.568 0 0 1 2.225-.578c.943 0 1.65.215 2.092.645.427.417.634 1.048.634 1.907v2.552h-.03Zm-1.724-.04c.324-.296.487-.672.487-1.156v-.537c-.089 0-.221 0-.398-.014-.177-.013-.31-.013-.398-.013-1.562 0-2.358.39-2.358 1.182 0 .309.133.55.413.739.25.174.53.255.854.255.59.013 1.061-.135 1.4-.457Zm9.887 1.248h-1.797l-3.021-3.17v3.17h-1.238V.198h1.238v5.4l2.726-2.499h1.695l-3.139 2.727 3.536 3.438Zm4.038-6.313c1.989 0 2.976 1.156 2.976 3.48h-4.818c0 .59.221 1.087.678 1.477.427.376.943.577 1.547.577.368 0 .781-.08 1.238-.228.383-.121.663-.255.854-.39V9.01c-.81.269-1.518.403-2.136.403-1.164 0-2.049-.309-2.653-.927-.574-.577-.854-1.383-.854-2.417 0-.914.294-1.666.869-2.243.589-.591 1.356-.874 2.299-.874Zm1.665 2.633c0-.484-.148-.886-.442-1.209-.31-.336-.722-.497-1.238-.497-.56 0-1.002.188-1.341.55-.265.31-.427.7-.486 1.156h3.507Zm8.973 3.68h-1.193v-.873h-.03c-.486.672-1.252 1.021-2.298 1.021-.958 0-1.695-.35-2.225-1.034-.457-.605-.693-1.37-.693-2.297 0-.886.236-1.612.722-2.176.531-.631 1.253-.94 2.196-.94 1.046 0 1.797.336 2.239.994h.03V.21h1.238v9.053h.014Zm-1.709-1.544c.309-.43.472-.94.472-1.532 0-.63-.163-1.155-.487-1.598-.368-.483-.869-.725-1.503-.725-.633 0-1.105.242-1.444.725-.28.403-.427.927-.427 1.558 0 .578.147 1.088.427 1.531.339.538.825.806 1.444.806.634 0 1.15-.255 1.518-.765Zm5.349.188-1.12 2.955h-1.194l.84-2.955h1.474Zm8.738-1.76c.501.336.751.78.751 1.343 0 .618-.236 1.102-.722 1.45-.442.31-.987.471-1.636.471-.766 0-1.385-.12-1.856-.336l.059-1.02a2.97 2.97 0 0 0 1.547.443c.339 0 .619-.068.855-.202.28-.148.427-.39.427-.685 0-.295-.251-.577-.752-.833-.471-.228-.943-.47-1.414-.698-.501-.336-.752-.739-.752-1.236 0-.618.236-1.088.693-1.423.427-.31.987-.47 1.694-.47.443 0 .958.08 1.548.241l-.104.994c-.132-.08-.353-.148-.648-.215a2.944 2.944 0 0 0-.663-.094c-.339 0-.619.067-.84.188-.236.135-.368.323-.368.564 0 .336.25.618.766.86.472.215.943.43 1.415.658Zm11.964 3.116h-1.252v-3.68c0-1.142-.398-1.706-1.208-1.706-.59 0-1.047.242-1.371.712-.265.416-.412.94-.412 1.572v3.102h-1.253v-3.68c0-1.142-.398-1.706-1.208-1.706-.589 0-1.046.242-1.37.712-.28.416-.413.94-.413 1.572v3.102h-1.238V3.1h1.164v.887h.03c.471-.699 1.179-1.035 2.151-1.035.943 0 1.577.403 1.93 1.196.207-.403.546-.712.988-.927a2.567 2.567 0 0 1 1.105-.269c1.562 0 2.357.78 2.357 2.35v3.963Zm8.532-3.089c0 .9-.324 1.652-.958 2.27-.648.631-1.474.954-2.475.954-1.002 0-1.842-.323-2.491-.954a3.05 3.05 0 0 1-.957-2.27c0-.94.324-1.72.957-2.324.634-.604 1.474-.9 2.491-.9 1.016 0 1.841.296 2.475.9.634.605.958 1.384.958 2.324Zm-1.842 1.571c.339-.43.501-.953.501-1.558 0-.617-.192-1.155-.56-1.598a1.939 1.939 0 0 0-1.547-.712c-.649 0-1.164.242-1.562.712-.368.443-.56.967-.56 1.598 0 .618.177 1.142.516 1.558.383.497.928.74 1.606.74.692 0 1.223-.243 1.606-.74Zm9.946-1.571c0 .9-.324 1.652-.958 2.27-.648.631-1.473.954-2.475.954s-1.842-.323-2.49-.954a3.047 3.047 0 0 1-.958-2.27c0-.94.324-1.72.958-2.324.633-.604 1.473-.9 2.49-.9 1.016 0 1.842.296 2.475.9.634.605.958 1.384.958 2.324Zm-1.842 1.571c.339-.43.501-.953.501-1.558 0-.617-.192-1.155-.56-1.598a1.937 1.937 0 0 0-1.547-.712c-.648 0-1.164.242-1.562.712-.368.443-.56.967-.56 1.598 0 .618.177 1.142.516 1.558.383.497.928.74 1.606.74.692 0 1.223-.243 1.606-.74Zm7.205 1.491c-.427.108-.781.175-1.061.175-1.385 0-2.077-.604-2.077-1.8v-3.6h-1.533V3.1h1.533V1.675l1.238-.362v1.8h1.797v.913h-1.797v3.371c0 .336.103.618.309.82.192.188.442.282.737.282.324 0 .604-.068.854-.215v.953Zm7.441.027h-1.237V6.068c0-.753-.103-1.29-.31-1.626-.221-.362-.589-.55-1.12-.564-.677-.013-1.208.215-1.561.685-.339.443-.501 1.061-.501 1.854v2.847h-1.238V.198h1.238v3.788h.029c.472-.685 1.194-1.021 2.181-1.021 1.694 0 2.534.886 2.534 2.646v3.653h-.015ZM218.314.05c.221 0 .501.027.839.08l-.058.914c-.148-.054-.339-.067-.59-.067-.501 0-.84.148-1.017.443-.132.202-.191.551-.191 1.021v.672h1.798v.913h-1.798v5.252h-1.238V4.013h-1.591v-.914h1.591v-.577c0-.82.148-1.424.442-1.8.339-.443.958-.672 1.813-.672Zm3.565 1.666h-1.399V.44h1.399v1.276Zm-.073 7.548h-1.253V3.1h1.253v6.165Zm8.251 0h-1.237V6.068c0-.753-.104-1.29-.31-1.626-.221-.362-.589-.55-1.12-.564-.678-.013-1.208.215-1.562.685-.339.443-.501 1.061-.501 1.854v2.847h-1.237V3.1h1.208v.98h.029c.192-.335.487-.617.884-.819a2.991 2.991 0 0 1 1.327-.309c1.694 0 2.534.887 2.534 2.646v3.667h-.015Zm3.61-7.548h-1.399V.44h1.399v1.276Zm-.073 7.548h-1.253V3.1h1.253v6.165Zm5.172-3.116c.501.336.751.78.751 1.343 0 .618-.236 1.102-.722 1.45-.442.31-.987.471-1.636.471-.766 0-1.385-.12-1.856-.336l.059-1.02a2.97 2.97 0 0 0 1.547.443c.339 0 .619-.068.855-.202.28-.148.427-.39.427-.685 0-.295-.251-.577-.752-.833-.471-.228-.943-.47-1.414-.698-.501-.336-.752-.739-.752-1.236 0-.618.236-1.088.693-1.423.427-.31.987-.47 1.694-.47.443 0 .958.08 1.548.241l-.104.994c-.132-.08-.353-.148-.648-.215a2.944 2.944 0 0 0-.663-.094c-.339 0-.619.067-.84.188-.236.135-.368.323-.368.564 0 .336.25.618.766.86.472.215.943.43 1.415.658Zm8.251 3.116h-1.238V6.068c0-.753-.103-1.29-.309-1.626-.221-.362-.589-.55-1.12-.564-.678-.013-1.208.215-1.562.685-.339.443-.501 1.061-.501 1.854v2.847h-1.238V.198h1.238v3.788h.03c.471-.685 1.193-1.021 2.18-1.021 1.695 0 2.535.886 2.535 2.646v3.653h-.015Z" fill="#000"/></svg>