<svg width="115" height="11" viewBox="0 0 115 11" fill="none" xmlns="http://www.w3.org/2000/svg">
<path d="M5.36546 9.22647H0.164062V0.791575H1.49019V8.16543H5.36546V9.22647ZM12.6739 9.22647H11.4657V8.24601H11.4362C11.2594 8.59523 10.9647 8.86383 10.5521 9.06531C10.1395 9.26678 9.6975 9.37424 9.22599 9.37424C7.53148 9.37424 6.69159 8.48777 6.69159 6.72826V3.07492H7.92931V6.25815C7.92931 7.01031 8.03244 7.54755 8.23873 7.88334C8.45975 8.25942 8.82814 8.44749 9.35859 8.46092C10.0364 8.47435 10.5521 8.24599 10.9057 7.76246C11.2446 7.31923 11.4068 6.70139 11.4068 5.92237V3.07492H12.6445V9.22647H12.6739ZM19.2457 9.13249C18.8478 9.30709 18.3174 9.38764 17.6838 9.38764C16.6818 9.38764 15.8566 9.0653 15.1936 8.43403C14.56 7.81619 14.2358 7.06403 14.2358 6.16412C14.2358 5.22393 14.56 4.44493 15.1936 3.84052C15.8272 3.23611 16.6671 2.9406 17.6838 2.9406C18.2584 2.9406 18.7594 3.02118 19.2015 3.18236L19.0984 4.12257C18.6268 3.94796 18.1848 3.85393 17.7427 3.85393C17.0797 3.85393 16.5492 4.09569 16.1366 4.56579C15.7683 5.00902 15.5767 5.53285 15.5767 6.16412C15.5767 6.78197 15.7535 7.3058 16.1071 7.72217C16.5197 8.21913 17.0944 8.46092 17.8311 8.46092C18.3321 8.46092 18.7742 8.34002 19.172 8.11169L19.2457 9.13249ZM22.1632 1.69149H20.7634V0.415498H22.1632V1.69149ZM22.0895 9.22647H20.8371V3.06148H22.0895V9.22647ZM30.7978 6.15072C30.7978 7.05062 30.4736 7.80274 29.84 8.42058C29.1917 9.05186 28.3666 9.37424 27.3646 9.37424C26.3626 9.37424 25.5227 9.05186 24.8744 8.42058C24.2408 7.80274 23.9166 7.05062 23.9166 6.15072C23.9166 5.21052 24.2408 4.43149 24.8744 3.82708C25.508 3.22267 26.3479 2.92716 27.3646 2.92716C28.3813 2.92716 29.2064 3.22267 29.84 3.82708C30.4884 4.43149 30.7978 5.21052 30.7978 6.15072ZM28.9707 7.70872C29.3096 7.27892 29.4717 6.75513 29.4717 6.15072C29.4717 5.53288 29.2801 4.99562 28.9117 4.55238C28.5139 4.08229 27.9982 3.84052 27.3646 3.84052C26.7162 3.84052 26.2005 4.08229 25.8027 4.55238C25.4343 4.99562 25.2428 5.51945 25.2428 6.15072C25.2428 6.76856 25.4196 7.29235 25.7585 7.70872C26.1416 8.20568 26.6868 8.44747 27.3646 8.44747C28.0424 8.46091 28.5728 8.20568 28.9707 7.70872ZM38.4452 9.22647H37.2369V8.24601H37.2074C37.0306 8.59523 36.7359 8.86383 36.3233 9.06531C35.9108 9.26678 35.4687 9.37424 34.9972 9.37424C33.3027 9.37424 32.4628 8.48777 32.4628 6.72826V3.07492H33.7005V6.25815C33.7005 7.01031 33.8037 7.54755 34.01 7.88334C34.231 8.25942 34.5994 8.44749 35.1298 8.46092C35.8076 8.47435 36.3234 8.24599 36.677 7.76246C37.0159 7.31923 37.178 6.70139 37.178 5.92237V3.07492H38.4157V9.22647H38.4452ZM43.4698 6.11043C43.9707 6.44621 44.2213 6.88945 44.2213 7.45357C44.2213 8.07141 43.9855 8.55492 43.4993 8.90414C43.0572 9.21306 42.512 9.37424 41.8637 9.37424C41.0975 9.37424 40.4786 9.25336 40.0071 9.03846L40.066 8.01766C40.5523 8.31315 41.0827 8.46092 41.6132 8.46092C41.9521 8.46092 42.232 8.39373 42.4678 8.25941C42.7478 8.11167 42.8951 7.86993 42.8951 7.57444C42.8951 7.27895 42.6446 6.99686 42.1436 6.74166C41.6721 6.51333 41.2006 6.27158 40.7291 6.04325C40.2281 5.70746 39.9776 5.30454 39.9776 4.80758C39.9776 4.18974 40.2134 3.7196 40.6701 3.38382C41.0975 3.0749 41.6574 2.91375 42.3646 2.91375C42.8067 2.91375 43.3224 2.99433 43.9118 3.15551L43.8087 4.14942C43.6761 4.06883 43.455 4.00167 43.1603 3.93451C42.8804 3.86735 42.6593 3.84052 42.4973 3.84052C42.1584 3.84052 41.8784 3.90766 41.6574 4.02854C41.4216 4.16285 41.289 4.35091 41.289 4.59268C41.289 4.92846 41.5395 5.2105 42.0552 5.45226C42.5267 5.6806 42.9982 5.89553 43.4698 6.11043ZM47.2566 7.88334L46.1368 10.8383H44.9432L45.7831 7.88334H47.2566ZM56.8932 4.0151C56.7017 3.94794 56.4659 3.90766 56.2007 3.90766C55.6408 3.90766 55.1987 4.13601 54.8598 4.59268C54.5209 5.04934 54.3588 5.65375 54.3588 6.43277V9.23992H53.1211V3.07492H54.2851V4.02854H54.3146C54.4767 3.70619 54.7272 3.43757 55.0514 3.23609C55.3755 3.03462 55.7144 2.92716 56.0828 2.92716C56.3185 2.92716 56.5985 2.95402 56.9079 3.00774V4.0151H56.8932ZM59.7518 1.69149H58.352V0.415498H59.7518V1.69149ZM59.6781 9.22647H58.4256V3.06148H59.6781V9.22647ZM66.4119 9.13249C66.0141 9.30709 65.4836 9.38764 64.85 9.38764C63.8481 9.38764 63.0229 9.0653 62.3598 8.43403C61.7262 7.81619 61.4021 7.06403 61.4021 6.16412C61.4021 5.22393 61.7262 4.44493 62.3598 3.84052C62.9934 3.23611 63.8333 2.9406 64.85 2.9406C65.4247 2.9406 65.9257 3.02118 66.3677 3.18236L66.2646 4.12257C65.7931 3.94796 65.351 3.85393 64.909 3.85393C64.2459 3.85393 63.7155 4.09569 63.3029 4.56579C62.9345 5.00902 62.743 5.53285 62.743 6.16412C62.743 6.78197 62.9198 7.3058 63.2734 7.72217C63.686 8.21913 64.2607 8.46092 64.9974 8.46092C65.4984 8.46092 65.9404 8.34002 66.3383 8.11169L66.4119 9.13249ZM73.8236 9.22647H72.5858V6.0298C72.5858 5.27765 72.4827 4.7404 72.2764 4.40462C72.0554 4.04197 71.687 3.85395 71.1566 3.84052C70.4788 3.82709 69.9483 4.0554 69.5947 4.52549C69.2558 4.96873 69.0937 5.58658 69.0937 6.37903V9.22647H67.856V0.160299H69.0937V3.94796H69.1231C69.5947 3.26296 70.3167 2.92716 71.3039 2.92716C72.9984 2.92716 73.8383 3.81363 73.8383 5.57314V9.22647H73.8236ZM82.7087 0.0125732C82.9297 0.0125732 83.2097 0.0394327 83.5486 0.0931582L83.4896 1.00648C83.3423 0.952756 83.1507 0.939341 82.9002 0.939341C82.3992 0.939341 82.0603 1.08707 81.8835 1.38256C81.7509 1.58403 81.692 1.93326 81.692 2.40336V3.07492H83.4896V3.98825H81.692V9.23992H80.4542V3.98825H78.8629V3.07492H80.4542V2.49739C80.4542 1.67807 80.6016 1.07362 80.8963 0.697545C81.2352 0.240879 81.8393 0.0125732 82.7087 0.0125732ZM86.2008 9.22647H84.9483V0.160299H86.2008V9.22647ZM93.7451 8.01766C93.7451 8.58178 93.7598 8.98471 93.804 9.22647H92.6399V8.43403H92.6105C92.1242 9.0653 91.4169 9.37424 90.5181 9.37424C89.7519 9.37424 89.1625 9.2265 88.7352 8.91758C88.2784 8.5818 88.0427 8.09827 88.0427 7.45357C88.0427 6.75513 88.4111 6.21788 89.1331 5.85523C89.7077 5.55974 90.4003 5.41197 91.196 5.41197C91.7559 5.41197 92.1979 5.42543 92.5221 5.43886C92.5221 4.88817 92.4042 4.4852 92.1537 4.23C91.8885 3.96138 91.4612 3.82708 90.8423 3.82708C90.0761 3.82708 89.4278 4.04198 88.8826 4.45835L88.8236 3.49129C89.5309 3.10178 90.2824 2.91375 91.0486 2.91375C91.9916 2.91375 92.6989 3.12863 93.141 3.55843C93.5683 3.97481 93.7746 4.6061 93.7746 5.46571V8.01766H93.7451ZM92.0064 7.99081C92.3305 7.69532 92.4926 7.31922 92.4926 6.83569V6.29845C92.4042 6.29845 92.2716 6.29843 92.0948 6.285C91.9179 6.27157 91.7853 6.2716 91.6969 6.2716C90.135 6.2716 89.3393 6.66111 89.3393 7.45357C89.3393 7.76249 89.472 8.00424 89.7519 8.19227C90.0024 8.36688 90.2824 8.44747 90.6066 8.44747C91.2107 8.46091 91.6674 8.29973 92.0064 7.99081ZM101.275 3.07492L98.858 9.23992H97.3699L94.9533 3.07492H96.309L98.1361 8.09824H98.1655L100.037 3.07492H101.275ZM108.907 6.15072C108.907 7.05062 108.583 7.80274 107.949 8.42058C107.301 9.05186 106.476 9.37424 105.474 9.37424C104.472 9.37424 103.632 9.05186 102.984 8.42058C102.35 7.80274 102.026 7.05062 102.026 6.15072C102.026 5.21052 102.35 4.43149 102.984 3.82708C103.617 3.22267 104.457 2.92716 105.474 2.92716C106.491 2.92716 107.316 3.22267 107.949 3.82708C108.598 4.43149 108.907 5.21052 108.907 6.15072ZM107.08 7.70872C107.419 7.27892 107.581 6.75513 107.581 6.15072C107.581 5.53288 107.39 4.99562 107.021 4.55238C106.623 4.08229 106.108 3.84052 105.474 3.84052C104.826 3.84052 104.31 4.08229 103.912 4.55238C103.544 4.99562 103.352 5.51945 103.352 6.15072C103.352 6.76856 103.529 7.29235 103.868 7.70872C104.251 8.20568 104.796 8.44747 105.474 8.44747C106.152 8.46091 106.682 8.20568 107.08 7.70872ZM114.359 4.0151C114.168 3.94794 113.932 3.90766 113.667 3.90766C113.107 3.90766 112.665 4.13601 112.326 4.59268C111.987 5.04934 111.825 5.65375 111.825 6.43277V9.23992H110.587V3.07492H111.751V4.02854H111.781C111.943 3.70619 112.193 3.43757 112.517 3.23609C112.841 3.03462 113.18 2.92716 113.549 2.92716C113.784 2.92716 114.064 2.95402 114.374 3.00774V4.0151H114.359Z" fill="black"></path>
</svg>
