<svg width="240" height="13" viewBox="0 0 240 13" fill="none" xmlns="http://www.w3.org/2000/svg">
<path d="M4.98032 5.23719C5.67286 5.72072 6.01176 6.36542 6.01176 7.15787C6.01176 8.00405 5.67286 8.64876 5.00979 9.09199C4.4204 9.4815 3.62472 9.68297 2.62275 9.68297C2.1365 9.68297 1.51764 9.56208 0.721953 9.33375L0.854567 8.21896C1.59131 8.48759 2.22491 8.62188 2.78483 8.62188C3.22688 8.62188 3.62472 8.51446 3.97836 8.31299C4.39093 8.05779 4.61195 7.70857 4.61195 7.2519C4.61195 6.74151 4.27305 6.31171 3.58051 5.9625C2.94692 5.65358 2.29858 5.3581 1.66498 5.04918C0.972445 4.60594 0.633545 4.01494 0.633545 3.26278C0.633545 2.53749 0.913507 1.97338 1.48817 1.55701C2.03336 1.1675 2.72589 0.966026 3.59525 0.966026C4.28779 0.966026 4.95086 1.06005 5.56972 1.26152L5.37817 2.3763C4.72983 2.13454 4.15517 2.02712 3.63945 2.02712C2.56381 2.02712 2.01862 2.40319 2.01862 3.15535C2.01862 3.58515 2.35752 3.9612 3.05006 4.29698C4.25832 4.8611 4.89191 5.18347 4.98032 5.23719ZM17.5197 3.37025L15.3537 9.53525H13.9096L12.1562 4.36416H12.1267L10.4175 9.53525H8.97347L6.80745 3.37025H8.17779L9.72495 8.47416H9.75442L11.4784 3.37025H12.9519L14.6464 8.47416H14.6759L16.3262 3.37025H17.5197ZM20.2162 1.98678H18.8163V0.710827H20.2162V1.98678ZM20.1425 9.5218H18.89V3.35681H20.1425V9.5218ZM26.2132 4.31043C26.0217 4.24327 25.7859 4.20299 25.5207 4.20299C24.9608 4.20299 24.5187 4.4313 24.1798 4.88796C23.8409 5.34463 23.6788 5.94908 23.6788 6.7281V9.53525H22.4411V3.37025H23.6052V4.32387H23.6346C23.7967 4.00152 24.0472 3.73289 24.3714 3.53142C24.6956 3.32995 25.0345 3.22249 25.4028 3.22249C25.6386 3.22249 25.9185 3.24935 26.228 3.30307V4.31043H26.2132ZM28.9834 9.5218H27.7309V0.455628H28.9834V9.5218ZM32.7555 1.98678H31.3557V0.710827H32.7555V1.98678ZM32.6818 9.5218H31.4294V3.35681H32.6818V9.5218ZM40.9334 9.5218H39.6956V6.32513C39.6956 5.57297 39.5925 5.03573 39.3862 4.69995C39.1652 4.3373 38.7968 4.14924 38.2663 4.13581C37.5885 4.12238 37.0581 4.35073 36.7045 4.82082C36.3656 5.26406 36.2035 5.88191 36.2035 6.67436V9.5218H34.9657V3.35681H36.174V4.33727H36.2035C36.395 4.00149 36.6897 3.71945 37.0876 3.51798C37.5001 3.31651 37.9422 3.20904 38.4137 3.20904C40.1082 3.20904 40.9481 4.09552 40.9481 5.85502V9.5218H40.9334ZM49.0375 9.26661C49.0375 11.2276 47.8735 12.2215 45.5601 12.2215C44.8528 12.2215 44.0424 12.0738 43.1288 11.7917L43.2615 10.7441C44.1456 11.1201 44.956 11.2948 45.6927 11.2948C46.3558 11.2948 46.8568 11.1067 47.2399 10.7306C47.6082 10.3545 47.7998 9.83073 47.7998 9.18602V8.58159H47.7703C47.2399 9.21287 46.4884 9.53525 45.5012 9.53525C44.5729 9.53525 43.8509 9.22632 43.3204 8.60848C42.8342 8.05779 42.5984 7.34592 42.5984 6.49975C42.5984 5.62671 42.8489 4.88798 43.3499 4.27013C43.9098 3.5717 44.676 3.22249 45.6338 3.22249C46.7242 3.22249 47.4609 3.57171 47.8587 4.28358H47.8882V3.37025H49.0375V9.26661ZM47.2399 7.99061C47.6082 7.58767 47.7851 7.10417 47.7851 6.51319C47.7851 5.82819 47.623 5.27748 47.2988 4.84767C46.9452 4.37757 46.4442 4.13581 45.8106 4.13581C45.2212 4.13581 44.7497 4.391 44.396 4.88796C44.0866 5.3312 43.9245 5.84162 43.9245 6.4326C43.9245 7.03702 44.0866 7.54737 44.4255 7.95032C44.7792 8.38012 45.2359 8.59504 45.8106 8.59504C46.4 8.60847 46.8715 8.40698 47.2399 7.99061ZM57.7311 6.40572C58.2321 6.7415 58.4826 7.18474 58.4826 7.74885C58.4826 8.3667 58.2468 8.85025 57.7606 9.19946C57.3185 9.50839 56.7733 9.66953 56.125 9.66953C55.3588 9.66953 54.7399 9.54865 54.2684 9.33375L54.3273 8.31299C54.8136 8.60848 55.344 8.75621 55.8745 8.75621C56.2134 8.75621 56.4934 8.68906 56.7291 8.55474C57.0091 8.407 57.1564 8.16522 57.1564 7.86973C57.1564 7.57424 56.9059 7.29219 56.4049 7.03699C55.9334 6.80866 55.4619 6.56691 54.9904 6.33858C54.4894 6.00279 54.2389 5.59983 54.2389 5.10287C54.2389 4.48503 54.4747 4.01493 54.9315 3.67915C55.3588 3.37023 55.9187 3.20904 56.626 3.20904C57.068 3.20904 57.5837 3.28966 58.1731 3.45084L58.07 4.44475C57.9374 4.36416 57.7164 4.297 57.4217 4.22984C57.1417 4.16268 56.9207 4.13581 56.7586 4.13581C56.4197 4.13581 56.1397 4.20299 55.9187 4.32387C55.6829 4.45818 55.5503 4.6462 55.5503 4.88796C55.5503 5.22375 55.8008 5.50583 56.3165 5.74759C56.8028 5.97592 57.2743 6.19081 57.7311 6.40572ZM69.8284 3.37025L67.6624 9.53525H66.2184L64.4649 4.36416H64.4354L62.7262 9.53525H61.2822L59.1162 3.37025H60.4865L62.0337 8.47416H62.0631L63.7871 3.37025H65.2606L66.9551 8.47416H66.9846L68.6349 3.37025H69.8284ZM73.7773 3.22249C75.7665 3.22249 76.7538 4.37758 76.7538 6.70121H71.9355C71.9355 7.29219 72.1565 7.78916 72.6133 8.17867C73.0406 8.55475 73.5563 8.75621 74.1604 8.75621C74.5288 8.75621 74.9414 8.67564 75.3982 8.5279C75.7813 8.40701 76.0612 8.27269 76.2528 8.13837V9.28005C75.4424 9.54868 74.7351 9.68297 74.1162 9.68297C72.9522 9.68297 72.0681 9.37405 71.464 8.75621C70.8893 8.17866 70.6093 7.37279 70.6093 6.33858C70.6093 5.42524 70.904 4.67307 71.4787 4.09552C72.0534 3.50454 72.8196 3.22249 73.7773 3.22249ZM75.4276 5.85502C75.4276 5.3715 75.2803 4.96856 74.9856 4.64621C74.6762 4.31043 74.2636 4.14926 73.7479 4.14926C73.1879 4.14926 72.7459 4.3373 72.407 4.69995C72.1418 5.00887 71.9797 5.39836 71.9207 5.85502H75.4276ZM81.1448 3.22249C83.134 3.22249 84.1212 4.37758 84.1212 6.70121H79.3029C79.3029 7.29219 79.5239 7.78916 79.9807 8.17867C80.408 8.55475 80.9237 8.75621 81.5279 8.75621C81.8962 8.75621 82.3088 8.67564 82.7656 8.5279C83.1487 8.40701 83.4287 8.27269 83.6202 8.13837V9.28005C82.8098 9.54868 82.1025 9.68297 81.4837 9.68297C80.3196 9.68297 79.4355 9.37405 78.8314 8.75621C78.2567 8.17866 77.9768 7.37279 77.9768 6.33858C77.9768 5.42524 78.2715 4.67307 78.8461 4.09552C79.4355 3.50454 80.2017 3.22249 81.1448 3.22249ZM82.8098 5.85502C82.8098 5.3715 82.6625 4.96856 82.3678 4.64621C82.0583 4.31043 81.6457 4.14926 81.13 4.14926C80.5701 4.14926 80.1281 4.3373 79.7892 4.69995C79.5239 5.00887 79.3618 5.39836 79.3029 5.85502H82.8098ZM89.4994 9.50836C89.0721 9.61581 88.7185 9.68297 88.4385 9.68297C87.0534 9.68297 86.3609 9.07857 86.3609 7.88318V4.28358H84.8285V3.37025H86.3609V1.94649L87.5986 1.58386V3.38366H89.3963V4.29698H87.5986V7.66827C87.5986 8.00405 87.7018 8.28613 87.9081 8.4876C88.0996 8.67564 88.3501 8.76965 88.6448 8.76965C88.969 8.76965 89.2489 8.70249 89.4994 8.55474V9.50836ZM96.9405 9.5218H95.7028V6.32513C95.7028 5.57297 95.5996 5.03573 95.3934 4.69995C95.1723 4.3373 94.804 4.14924 94.2735 4.13581C93.5957 4.12238 93.0652 4.35073 92.7116 4.82082C92.3727 5.26406 92.2106 5.88191 92.2106 6.67436V9.5218H90.9729V3.35681H92.1812V4.33727H92.2106C92.4022 4.00149 92.6969 3.71945 93.0947 3.51798C93.5073 3.31651 93.9493 3.20904 94.4209 3.20904C96.1154 3.20904 96.9553 4.09552 96.9553 5.85502V9.5218H96.9405ZM101.788 3.22249C103.777 3.22249 104.765 4.37758 104.765 6.70121H99.9464C99.9464 7.29219 100.167 7.78916 100.624 8.17867C101.052 8.55475 101.567 8.75621 102.171 8.75621C102.54 8.75621 102.952 8.67564 103.409 8.5279C103.792 8.40701 104.072 8.27269 104.264 8.13837V9.28005C103.453 9.54868 102.746 9.68297 102.127 9.68297C100.963 9.68297 100.079 9.37405 99.4749 8.75621C98.9003 8.17866 98.6203 7.37279 98.6203 6.33858C98.6203 5.42524 98.915 4.67307 99.4896 4.09552C100.064 3.50454 100.831 3.22249 101.788 3.22249ZM103.439 5.85502C103.439 5.3715 103.291 4.96856 102.997 4.64621C102.687 4.31043 102.275 4.14926 101.759 4.14926C101.199 4.14926 100.757 4.3373 100.418 4.69995C100.153 5.00887 99.9906 5.39836 99.9317 5.85502H103.439ZM109.318 6.40572C109.819 6.7415 110.069 7.18474 110.069 7.74885C110.069 8.3667 109.834 8.85025 109.347 9.19946C108.905 9.50839 108.36 9.66953 107.712 9.66953C106.945 9.66953 106.327 9.54865 105.855 9.33375L105.914 8.31299C106.4 8.60848 106.931 8.75621 107.461 8.75621C107.8 8.75621 108.08 8.68906 108.316 8.55474C108.596 8.407 108.743 8.16522 108.743 7.86973C108.743 7.57424 108.493 7.29219 107.992 7.03699C107.52 6.80866 107.049 6.56691 106.577 6.33858C106.076 6.00279 105.826 5.59983 105.826 5.10287C105.826 4.48503 106.061 4.01493 106.518 3.67915C106.945 3.37023 107.505 3.20904 108.213 3.20904C108.655 3.20904 109.17 3.28966 109.76 3.45084L109.657 4.44475C109.524 4.36416 109.303 4.297 109.008 4.22984C108.728 4.16268 108.507 4.13581 108.345 4.13581C108.006 4.13581 107.726 4.20299 107.505 4.32387C107.27 4.45818 107.137 4.6462 107.137 4.88796C107.137 5.22375 107.388 5.50583 107.903 5.74759C108.389 5.97592 108.861 6.19081 109.318 6.40572ZM114.49 6.40572C114.991 6.7415 115.241 7.18474 115.241 7.74885C115.241 8.3667 115.005 8.85025 114.519 9.19946C114.077 9.50839 113.532 9.66953 112.884 9.66953C112.117 9.66953 111.499 9.54865 111.027 9.33375L111.086 8.31299C111.572 8.60848 112.103 8.75621 112.633 8.75621C112.972 8.75621 113.252 8.68906 113.488 8.55474C113.768 8.407 113.915 8.16522 113.915 7.86973C113.915 7.57424 113.665 7.29219 113.164 7.03699C112.692 6.80866 112.221 6.56691 111.749 6.33858C111.248 6.00279 110.998 5.59983 110.998 5.10287C110.998 4.48503 111.233 4.01493 111.69 3.67915C112.117 3.37023 112.677 3.20904 113.385 3.20904C113.827 3.20904 114.342 3.28966 114.932 3.45084L114.829 4.44475C114.696 4.36416 114.475 4.297 114.18 4.22984C113.9 4.16268 113.679 4.13581 113.517 4.13581C113.178 4.13581 112.898 4.20299 112.677 4.32387C112.442 4.45818 112.309 4.6462 112.309 4.88796C112.309 5.22375 112.559 5.50583 113.075 5.74759C113.547 5.97592 114.018 6.19081 114.49 6.40572ZM118.277 8.17867L117.157 11.1336H115.963L116.803 8.17867H118.277ZM128.576 9.42777C128.178 9.60238 127.648 9.68297 127.014 9.68297C126.012 9.68297 125.187 9.36063 124.524 8.72936C123.891 8.11152 123.566 7.35935 123.566 6.45945C123.566 5.51926 123.891 4.74022 124.524 4.13581C125.158 3.5314 125.998 3.23593 127.014 3.23593C127.589 3.23593 128.09 3.31651 128.532 3.47769L128.429 4.4179C127.957 4.24329 127.515 4.14926 127.073 4.14926C126.41 4.14926 125.88 4.39102 125.467 4.86112C125.099 5.30435 124.907 5.82818 124.907 6.45945C124.907 7.0773 125.084 7.60112 125.438 8.0175C125.85 8.51446 126.425 8.75621 127.162 8.75621C127.663 8.75621 128.105 8.63535 128.503 8.40702L128.576 9.42777ZM136.445 6.44601C136.445 7.34591 136.12 8.09807 135.487 8.71591C134.839 9.34719 134.013 9.66953 133.011 9.66953C132.009 9.66953 131.17 9.34719 130.521 8.71591C129.888 8.09807 129.563 7.34591 129.563 6.44601C129.563 5.50581 129.888 4.72682 130.521 4.12241C131.155 3.518 131.995 3.22249 133.011 3.22249C134.028 3.22249 134.853 3.518 135.487 4.12241C136.135 4.72682 136.445 5.50581 136.445 6.44601ZM134.618 8.00405C134.956 7.57425 135.118 7.05042 135.118 6.44601C135.118 5.82817 134.927 5.29091 134.559 4.84767C134.161 4.37757 133.645 4.13581 133.011 4.13581C132.363 4.13581 131.847 4.37757 131.45 4.84767C131.081 5.29091 130.89 5.81473 130.89 6.44601C130.89 7.06385 131.066 7.58768 131.405 8.00405C131.788 8.50101 132.334 8.7428 133.011 8.7428C133.689 8.75623 134.22 8.50101 134.618 8.00405ZM141.808 9.50836C141.381 9.61581 141.027 9.68297 140.747 9.68297C139.362 9.68297 138.67 9.07857 138.67 7.88318V4.28358H137.137V3.37025H138.67V1.94649L139.907 1.58386V3.38366H141.705V4.29698H139.907V7.66827C139.907 8.00405 140.01 8.28613 140.217 8.4876C140.408 8.67564 140.659 8.76965 140.954 8.76965C141.278 8.76965 141.558 8.70249 141.808 8.55474V9.50836ZM146.98 9.50836C146.553 9.61581 146.199 9.68297 145.919 9.68297C144.534 9.68297 143.842 9.07857 143.842 7.88318V4.28358H142.309V3.37025H143.842V1.94649L145.079 1.58386V3.38366H146.877V4.29698H145.079V7.66827C145.079 8.00405 145.182 8.28613 145.389 8.4876C145.58 8.67564 145.831 8.76965 146.125 8.76965C146.45 8.76965 146.73 8.70249 146.98 8.55474V9.50836ZM154.863 6.44601C154.863 7.34591 154.539 8.09807 153.905 8.71591C153.257 9.34719 152.432 9.66953 151.43 9.66953C150.428 9.66953 149.588 9.34719 148.94 8.71591C148.306 8.09807 147.982 7.34591 147.982 6.44601C147.982 5.50581 148.306 4.72682 148.94 4.12241C149.573 3.518 150.413 3.22249 151.43 3.22249C152.447 3.22249 153.272 3.518 153.905 4.12241C154.554 4.72682 154.863 5.50581 154.863 6.44601ZM153.036 8.00405C153.375 7.57425 153.537 7.05042 153.537 6.44601C153.537 5.82817 153.346 5.29091 152.977 4.84767C152.579 4.37757 152.064 4.13581 151.43 4.13581C150.782 4.13581 150.266 4.37757 149.868 4.84767C149.5 5.29091 149.308 5.81473 149.308 6.44601C149.308 7.06385 149.485 7.58768 149.824 8.00405C150.207 8.50101 150.752 8.7428 151.43 8.7428C152.108 8.75623 152.638 8.50101 153.036 8.00405ZM162.511 9.5218H161.273V6.32513C161.273 5.57297 161.17 5.03573 160.963 4.69995C160.742 4.3373 160.374 4.14924 159.844 4.13581C159.166 4.12238 158.635 4.35073 158.282 4.82082C157.943 5.26406 157.781 5.88191 157.781 6.67436V9.5218H156.543V3.35681H157.751V4.33727H157.781C157.972 4.00149 158.267 3.71945 158.665 3.51798C159.077 3.31651 159.519 3.20904 159.991 3.20904C161.685 3.20904 162.525 4.09552 162.525 5.85502V9.5218H162.511ZM172.781 9.42777C172.383 9.60238 171.852 9.68297 171.219 9.68297C170.217 9.68297 169.392 9.36063 168.729 8.72936C168.095 8.11152 167.771 7.35935 167.771 6.45945C167.771 5.51926 168.095 4.74022 168.729 4.13581C169.362 3.5314 170.202 3.23593 171.219 3.23593C171.794 3.23593 172.295 3.31651 172.737 3.47769L172.633 4.4179C172.162 4.24329 171.72 4.14926 171.278 4.14926C170.615 4.14926 170.084 4.39102 169.672 4.86112C169.303 5.30435 169.112 5.82818 169.112 6.45945C169.112 7.0773 169.289 7.60112 169.642 8.0175C170.055 8.51446 170.63 8.75621 171.366 8.75621C171.867 8.75621 172.309 8.63535 172.707 8.40702L172.781 9.42777ZM179.485 8.31299C179.485 8.87711 179.5 9.28004 179.544 9.5218H178.38V8.72936H178.351C177.864 9.36063 177.157 9.66953 176.258 9.66953C175.492 9.66953 174.903 9.52179 174.475 9.21287C174.019 8.87708 173.783 8.39356 173.783 7.74885C173.783 7.05042 174.151 6.51316 174.873 6.15052C175.448 5.85503 176.14 5.7073 176.936 5.7073C177.496 5.7073 177.938 5.72072 178.262 5.73415C178.262 5.18346 178.144 4.78053 177.894 4.52533C177.629 4.2567 177.201 4.12241 176.582 4.12241C175.816 4.12241 175.168 4.33731 174.623 4.75368L174.564 3.78662C175.271 3.39711 176.022 3.20904 176.789 3.20904C177.732 3.20904 178.439 3.42396 178.881 3.85376C179.308 4.27014 179.515 4.90143 179.515 5.76104V8.31299H179.485ZM177.746 8.2861C178.071 7.99061 178.233 7.61455 178.233 7.13102V6.59377C178.144 6.59377 178.012 6.59376 177.835 6.58033C177.658 6.5669 177.525 6.56689 177.437 6.56689C175.875 6.56689 175.079 6.9564 175.079 7.74885C175.079 8.05778 175.212 8.29956 175.492 8.4876C175.742 8.66221 176.022 8.7428 176.347 8.7428C176.951 8.75623 177.408 8.59502 177.746 8.2861ZM187.56 9.5218H186.322V6.32513C186.322 5.57297 186.219 5.03573 186.013 4.69995C185.792 4.3373 185.423 4.14924 184.893 4.13581C184.215 4.12238 183.685 4.35073 183.331 4.82082C182.992 5.26406 182.83 5.88191 182.83 6.67436V9.5218H181.592V3.35681H182.8V4.33727H182.83C183.021 4.00149 183.316 3.71945 183.714 3.51798C184.127 3.31651 184.569 3.20904 185.04 3.20904C186.735 3.20904 187.575 4.09552 187.575 5.85502V9.5218H187.56ZM195.664 9.5218H194.47V8.64877H194.441C193.955 9.32034 193.189 9.66953 192.142 9.66953C191.185 9.66953 190.448 9.32033 189.917 8.63533C189.461 8.03092 189.225 7.26534 189.225 6.33858C189.225 5.45211 189.461 4.72682 189.947 4.1627C190.477 3.53143 191.199 3.22249 192.142 3.22249C193.189 3.22249 193.94 3.55826 194.382 4.2164H194.412V0.469072H195.649V9.5218H195.664ZM193.955 7.99061C194.264 7.5608 194.426 7.05043 194.426 6.45945C194.426 5.82818 194.264 5.30435 193.94 4.86112C193.572 4.37759 193.071 4.13581 192.437 4.13581C191.803 4.13581 191.332 4.37759 190.993 4.86112C190.713 5.26406 190.566 5.78789 190.566 6.41916C190.566 6.99671 190.713 7.50708 190.993 7.95032C191.332 8.48757 191.818 8.75621 192.437 8.75621C193.085 8.75621 193.586 8.501 193.955 7.99061ZM203.149 3.37025L200.659 9.66953C200.32 10.5157 200.04 11.0798 199.805 11.3887C199.362 11.9394 198.788 12.2215 198.066 12.2215C197.845 12.2215 197.565 12.1947 197.211 12.1275L197.285 11.2007C197.491 11.2679 197.697 11.2948 197.874 11.2948C198.346 11.2948 198.729 11.053 199.038 10.5829C199.259 10.2471 199.362 9.96504 199.362 9.777C199.362 9.73671 199.289 9.52182 199.127 9.11888L196.828 3.37025H198.198L200.011 8.47416H200.04L201.897 3.37025H203.149ZM211.18 0.307861C211.401 0.307861 211.681 0.334762 212.02 0.388487L211.961 1.30181C211.813 1.24809 211.622 1.23463 211.371 1.23463C210.87 1.23463 210.531 1.3824 210.355 1.67789C210.222 1.87936 210.163 2.22859 210.163 2.69868V3.37025H211.961V4.28358H210.163V9.53525H208.925V4.28358H207.334V3.37025H208.925V2.79267C208.925 1.97336 209.073 1.36895 209.367 0.992874C209.721 0.536208 210.325 0.307861 211.18 0.307861ZM214.76 1.98678H213.361V0.710827H214.76V1.98678ZM214.672 9.5218H213.419V3.35681H214.672V9.5218ZM222.938 9.5218H221.7V6.32513C221.7 5.57297 221.597 5.03573 221.391 4.69995C221.17 4.3373 220.802 4.14924 220.271 4.13581C219.593 4.12238 219.063 4.35073 218.709 4.82082C218.37 5.26406 218.208 5.88191 218.208 6.67436V9.5218H216.971V3.35681H218.179V4.33727H218.208C218.4 4.00149 218.695 3.71945 219.092 3.51798C219.505 3.31651 219.947 3.20904 220.419 3.20904C222.113 3.20904 222.953 4.09552 222.953 5.85502V9.5218H222.938ZM226.548 1.98678H225.148V0.710827H226.548V1.98678ZM226.46 9.5218H225.207V3.35681H226.46V9.5218ZM231.632 6.40572C232.133 6.7415 232.383 7.18474 232.383 7.74885C232.383 8.3667 232.148 8.85025 231.661 9.19946C231.219 9.50839 230.674 9.66953 230.026 9.66953C229.259 9.66953 228.641 9.54865 228.169 9.33375L228.228 8.31299C228.714 8.60848 229.245 8.75621 229.775 8.75621C230.114 8.75621 230.394 8.68906 230.63 8.55474C230.91 8.407 231.057 8.16522 231.057 7.86973C231.057 7.57424 230.807 7.29219 230.306 7.03699C229.834 6.80866 229.363 6.56691 228.891 6.33858C228.39 6.00279 228.14 5.59983 228.14 5.10287C228.14 4.48503 228.375 4.01493 228.832 3.67915C229.259 3.37023 229.819 3.20904 230.527 3.20904C230.969 3.20904 231.484 3.28966 232.074 3.45084L231.971 4.44475C231.838 4.36416 231.617 4.297 231.322 4.22984C231.042 4.16268 230.821 4.13581 230.659 4.13581C230.32 4.13581 230.04 4.20299 229.819 4.32387C229.584 4.45818 229.451 4.6462 229.451 4.88796C229.451 5.22375 229.701 5.50583 230.217 5.74759C230.689 5.97592 231.16 6.19081 231.632 6.40572ZM239.883 9.5218H238.646V6.32513C238.646 5.57297 238.542 5.03573 238.336 4.69995C238.115 4.3373 237.747 4.14924 237.216 4.13581C236.538 4.12238 236.008 4.35073 235.654 4.82082C235.315 5.26406 235.153 5.88191 235.153 6.67436V9.5218H233.916V0.455628H235.153V4.24328H235.183C235.654 3.55828 236.376 3.22249 237.364 3.22249C239.058 3.22249 239.898 4.10896 239.898 5.86847V9.5218H239.883Z" fill="black"></path>
</svg>
